999
dxfrw 0.6.3
  0
SECTION
  2
HEADER
  9
$ACADVER
  1
AC1021
  9
$DWGCODEPAGE
  3
ANSI_1252
  9
$INSBASE
 10
0
 20
0
 30
0
  9
$EXTMIN
 10
-9.600000000000001
 20
-5.551115123125783e-17
 30
0
  9
$EXTMAX
 10
13.81111113682548
 20
12
 30
0
  9
$LIMMIN
 10
0
 20
0
  9
$LIMMAX
 10
420
 20
297
  9
$ORTHOMODE
 70
    0
  9
$REGENMODE
 70
    1
  9
$FILLMODE
 70
    1
  9
$QTEXTMODE
 70
    0
  9
$MIRRTEXT
 70
    0
  9
$LTSCALE
 40
1
  9
$ATTMODE
 70
    0
  9
$TEXTSIZE
 40
2.5
  9
$TRACEWID
 40
15.68
  9
$TEXTSTYLE
  7
STANDARD
  9
$CLAYER
  8
Optional_Screw
  9
$CELTYPE
  6
BYLAYER
  9
$CECOLOR
 62
  256
  9
$CELTSCALE
 40
1
  9
$DISPSILH
 70
    0
  9
$DIMSCALE
 40
2.5
  9
$DIMASZ
 40
2.5
  9
$DIMEXO
 40
0.625
  9
$DIMDLI
 40
3.75
  9
$DIMRND
 40
0
  9
$DIMDLE
 40
0
  9
$DIMEXE
 40
1.25
  9
$DIMTP
 40
0
  9
$DIMTM
 40
0
  9
$DIMTXT
 40
2.5
  9
$DIMCEN
 40
2.5
  9
$DIMTSZ
 40
0
  9
$DIMTOL
 70
    0
  9
$DIMLIM
 70
    0
  9
$DIMTIH
 70
    0
  9
$DIMTOH
 70
    0
  9
$DIMSE1
 70
    0
  9
$DIMSE2
 70
    0
  9
$DIMTAD
 70
    1
  9
$DIMZIN
 70
    1
  9
$DIMBLK
  1

  9
$DIMASO
 70
    1
  9
$DIMSHO
 70
    1
  9
$DIMPOST
  1

  9
$DIMAPOST
  1

  9
$DIMALT
 70
    0
  9
$DIMALTD
 70
    3
  9
$DIMALTF
 40
0.03937
  9
$DIMLFAC
 40
1
  9
$DIMTOFL
 70
    1
  9
$DIMTVP
 40
0
  9
$DIMTIX
 70
    0
  9
$DIMSOXD
 70
    0
  9
$DIMSAH
 70
    0
  9
$DIMBLK1
  1

  9
$DIMBLK2
  1

  9
$DIMSTYLE
  2
STANDARD
  9
$DIMCLRD
 70
    0
  9
$DIMCLRE
 70
    0
  9
$DIMCLRT
 70
    0
  9
$DIMTFAC
 40
1
  9
$DIMGAP
 40
0.625
  9
$DIMJUST
 70
    0
  9
$DIMSD1
 70
    0
  9
$DIMSD2
 70
    0
  9
$DIMTOLJ
 70
    0
  9
$DIMTZIN
 70
    8
  9
$DIMALTZ
 70
    0
  9
$DIMALTTZ
 70
    0
  9
$DIMUPT
 70
    0
  9
$DIMDEC
 70
    4
  9
$DIMTDEC
 70
    2
  9
$DIMALTU
 70
    2
  9
$DIMALTTD
 70
    3
  9
$DIMTXSTY
  7
standard
  9
$DIMAUNIT
 70
    0
  9
$DIMADEC
 70
    2
  9
$DIMALTRND
 40
0
  9
$DIMAZIN
 70
    0
  9
$DIMDSEP
 70
   44
  9
$DIMATFIT
 70
    3
  9
$DIMFRAC
 70
    0
  9
$DIMLDRBLK
  1
STANDARD
  9
$DIMLUNIT
 70
    2
  9
$DIMLWD
 70
   -2
  9
$DIMLWE
 70
   -2
  9
$DIMTMOVE
 70
    0
  9
$DIMFXL
 40
1
  9
$DIMFXLON
 70
    0
  9
$DIMJOGANG
 40
0.7854
  9
$DIMTFILL
 70
    0
  9
$DIMTFILLCLR
 70
    0
  9
$DIMARCSYM
 70
    0
  9
$DIMLTYPE
  6

  9
$DIMLTEX1
  6

  9
$DIMLTEX2
  6

  9
$LUNITS
 70
    2
  9
$LUPREC
 70
    4
  9
$SKETCHINC
 40
1
  9
$FILLETRAD
 40
0
  9
$AUNITS
 70
    0
  9
$AUPREC
 70
    2
  9
$MENU
  1
.
  9
$ELEVATION
 40
0
  9
$PELEVATION
 40
0
  9
$THICKNESS
 40
0
  9
$LIMCHECK
 70
    0
  9
$CHAMFERA
 40
0
  9
$CHAMFERB
 40
0
  9
$CHAMFERC
 40
0
  9
$CHAMFERD
 40
0
  9
$SKPOLY
 70
    0
  9
$USRTIMER
 70
    1
  9
$ANGBASE
 50
0
  9
$ANGDIR
 70
    0
  9
$PDMODE
 70
   34
  9
$PDSIZE
 40
0
  9
$PLINEWID
 40
0
  9
$SPLFRAME
 70
    0
  9
$SPLINETYPE
 70
    2
  9
$SPLINESEGS
 70
    8
  9
$HANDSEED
  5
20000
  9
$SURFTAB1
 70
    6
  9
$SURFTAB2
 70
    6
  9
$SURFTYPE
 70
    6
  9
$SURFU
 70
    6
  9
$SURFV
 70
    6
  9
$UCSBASE
  2

  9
$UCSNAME
  2

  9
$UCSORG
 10
0
 20
0
 30
0
  9
$UCSXDIR
 10
1
 20
0
 30
0
  9
$UCSYDIR
 10
0
 20
1
 30
0
  9
$UCSORTHOREF
  2

  9
$UCSORTHOVIEW
 70
    0
  9
$UCSORGTOP
 10
0
 20
0
 30
0
  9
$UCSORGBOTTOM
 10
0
 20
0
 30
0
  9
$UCSORGLEFT
 10
0
 20
0
 30
0
  9
$UCSORGRIGHT
 10
0
 20
0
 30
0
  9
$UCSORGFRONT
 10
0
 20
0
 30
0
  9
$UCSORGBACK
 10
0
 20
0
 30
0
  9
$PUCSBASE
  2

  9
$PUCSNAME
  2

  9
$PUCSORG
 10
0
 20
0
 30
0
  9
$PUCSXDIR
 10
1
 20
0
 30
0
  9
$PUCSYDIR
 10
0
 20
1
 30
0
  9
$PUCSORTHOREF
  2

  9
$PUCSORTHOVIEW
 70
    0
  9
$PUCSORGTOP
 10
0
 20
0
 30
0
  9
$PUCSORGBOTTOM
 10
0
 20
0
 30
0
  9
$PUCSORGLEFT
 10
0
 20
0
 30
0
  9
$PUCSORGRIGHT
 10
0
 20
0
 30
0
  9
$PUCSORGFRONT
 10
0
 20
0
 30
0
  9
$PUCSORGBACK
 10
0
 20
0
 30
0
  9
$USERI1
 70
    0
  9
$USERI2
 70
    0
  9
$USERI3
 70
    0
  9
$USERI4
 70
    0
  9
$USERI5
 70
    0
  9
$USERR1
 40
0
  9
$USERR2
 40
0
  9
$USERR3
 40
0
  9
$USERR4
 40
0
  9
$USERR5
 40
0
  9
$WORLDVIEW
 70
    1
  9
$SHADEDGE
 70
    3
  9
$SHADEDIF
 70
   70
  9
$TILEMODE
 70
    1
  9
$MAXACTVP
 70
   64
  9
$PINSBASE
 10
0
 20
0
 30
0
  9
$PLIMCHECK
 70
    0
  9
$PEXTMIN
 10
0
 20
0
 30
0
  9
$PEXTMAX
 10
0
 20
0
 30
0
  9
$GRIDMODE
 70
    1
  9
$SNAPSTYLE
 70
    1
  9
$GRIDUNIT
 10
0
 20
0
  9
$PLIMMIN
 10
0
 20
0
  9
$PLIMMAX
 10
210
 20
297
  9
$UNITMODE
 70
    0
  9
$VISRETAIN
 70
    1
  9
$PLINEGEN
 70
    0
  9
$PSLTSCALE
 70
    1
  9
$TREEDEPTH
 70
 3020
  9
$CMLSTYLE
  2
Standard
  9
$CMLJUST
 70
    0
  9
$CMLSCALE
 40
20
  9
$PROXYGRAPHICS
 70
    1
  9
$MEASUREMENT
 70
    1
  9
$CELWEIGHT
370
   -1
  9
$ENDCAPS
280
    0
  9
$JOINSTYLE
280
    0
  9
$LWDISPLAY
290
    0
  9
$INSUNITS
 70
    4
  9
$HYPERLINKBASE
  1

  9
$STYLESHEET
  1

  9
$XEDIT
290
    1
  9
$CEPSNTYPE
380
    0
  9
$PSTYLEMODE
290
    1
  9
$EXTNAMES
290
    1
  9
$PSVPSCALE
 40
0.7586965593111036
  9
$OLESTARTUP
290
    0
  9
$SORTENTS
280
  127
  9
$INDEXCTL
280
    0
  9
$HIDETEXT
280
    1
  9
$XCLIPFRAME
290
    0
  9
$HALOGAP
280
    0
  9
$OBSCOLOR
 70
  257
  9
$OBSLTYPE
280
    0
  9
$INTERSECTIONDISPLAY
280
    0
  9
$INTERSECTIONCOLOR
 70
  257
  9
$DIMASSOC
280
    1
  9
$PROJECTNAME
  1

  9
$CAMERADISPLAY
290
    0
  9
$LENSLENGTH
 40
50
  9
$CAMERAHEIGHT
 40
0
  9
$STEPSPERSEC
 40
2
  9
$STEPSIZE
 40
50
  9
$3DDWFPREC
 40
2
  9
$PSOLWIDTH
 40
5
  9
$PSOLHEIGHT
 40
80
  9
$LOFTANG1
 40
1.570796326794897
  9
$LOFTANG2
 40
1.570796326794897
  9
$LOFTMAG1
 40
0
  9
$LOFTMAG2
 40
0
  9
$LOFTPARAM
 70
    7
  9
$LOFTNORMALS
280
    1
  9
$LATITUDE
 40
1
  9
$LONGITUDE
 40
1
  9
$NORTHDIRECTION
 40
0
  9
$TIMEZONE
 70
-8000
  9
$LIGHTGLYPHDISPLAY
280
    1
  9
$TILEMODELIGHTSYNCH
280
    1
  9
$SOLIDHIST
280
    1
  9
$SHOWHIST
280
    1
  9
$DWFFRAME
280
    2
  9
$DGNFRAME
280
    0
  9
$REALWORLDSCALE
290
    1
  9
$INTERFERECOLOR
 62
    1
  9
$CSHADOW
280
    0
  9
$SHADOWPLANELOCATION
 40
0
  0
ENDSEC
  0
SECTION
  2
CLASSES
  0
ENDSEC
  0
SECTION
  2
TABLES
  0
TABLE
  2
VPORT
  5
8
330
0
100
AcDbSymbolTable
 70
    1
  0
VPORT
  5
31
330
2
100
AcDbSymbolTableRecord
100
AcDbViewportTableRecord
  2
*ACTIVE
 70
    0
 10
0
 20
0
 11
1
 21
1
 12
2.876908896832043
 22
4.606317269596863
 13
0
 23
0
 14
10
 24
10
 15
10
 25
10
 16
0
 26
0
 36
1
 17
0
 27
0
 37
0
 40
4.459480709645133
 41
2.417073170731707
 42
50
 43
0
 44
0
 50
0
 51
0
 71
    0
 72
  100
 73
    1
 74
    3
 75
    0
 76
    1
 77
    1
 78
    0
281
    0
 65
    1
110
0
120
0
130
0
111
1
121
0
131
0
112
0
122
1
132
0
 79
    0
146
0
348
10020
 60
    7
 61
    5
292
1
282
    1
141
0
142
0
 63
  250
421
3358443
  0
ENDTAB
  0
TABLE
  2
LTYPE
  5
5
330
0
100
AcDbSymbolTable
 70
    4
  0
LTYPE
  5
14
330
5
100
AcDbSymbolTableRecord
100
AcDbLinetypeTableRecord
  2
ByBlock
 70
    0
  3

 72
   65
 73
    0
 40
0
  0
LTYPE
  5
15
330
5
100
AcDbSymbolTableRecord
100
AcDbLinetypeTableRecord
  2
ByLayer
 70
    0
  3

 72
   65
 73
    0
 40
0
  0
LTYPE
  5
16
330
5
100
AcDbSymbolTableRecord
100
AcDbLinetypeTableRecord
  2
Continuous
 70
    0
  3
Solid line
 72
   65
 73
    0
 40
0
  0
LTYPE
  5
32
330
5
100
AcDbSymbolTableRecord
100
AcDbLinetypeTableRecord
  2
DOT
 70
    0
  3
Dot . . . . . . . . . . . . . . . . . . . . . .
 72
   65
 73
    2
 40
6.35
 49
0
 74
    0
 49
-6.35
 74
    0
  0
LTYPE
  5
33
330
5
100
AcDbSymbolTableRecord
100
AcDbLinetypeTableRecord
  2
DOTTINY
 70
    0
  3
Dot (.15x) .....................................
 72
   65
 73
    2
 40
0.9525
 49
0
 74
    0
 49
-0.9525
 74
    0
  0
LTYPE
  5
34
330
5
100
AcDbSymbolTableRecord
100
AcDbLinetypeTableRecord
  2
DOT2
 70
    0
  3
Dot (.5x) .....................................
 72
   65
 73
    2
 40
3.175
 49
0
 74
    0
 49
-3.175
 74
    0
  0
LTYPE
  5
35
330
5
100
AcDbSymbolTableRecord
100
AcDbLinetypeTableRecord
  2
DOTX2
 70
    0
  3
Dot (2x) .  .  .  .  .  .  .  .  .  .  .  .  .
 72
   65
 73
    2
 40
12.7
 49
0
 74
    0
 49
-12.7
 74
    0
  0
LTYPE
  5
36
330
5
100
AcDbSymbolTableRecord
100
AcDbLinetypeTableRecord
  2
DASHED
 70
    0
  3
Dashed _ _ _ _ _ _ _ _ _ _ _ _ _ _ _ _ _
 72
   65
 73
    2
 40
19.05
 49
12.7
 74
    0
 49
-6.35
 74
    0
  0
LTYPE
  5
37
330
5
100
AcDbSymbolTableRecord
100
AcDbLinetypeTableRecord
  2
DASHEDTINY
 70
    0
  3
Dashed (.15x) _ _ _ _ _ _ _ _ _ _ _ _ _ _ _ _ _
 72
   65
 73
    2
 40
2.8575
 49
1.905
 74
    0
 49
-0.9525
 74
    0
  0
LTYPE
  5
38
330
5
100
AcDbSymbolTableRecord
100
AcDbLinetypeTableRecord
  2
DASHED2
 70
    0
  3
Dashed (.5x) _ _ _ _ _ _ _ _ _ _ _ _ _ _ _ _ _
 72
   65
 73
    2
 40
9.524999999999999
 49
6.35
 74
    0
 49
-3.175
 74
    0
  0
LTYPE
  5
39
330
5
100
AcDbSymbolTableRecord
100
AcDbLinetypeTableRecord
  2
DASHEDX2
 70
    0
  3
Dashed (2x) ____  ____  ____  ____  ____  ___
 72
   65
 73
    2
 40
38.09999999999999
 49
25.4
 74
    0
 49
-12.7
 74
    0
  0
LTYPE
  5
3A
330
5
100
AcDbSymbolTableRecord
100
AcDbLinetypeTableRecord
  2
DASHDOT
 70
    0
  3
Dash dot __ . __ . __ . __ . __ . __ . __ . __
 72
   65
 73
    4
 40
25.4
 49
12.7
 74
    0
 49
-6.35
 74
    0
 49
0
 74
    0
 49
-6.35
 74
    0
  0
LTYPE
  5
3B
330
5
100
AcDbSymbolTableRecord
100
AcDbLinetypeTableRecord
  2
DASHDOTTINY
 70
    0
  3
Dash dot (.15x) _._._._._._._._._._._._._._._.
 72
   65
 73
    4
 40
3.81
 49
1.905
 74
    0
 49
-0.9525
 74
    0
 49
0
 74
    0
 49
-0.9525
 74
    0
  0
LTYPE
  5
3C
330
5
100
AcDbSymbolTableRecord
100
AcDbLinetypeTableRecord
  2
DASHDOT2
 70
    0
  3
Dash dot (.5x) _._._._._._._._._._._._._._._.
 72
   65
 73
    4
 40
12.7
 49
6.35
 74
    0
 49
-3.175
 74
    0
 49
0
 74
    0
 49
-3.175
 74
    0
  0
LTYPE
  5
3D
330
5
100
AcDbSymbolTableRecord
100
AcDbLinetypeTableRecord
  2
DASHDOTX2
 70
    0
  3
Dash dot (2x) ____  .  ____  .  ____  .  ___
 72
   65
 73
    4
 40
50.8
 49
25.4
 74
    0
 49
-12.7
 74
    0
 49
0
 74
    0
 49
-12.7
 74
    0
  0
LTYPE
  5
3E
330
5
100
AcDbSymbolTableRecord
100
AcDbLinetypeTableRecord
  2
DIVIDE
 70
    0
  3
Divide ____ . . ____ . . ____ . . ____ . . ____
 72
   65
 73
    6
 40
31.75
 49
12.7
 74
    0
 49
-6.35
 74
    0
 49
0
 74
    0
 49
-6.35
 74
    0
 49
0
 74
    0
 49
-6.35
 74
    0
  0
LTYPE
  5
3F
330
5
100
AcDbSymbolTableRecord
100
AcDbLinetypeTableRecord
  2
DIVIDETINY
 70
    0
  3
Divide (.15x) __..__..__..__..__..__..__..__.._
 72
   65
 73
    6
 40
4.7625
 49
1.905
 74
    0
 49
-0.9525
 74
    0
 49
0
 74
    0
 49
-0.9525
 74
    0
 49
0
 74
    0
 49
-0.9525
 74
    0
  0
LTYPE
  5
40
330
5
100
AcDbSymbolTableRecord
100
AcDbLinetypeTableRecord
  2
DIVIDE2
 70
    0
  3
Divide (.5x) __..__..__..__..__..__..__..__.._
 72
   65
 73
    6
 40
15.875
 49
6.35
 74
    0
 49
-3.175
 74
    0
 49
0
 74
    0
 49
-3.175
 74
    0
 49
0
 74
    0
 49
-3.175
 74
    0
  0
LTYPE
  5
41
330
5
100
AcDbSymbolTableRecord
100
AcDbLinetypeTableRecord
  2
DIVIDEX2
 70
    0
  3
Divide (2x) ________  .  .  ________  .  .  _
 72
   65
 73
    6
 40
63.5
 49
25.4
 74
    0
 49
-12.7
 74
    0
 49
0
 74
    0
 49
-12.7
 74
    0
 49
0
 74
    0
 49
-12.7
 74
    0
  0
LTYPE
  5
42
330
5
100
AcDbSymbolTableRecord
100
AcDbLinetypeTableRecord
  2
BORDER
 70
    0
  3
Border __ __ . __ __ . __ __ . __ __ . __ __ .
 72
   65
 73
    6
 40
44.45
 49
12.7
 74
    0
 49
-6.35
 74
    0
 49
12.7
 74
    0
 49
-6.35
 74
    0
 49
0
 74
    0
 49
-6.35
 74
    0
  0
LTYPE
  5
43
330
5
100
AcDbSymbolTableRecord
100
AcDbLinetypeTableRecord
  2
BORDERTINY
 70
    0
  3
Border (.15x) __.__.__.__.__.__.__.__.__.__.__.
 72
   65
 73
    6
 40
6.6675
 49
1.905
 74
    0
 49
-0.9525
 74
    0
 49
1.905
 74
    0
 49
-0.9525
 74
    0
 49
0
 74
    0
 49
-0.9525
 74
    0
  0
LTYPE
  5
44
330
5
100
AcDbSymbolTableRecord
100
AcDbLinetypeTableRecord
  2
BORDER2
 70
    0
  3
Border (.5x) __.__.__.__.__.__.__.__.__.__.__.
 72
   65
 73
    6
 40
22.225
 49
6.35
 74
    0
 49
-3.175
 74
    0
 49
6.35
 74
    0
 49
-3.175
 74
    0
 49
0
 74
    0
 49
-3.175
 74
    0
  0
LTYPE
  5
45
330
5
100
AcDbSymbolTableRecord
100
AcDbLinetypeTableRecord
  2
BORDERX2
 70
    0
  3
Border (2x) ____  ____  .  ____  ____  .  ___
 72
   65
 73
    6
 40
88.89999999999999
 49
25.4
 74
    0
 49
-12.7
 74
    0
 49
25.4
 74
    0
 49
-12.7
 74
    0
 49
0
 74
    0
 49
-12.7
 74
    0
  0
LTYPE
  5
46
330
5
100
AcDbSymbolTableRecord
100
AcDbLinetypeTableRecord
  2
CENTER
 70
    0
  3
Center ____ _ ____ _ ____ _ ____ _ ____ _ ____
 72
   65
 73
    4
 40
50.8
 49
31.75
 74
    0
 49
-6.35
 74
    0
 49
6.35
 74
    0
 49
-6.35
 74
    0
  0
LTYPE
  5
47
330
5
100
AcDbSymbolTableRecord
100
AcDbLinetypeTableRecord
  2
CENTERTINY
 70
    0
  3
Center (.15x) ___ _ ___ _ ___ _ ___ _ ___ _ ___
 72
   65
 73
    4
 40
7.619999999999999
 49
4.7625
 74
    0
 49
-0.9525
 74
    0
 49
0.9525
 74
    0
 49
-0.9525
 74
    0
  0
LTYPE
  5
48
330
5
100
AcDbSymbolTableRecord
100
AcDbLinetypeTableRecord
  2
CENTER2
 70
    0
  3
Center (.5x) ___ _ ___ _ ___ _ ___ _ ___ _ ___
 72
   65
 73
    4
 40
28.575
 49
19.05
 74
    0
 49
-3.175
 74
    0
 49
3.175
 74
    0
 49
-3.175
 74
    0
  0
LTYPE
  5
49
330
5
100
AcDbSymbolTableRecord
100
AcDbLinetypeTableRecord
  2
CENTERX2
 70
    0
  3
Center (2x) ________  __  ________  __  _____
 72
   65
 73
    4
 40
101.6
 49
63.5
 74
    0
 49
-12.7
 74
    0
 49
12.7
 74
    0
 49
-12.7
 74
    0
  0
ENDTAB
  0
TABLE
  2
LAYER
  5
2
330
0
100
AcDbSymbolTable
 70
    1
  0
LAYER
  5
10
330
2
100
AcDbSymbolTableRecord
100
AcDbLayerTableRecord
  2
0
 70
    0
 62
    7
  6
CONTINUOUS
370
    0
390
F
  0
LAYER
  5
4A
330
2
100
AcDbSymbolTableRecord
100
AcDbLayerTableRecord
  2
Frontal_board
 70
    0
 62
    5
  6
CONTINUOUS
370
    0
390
F
  0
LAYER
  5
4B
330
2
100
AcDbSymbolTableRecord
100
AcDbLayerTableRecord
  2
Optional_Screw
 70
    0
 62
    1
  6
CONTINUOUS
370
    0
390
F
  0
LAYER
  5
4C
330
2
100
AcDbSymbolTableRecord
100
AcDbLayerTableRecord
  2
R_U_Board_1
 70
    0
 62
   11
  6
CONTINUOUS
370
    0
390
F
  0
LAYER
  5
4D
330
2
100
AcDbSymbolTableRecord
100
AcDbLayerTableRecord
  2
R_U_Board_2
 70
    0
 62
   91
  6
CONTINUOUS
370
    0
390
F
  0
LAYER
  5
4E
330
2
100
AcDbSymbolTableRecord
100
AcDbLayerTableRecord
  2
Rear_Lower_I_O_Shield
 70
    0
 62
   30
  6
CONTINUOUS
370
    0
390
F
  0
LAYER
  5
4F
330
2
100
AcDbSymbolTableRecord
100
AcDbLayerTableRecord
  2
Rear_Upper_I_O_Shield
 70
    0
 62
    2
  6
CONTINUOUS
370
    0
390
F
  0
LAYER
  5
50
330
2
100
AcDbSymbolTableRecord
100
AcDbLayerTableRecord
  2
Screw
 70
    0
 62
  150
  6
CONTINUOUS
370
    0
390
F
  0
LAYER
  5
51
330
2
100
AcDbSymbolTableRecord
100
AcDbLayerTableRecord
  2
Separate_Boards
 70
    0
 62
    4
  6
CONTINUOUS
370
    0
390
F
  0
LAYER
  5
52
330
2
100
AcDbSymbolTableRecord
100
AcDbLayerTableRecord
  2
Support_feet
 70
    0
 62
   96
  6
CONTINUOUS
370
    0
390
F
  0
LAYER
  5
53
330
2
100
AcDbSymbolTableRecord
100
AcDbLayerTableRecord
  2
explanation_lines
 70
    0
 62
  216
  6
CONTINUOUS
370
    0
390
F
  0
LAYER
  5
54
330
2
100
AcDbSymbolTableRecord
100
AcDbLayerTableRecord
  2
mark
 70
    1
 62
    6
  6
CONTINUOUS
370
    0
390
F
  0
ENDTAB
  0
TABLE
  2
STYLE
  5
3
330
0
100
AcDbSymbolTable
 70
    3
  0
STYLE
  5
55
330
2
100
AcDbSymbolTableRecord
100
AcDbTextStyleTableRecord
  2
standard
 70
    0
 40
0
 41
1
 50
0
 71
    0
 42
1
  3
standard
  4

  0
ENDTAB
  0
TABLE
  2
VIEW
  5
6
330
0
100
AcDbSymbolTable
 70
    0
  0
ENDTAB
  0
TABLE
  2
UCS
  5
7
330
0
100
AcDbSymbolTable
 70
    0
  0
ENDTAB
  0
TABLE
  2
APPID
  5
9
330
0
100
AcDbSymbolTable
 70
    1
  0
APPID
  5
12
330
9
100
AcDbSymbolTableRecord
100
AcDbRegAppTableRecord
  2
ACAD
 70
    0
  0
APPID
  5
56
330
9
100
AcDbSymbolTableRecord
100
AcDbRegAppTableRecord
  2
LibreCad
 70
    0
  0
ENDTAB
  0
TABLE
  2
DIMSTYLE
  5
A
330
0
100
AcDbSymbolTable
 70
    1
100
AcDbDimStyleTable
 71
    1
  0
DIMSTYLE
105
57
330
A
100
AcDbSymbolTableRecord
100
AcDbDimStyleTableRecord
  2
Standard
 70
    0
 40
2.5
 41
2.5
 42
0.625
 43
0.38
 44
1.25
 45
0
 46
0
 47
0
 48
0
 49
1
140
2.5
141
0.09
142
0
143
25.4
144
1
145
0
146
1
147
0.625
148
0
 71
    0
 72
    0
 73
    0
 74
    1
 75
    0
 76
    0
 77
    0
 78
    1
 79
    0
170
    0
171
    2
172
    0
173
    0
174
    0
175
    0
176
    0
177
    0
178
    0
179
    2
271
    4
272
    4
273
    2
274
    2
275
    0
276
    0
277
    2
278
   44
279
    0
280
    0
281
    0
282
    0
283
    1
284
    0
285
    0
286
    0
288
    0
289
    3
340
standard
341

371
   -2
372
   -2
  0
ENDTAB
  0
TABLE
  2
BLOCK_RECORD
  5
1
330
0
100
AcDbSymbolTable
 70
    2
  0
BLOCK_RECORD
  5
1F
330
1
100
AcDbSymbolTableRecord
100
AcDbBlockTableRecord
  2
*Model_Space
 70
    0
280
    1
281
    0
  0
BLOCK_RECORD
  5
1E
330
1
100
AcDbSymbolTableRecord
100
AcDbBlockTableRecord
  2
*Paper_Space
 70
    0
280
    1
281
    0
  0
BLOCK_RECORD
  5
58
330
1
100
AcDbSymbolTableRecord
100
AcDbBlockTableRecord
  2
cable-block
 70
    0
280
    1
281
    0
  0
ENDTAB
  0
ENDSEC
  0
SECTION
  2
BLOCKS
  0
BLOCK
  5
20
330
1F
100
AcDbEntity
  8
0
100
AcDbBlockBegin
  2
*Model_Space
 70
    0
 10
0
 20
0
 30
0
  3
*Model_Space
  1

  0
ENDBLK
  5
21
330
1F
100
AcDbEntity
  8
0
100
AcDbBlockEnd
  0
BLOCK
  5
1C
330
1B
100
AcDbEntity
  8
0
100
AcDbBlockBegin
  2
*Paper_Space
 70
    0
 10
0
 20
0
 30
0
  3
*Paper_Space
  1

  0
ENDBLK
  5
1D
330
1F
100
AcDbEntity
  8
0
100
AcDbBlockEnd
  0
BLOCK
  5
59
330
58
100
AcDbEntity
  8
0
100
AcDbBlockBegin
  2
cable-block
 70
    0
 10
0
 20
0
  3
cable-block
  1

  0
LINE
  5
5B
100
AcDbEntity
  8
0
  6
ByLayer
 62
  256
370
   -1
100
AcDbLine
 10
1.77635683940025e-15
 20
-5.000000000000001
 11
4.330127018922197
 21
-2.500000000000001
  0
LINE
  5
5C
100
AcDbEntity
  8
0
  6
ByLayer
 62
  256
370
   -1
100
AcDbLine
 10
4.330127018922197
 20
-2.500000000000001
 11
4.330127018922197
 21
2.499999999999999
  0
LINE
  5
5D
100
AcDbEntity
  8
0
  6
ByLayer
 62
  256
370
   -1
100
AcDbLine
 10
4.330127018922197
 20
2.499999999999999
 11
1.77635683940025e-15
 21
4.999999999999999
  0
LINE
  5
5E
100
AcDbEntity
  8
0
  6
ByLayer
 62
  256
370
   -1
100
AcDbLine
 10
1.77635683940025e-15
 20
4.999999999999999
 11
-4.330127018922193
 21
2.499999999999999
  0
LINE
  5
5F
100
AcDbEntity
  8
0
  6
ByLayer
 62
  256
370
   -1
100
AcDbLine
 10
-4.330127018922193
 20
2.499999999999999
 11
-4.330127018922193
 21
-2.500000000000001
  0
LINE
  5
60
100
AcDbEntity
  8
0
  6
ByLayer
 62
  256
370
   -1
100
AcDbLine
 10
-4.330127018922193
 20
-2.500000000000001
 11
1.77635683940025e-15
 21
-5.000000000000001
  0
ENDBLK
  5
5A
330
58
100
AcDbEntity
  8
0
100
AcDbBlockEnd
  0
ENDSEC
  0
SECTION
  2
ENTITIES
  0
HATCH
  5
61
100
AcDbEntity
  8
Separate_Boards
  6
ByLayer
 62
  256
370
   -1
100
AcDbHatch
 10
0
 20
0
 30
0
210
0
220
0
230
1
  2
SOLID
 70
    1
 71
    0
 91
    1
 92
    0
 93
    4
 72
    1
 10
1.554499999999999
 20
6.361000000000001
 11
1.554499999999999
 21
6.739000000000001
 72
    1
 10
1.554499999999999
 20
6.739000000000001
 11
0.8454999999999995
 21
6.739000000000001
 72
    1
 10
0.8454999999999995
 20
6.739000000000001
 11
0.8454999999999995
 21
6.361000000000001
 72
    1
 10
0.8454999999999995
 20
6.361000000000001
 11
1.554499999999999
 21
6.361000000000001
 97
    0
 75
    0
 76
    1
 98
    0
  0
HATCH
  5
62
100
AcDbEntity
  8
Separate_Boards
  6
ByLayer
 62
  256
370
   -1
100
AcDbHatch
 10
0
 20
0
 30
0
210
0
220
0
230
1
  2
SOLID
 70
    1
 71
    0
 91
    1
 92
    0
 93
    4
 72
    1
 10
4.904499999999999
 20
4.922000000000001
 11
4.904499999999999
 21
5.300000000000001
 72
    1
 10
4.904499999999999
 20
5.300000000000001
 11
4.195499999999999
 21
5.300000000000001
 72
    1
 10
4.195499999999999
 20
5.300000000000001
 11
4.195499999999999
 21
4.922000000000001
 72
    1
 10
4.195499999999999
 20
4.922000000000001
 11
4.904499999999999
 21
4.922000000000001
 97
    0
 75
    0
 76
    1
 98
    0
  0
HATCH
  5
63
100
AcDbEntity
  8
Separate_Boards
  6
ByLayer
 62
  256
370
   -1
100
AcDbHatch
 10
0
 20
0
 30
0
210
0
220
0
230
1
  2
SOLID
 70
    1
 71
    0
 91
    1
 92
    0
 93
    4
 72
    1
 10
4.904499999999999
 20
6.300000000000001
 11
4.904499999999999
 21
6.678000000000001
 72
    1
 10
4.904499999999999
 20
6.678000000000001
 11
4.195499999999999
 21
6.678000000000001
 72
    1
 10
4.195499999999999
 20
6.678000000000001
 11
4.195499999999999
 21
6.300000000000001
 72
    1
 10
4.195499999999999
 20
6.300000000000001
 11
4.904499999999999
 21
6.300000000000001
 97
    0
 75
    0
 76
    1
 98
    0
  0
LINE
  5
64
100
AcDbEntity
  8
mark
  6
ByLayer
 62
  256
370
   -1
100
AcDbLine
 10
0.3999999999999986
 20
0.6500000000000017
 11
10
 21
0.6499999999999999
  0
LINE
  5
65
100
AcDbEntity
  8
mark
  6
ByLayer
 62
  256
370
   -1
100
AcDbLine
 10
0.3999999999999986
 20
5.550000000000002
 11
10
 21
5.550000000000001
  0
LINE
  5
66
100
AcDbEntity
  8
mark
  6
ByLayer
 62
  256
370
   -1
100
AcDbLine
 10
0.8000000000000007
 20
12
 11
0.7999999999999989
 21
1.622873944237204e-15
  0
LINE
  5
67
100
AcDbEntity
  8
mark
  6
ByLayer
 62
  256
370
   -1
100
AcDbLine
 10
9.75
 20
12
 11
9.749999999999998
 21
-5.692438262365577e-16
  0
LINE
  5
68
100
AcDbEntity
  8
mark
  6
ByLayer
 62
  256
370
   -1
100
AcDbLine
 10
6.9
 20
12
 11
6.899999999999999
 21
1.288048492774335e-16
  0
LINE
  5
69
100
AcDbEntity
  8
mark
  6
ByLayer
 62
  256
370
   -1
100
AcDbLine
 10
1.700000000000001
 20
12
 11
1.699999999999999
 21
1.402437520390681e-15
  0
LINE
  5
6A
100
AcDbEntity
  8
mark
  6
ByLayer
 62
  256
370
   -1
100
AcDbLine
 10
0.3999999999999986
 20
3.750000000000002
 11
10
 21
3.75
  0
CIRCLE
  5
6B
100
AcDbEntity
  8
Screw
  6
ByLayer
 62
  256
370
   -1
100
AcDbCircle
 10
9.749999999999998
 20
0.6500000000000001
 40
0.078
  0
CIRCLE
  5
6C
100
AcDbEntity
  8
Screw
  6
ByLayer
 62
  256
370
   -1
100
AcDbCircle
 10
0.7999999999999989
 20
0.6500000000000017
 40
0.078
  0
CIRCLE
  5
6D
100
AcDbEntity
  8
Screw
  6
ByLayer
 62
  256
370
   -1
100
AcDbCircle
 10
6.899999999999999
 20
0.6500000000000006
 40
0.078
  0
CIRCLE
  5
6E
100
AcDbEntity
  8
Screw
  6
ByLayer
 62
  256
370
   -1
100
AcDbCircle
 10
9.749999999999998
 20
5.550000000000001
 40
0.078
  0
CIRCLE
  5
6F
100
AcDbEntity
  8
Screw
  6
ByLayer
 62
  256
370
   -1
100
AcDbCircle
 10
0.7999999999999989
 20
5.550000000000002
 40
0.078
  0
CIRCLE
  5
70
100
AcDbEntity
  8
Screw
  6
ByLayer
 62
  256
370
   -1
100
AcDbCircle
 10
6.899999999999999
 20
5.550000000000001
 40
0.078
  0
CIRCLE
  5
71
100
AcDbEntity
  8
Optional_Screw
  6
ByLayer
 62
  256
370
   -1
100
AcDbCircle
 10
0.7999999999999989
 20
3.750000000000002
 40
0.078
  0
LINE
  5
72
100
AcDbEntity
  8
mark
  6
ByLayer
 62
  256
370
   -1
100
AcDbLine
 10
0.3999999999999992
 20
11.75
 11
10
 21
11.75
  0
CIRCLE
  5
73
100
AcDbEntity
  8
Screw
  6
ByLayer
 62
  256
370
   -1
100
AcDbCircle
 10
9.75
 20
11.75
 40
0.078
  0
CIRCLE
  5
74
100
AcDbEntity
  8
Screw
  6
ByLayer
 62
  256
370
   -1
100
AcDbCircle
 10
6.9
 20
11.75
 40
0.078
  0
CIRCLE
  5
75
100
AcDbEntity
  8
Screw
  6
ByLayer
 62
  256
370
   -1
100
AcDbCircle
 10
1.700000000000001
 20
11.75
 40
0.078
  0
LINE
  5
76
100
AcDbEntity
  8
0
  6
ByLayer
 62
  256
370
   -1
100
AcDbLine
 10
0
 20
1.232595164407831e-31
 11
0
 21
12
  0
LINE
  5
77
100
AcDbEntity
  8
0
  6
ByLayer
 62
  256
370
   -1
100
AcDbLine
 10
0
 20
12
 11
-9.6
 21
12
  0
LINE
  5
78
100
AcDbEntity
  8
0
  6
ByLayer
 62
  256
370
   -1
100
AcDbLine
 10
-9.6
 20
12
 11
-9.600000000000001
 21
1.77635683940025e-15
  0
LINE
  5
79
100
AcDbEntity
  8
0
  6
ByLayer
 62
  256
370
   -1
100
AcDbLine
 10
-9.600000000000001
 20
1.77635683940025e-15
 11
0
 21
1.232595164407831e-31
  0
LINE
  5
7A
100
AcDbEntity
  8
mark
  6
ByLayer
 62
  256
370
   -1
100
AcDbLine
 10
-9.600000000000001
 20
0.6500000000000018
 11
0
 21
0.65
  0
LINE
  5
7B
100
AcDbEntity
  8
mark
  6
ByLayer
 62
  256
370
   -1
100
AcDbLine
 10
-9.600000000000001
 20
5.550000000000002
 11
0
 21
5.550000000000001
  0
LINE
  5
7C
100
AcDbEntity
  8
mark
  6
ByLayer
 62
  256
370
   -1
100
AcDbLine
 10
-9.199999999999999
 20
12
 11
-9.200000000000001
 21
1.678385095468462e-15
  0
LINE
  5
7D
100
AcDbEntity
  8
mark
  6
ByLayer
 62
  256
370
   -1
100
AcDbLine
 10
-0.25
 20
12
 11
-0.2500000000000018
 21
-5.137326750052997e-16
  0
LINE
  5
7E
100
AcDbEntity
  8
mark
  6
ByLayer
 62
  256
370
   -1
100
AcDbLine
 10
-3.1
 20
12
 11
-3.100000000000001
 21
1.843160005086915e-16
  0
LINE
  5
7F
100
AcDbEntity
  8
mark
  6
ByLayer
 62
  256
370
   -1
100
AcDbLine
 10
-8.299999999999999
 20
12
 11
-8.300000000000001
 21
1.457948671621939e-15
  0
LINE
  5
80
100
AcDbEntity
  8
mark
  6
ByLayer
 62
  256
370
   -1
100
AcDbLine
 10
-9.600000000000001
 20
3.750000000000002
 11
0
 21
3.75
  0
CIRCLE
  5
81
100
AcDbEntity
  8
Screw
  6
ByLayer
 62
  256
370
   -1
100
AcDbCircle
 10
-0.2500000000000018
 20
0.6500000000000002
 40
0.078
  0
CIRCLE
  5
82
100
AcDbEntity
  8
Screw
  6
ByLayer
 62
  256
370
   -1
100
AcDbCircle
 10
-9.200000000000001
 20
0.6500000000000018
 40
0.078
  0
CIRCLE
  5
83
100
AcDbEntity
  8
Screw
  6
ByLayer
 62
  256
370
   -1
100
AcDbCircle
 10
-3.100000000000001
 20
0.6500000000000007
 40
0.078
  0
CIRCLE
  5
84
100
AcDbEntity
  8
Screw
  6
ByLayer
 62
  256
370
   -1
100
AcDbCircle
 10
-0.2500000000000018
 20
5.550000000000001
 40
0.078
  0
CIRCLE
  5
85
100
AcDbEntity
  8
Screw
  6
ByLayer
 62
  256
370
   -1
100
AcDbCircle
 10
-9.200000000000001
 20
5.550000000000002
 40
0.078
  0
CIRCLE
  5
86
100
AcDbEntity
  8
Screw
  6
ByLayer
 62
  256
370
   -1
100
AcDbCircle
 10
-3.100000000000001
 20
5.550000000000001
 40
0.078
  0
CIRCLE
  5
87
100
AcDbEntity
  8
Optional_Screw
  6
ByLayer
 62
  256
370
   -1
100
AcDbCircle
 10
-9.200000000000001
 20
3.750000000000002
 40
0.078
  0
LINE
  5
88
100
AcDbEntity
  8
mark
  6
ByLayer
 62
  256
370
   -1
100
AcDbLine
 10
-9.600000000000001
 20
11.75
 11
0
 21
11.75
  0
CIRCLE
  5
89
100
AcDbEntity
  8
Screw
  6
ByLayer
 62
  256
370
   -1
100
AcDbCircle
 10
-0.25
 20
11.75
 40
0.078
  0
CIRCLE
  5
8A
100
AcDbEntity
  8
Screw
  6
ByLayer
 62
  256
370
   -1
100
AcDbCircle
 10
-3.1
 20
11.75
 40
0.078
  0
CIRCLE
  5
8B
100
AcDbEntity
  8
Screw
  6
ByLayer
 62
  256
370
   -1
100
AcDbCircle
 10
-8.299999999999999
 20
11.75
 40
0.078
  0
CIRCLE
  5
8C
100
AcDbEntity
  8
Support_feet
  6
ByLayer
 62
  256
370
   -1
100
AcDbCircle
 10
0.8000000000000007
 20
11.75
 40
0.078
  0
LINE
  5
8D
100
AcDbEntity
  8
Support_feet
  6
ByLayer
 62
  256
370
   -1
100
AcDbLine
 10
0.7219999999999476
 20
11.75
 11
0.8000000000000007
 21
11.82800000000006
  0
LINE
  5
8E
100
AcDbEntity
  8
Support_feet
  6
ByLayer
 62
  256
370
   -1
100
AcDbLine
 10
0.8000000000000007
 20
11.82800000000006
 11
0.8780000000000547
 21
11.75
  0
LINE
  5
8F
100
AcDbEntity
  8
Support_feet
  6
ByLayer
 62
  256
370
   -1
100
AcDbLine
 10
0.8780000000000547
 20
11.75
 11
0.8000000000000012
 21
11.67199999999995
  0
LINE
  5
90
100
AcDbEntity
  8
Support_feet
  6
ByLayer
 62
  256
370
   -1
100
AcDbLine
 10
0.8000000000000012
 20
11.67199999999995
 11
0.7219999999999256
 21
11.74999999999998
  0
LINE
  5
91
100
AcDbEntity
  8
Separate_Boards
  6
ByLayer
 62
  256
370
   -1
100
AcDbLine
 10
7.149999999999999
 20
5.800000000000001
 11
7.149999999999999
 21
6.757250932006588e-17
  0
CIRCLE
  5
92
100
AcDbEntity
  8
Support_feet
  6
ByLayer
 62
  256
370
   -1
100
AcDbCircle
 10
0.7999999999999998
 20
5.050000000000002
 40
0.078
  0
LINE
  5
93
100
AcDbEntity
  8
Support_feet
  6
ByLayer
 62
  256
370
   -1
100
AcDbLine
 10
0.7219999999999467
 20
5.050000000000002
 11
0.7999999999999998
 21
5.128000000000056
  0
LINE
  5
94
100
AcDbEntity
  8
Support_feet
  6
ByLayer
 62
  256
370
   -1
100
AcDbLine
 10
0.7999999999999998
 20
5.128000000000056
 11
0.8780000000000538
 21
5.050000000000002
  0
LINE
  5
95
100
AcDbEntity
  8
Support_feet
  6
ByLayer
 62
  256
370
   -1
100
AcDbLine
 10
0.8780000000000538
 20
5.050000000000002
 11
0.8000000000000003
 21
4.971999999999949
  0
LINE
  5
96
100
AcDbEntity
  8
Support_feet
  6
ByLayer
 62
  256
370
   -1
100
AcDbLine
 10
0.8000000000000003
 20
4.971999999999949
 11
0.7219999999999249
 21
5.049999999999979
  0
LINE
  5
97
100
AcDbEntity
  8
Separate_Boards
  6
ByLayer
 62
  256
370
   -1
100
AcDbLine
 10
0.3999999999999986
 20
1.720845688168993e-15
 11
7.149999999999999
 21
6.757250932006588e-17
  0
LINE
  5
98
100
AcDbEntity
  8
Separate_Boards
  6
ByLayer
 62
  256
370
   -1
100
AcDbLine
 10
7.149999999999999
 20
6.757250932006588e-17
 11
10
 21
-5.551115123125783e-17
  0
LINE
  5
99
100
AcDbEntity
  8
mark
  6
ByLayer
 62
  256
370
   -1
100
AcDbLine
 10
0.3999999999999985
 20
5.050000000000002
 11
2.2
 21
5.050000000000003
  0
LINE
  5
9A
100
AcDbEntity
  8
mark
  6
ByLayer
 62
  256
370
   -1
100
AcDbLine
 10
2.200000000000001
 20
12
 11
2.2
 21
5.050000000000003
  0
CIRCLE
  5
9B
100
AcDbEntity
  8
Support_feet
  6
ByLayer
 62
  256
370
   -1
100
AcDbCircle
 10
2.200000000000001
 20
11.75
 40
0.078
  0
LINE
  5
9C
100
AcDbEntity
  8
Support_feet
  6
ByLayer
 62
  256
370
   -1
100
AcDbLine
 10
2.121999999999947
 20
11.75
 11
2.200000000000001
 21
11.82800000000006
  0
LINE
  5
9D
100
AcDbEntity
  8
Support_feet
  6
ByLayer
 62
  256
370
   -1
100
AcDbLine
 10
2.200000000000001
 20
11.82800000000006
 11
2.278000000000055
 21
11.75
  0
LINE
  5
9E
100
AcDbEntity
  8
Support_feet
  6
ByLayer
 62
  256
370
   -1
100
AcDbLine
 10
2.278000000000055
 20
11.75
 11
2.200000000000001
 21
11.67199999999995
  0
LINE
  5
9F
100
AcDbEntity
  8
Support_feet
  6
ByLayer
 62
  256
370
   -1
100
AcDbLine
 10
2.200000000000001
 20
11.67199999999995
 11
2.121999999999925
 21
11.74999999999998
  0
LINE
  5
A0
100
AcDbEntity
  8
mark
  6
ByLayer
 62
  256
370
   -1
100
AcDbLine
 10
7.399999999999999
 20
6.050000000000002
 11
7.399999999999999
 21
6.340169362698222e-18
  0
LINE
  5
A1
100
AcDbEntity
  8
mark
  6
ByLayer
 62
  256
370
   -1
100
AcDbLine
 10
1.95
 20
6.050000000000002
 11
7.399999999999999
 21
6.050000000000002
  0
CIRCLE
  5
A2
100
AcDbEntity
  8
Support_feet
  6
ByLayer
 62
  256
370
   -1
100
AcDbCircle
 10
2.2
 20
6.050000000000002
 40
0.078
  0
LINE
  5
A3
100
AcDbEntity
  8
Support_feet
  6
ByLayer
 62
  256
370
   -1
100
AcDbLine
 10
2.121999999999947
 20
6.050000000000002
 11
2.2
 21
6.128000000000056
  0
LINE
  5
A4
100
AcDbEntity
  8
Support_feet
  6
ByLayer
 62
  256
370
   -1
100
AcDbLine
 10
2.2
 20
6.128000000000056
 11
2.278000000000054
 21
6.050000000000002
  0
LINE
  5
A5
100
AcDbEntity
  8
Support_feet
  6
ByLayer
 62
  256
370
   -1
100
AcDbLine
 10
2.278000000000054
 20
6.050000000000002
 11
2.2
 21
5.971999999999949
  0
LINE
  5
A6
100
AcDbEntity
  8
Support_feet
  6
ByLayer
 62
  256
370
   -1
100
AcDbLine
 10
2.2
 20
5.971999999999949
 11
2.121999999999925
 21
6.049999999999979
  0
CIRCLE
  5
A7
100
AcDbEntity
  8
Support_feet
  6
ByLayer
 62
  256
370
   -1
100
AcDbCircle
 10
7.399999999999999
 20
6.050000000000002
 40
0.078
  0
LINE
  5
A8
100
AcDbEntity
  8
Support_feet
  6
ByLayer
 62
  256
370
   -1
100
AcDbLine
 10
7.321999999999946
 20
6.050000000000002
 11
7.399999999999999
 21
6.128000000000056
  0
LINE
  5
A9
100
AcDbEntity
  8
Support_feet
  6
ByLayer
 62
  256
370
   -1
100
AcDbLine
 10
7.399999999999999
 20
6.128000000000056
 11
7.478000000000053
 21
6.050000000000002
  0
LINE
  5
AA
100
AcDbEntity
  8
Support_feet
  6
ByLayer
 62
  256
370
   -1
100
AcDbLine
 10
7.478000000000053
 20
6.050000000000002
 11
7.399999999999999
 21
5.971999999999949
  0
LINE
  5
AB
100
AcDbEntity
  8
Support_feet
  6
ByLayer
 62
  256
370
   -1
100
AcDbLine
 10
7.399999999999999
 20
5.971999999999949
 11
7.321999999999925
 21
6.049999999999979
  0
CIRCLE
  5
AC
100
AcDbEntity
  8
Support_feet
  6
ByLayer
 62
  256
370
   -1
100
AcDbCircle
 10
7.399999999999998
 20
0.6500000000000004
 40
0.078
  0
LINE
  5
AD
100
AcDbEntity
  8
Support_feet
  6
ByLayer
 62
  256
370
   -1
100
AcDbLine
 10
7.321999999999945
 20
0.6499999999999995
 11
7.399999999999998
 21
0.7280000000000539
  0
LINE
  5
AE
100
AcDbEntity
  8
Support_feet
  6
ByLayer
 62
  256
370
   -1
100
AcDbLine
 10
7.399999999999998
 20
0.7280000000000539
 11
7.478000000000052
 21
0.6499999999999995
  0
LINE
  5
AF
100
AcDbEntity
  8
Support_feet
  6
ByLayer
 62
  256
370
   -1
100
AcDbLine
 10
7.478000000000052
 20
0.6499999999999995
 11
7.399999999999999
 21
0.5719999999999468
  0
LINE
  5
B0
100
AcDbEntity
  8
Support_feet
  6
ByLayer
 62
  256
370
   -1
100
AcDbLine
 10
7.399999999999999
 20
0.5719999999999468
 11
7.321999999999924
 21
0.6499999999999773
  0
LINE
  5
B1
100
AcDbEntity
  8
Separate_Boards
  6
ByLayer
 62
  256
370
   -1
100
AcDbLine
 10
0.4000000000000004
 20
12
 11
1.950000000000001
 21
12
  0
LINE
  5
B2
100
AcDbEntity
  8
Separate_Boards
  6
ByLayer
 62
  256
370
   -1
100
AcDbLine
 10
1.950000000000001
 20
12
 11
10
 21
12
  0
LINE
  5
B3
100
AcDbEntity
  8
Separate_Boards
  6
ByLayer
 62
  256
370
   -1
100
AcDbLine
 10
10
 20
12
 11
10
 21
-5.551115123125783e-17
  0
LINE
  5
B4
100
AcDbEntity
  8
Optional_Screw
  6
ByLayer
 62
  256
370
   -1
100
AcDbLine
 10
0.7999999999999989
 20
3.828000000000002
 11
0.7999999999999989
 21
3.672000000000002
  0
LINE
  5
B5
100
AcDbEntity
  8
Optional_Screw
  6
ByLayer
 62
  256
370
   -1
100
AcDbLine
 10
0.721999999999999
 20
3.750000000000002
 11
0.8779999999999989
 21
3.750000000000002
  0
LINE
  5
B6
100
AcDbEntity
  8
Optional_Screw
  6
ByLayer
 62
  256
370
   -1
100
AcDbLine
 10
-9.278
 20
3.750000000000002
 11
-9.122000000000002
 21
3.750000000000002
  0
LINE
  5
B7
100
AcDbEntity
  8
Optional_Screw
  6
ByLayer
 62
  256
370
   -1
100
AcDbLine
 10
-9.200000000000001
 20
3.828000000000002
 11
-9.200000000000001
 21
3.672000000000002
  0
LINE
  5
B8
100
AcDbEntity
  8
Separate_Boards
  6
ByLayer
 62
  256
370
   -1
100
AcDbLine
 10
4.904499999999999
 20
6.300000000000001
 11
4.904499999999999
 21
6.678000000000001
  0
LINE
  5
B9
100
AcDbEntity
  8
Separate_Boards
  6
ByLayer
 62
  256
370
   -1
100
AcDbLine
 10
4.904499999999999
 20
6.678000000000001
 11
4.195499999999999
 21
6.678000000000001
  0
LINE
  5
BA
100
AcDbEntity
  8
Separate_Boards
  6
ByLayer
 62
  256
370
   -1
100
AcDbLine
 10
4.195499999999999
 20
6.678000000000001
 11
4.195499999999999
 21
6.300000000000001
  0
LINE
  5
BB
100
AcDbEntity
  8
Separate_Boards
  6
ByLayer
 62
  256
370
   -1
100
AcDbLine
 10
4.195499999999999
 20
6.300000000000001
 11
4.904499999999999
 21
6.300000000000001
  0
LINE
  5
BC
100
AcDbEntity
  8
Separate_Boards
  6
ByLayer
 62
  256
370
   -1
100
AcDbLine
 10
4.904499999999999
 20
4.922000000000001
 11
4.904499999999999
 21
5.300000000000001
  0
LINE
  5
BD
100
AcDbEntity
  8
Separate_Boards
  6
ByLayer
 62
  256
370
   -1
100
AcDbLine
 10
4.904499999999999
 20
5.300000000000001
 11
4.195499999999999
 21
5.300000000000001
  0
LINE
  5
BE
100
AcDbEntity
  8
Separate_Boards
  6
ByLayer
 62
  256
370
   -1
100
AcDbLine
 10
4.195499999999999
 20
5.300000000000001
 11
4.195499999999999
 21
4.922000000000001
  0
LINE
  5
BF
100
AcDbEntity
  8
Separate_Boards
  6
ByLayer
 62
  256
370
   -1
100
AcDbLine
 10
4.195499999999999
 20
4.922000000000001
 11
4.904499999999999
 21
4.922000000000001
  0
MTEXT
  5
C0
100
AcDbEntity
  8
Separate_Boards
  6
ByLayer
 62
  256
370
   -1
100
AcDbMText
 10
4.5
 20
4.6
 30
0
 40
0.1
 41
0.8083333333333426
 71
    5
 72
    1
  1
PCI Express\PPower Cable\P8-Pin
  7
standard
210
0
220
0
230
1
 50
0
 73
    2
 44
1
  0
MTEXT
  5
C1
100
AcDbEntity
  8
Separate_Boards
  6
ByLayer
 62
  256
370
   -1
100
AcDbMText
 10
4.5
 20
7.000000000000001
 30
0
 40
0.1
 41
0.8083333333333426
 71
    5
 72
    1
  1
PCI Express\PPower Cable\P8-Pin
  7
standard
210
0
220
0
230
1
 50
0
 73
    2
 44
1
  0
CIRCLE
  5
C2
100
AcDbEntity
  8
Separate_Boards
  6
ByLayer
 62
  256
370
   -1
100
AcDbCircle
 10
3
 20
5
 40
0.4999999999999998
  0
CIRCLE
  5
C3
100
AcDbEntity
  8
Separate_Boards
  6
ByLayer
 62
  256
370
   -1
100
AcDbCircle
 10
3
 20
7
 40
0.4999999999999998
  0
CIRCLE
  5
C4
100
AcDbEntity
  8
Separate_Boards
  6
ByLayer
 62
  256
370
   -1
100
AcDbCircle
 10
1.2
 20
7.300000000000001
 40
0.4999999999999998
  0
MTEXT
  5
C5
100
AcDbEntity
  8
Separate_Boards
  6
ByLayer
 62
  256
370
   -1
100
AcDbMText
 10
3
 20
5
 30
0
 40
0.2
 41
0.5555555555555866
 71
    5
 72
    1
  1
Data\PLane
  7
standard
210
0
220
0
230
1
 50
0
 73
    2
 44
1
  0
MTEXT
  5
C6
100
AcDbEntity
  8
Separate_Boards
  6
ByLayer
 62
  256
370
   -1
100
AcDbMText
 10
3
 20
7
 30
0
 40
0.2
 41
0.5555555555555866
 71
    5
 72
    1
  1
Data\PLane
  7
standard
210
0
220
0
230
1
 50
0
 73
    2
 44
1
  0
MTEXT
  5
C7
100
AcDbEntity
  8
Separate_Boards
  6
ByLayer
 62
  256
370
   -1
100
AcDbMText
 10
1.2
 20
7.300000000000001
 30
0
 40
0.2
 41
0.5555555555555866
 71
    5
 72
    1
  1
Data\PLane
  7
standard
210
0
220
0
230
1
 50
0
 73
    2
 44
1
  0
CIRCLE
  5
C8
100
AcDbEntity
  8
Separate_Boards
  6
ByLayer
 62
  256
370
   -1
100
AcDbCircle
 10
3
 20
10
 40
0.4999999999999998
  0
CIRCLE
  5
C9
100
AcDbEntity
  8
Separate_Boards
  6
ByLayer
 62
  256
370
   -1
100
AcDbCircle
 10
1.2
 20
10.3
 40
0.4999999999999998
  0
MTEXT
  5
CA
100
AcDbEntity
  8
Separate_Boards
  6
ByLayer
 62
  256
370
   -1
100
AcDbMText
 10
3
 20
10
 30
0
 40
0.2
 41
0.5555555555555866
 71
    5
 72
    1
  1
Data\PLane
  7
standard
210
0
220
0
230
1
 50
0
 73
    2
 44
1
  0
MTEXT
  5
CB
100
AcDbEntity
  8
Separate_Boards
  6
ByLayer
 62
  256
370
   -1
100
AcDbMText
 10
1.2
 20
10.3
 30
0
 40
0.2
 41
0.5555555555555866
 71
    5
 72
    1
  1
Data\PLane
  7
standard
210
0
220
0
230
1
 50
0
 73
    2
 44
1
  0
LINE
  5
CC
100
AcDbEntity
  8
Separate_Boards
  6
ByLayer
 62
  256
370
   -1
100
AcDbLine
 10
1.7
 20
10.3
 11
2.5
 21
10
  0
LINE
  5
CD
100
AcDbEntity
  8
Separate_Boards
  6
ByLayer
 62
  256
370
   -1
100
AcDbLine
 10
1.7
 20
7.300000000000001
 11
2.5
 21
5
  0
CIRCLE
  5
CE
100
AcDbEntity
  8
Separate_Boards
  6
ByLayer
 62
  256
370
   -1
100
AcDbCircle
 10
6
 20
5
 40
0.4999999999999998
  0
MTEXT
  5
CF
100
AcDbEntity
  8
Separate_Boards
  6
ByLayer
 62
  256
370
   -1
100
AcDbMText
 10
6
 20
5
 30
0
 40
0.2
 41
0.5555555555555866
 71
    5
 72
    1
  1
Data\PLane
  7
standard
210
0
220
0
230
1
 50
0
 73
    2
 44
1
  0
LINE
  5
D0
100
AcDbEntity
  8
Separate_Boards
  6
ByLayer
 62
  256
370
   -1
100
AcDbLine
 10
3
 20
6.5
 11
6
 21
5.5
  0
MTEXT
  5
D1
100
AcDbEntity
  8
Rear_Lower_I_O_Shield
  6
ByLayer
 62
  256
370
   -1
100
AcDbMText
 10
4.574999999999998
 20
2.900000000000001
 30
0
 40
0.5
 41
4.319444847620533
 71
    5
 72
    1
  1
Lower Rear\PI/O part\P(PCI Express)
  7
standard
210
0
220
0
230
1
 50
0
 73
    2
 44
1
  0
LINE
  5
D2
100
AcDbEntity
  8
Rear_Upper_I_O_Shield
  6
ByLayer
 62
  256
370
   -1
100
AcDbLine
 10
0.4000000000000004
 20
12
 11
0.3999999999999986
 21
5.750000000000001
  0
LINE
  5
D3
100
AcDbEntity
  8
Separate_Boards
  6
ByLayer
 62
  256
370
   -1
100
AcDbLine
 10
0.3999999999999986
 20
5.750000000000001
 11
0.3999999999999985
 21
5.300000000000002
  0
LINE
  5
D4
100
AcDbEntity
  8
Rear_Upper_I_O_Shield
  6
ByLayer
 62
  256
370
   -1
100
AcDbLine
 10
10.39230484541327
 20
11
 11
10.39230484541327
 21
4.750000000000001
  0
LINE
  5
D5
100
AcDbEntity
  8
Rear_Upper_I_O_Shield
  6
ByLayer
 62
  256
370
   -1
100
AcDbLine
 10
12.14230484541327
 20
11
 11
12.14230484541327
 21
4.750000000000001
  0
LINE
  5
D6
100
AcDbEntity
  8
Rear_Upper_I_O_Shield
  6
ByLayer
 62
  256
370
   -1
100
AcDbLine
 10
10.39230484541327
 20
4.750000000000001
 11
12.14230484541327
 21
4.750000000000001
  0
LINE
  5
D7
100
AcDbEntity
  8
Rear_Upper_I_O_Shield
  6
ByLayer
 62
  256
370
   -1
100
AcDbLine
 10
10.39230484541327
 20
11
 11
12.14230484541327
 21
11
  0
LINE
  5
D8
100
AcDbEntity
  8
Rear_Upper_I_O_Shield
  6
ByLayer
 62
  256
370
   -1
100
AcDbLine
 10
10.68780484541326
 20
5.145287927271451
 11
10.78630484541327
 21
4.974680922725924
  0
LINE
  5
D9
100
AcDbEntity
  8
Rear_Upper_I_O_Shield
  6
ByLayer
 62
  256
370
   -1
100
AcDbLine
 10
10.78630484541327
 20
4.974680922725924
 11
10.68780484541327
 21
4.804073918180383
  0
LINE
  5
DA
100
AcDbEntity
  8
Rear_Upper_I_O_Shield
  6
ByLayer
 62
  256
370
   -1
100
AcDbLine
 10
10.68780484541327
 20
4.804073918180383
 11
10.49080484541327
 21
4.804073918180383
  0
LINE
  5
DB
100
AcDbEntity
  8
Rear_Upper_I_O_Shield
  6
ByLayer
 62
  256
370
   -1
100
AcDbLine
 10
10.68780484541326
 20
5.145287927271451
 11
10.49080484541327
 21
5.145287927271451
  0
LINE
  5
DC
100
AcDbEntity
  8
Rear_Upper_I_O_Shield
  6
ByLayer
 62
  256
370
   -1
100
AcDbLine
 10
10.49080484541327
 20
5.145287927271451
 11
10.39230484541327
 21
4.974680922725924
  0
LINE
  5
DD
100
AcDbEntity
  8
Rear_Upper_I_O_Shield
  6
ByLayer
 62
  256
370
   -1
100
AcDbLine
 10
10.39230484541327
 20
4.974680922725924
 11
10.49080484541327
 21
4.804073918180383
  0
LINE
  5
DE
100
AcDbEntity
  8
Rear_Upper_I_O_Shield
  6
ByLayer
 62
  256
370
   -1
100
AcDbLine
 10
10.68780484541326
 20
5.48650193636252
 11
10.78630484541326
 21
5.315894931816993
  0
LINE
  5
DF
100
AcDbEntity
  8
Rear_Upper_I_O_Shield
  6
ByLayer
 62
  256
370
   -1
100
AcDbLine
 10
10.78630484541326
 20
5.315894931816993
 11
10.68780484541326
 21
5.145287927271451
  0
LINE
  5
E0
100
AcDbEntity
  8
Rear_Upper_I_O_Shield
  6
ByLayer
 62
  256
370
   -1
100
AcDbLine
 10
10.68780484541326
 20
5.48650193636252
 11
10.49080484541326
 21
5.48650193636252
  0
LINE
  5
E1
100
AcDbEntity
  8
Rear_Upper_I_O_Shield
  6
ByLayer
 62
  256
370
   -1
100
AcDbLine
 10
10.49080484541326
 20
5.48650193636252
 11
10.39230484541326
 21
5.315894931816993
  0
LINE
  5
E2
100
AcDbEntity
  8
Rear_Upper_I_O_Shield
  6
ByLayer
 62
  256
370
   -1
100
AcDbLine
 10
10.39230484541326
 20
5.315894931816993
 11
10.49080484541327
 21
5.145287927271451
  0
LINE
  5
E3
100
AcDbEntity
  8
Rear_Upper_I_O_Shield
  6
ByLayer
 62
  256
370
   -1
100
AcDbLine
 10
10.68780484541326
 20
5.827715945453588
 11
10.78630484541326
 21
5.657108940908061
  0
LINE
  5
E4
100
AcDbEntity
  8
Rear_Upper_I_O_Shield
  6
ByLayer
 62
  256
370
   -1
100
AcDbLine
 10
10.78630484541326
 20
5.657108940908061
 11
10.68780484541326
 21
5.48650193636252
  0
LINE
  5
E5
100
AcDbEntity
  8
Rear_Upper_I_O_Shield
  6
ByLayer
 62
  256
370
   -1
100
AcDbLine
 10
10.68780484541326
 20
5.827715945453588
 11
10.49080484541326
 21
5.827715945453588
  0
LINE
  5
E6
100
AcDbEntity
  8
Rear_Upper_I_O_Shield
  6
ByLayer
 62
  256
370
   -1
100
AcDbLine
 10
10.49080484541326
 20
5.827715945453588
 11
10.39230484541326
 21
5.657108940908061
  0
LINE
  5
E7
100
AcDbEntity
  8
Rear_Upper_I_O_Shield
  6
ByLayer
 62
  256
370
   -1
100
AcDbLine
 10
10.39230484541326
 20
5.657108940908061
 11
10.49080484541326
 21
5.48650193636252
  0
LINE
  5
E8
100
AcDbEntity
  8
Rear_Upper_I_O_Shield
  6
ByLayer
 62
  256
370
   -1
100
AcDbLine
 10
10.68780484541325
 20
6.168929954544656
 11
10.78630484541326
 21
5.998322949999129
  0
LINE
  5
E9
100
AcDbEntity
  8
Rear_Upper_I_O_Shield
  6
ByLayer
 62
  256
370
   -1
100
AcDbLine
 10
10.78630484541326
 20
5.998322949999129
 11
10.68780484541326
 21
5.827715945453588
  0
LINE
  5
EA
100
AcDbEntity
  8
Rear_Upper_I_O_Shield
  6
ByLayer
 62
  256
370
   -1
100
AcDbLine
 10
10.68780484541325
 20
6.168929954544656
 11
10.49080484541325
 21
6.168929954544656
  0
LINE
  5
EB
100
AcDbEntity
  8
Rear_Upper_I_O_Shield
  6
ByLayer
 62
  256
370
   -1
100
AcDbLine
 10
10.49080484541325
 20
6.168929954544656
 11
10.39230484541326
 21
5.998322949999129
  0
LINE
  5
EC
100
AcDbEntity
  8
Rear_Upper_I_O_Shield
  6
ByLayer
 62
  256
370
   -1
100
AcDbLine
 10
10.39230484541326
 20
5.998322949999129
 11
10.49080484541326
 21
5.827715945453588
  0
LINE
  5
ED
100
AcDbEntity
  8
Rear_Upper_I_O_Shield
  6
ByLayer
 62
  256
370
   -1
100
AcDbLine
 10
10.68780484541325
 20
6.510143963635724
 11
10.78630484541325
 21
6.339536959090197
  0
LINE
  5
EE
100
AcDbEntity
  8
Rear_Upper_I_O_Shield
  6
ByLayer
 62
  256
370
   -1
100
AcDbLine
 10
10.78630484541325
 20
6.339536959090197
 11
10.68780484541325
 21
6.168929954544656
  0
LINE
  5
EF
100
AcDbEntity
  8
Rear_Upper_I_O_Shield
  6
ByLayer
 62
  256
370
   -1
100
AcDbLine
 10
10.68780484541325
 20
6.510143963635724
 11
10.49080484541325
 21
6.510143963635724
  0
LINE
  5
F0
100
AcDbEntity
  8
Rear_Upper_I_O_Shield
  6
ByLayer
 62
  256
370
   -1
100
AcDbLine
 10
10.49080484541325
 20
6.510143963635724
 11
10.39230484541325
 21
6.339536959090197
  0
LINE
  5
F1
100
AcDbEntity
  8
Rear_Upper_I_O_Shield
  6
ByLayer
 62
  256
370
   -1
100
AcDbLine
 10
10.39230484541325
 20
6.339536959090197
 11
10.49080484541325
 21
6.168929954544656
  0
LINE
  5
F2
100
AcDbEntity
  8
Rear_Upper_I_O_Shield
  6
ByLayer
 62
  256
370
   -1
100
AcDbLine
 10
10.68780484541325
 20
6.851357972726793
 11
10.78630484541325
 21
6.680750968181266
  0
LINE
  5
F3
100
AcDbEntity
  8
Rear_Upper_I_O_Shield
  6
ByLayer
 62
  256
370
   -1
100
AcDbLine
 10
10.78630484541325
 20
6.680750968181266
 11
10.68780484541325
 21
6.510143963635724
  0
LINE
  5
F4
100
AcDbEntity
  8
Rear_Upper_I_O_Shield
  6
ByLayer
 62
  256
370
   -1
100
AcDbLine
 10
10.68780484541325
 20
6.851357972726793
 11
10.49080484541325
 21
6.851357972726793
  0
LINE
  5
F5
100
AcDbEntity
  8
Rear_Upper_I_O_Shield
  6
ByLayer
 62
  256
370
   -1
100
AcDbLine
 10
10.49080484541325
 20
6.851357972726793
 11
10.39230484541325
 21
6.680750968181266
  0
LINE
  5
F6
100
AcDbEntity
  8
Rear_Upper_I_O_Shield
  6
ByLayer
 62
  256
370
   -1
100
AcDbLine
 10
10.39230484541325
 20
6.680750968181266
 11
10.49080484541325
 21
6.510143963635724
  0
LINE
  5
F7
100
AcDbEntity
  8
Rear_Upper_I_O_Shield
  6
ByLayer
 62
  256
370
   -1
100
AcDbLine
 10
10.68780484541324
 20
7.192571981817861
 11
10.78630484541324
 21
7.021964977272334
  0
LINE
  5
F8
100
AcDbEntity
  8
Rear_Upper_I_O_Shield
  6
ByLayer
 62
  256
370
   -1
100
AcDbLine
 10
10.78630484541324
 20
7.021964977272334
 11
10.68780484541325
 21
6.851357972726793
  0
LINE
  5
F9
100
AcDbEntity
  8
Rear_Upper_I_O_Shield
  6
ByLayer
 62
  256
370
   -1
100
AcDbLine
 10
10.68780484541324
 20
7.192571981817861
 11
10.49080484541324
 21
7.192571981817861
  0
LINE
  5
FA
100
AcDbEntity
  8
Rear_Upper_I_O_Shield
  6
ByLayer
 62
  256
370
   -1
100
AcDbLine
 10
10.49080484541324
 20
7.192571981817861
 11
10.39230484541325
 21
7.021964977272334
  0
LINE
  5
FB
100
AcDbEntity
  8
Rear_Upper_I_O_Shield
  6
ByLayer
 62
  256
370
   -1
100
AcDbLine
 10
10.39230484541325
 20
7.021964977272334
 11
10.49080484541325
 21
6.851357972726793
  0
LINE
  5
FC
100
AcDbEntity
  8
Rear_Upper_I_O_Shield
  6
ByLayer
 62
  256
370
   -1
100
AcDbLine
 10
10.68780484541324
 20
7.533785990908929
 11
10.78630484541324
 21
7.363178986363402
  0
LINE
  5
FD
100
AcDbEntity
  8
Rear_Upper_I_O_Shield
  6
ByLayer
 62
  256
370
   -1
100
AcDbLine
 10
10.78630484541324
 20
7.363178986363402
 11
10.68780484541324
 21
7.192571981817861
  0
LINE
  5
FE
100
AcDbEntity
  8
Rear_Upper_I_O_Shield
  6
ByLayer
 62
  256
370
   -1
100
AcDbLine
 10
10.68780484541324
 20
7.533785990908929
 11
10.49080484541324
 21
7.533785990908929
  0
LINE
  5
FF
100
AcDbEntity
  8
Rear_Upper_I_O_Shield
  6
ByLayer
 62
  256
370
   -1
100
AcDbLine
 10
10.49080484541324
 20
7.533785990908929
 11
10.39230484541324
 21
7.363178986363402
  0
LINE
  5
100
100
AcDbEntity
  8
Rear_Upper_I_O_Shield
  6
ByLayer
 62
  256
370
   -1
100
AcDbLine
 10
10.39230484541324
 20
7.363178986363402
 11
10.49080484541324
 21
7.192571981817861
  0
LINE
  5
101
100
AcDbEntity
  8
Rear_Upper_I_O_Shield
  6
ByLayer
 62
  256
370
   -1
100
AcDbLine
 10
10.68780484541324
 20
7.874999999999997
 11
10.78630484541324
 21
7.70439299545447
  0
LINE
  5
102
100
AcDbEntity
  8
Rear_Upper_I_O_Shield
  6
ByLayer
 62
  256
370
   -1
100
AcDbLine
 10
10.78630484541324
 20
7.70439299545447
 11
10.68780484541324
 21
7.533785990908929
  0
LINE
  5
103
100
AcDbEntity
  8
Rear_Upper_I_O_Shield
  6
ByLayer
 62
  256
370
   -1
100
AcDbLine
 10
10.68780484541324
 20
7.874999999999997
 11
10.49080484541324
 21
7.874999999999997
  0
LINE
  5
104
100
AcDbEntity
  8
Rear_Upper_I_O_Shield
  6
ByLayer
 62
  256
370
   -1
100
AcDbLine
 10
10.49080484541324
 20
7.874999999999997
 11
10.39230484541324
 21
7.70439299545447
  0
LINE
  5
105
100
AcDbEntity
  8
Rear_Upper_I_O_Shield
  6
ByLayer
 62
  256
370
   -1
100
AcDbLine
 10
10.39230484541324
 20
7.70439299545447
 11
10.49080484541324
 21
7.533785990908929
  0
LINE
  5
106
100
AcDbEntity
  8
Rear_Upper_I_O_Shield
  6
ByLayer
 62
  256
370
   -1
100
AcDbLine
 10
10.68780484541323
 20
8.216214009091065
 11
10.78630484541323
 21
8.045607004545538
  0
LINE
  5
107
100
AcDbEntity
  8
Rear_Upper_I_O_Shield
  6
ByLayer
 62
  256
370
   -1
100
AcDbLine
 10
10.78630484541323
 20
8.045607004545538
 11
10.68780484541324
 21
7.874999999999997
  0
LINE
  5
108
100
AcDbEntity
  8
Rear_Upper_I_O_Shield
  6
ByLayer
 62
  256
370
   -1
100
AcDbLine
 10
10.68780484541323
 20
8.216214009091065
 11
10.49080484541323
 21
8.216214009091065
  0
LINE
  5
109
100
AcDbEntity
  8
Rear_Upper_I_O_Shield
  6
ByLayer
 62
  256
370
   -1
100
AcDbLine
 10
10.49080484541323
 20
8.216214009091065
 11
10.39230484541324
 21
8.045607004545538
  0
LINE
  5
10A
100
AcDbEntity
  8
Rear_Upper_I_O_Shield
  6
ByLayer
 62
  256
370
   -1
100
AcDbLine
 10
10.39230484541324
 20
8.045607004545538
 11
10.49080484541324
 21
7.874999999999997
  0
LINE
  5
10B
100
AcDbEntity
  8
Rear_Upper_I_O_Shield
  6
ByLayer
 62
  256
370
   -1
100
AcDbLine
 10
10.68780484541323
 20
8.557428018182133
 11
10.78630484541323
 21
8.386821013636606
  0
LINE
  5
10C
100
AcDbEntity
  8
Rear_Upper_I_O_Shield
  6
ByLayer
 62
  256
370
   -1
100
AcDbLine
 10
10.78630484541323
 20
8.386821013636606
 11
10.68780484541323
 21
8.216214009091065
  0
LINE
  5
10D
100
AcDbEntity
  8
Rear_Upper_I_O_Shield
  6
ByLayer
 62
  256
370
   -1
100
AcDbLine
 10
10.68780484541323
 20
8.557428018182133
 11
10.49080484541323
 21
8.557428018182133
  0
LINE
  5
10E
100
AcDbEntity
  8
Rear_Upper_I_O_Shield
  6
ByLayer
 62
  256
370
   -1
100
AcDbLine
 10
10.49080484541323
 20
8.557428018182133
 11
10.39230484541323
 21
8.386821013636606
  0
LINE
  5
10F
100
AcDbEntity
  8
Rear_Upper_I_O_Shield
  6
ByLayer
 62
  256
370
   -1
100
AcDbLine
 10
10.39230484541323
 20
8.386821013636606
 11
10.49080484541323
 21
8.216214009091065
  0
LINE
  5
110
100
AcDbEntity
  8
Rear_Upper_I_O_Shield
  6
ByLayer
 62
  256
370
   -1
100
AcDbLine
 10
10.68780484541323
 20
8.898642027273201
 11
10.78630484541323
 21
8.728035022727674
  0
LINE
  5
111
100
AcDbEntity
  8
Rear_Upper_I_O_Shield
  6
ByLayer
 62
  256
370
   -1
100
AcDbLine
 10
10.78630484541323
 20
8.728035022727674
 11
10.68780484541323
 21
8.557428018182133
  0
LINE
  5
112
100
AcDbEntity
  8
Rear_Upper_I_O_Shield
  6
ByLayer
 62
  256
370
   -1
100
AcDbLine
 10
10.68780484541323
 20
8.898642027273201
 11
10.49080484541323
 21
8.898642027273201
  0
LINE
  5
113
100
AcDbEntity
  8
Rear_Upper_I_O_Shield
  6
ByLayer
 62
  256
370
   -1
100
AcDbLine
 10
10.49080484541323
 20
8.898642027273201
 11
10.39230484541323
 21
8.728035022727674
  0
LINE
  5
114
100
AcDbEntity
  8
Rear_Upper_I_O_Shield
  6
ByLayer
 62
  256
370
   -1
100
AcDbLine
 10
10.39230484541323
 20
8.728035022727674
 11
10.49080484541323
 21
8.557428018182133
  0
LINE
  5
115
100
AcDbEntity
  8
Rear_Upper_I_O_Shield
  6
ByLayer
 62
  256
370
   -1
100
AcDbLine
 10
10.68780484541322
 20
9.239856036364269
 11
10.78630484541322
 21
9.069249031818742
  0
LINE
  5
116
100
AcDbEntity
  8
Rear_Upper_I_O_Shield
  6
ByLayer
 62
  256
370
   -1
100
AcDbLine
 10
10.78630484541322
 20
9.069249031818742
 11
10.68780484541323
 21
8.898642027273201
  0
LINE
  5
117
100
AcDbEntity
  8
Rear_Upper_I_O_Shield
  6
ByLayer
 62
  256
370
   -1
100
AcDbLine
 10
10.68780484541322
 20
9.239856036364269
 11
10.49080484541322
 21
9.239856036364269
  0
LINE
  5
118
100
AcDbEntity
  8
Rear_Upper_I_O_Shield
  6
ByLayer
 62
  256
370
   -1
100
AcDbLine
 10
10.49080484541322
 20
9.239856036364269
 11
10.39230484541322
 21
9.069249031818742
  0
LINE
  5
119
100
AcDbEntity
  8
Rear_Upper_I_O_Shield
  6
ByLayer
 62
  256
370
   -1
100
AcDbLine
 10
10.39230484541322
 20
9.069249031818742
 11
10.49080484541323
 21
8.898642027273201
  0
LINE
  5
11A
100
AcDbEntity
  8
Rear_Upper_I_O_Shield
  6
ByLayer
 62
  256
370
   -1
100
AcDbLine
 10
10.68780484541322
 20
9.581070045455338
 11
10.78630484541322
 21
9.410463040909811
  0
LINE
  5
11B
100
AcDbEntity
  8
Rear_Upper_I_O_Shield
  6
ByLayer
 62
  256
370
   -1
100
AcDbLine
 10
10.78630484541322
 20
9.410463040909811
 11
10.68780484541322
 21
9.239856036364269
  0
LINE
  5
11C
100
AcDbEntity
  8
Rear_Upper_I_O_Shield
  6
ByLayer
 62
  256
370
   -1
100
AcDbLine
 10
10.68780484541322
 20
9.581070045455338
 11
10.49080484541322
 21
9.581070045455338
  0
LINE
  5
11D
100
AcDbEntity
  8
Rear_Upper_I_O_Shield
  6
ByLayer
 62
  256
370
   -1
100
AcDbLine
 10
10.49080484541322
 20
9.581070045455338
 11
10.39230484541322
 21
9.410463040909811
  0
LINE
  5
11E
100
AcDbEntity
  8
Rear_Upper_I_O_Shield
  6
ByLayer
 62
  256
370
   -1
100
AcDbLine
 10
10.39230484541322
 20
9.410463040909811
 11
10.49080484541322
 21
9.239856036364269
  0
LINE
  5
11F
100
AcDbEntity
  8
Rear_Upper_I_O_Shield
  6
ByLayer
 62
  256
370
   -1
100
AcDbLine
 10
10.68780484541321
 20
9.922284054546406
 11
10.78630484541322
 21
9.751677050000879
  0
LINE
  5
120
100
AcDbEntity
  8
Rear_Upper_I_O_Shield
  6
ByLayer
 62
  256
370
   -1
100
AcDbLine
 10
10.78630484541322
 20
9.751677050000879
 11
10.68780484541322
 21
9.581070045455338
  0
LINE
  5
121
100
AcDbEntity
  8
Rear_Upper_I_O_Shield
  6
ByLayer
 62
  256
370
   -1
100
AcDbLine
 10
10.68780484541321
 20
9.922284054546406
 11
10.49080484541322
 21
9.922284054546406
  0
LINE
  5
122
100
AcDbEntity
  8
Rear_Upper_I_O_Shield
  6
ByLayer
 62
  256
370
   -1
100
AcDbLine
 10
10.49080484541322
 20
9.922284054546406
 11
10.39230484541322
 21
9.751677050000879
  0
LINE
  5
123
100
AcDbEntity
  8
Rear_Upper_I_O_Shield
  6
ByLayer
 62
  256
370
   -1
100
AcDbLine
 10
10.39230484541322
 20
9.751677050000879
 11
10.49080484541322
 21
9.581070045455338
  0
LINE
  5
124
100
AcDbEntity
  8
Rear_Upper_I_O_Shield
  6
ByLayer
 62
  256
370
   -1
100
AcDbLine
 10
10.68780484541321
 20
10.26349806363747
 11
10.78630484541321
 21
10.09289105909195
  0
LINE
  5
125
100
AcDbEntity
  8
Rear_Upper_I_O_Shield
  6
ByLayer
 62
  256
370
   -1
100
AcDbLine
 10
10.78630484541321
 20
10.09289105909195
 11
10.68780484541321
 21
9.922284054546406
  0
LINE
  5
126
100
AcDbEntity
  8
Rear_Upper_I_O_Shield
  6
ByLayer
 62
  256
370
   -1
100
AcDbLine
 10
10.68780484541321
 20
10.26349806363747
 11
10.49080484541321
 21
10.26349806363747
  0
LINE
  5
127
100
AcDbEntity
  8
Rear_Upper_I_O_Shield
  6
ByLayer
 62
  256
370
   -1
100
AcDbLine
 10
10.49080484541321
 20
10.26349806363747
 11
10.39230484541321
 21
10.09289105909195
  0
LINE
  5
128
100
AcDbEntity
  8
Rear_Upper_I_O_Shield
  6
ByLayer
 62
  256
370
   -1
100
AcDbLine
 10
10.39230484541321
 20
10.09289105909195
 11
10.49080484541322
 21
9.922284054546406
  0
LINE
  5
129
100
AcDbEntity
  8
Rear_Upper_I_O_Shield
  6
ByLayer
 62
  256
370
   -1
100
AcDbLine
 10
10.68780484541321
 20
10.60471207272854
 11
10.78630484541321
 21
10.43410506818302
  0
LINE
  5
12A
100
AcDbEntity
  8
Rear_Upper_I_O_Shield
  6
ByLayer
 62
  256
370
   -1
100
AcDbLine
 10
10.78630484541321
 20
10.43410506818302
 11
10.68780484541321
 21
10.26349806363747
  0
LINE
  5
12B
100
AcDbEntity
  8
Rear_Upper_I_O_Shield
  6
ByLayer
 62
  256
370
   -1
100
AcDbLine
 10
10.68780484541321
 20
10.60471207272854
 11
10.49080484541321
 21
10.60471207272854
  0
LINE
  5
12C
100
AcDbEntity
  8
Rear_Upper_I_O_Shield
  6
ByLayer
 62
  256
370
   -1
100
AcDbLine
 10
10.49080484541321
 20
10.60471207272854
 11
10.39230484541321
 21
10.43410506818302
  0
LINE
  5
12D
100
AcDbEntity
  8
Rear_Upper_I_O_Shield
  6
ByLayer
 62
  256
370
   -1
100
AcDbLine
 10
10.39230484541321
 20
10.43410506818302
 11
10.49080484541321
 21
10.26349806363747
  0
LINE
  5
12E
100
AcDbEntity
  8
Rear_Upper_I_O_Shield
  6
ByLayer
 62
  256
370
   -1
100
AcDbLine
 10
10.6878048454132
 20
10.94592608181961
 11
10.78630484541321
 21
10.77531907727408
  0
LINE
  5
12F
100
AcDbEntity
  8
Rear_Upper_I_O_Shield
  6
ByLayer
 62
  256
370
   -1
100
AcDbLine
 10
10.78630484541321
 20
10.77531907727408
 11
10.68780484541321
 21
10.60471207272854
  0
LINE
  5
130
100
AcDbEntity
  8
Rear_Upper_I_O_Shield
  6
ByLayer
 62
  256
370
   -1
100
AcDbLine
 10
10.6878048454132
 20
10.94592608181961
 11
10.49080484541321
 21
10.94592608181961
  0
LINE
  5
131
100
AcDbEntity
  8
Rear_Upper_I_O_Shield
  6
ByLayer
 62
  256
370
   -1
100
AcDbLine
 10
10.49080484541321
 20
10.94592608181961
 11
10.39230484541321
 21
10.77531907727408
  0
LINE
  5
132
100
AcDbEntity
  8
Rear_Upper_I_O_Shield
  6
ByLayer
 62
  256
370
   -1
100
AcDbLine
 10
10.39230484541321
 20
10.77531907727408
 11
10.49080484541321
 21
10.60471207272854
  0
LINE
  5
133
100
AcDbEntity
  8
Rear_Upper_I_O_Shield
  6
ByLayer
 62
  256
370
   -1
100
AcDbLine
 10
10.98330484541321
 20
10.43410506818302
 11
10.78630484541321
 21
10.43410506818302
  0
LINE
  5
134
100
AcDbEntity
  8
Rear_Upper_I_O_Shield
  6
ByLayer
 62
  256
370
   -1
100
AcDbLine
 10
10.9833048454132
 20
10.77531907727408
 11
11.08180484541321
 21
10.60471207272856
  0
LINE
  5
135
100
AcDbEntity
  8
Rear_Upper_I_O_Shield
  6
ByLayer
 62
  256
370
   -1
100
AcDbLine
 10
10.9833048454132
 20
10.77531907727408
 11
10.78630484541321
 21
10.77531907727408
  0
LINE
  5
136
100
AcDbEntity
  8
Rear_Upper_I_O_Shield
  6
ByLayer
 62
  256
370
   -1
100
AcDbLine
 10
10.98330484541321
 20
10.09289105909195
 11
10.78630484541321
 21
10.09289105909195
  0
LINE
  5
137
100
AcDbEntity
  8
Rear_Upper_I_O_Shield
  6
ByLayer
 62
  256
370
   -1
100
AcDbLine
 10
11.08180484541321
 20
10.26349806363749
 11
10.98330484541321
 21
10.09289105909195
  0
LINE
  5
138
100
AcDbEntity
  8
Rear_Upper_I_O_Shield
  6
ByLayer
 62
  256
370
   -1
100
AcDbLine
 10
10.98330484541322
 20
9.751677050000879
 11
10.78630484541322
 21
9.751677050000879
  0
LINE
  5
139
100
AcDbEntity
  8
Rear_Upper_I_O_Shield
  6
ByLayer
 62
  256
370
   -1
100
AcDbLine
 10
10.98330484541321
 20
10.09289105909195
 11
11.08180484541321
 21
9.92228405454642
  0
LINE
  5
13A
100
AcDbEntity
  8
Rear_Upper_I_O_Shield
  6
ByLayer
 62
  256
370
   -1
100
AcDbLine
 10
10.98330484541322
 20
9.410463040909811
 11
10.78630484541322
 21
9.410463040909811
  0
LINE
  5
13B
100
AcDbEntity
  8
Rear_Upper_I_O_Shield
  6
ByLayer
 62
  256
370
   -1
100
AcDbLine
 10
11.08180484541322
 20
9.581070045455352
 11
10.98330484541322
 21
9.410463040909811
  0
LINE
  5
13C
100
AcDbEntity
  8
Rear_Upper_I_O_Shield
  6
ByLayer
 62
  256
370
   -1
100
AcDbLine
 10
10.98330484541322
 20
9.069249031818742
 11
10.78630484541322
 21
9.069249031818742
  0
LINE
  5
13D
100
AcDbEntity
  8
Rear_Upper_I_O_Shield
  6
ByLayer
 62
  256
370
   -1
100
AcDbLine
 10
10.98330484541322
 20
9.410463040909811
 11
11.08180484541322
 21
9.239856036364284
  0
LINE
  5
13E
100
AcDbEntity
  8
Rear_Upper_I_O_Shield
  6
ByLayer
 62
  256
370
   -1
100
AcDbLine
 10
10.98330484541323
 20
8.728035022727674
 11
10.78630484541323
 21
8.728035022727674
  0
LINE
  5
13F
100
AcDbEntity
  8
Rear_Upper_I_O_Shield
  6
ByLayer
 62
  256
370
   -1
100
AcDbLine
 10
11.08180484541322
 20
8.898642027273215
 11
10.98330484541323
 21
8.728035022727674
  0
LINE
  5
140
100
AcDbEntity
  8
Rear_Upper_I_O_Shield
  6
ByLayer
 62
  256
370
   -1
100
AcDbLine
 10
10.98330484541323
 20
8.386821013636606
 11
10.78630484541323
 21
8.386821013636606
  0
LINE
  5
141
100
AcDbEntity
  8
Rear_Upper_I_O_Shield
  6
ByLayer
 62
  256
370
   -1
100
AcDbLine
 10
10.98330484541323
 20
8.728035022727674
 11
11.08180484541323
 21
8.557428018182147
  0
LINE
  5
142
100
AcDbEntity
  8
Rear_Upper_I_O_Shield
  6
ByLayer
 62
  256
370
   -1
100
AcDbLine
 10
10.98330484541323
 20
8.045607004545538
 11
10.78630484541323
 21
8.045607004545538
  0
LINE
  5
143
100
AcDbEntity
  8
Rear_Upper_I_O_Shield
  6
ByLayer
 62
  256
370
   -1
100
AcDbLine
 10
11.08180484541323
 20
8.216214009091079
 11
10.98330484541323
 21
8.045607004545538
  0
LINE
  5
144
100
AcDbEntity
  8
Rear_Upper_I_O_Shield
  6
ByLayer
 62
  256
370
   -1
100
AcDbLine
 10
10.98330484541324
 20
7.70439299545447
 11
10.78630484541324
 21
7.70439299545447
  0
LINE
  5
145
100
AcDbEntity
  8
Rear_Upper_I_O_Shield
  6
ByLayer
 62
  256
370
   -1
100
AcDbLine
 10
10.98330484541323
 20
8.045607004545538
 11
11.08180484541323
 21
7.875000000000012
  0
LINE
  5
146
100
AcDbEntity
  8
Rear_Upper_I_O_Shield
  6
ByLayer
 62
  256
370
   -1
100
AcDbLine
 10
10.98330484541324
 20
7.363178986363402
 11
10.78630484541324
 21
7.363178986363402
  0
LINE
  5
147
100
AcDbEntity
  8
Rear_Upper_I_O_Shield
  6
ByLayer
 62
  256
370
   -1
100
AcDbLine
 10
11.08180484541324
 20
7.533785990908943
 11
10.98330484541324
 21
7.363178986363402
  0
LINE
  5
148
100
AcDbEntity
  8
Rear_Upper_I_O_Shield
  6
ByLayer
 62
  256
370
   -1
100
AcDbLine
 10
10.98330484541324
 20
7.021964977272334
 11
10.78630484541324
 21
7.021964977272334
  0
LINE
  5
149
100
AcDbEntity
  8
Rear_Upper_I_O_Shield
  6
ByLayer
 62
  256
370
   -1
100
AcDbLine
 10
10.98330484541324
 20
7.363178986363402
 11
11.08180484541324
 21
7.192571981817875
  0
LINE
  5
14A
100
AcDbEntity
  8
Rear_Upper_I_O_Shield
  6
ByLayer
 62
  256
370
   -1
100
AcDbLine
 10
10.98330484541325
 20
6.680750968181266
 11
10.78630484541325
 21
6.680750968181266
  0
LINE
  5
14B
100
AcDbEntity
  8
Rear_Upper_I_O_Shield
  6
ByLayer
 62
  256
370
   -1
100
AcDbLine
 10
11.08180484541325
 20
6.851357972726807
 11
10.98330484541325
 21
6.680750968181266
  0
LINE
  5
14C
100
AcDbEntity
  8
Rear_Upper_I_O_Shield
  6
ByLayer
 62
  256
370
   -1
100
AcDbLine
 10
10.98330484541325
 20
6.339536959090197
 11
10.78630484541325
 21
6.339536959090197
  0
LINE
  5
14D
100
AcDbEntity
  8
Rear_Upper_I_O_Shield
  6
ByLayer
 62
  256
370
   -1
100
AcDbLine
 10
10.98330484541325
 20
6.680750968181266
 11
11.08180484541325
 21
6.510143963635739
  0
LINE
  5
14E
100
AcDbEntity
  8
Rear_Upper_I_O_Shield
  6
ByLayer
 62
  256
370
   -1
100
AcDbLine
 10
10.98330484541325
 20
5.998322949999129
 11
10.78630484541326
 21
5.998322949999129
  0
LINE
  5
14F
100
AcDbEntity
  8
Rear_Upper_I_O_Shield
  6
ByLayer
 62
  256
370
   -1
100
AcDbLine
 10
11.08180484541325
 20
6.16892995454467
 11
10.98330484541325
 21
5.998322949999129
  0
LINE
  5
150
100
AcDbEntity
  8
Rear_Upper_I_O_Shield
  6
ByLayer
 62
  256
370
   -1
100
AcDbLine
 10
10.98330484541326
 20
5.657108940908061
 11
10.78630484541326
 21
5.657108940908061
  0
LINE
  5
151
100
AcDbEntity
  8
Rear_Upper_I_O_Shield
  6
ByLayer
 62
  256
370
   -1
100
AcDbLine
 10
10.98330484541325
 20
5.998322949999129
 11
11.08180484541326
 21
5.827715945453602
  0
LINE
  5
152
100
AcDbEntity
  8
Rear_Upper_I_O_Shield
  6
ByLayer
 62
  256
370
   -1
100
AcDbLine
 10
10.98330484541326
 20
5.315894931816993
 11
10.78630484541326
 21
5.315894931816993
  0
LINE
  5
153
100
AcDbEntity
  8
Rear_Upper_I_O_Shield
  6
ByLayer
 62
  256
370
   -1
100
AcDbLine
 10
11.08180484541326
 20
5.486501936362534
 11
10.98330484541326
 21
5.315894931816993
  0
LINE
  5
154
100
AcDbEntity
  8
Rear_Upper_I_O_Shield
  6
ByLayer
 62
  256
370
   -1
100
AcDbLine
 10
10.98330484541327
 20
4.974680922725924
 11
10.78630484541327
 21
4.974680922725924
  0
LINE
  5
155
100
AcDbEntity
  8
Rear_Upper_I_O_Shield
  6
ByLayer
 62
  256
370
   -1
100
AcDbLine
 10
10.98330484541326
 20
5.315894931816993
 11
11.08180484541326
 21
5.145287927271466
  0
LINE
  5
156
100
AcDbEntity
  8
Rear_Upper_I_O_Shield
  6
ByLayer
 62
  256
370
   -1
100
AcDbLine
 10
11.08180484541321
 20
10.94592608181961
 11
10.98330484541321
 21
10.77531907727408
  0
LINE
  5
157
100
AcDbEntity
  8
Rear_Upper_I_O_Shield
  6
ByLayer
 62
  256
370
   -1
100
AcDbLine
 10
11.84680484541326
 20
10.60471207272856
 11
11.74830484541326
 21
10.77531907727409
  0
LINE
  5
158
100
AcDbEntity
  8
Rear_Upper_I_O_Shield
  6
ByLayer
 62
  256
370
   -1
100
AcDbLine
 10
11.74830484541326
 20
10.77531907727409
 11
11.84680484541326
 21
10.94592608181963
  0
LINE
  5
159
100
AcDbEntity
  8
Rear_Upper_I_O_Shield
  6
ByLayer
 62
  256
370
   -1
100
AcDbLine
 10
11.84680484541326
 20
10.94592608181963
 11
12.04380484541326
 21
10.94592608181963
  0
LINE
  5
15A
100
AcDbEntity
  8
Rear_Upper_I_O_Shield
  6
ByLayer
 62
  256
370
   -1
100
AcDbLine
 10
11.84680484541326
 20
10.60471207272856
 11
12.04380484541326
 21
10.60471207272856
  0
LINE
  5
15B
100
AcDbEntity
  8
Rear_Upper_I_O_Shield
  6
ByLayer
 62
  256
370
   -1
100
AcDbLine
 10
12.04380484541326
 20
10.60471207272856
 11
12.14230484541326
 21
10.77531907727409
  0
LINE
  5
15C
100
AcDbEntity
  8
Rear_Upper_I_O_Shield
  6
ByLayer
 62
  256
370
   -1
100
AcDbLine
 10
12.14230484541326
 20
10.77531907727409
 11
12.04380484541326
 21
10.94592608181963
  0
LINE
  5
15D
100
AcDbEntity
  8
Rear_Upper_I_O_Shield
  6
ByLayer
 62
  256
370
   -1
100
AcDbLine
 10
11.84680484541327
 20
10.26349806363749
 11
11.74830484541327
 21
10.43410506818302
  0
LINE
  5
15E
100
AcDbEntity
  8
Rear_Upper_I_O_Shield
  6
ByLayer
 62
  256
370
   -1
100
AcDbLine
 10
11.74830484541327
 20
10.43410506818302
 11
11.84680484541326
 21
10.60471207272856
  0
LINE
  5
15F
100
AcDbEntity
  8
Rear_Upper_I_O_Shield
  6
ByLayer
 62
  256
370
   -1
100
AcDbLine
 10
11.84680484541327
 20
10.26349806363749
 11
12.04380484541327
 21
10.26349806363749
  0
LINE
  5
160
100
AcDbEntity
  8
Rear_Upper_I_O_Shield
  6
ByLayer
 62
  256
370
   -1
100
AcDbLine
 10
12.04380484541327
 20
10.26349806363749
 11
12.14230484541326
 21
10.43410506818302
  0
LINE
  5
161
100
AcDbEntity
  8
Rear_Upper_I_O_Shield
  6
ByLayer
 62
  256
370
   -1
100
AcDbLine
 10
12.14230484541326
 20
10.43410506818302
 11
12.04380484541326
 21
10.60471207272856
  0
LINE
  5
162
100
AcDbEntity
  8
Rear_Upper_I_O_Shield
  6
ByLayer
 62
  256
370
   -1
100
AcDbLine
 10
11.84680484541327
 20
9.922284054546424
 11
11.74830484541327
 21
10.09289105909195
  0
LINE
  5
163
100
AcDbEntity
  8
Rear_Upper_I_O_Shield
  6
ByLayer
 62
  256
370
   -1
100
AcDbLine
 10
11.74830484541327
 20
10.09289105909195
 11
11.84680484541327
 21
10.26349806363749
  0
LINE
  5
164
100
AcDbEntity
  8
Rear_Upper_I_O_Shield
  6
ByLayer
 62
  256
370
   -1
100
AcDbLine
 10
11.84680484541327
 20
9.922284054546424
 11
12.04380484541327
 21
9.922284054546424
  0
LINE
  5
165
100
AcDbEntity
  8
Rear_Upper_I_O_Shield
  6
ByLayer
 62
  256
370
   -1
100
AcDbLine
 10
12.04380484541327
 20
9.922284054546424
 11
12.14230484541327
 21
10.09289105909195
  0
LINE
  5
166
100
AcDbEntity
  8
Rear_Upper_I_O_Shield
  6
ByLayer
 62
  256
370
   -1
100
AcDbLine
 10
12.14230484541327
 20
10.09289105909195
 11
12.04380484541327
 21
10.26349806363749
  0
LINE
  5
167
100
AcDbEntity
  8
Rear_Upper_I_O_Shield
  6
ByLayer
 62
  256
370
   -1
100
AcDbLine
 10
11.84680484541327
 20
9.581070045455355
 11
11.74830484541327
 21
9.751677050000882
  0
LINE
  5
168
100
AcDbEntity
  8
Rear_Upper_I_O_Shield
  6
ByLayer
 62
  256
370
   -1
100
AcDbLine
 10
11.74830484541327
 20
9.751677050000882
 11
11.84680484541327
 21
9.922284054546424
  0
LINE
  5
169
100
AcDbEntity
  8
Rear_Upper_I_O_Shield
  6
ByLayer
 62
  256
370
   -1
100
AcDbLine
 10
11.84680484541327
 20
9.581070045455355
 11
12.04380484541327
 21
9.581070045455355
  0
LINE
  5
16A
100
AcDbEntity
  8
Rear_Upper_I_O_Shield
  6
ByLayer
 62
  256
370
   -1
100
AcDbLine
 10
12.04380484541327
 20
9.581070045455355
 11
12.14230484541327
 21
9.751677050000882
  0
LINE
  5
16B
100
AcDbEntity
  8
Rear_Upper_I_O_Shield
  6
ByLayer
 62
  256
370
   -1
100
AcDbLine
 10
12.14230484541327
 20
9.751677050000882
 11
12.04380484541327
 21
9.922284054546424
  0
LINE
  5
16C
100
AcDbEntity
  8
Rear_Upper_I_O_Shield
  6
ByLayer
 62
  256
370
   -1
100
AcDbLine
 10
11.84680484541328
 20
9.239856036364287
 11
11.74830484541328
 21
9.410463040909814
  0
LINE
  5
16D
100
AcDbEntity
  8
Rear_Upper_I_O_Shield
  6
ByLayer
 62
  256
370
   -1
100
AcDbLine
 10
11.74830484541328
 20
9.410463040909814
 11
11.84680484541327
 21
9.581070045455355
  0
LINE
  5
16E
100
AcDbEntity
  8
Rear_Upper_I_O_Shield
  6
ByLayer
 62
  256
370
   -1
100
AcDbLine
 10
11.84680484541328
 20
9.239856036364287
 11
12.04380484541328
 21
9.239856036364287
  0
LINE
  5
16F
100
AcDbEntity
  8
Rear_Upper_I_O_Shield
  6
ByLayer
 62
  256
370
   -1
100
AcDbLine
 10
12.04380484541328
 20
9.239856036364287
 11
12.14230484541327
 21
9.410463040909814
  0
LINE
  5
170
100
AcDbEntity
  8
Rear_Upper_I_O_Shield
  6
ByLayer
 62
  256
370
   -1
100
AcDbLine
 10
12.14230484541327
 20
9.410463040909814
 11
12.04380484541327
 21
9.581070045455355
  0
LINE
  5
171
100
AcDbEntity
  8
Rear_Upper_I_O_Shield
  6
ByLayer
 62
  256
370
   -1
100
AcDbLine
 10
11.84680484541328
 20
8.898642027273219
 11
11.74830484541328
 21
9.069249031818746
  0
LINE
  5
172
100
AcDbEntity
  8
Rear_Upper_I_O_Shield
  6
ByLayer
 62
  256
370
   -1
100
AcDbLine
 10
11.74830484541328
 20
9.069249031818746
 11
11.84680484541328
 21
9.239856036364287
  0
LINE
  5
173
100
AcDbEntity
  8
Rear_Upper_I_O_Shield
  6
ByLayer
 62
  256
370
   -1
100
AcDbLine
 10
11.84680484541328
 20
8.898642027273219
 11
12.04380484541328
 21
8.898642027273219
  0
LINE
  5
174
100
AcDbEntity
  8
Rear_Upper_I_O_Shield
  6
ByLayer
 62
  256
370
   -1
100
AcDbLine
 10
12.04380484541328
 20
8.898642027273219
 11
12.14230484541328
 21
9.069249031818746
  0
LINE
  5
175
100
AcDbEntity
  8
Rear_Upper_I_O_Shield
  6
ByLayer
 62
  256
370
   -1
100
AcDbLine
 10
12.14230484541328
 20
9.069249031818746
 11
12.04380484541328
 21
9.239856036364287
  0
LINE
  5
176
100
AcDbEntity
  8
Rear_Upper_I_O_Shield
  6
ByLayer
 62
  256
370
   -1
100
AcDbLine
 10
11.84680484541328
 20
8.557428018182151
 11
11.74830484541328
 21
8.728035022727678
  0
LINE
  5
177
100
AcDbEntity
  8
Rear_Upper_I_O_Shield
  6
ByLayer
 62
  256
370
   -1
100
AcDbLine
 10
11.74830484541328
 20
8.728035022727678
 11
11.84680484541328
 21
8.898642027273219
  0
LINE
  5
178
100
AcDbEntity
  8
Rear_Upper_I_O_Shield
  6
ByLayer
 62
  256
370
   -1
100
AcDbLine
 10
11.84680484541328
 20
8.557428018182151
 11
12.04380484541328
 21
8.557428018182151
  0
LINE
  5
179
100
AcDbEntity
  8
Rear_Upper_I_O_Shield
  6
ByLayer
 62
  256
370
   -1
100
AcDbLine
 10
12.04380484541328
 20
8.557428018182151
 11
12.14230484541328
 21
8.728035022727678
  0
LINE
  5
17A
100
AcDbEntity
  8
Rear_Upper_I_O_Shield
  6
ByLayer
 62
  256
370
   -1
100
AcDbLine
 10
12.14230484541328
 20
8.728035022727678
 11
12.04380484541328
 21
8.898642027273219
  0
LINE
  5
17B
100
AcDbEntity
  8
Rear_Upper_I_O_Shield
  6
ByLayer
 62
  256
370
   -1
100
AcDbLine
 10
11.84680484541329
 20
8.216214009091082
 11
11.74830484541329
 21
8.386821013636609
  0
LINE
  5
17C
100
AcDbEntity
  8
Rear_Upper_I_O_Shield
  6
ByLayer
 62
  256
370
   -1
100
AcDbLine
 10
11.74830484541329
 20
8.386821013636609
 11
11.84680484541328
 21
8.557428018182151
  0
LINE
  5
17D
100
AcDbEntity
  8
Rear_Upper_I_O_Shield
  6
ByLayer
 62
  256
370
   -1
100
AcDbLine
 10
11.84680484541329
 20
8.216214009091082
 11
12.04380484541329
 21
8.216214009091082
  0
LINE
  5
17E
100
AcDbEntity
  8
Rear_Upper_I_O_Shield
  6
ByLayer
 62
  256
370
   -1
100
AcDbLine
 10
12.04380484541329
 20
8.216214009091082
 11
12.14230484541329
 21
8.386821013636609
  0
LINE
  5
17F
100
AcDbEntity
  8
Rear_Upper_I_O_Shield
  6
ByLayer
 62
  256
370
   -1
100
AcDbLine
 10
12.14230484541329
 20
8.386821013636609
 11
12.04380484541328
 21
8.557428018182151
  0
LINE
  5
180
100
AcDbEntity
  8
Rear_Upper_I_O_Shield
  6
ByLayer
 62
  256
370
   -1
100
AcDbLine
 10
11.84680484541329
 20
7.875000000000014
 11
11.74830484541329
 21
8.045607004545541
  0
LINE
  5
181
100
AcDbEntity
  8
Rear_Upper_I_O_Shield
  6
ByLayer
 62
  256
370
   -1
100
AcDbLine
 10
11.74830484541329
 20
8.045607004545541
 11
11.84680484541329
 21
8.216214009091082
  0
LINE
  5
182
100
AcDbEntity
  8
Rear_Upper_I_O_Shield
  6
ByLayer
 62
  256
370
   -1
100
AcDbLine
 10
11.84680484541329
 20
7.875000000000014
 11
12.04380484541329
 21
7.875000000000014
  0
LINE
  5
183
100
AcDbEntity
  8
Rear_Upper_I_O_Shield
  6
ByLayer
 62
  256
370
   -1
100
AcDbLine
 10
12.04380484541329
 20
7.875000000000014
 11
12.14230484541329
 21
8.045607004545541
  0
LINE
  5
184
100
AcDbEntity
  8
Rear_Upper_I_O_Shield
  6
ByLayer
 62
  256
370
   -1
100
AcDbLine
 10
12.14230484541329
 20
8.045607004545541
 11
12.04380484541329
 21
8.216214009091082
  0
LINE
  5
185
100
AcDbEntity
  8
Rear_Upper_I_O_Shield
  6
ByLayer
 62
  256
370
   -1
100
AcDbLine
 10
11.8468048454133
 20
7.533785990908946
 11
11.74830484541329
 21
7.704392995454473
  0
LINE
  5
186
100
AcDbEntity
  8
Rear_Upper_I_O_Shield
  6
ByLayer
 62
  256
370
   -1
100
AcDbLine
 10
11.74830484541329
 20
7.704392995454473
 11
11.84680484541329
 21
7.875000000000014
  0
LINE
  5
187
100
AcDbEntity
  8
Rear_Upper_I_O_Shield
  6
ByLayer
 62
  256
370
   -1
100
AcDbLine
 10
11.8468048454133
 20
7.533785990908946
 11
12.04380484541329
 21
7.533785990908946
  0
LINE
  5
188
100
AcDbEntity
  8
Rear_Upper_I_O_Shield
  6
ByLayer
 62
  256
370
   -1
100
AcDbLine
 10
12.04380484541329
 20
7.533785990908946
 11
12.14230484541329
 21
7.704392995454473
  0
LINE
  5
189
100
AcDbEntity
  8
Rear_Upper_I_O_Shield
  6
ByLayer
 62
  256
370
   -1
100
AcDbLine
 10
12.14230484541329
 20
7.704392995454473
 11
12.04380484541329
 21
7.875000000000014
  0
LINE
  5
18A
100
AcDbEntity
  8
Rear_Upper_I_O_Shield
  6
ByLayer
 62
  256
370
   -1
100
AcDbLine
 10
11.8468048454133
 20
7.192571981817878
 11
11.7483048454133
 21
7.363178986363405
  0
LINE
  5
18B
100
AcDbEntity
  8
Rear_Upper_I_O_Shield
  6
ByLayer
 62
  256
370
   -1
100
AcDbLine
 10
11.7483048454133
 20
7.363178986363405
 11
11.8468048454133
 21
7.533785990908946
  0
LINE
  5
18C
100
AcDbEntity
  8
Rear_Upper_I_O_Shield
  6
ByLayer
 62
  256
370
   -1
100
AcDbLine
 10
11.8468048454133
 20
7.192571981817878
 11
12.0438048454133
 21
7.192571981817878
  0
LINE
  5
18D
100
AcDbEntity
  8
Rear_Upper_I_O_Shield
  6
ByLayer
 62
  256
370
   -1
100
AcDbLine
 10
12.0438048454133
 20
7.192571981817878
 11
12.1423048454133
 21
7.363178986363405
  0
LINE
  5
18E
100
AcDbEntity
  8
Rear_Upper_I_O_Shield
  6
ByLayer
 62
  256
370
   -1
100
AcDbLine
 10
12.1423048454133
 20
7.363178986363405
 11
12.04380484541329
 21
7.533785990908946
  0
LINE
  5
18F
100
AcDbEntity
  8
Rear_Upper_I_O_Shield
  6
ByLayer
 62
  256
370
   -1
100
AcDbLine
 10
11.8468048454133
 20
6.851357972726809
 11
11.7483048454133
 21
7.021964977272336
  0
LINE
  5
190
100
AcDbEntity
  8
Rear_Upper_I_O_Shield
  6
ByLayer
 62
  256
370
   -1
100
AcDbLine
 10
11.7483048454133
 20
7.021964977272336
 11
11.8468048454133
 21
7.192571981817878
  0
LINE
  5
191
100
AcDbEntity
  8
Rear_Upper_I_O_Shield
  6
ByLayer
 62
  256
370
   -1
100
AcDbLine
 10
11.8468048454133
 20
6.851357972726809
 11
12.0438048454133
 21
6.851357972726809
  0
LINE
  5
192
100
AcDbEntity
  8
Rear_Upper_I_O_Shield
  6
ByLayer
 62
  256
370
   -1
100
AcDbLine
 10
12.0438048454133
 20
6.851357972726809
 11
12.1423048454133
 21
7.021964977272336
  0
LINE
  5
193
100
AcDbEntity
  8
Rear_Upper_I_O_Shield
  6
ByLayer
 62
  256
370
   -1
100
AcDbLine
 10
12.1423048454133
 20
7.021964977272336
 11
12.0438048454133
 21
7.192571981817878
  0
LINE
  5
194
100
AcDbEntity
  8
Rear_Upper_I_O_Shield
  6
ByLayer
 62
  256
370
   -1
100
AcDbLine
 10
11.84680484541331
 20
6.510143963635741
 11
11.7483048454133
 21
6.680750968181268
  0
LINE
  5
195
100
AcDbEntity
  8
Rear_Upper_I_O_Shield
  6
ByLayer
 62
  256
370
   -1
100
AcDbLine
 10
11.7483048454133
 20
6.680750968181268
 11
11.8468048454133
 21
6.851357972726809
  0
LINE
  5
196
100
AcDbEntity
  8
Rear_Upper_I_O_Shield
  6
ByLayer
 62
  256
370
   -1
100
AcDbLine
 10
11.84680484541331
 20
6.510143963635741
 11
12.04380484541331
 21
6.510143963635741
  0
LINE
  5
197
100
AcDbEntity
  8
Rear_Upper_I_O_Shield
  6
ByLayer
 62
  256
370
   -1
100
AcDbLine
 10
12.04380484541331
 20
6.510143963635741
 11
12.1423048454133
 21
6.680750968181268
  0
LINE
  5
198
100
AcDbEntity
  8
Rear_Upper_I_O_Shield
  6
ByLayer
 62
  256
370
   -1
100
AcDbLine
 10
12.1423048454133
 20
6.680750968181268
 11
12.0438048454133
 21
6.851357972726809
  0
LINE
  5
199
100
AcDbEntity
  8
Rear_Upper_I_O_Shield
  6
ByLayer
 62
  256
370
   -1
100
AcDbLine
 10
11.84680484541331
 20
6.168929954544673
 11
11.74830484541331
 21
6.3395369590902
  0
LINE
  5
19A
100
AcDbEntity
  8
Rear_Upper_I_O_Shield
  6
ByLayer
 62
  256
370
   -1
100
AcDbLine
 10
11.74830484541331
 20
6.3395369590902
 11
11.84680484541331
 21
6.510143963635741
  0
LINE
  5
19B
100
AcDbEntity
  8
Rear_Upper_I_O_Shield
  6
ByLayer
 62
  256
370
   -1
100
AcDbLine
 10
11.84680484541331
 20
6.168929954544673
 11
12.04380484541331
 21
6.168929954544673
  0
LINE
  5
19C
100
AcDbEntity
  8
Rear_Upper_I_O_Shield
  6
ByLayer
 62
  256
370
   -1
100
AcDbLine
 10
12.04380484541331
 20
6.168929954544673
 11
12.14230484541331
 21
6.3395369590902
  0
LINE
  5
19D
100
AcDbEntity
  8
Rear_Upper_I_O_Shield
  6
ByLayer
 62
  256
370
   -1
100
AcDbLine
 10
12.14230484541331
 20
6.3395369590902
 11
12.04380484541331
 21
6.510143963635741
  0
LINE
  5
19E
100
AcDbEntity
  8
Rear_Upper_I_O_Shield
  6
ByLayer
 62
  256
370
   -1
100
AcDbLine
 10
11.84680484541331
 20
5.827715945453605
 11
11.74830484541331
 21
5.998322949999132
  0
LINE
  5
19F
100
AcDbEntity
  8
Rear_Upper_I_O_Shield
  6
ByLayer
 62
  256
370
   -1
100
AcDbLine
 10
11.74830484541331
 20
5.998322949999132
 11
11.84680484541331
 21
6.168929954544673
  0
LINE
  5
1A0
100
AcDbEntity
  8
Rear_Upper_I_O_Shield
  6
ByLayer
 62
  256
370
   -1
100
AcDbLine
 10
11.84680484541331
 20
5.827715945453605
 11
12.04380484541331
 21
5.827715945453605
  0
LINE
  5
1A1
100
AcDbEntity
  8
Rear_Upper_I_O_Shield
  6
ByLayer
 62
  256
370
   -1
100
AcDbLine
 10
12.04380484541331
 20
5.827715945453605
 11
12.14230484541331
 21
5.998322949999132
  0
LINE
  5
1A2
100
AcDbEntity
  8
Rear_Upper_I_O_Shield
  6
ByLayer
 62
  256
370
   -1
100
AcDbLine
 10
12.14230484541331
 20
5.998322949999132
 11
12.04380484541331
 21
6.168929954544673
  0
LINE
  5
1A3
100
AcDbEntity
  8
Rear_Upper_I_O_Shield
  6
ByLayer
 62
  256
370
   -1
100
AcDbLine
 10
11.84680484541332
 20
5.486501936362536
 11
11.74830484541332
 21
5.657108940908063
  0
LINE
  5
1A4
100
AcDbEntity
  8
Rear_Upper_I_O_Shield
  6
ByLayer
 62
  256
370
   -1
100
AcDbLine
 10
11.74830484541332
 20
5.657108940908063
 11
11.84680484541331
 21
5.827715945453605
  0
LINE
  5
1A5
100
AcDbEntity
  8
Rear_Upper_I_O_Shield
  6
ByLayer
 62
  256
370
   -1
100
AcDbLine
 10
11.84680484541332
 20
5.486501936362536
 11
12.04380484541332
 21
5.486501936362536
  0
LINE
  5
1A6
100
AcDbEntity
  8
Rear_Upper_I_O_Shield
  6
ByLayer
 62
  256
370
   -1
100
AcDbLine
 10
12.04380484541332
 20
5.486501936362536
 11
12.14230484541331
 21
5.657108940908063
  0
LINE
  5
1A7
100
AcDbEntity
  8
Rear_Upper_I_O_Shield
  6
ByLayer
 62
  256
370
   -1
100
AcDbLine
 10
12.14230484541331
 20
5.657108940908063
 11
12.04380484541331
 21
5.827715945453605
  0
LINE
  5
1A8
100
AcDbEntity
  8
Rear_Upper_I_O_Shield
  6
ByLayer
 62
  256
370
   -1
100
AcDbLine
 10
11.84680484541332
 20
5.145287927271468
 11
11.74830484541332
 21
5.315894931816995
  0
LINE
  5
1A9
100
AcDbEntity
  8
Rear_Upper_I_O_Shield
  6
ByLayer
 62
  256
370
   -1
100
AcDbLine
 10
11.74830484541332
 20
5.315894931816995
 11
11.84680484541332
 21
5.486501936362536
  0
LINE
  5
1AA
100
AcDbEntity
  8
Rear_Upper_I_O_Shield
  6
ByLayer
 62
  256
370
   -1
100
AcDbLine
 10
11.84680484541332
 20
5.145287927271468
 11
12.04380484541332
 21
5.145287927271468
  0
LINE
  5
1AB
100
AcDbEntity
  8
Rear_Upper_I_O_Shield
  6
ByLayer
 62
  256
370
   -1
100
AcDbLine
 10
12.04380484541332
 20
5.145287927271468
 11
12.14230484541332
 21
5.315894931816995
  0
LINE
  5
1AC
100
AcDbEntity
  8
Rear_Upper_I_O_Shield
  6
ByLayer
 62
  256
370
   -1
100
AcDbLine
 10
12.14230484541332
 20
5.315894931816995
 11
12.04380484541332
 21
5.486501936362536
  0
LINE
  5
1AD
100
AcDbEntity
  8
Rear_Upper_I_O_Shield
  6
ByLayer
 62
  256
370
   -1
100
AcDbLine
 10
11.84680484541332
 20
4.8040739181804
 11
11.74830484541332
 21
4.974680922725927
  0
LINE
  5
1AE
100
AcDbEntity
  8
Rear_Upper_I_O_Shield
  6
ByLayer
 62
  256
370
   -1
100
AcDbLine
 10
11.74830484541332
 20
4.974680922725927
 11
11.84680484541332
 21
5.145287927271468
  0
LINE
  5
1AF
100
AcDbEntity
  8
Rear_Upper_I_O_Shield
  6
ByLayer
 62
  256
370
   -1
100
AcDbLine
 10
11.84680484541332
 20
4.8040739181804
 11
12.04380484541332
 21
4.8040739181804
  0
LINE
  5
1B0
100
AcDbEntity
  8
Rear_Upper_I_O_Shield
  6
ByLayer
 62
  256
370
   -1
100
AcDbLine
 10
12.04380484541332
 20
4.8040739181804
 11
12.14230484541332
 21
4.974680922725927
  0
LINE
  5
1B1
100
AcDbEntity
  8
Rear_Upper_I_O_Shield
  6
ByLayer
 62
  256
370
   -1
100
AcDbLine
 10
12.14230484541332
 20
4.974680922725927
 11
12.04380484541332
 21
5.145287927271468
  0
LINE
  5
1B2
100
AcDbEntity
  8
Rear_Upper_I_O_Shield
  6
ByLayer
 62
  256
370
   -1
100
AcDbLine
 10
11.55130484541332
 20
5.315894931816995
 11
11.74830484541332
 21
5.315894931816995
  0
LINE
  5
1B3
100
AcDbEntity
  8
Rear_Upper_I_O_Shield
  6
ByLayer
 62
  256
370
   -1
100
AcDbLine
 10
11.55130484541332
 20
4.974680922725927
 11
11.45280484541332
 21
5.145287927271454
  0
LINE
  5
1B4
100
AcDbEntity
  8
Rear_Upper_I_O_Shield
  6
ByLayer
 62
  256
370
   -1
100
AcDbLine
 10
11.55130484541332
 20
4.974680922725927
 11
11.74830484541332
 21
4.974680922725927
  0
LINE
  5
1B5
100
AcDbEntity
  8
Rear_Upper_I_O_Shield
  6
ByLayer
 62
  256
370
   -1
100
AcDbLine
 10
11.55130484541332
 20
5.657108940908063
 11
11.74830484541332
 21
5.657108940908063
  0
LINE
  5
1B6
100
AcDbEntity
  8
Rear_Upper_I_O_Shield
  6
ByLayer
 62
  256
370
   -1
100
AcDbLine
 10
11.45280484541332
 20
5.486501936362522
 11
11.55130484541332
 21
5.657108940908063
  0
LINE
  5
1B7
100
AcDbEntity
  8
Rear_Upper_I_O_Shield
  6
ByLayer
 62
  256
370
   -1
100
AcDbLine
 10
11.55130484541331
 20
5.998322949999132
 11
11.74830484541331
 21
5.998322949999132
  0
LINE
  5
1B8
100
AcDbEntity
  8
Rear_Upper_I_O_Shield
  6
ByLayer
 62
  256
370
   -1
100
AcDbLine
 10
11.55130484541332
 20
5.657108940908063
 11
11.45280484541331
 21
5.827715945453591
  0
LINE
  5
1B9
100
AcDbEntity
  8
Rear_Upper_I_O_Shield
  6
ByLayer
 62
  256
370
   -1
100
AcDbLine
 10
11.55130484541331
 20
6.3395369590902
 11
11.74830484541331
 21
6.3395369590902
  0
LINE
  5
1BA
100
AcDbEntity
  8
Rear_Upper_I_O_Shield
  6
ByLayer
 62
  256
370
   -1
100
AcDbLine
 10
11.45280484541331
 20
6.168929954544659
 11
11.55130484541331
 21
6.3395369590902
  0
LINE
  5
1BB
100
AcDbEntity
  8
Rear_Upper_I_O_Shield
  6
ByLayer
 62
  256
370
   -1
100
AcDbLine
 10
11.55130484541331
 20
6.680750968181268
 11
11.7483048454133
 21
6.680750968181268
  0
LINE
  5
1BC
100
AcDbEntity
  8
Rear_Upper_I_O_Shield
  6
ByLayer
 62
  256
370
   -1
100
AcDbLine
 10
11.55130484541331
 20
6.3395369590902
 11
11.45280484541331
 21
6.510143963635727
  0
LINE
  5
1BD
100
AcDbEntity
  8
Rear_Upper_I_O_Shield
  6
ByLayer
 62
  256
370
   -1
100
AcDbLine
 10
11.5513048454133
 20
7.021964977272336
 11
11.7483048454133
 21
7.021964977272336
  0
LINE
  5
1BE
100
AcDbEntity
  8
Rear_Upper_I_O_Shield
  6
ByLayer
 62
  256
370
   -1
100
AcDbLine
 10
11.4528048454133
 20
6.851357972726795
 11
11.5513048454133
 21
7.021964977272336
  0
LINE
  5
1BF
100
AcDbEntity
  8
Rear_Upper_I_O_Shield
  6
ByLayer
 62
  256
370
   -1
100
AcDbLine
 10
11.5513048454133
 20
7.363178986363405
 11
11.7483048454133
 21
7.363178986363405
  0
LINE
  5
1C0
100
AcDbEntity
  8
Rear_Upper_I_O_Shield
  6
ByLayer
 62
  256
370
   -1
100
AcDbLine
 10
11.5513048454133
 20
7.021964977272336
 11
11.4528048454133
 21
7.192571981817864
  0
LINE
  5
1C1
100
AcDbEntity
  8
Rear_Upper_I_O_Shield
  6
ByLayer
 62
  256
370
   -1
100
AcDbLine
 10
11.55130484541329
 20
7.704392995454473
 11
11.74830484541329
 21
7.704392995454473
  0
LINE
  5
1C2
100
AcDbEntity
  8
Rear_Upper_I_O_Shield
  6
ByLayer
 62
  256
370
   -1
100
AcDbLine
 10
11.4528048454133
 20
7.533785990908932
 11
11.55130484541329
 21
7.704392995454473
  0
LINE
  5
1C3
100
AcDbEntity
  8
Rear_Upper_I_O_Shield
  6
ByLayer
 62
  256
370
   -1
100
AcDbLine
 10
11.55130484541329
 20
8.045607004545541
 11
11.74830484541329
 21
8.045607004545541
  0
LINE
  5
1C4
100
AcDbEntity
  8
Rear_Upper_I_O_Shield
  6
ByLayer
 62
  256
370
   -1
100
AcDbLine
 10
11.55130484541329
 20
7.704392995454473
 11
11.45280484541329
 21
7.875
  0
LINE
  5
1C5
100
AcDbEntity
  8
Rear_Upper_I_O_Shield
  6
ByLayer
 62
  256
370
   -1
100
AcDbLine
 10
11.55130484541329
 20
8.386821013636609
 11
11.74830484541329
 21
8.386821013636609
  0
LINE
  5
1C6
100
AcDbEntity
  8
Rear_Upper_I_O_Shield
  6
ByLayer
 62
  256
370
   -1
100
AcDbLine
 10
11.45280484541329
 20
8.216214009091068
 11
11.55130484541329
 21
8.386821013636609
  0
LINE
  5
1C7
100
AcDbEntity
  8
Rear_Upper_I_O_Shield
  6
ByLayer
 62
  256
370
   -1
100
AcDbLine
 10
11.55130484541328
 20
8.728035022727678
 11
11.74830484541328
 21
8.728035022727678
  0
LINE
  5
1C8
100
AcDbEntity
  8
Rear_Upper_I_O_Shield
  6
ByLayer
 62
  256
370
   -1
100
AcDbLine
 10
11.55130484541329
 20
8.386821013636609
 11
11.45280484541329
 21
8.557428018182136
  0
LINE
  5
1C9
100
AcDbEntity
  8
Rear_Upper_I_O_Shield
  6
ByLayer
 62
  256
370
   -1
100
AcDbLine
 10
11.55130484541328
 20
9.069249031818746
 11
11.74830484541328
 21
9.069249031818746
  0
LINE
  5
1CA
100
AcDbEntity
  8
Rear_Upper_I_O_Shield
  6
ByLayer
 62
  256
370
   -1
100
AcDbLine
 10
11.45280484541328
 20
8.898642027273205
 11
11.55130484541328
 21
9.069249031818746
  0
LINE
  5
1CB
100
AcDbEntity
  8
Rear_Upper_I_O_Shield
  6
ByLayer
 62
  256
370
   -1
100
AcDbLine
 10
11.55130484541328
 20
9.410463040909814
 11
11.74830484541328
 21
9.410463040909814
  0
LINE
  5
1CC
100
AcDbEntity
  8
Rear_Upper_I_O_Shield
  6
ByLayer
 62
  256
370
   -1
100
AcDbLine
 10
11.55130484541328
 20
9.069249031818746
 11
11.45280484541328
 21
9.239856036364273
  0
LINE
  5
1CD
100
AcDbEntity
  8
Rear_Upper_I_O_Shield
  6
ByLayer
 62
  256
370
   -1
100
AcDbLine
 10
11.55130484541327
 20
9.751677050000882
 11
11.74830484541327
 21
9.751677050000882
  0
LINE
  5
1CE
100
AcDbEntity
  8
Rear_Upper_I_O_Shield
  6
ByLayer
 62
  256
370
   -1
100
AcDbLine
 10
11.45280484541328
 20
9.581070045455341
 11
11.55130484541327
 21
9.751677050000882
  0
LINE
  5
1CF
100
AcDbEntity
  8
Rear_Upper_I_O_Shield
  6
ByLayer
 62
  256
370
   -1
100
AcDbLine
 10
11.55130484541327
 20
10.09289105909195
 11
11.74830484541327
 21
10.09289105909195
  0
LINE
  5
1D0
100
AcDbEntity
  8
Rear_Upper_I_O_Shield
  6
ByLayer
 62
  256
370
   -1
100
AcDbLine
 10
11.55130484541327
 20
9.751677050000882
 11
11.45280484541327
 21
9.922284054546409
  0
LINE
  5
1D1
100
AcDbEntity
  8
Rear_Upper_I_O_Shield
  6
ByLayer
 62
  256
370
   -1
100
AcDbLine
 10
11.55130484541327
 20
10.43410506818302
 11
11.74830484541327
 21
10.43410506818302
  0
LINE
  5
1D2
100
AcDbEntity
  8
Rear_Upper_I_O_Shield
  6
ByLayer
 62
  256
370
   -1
100
AcDbLine
 10
11.45280484541327
 20
10.26349806363748
 11
11.55130484541327
 21
10.43410506818302
  0
LINE
  5
1D3
100
AcDbEntity
  8
Rear_Upper_I_O_Shield
  6
ByLayer
 62
  256
370
   -1
100
AcDbLine
 10
11.55130484541326
 20
10.77531907727409
 11
11.74830484541326
 21
10.77531907727409
  0
LINE
  5
1D4
100
AcDbEntity
  8
Rear_Upper_I_O_Shield
  6
ByLayer
 62
  256
370
   -1
100
AcDbLine
 10
11.55130484541327
 20
10.43410506818302
 11
11.45280484541327
 21
10.60471207272855
  0
LINE
  5
1D5
100
AcDbEntity
  8
Rear_Upper_I_O_Shield
  6
ByLayer
 62
  256
370
   -1
100
AcDbLine
 10
11.45280484541332
 20
4.8040739181804
 11
11.55130484541332
 21
4.974680922725927
  0
LINE
  5
1D6
100
AcDbEntity
  8
R_U_Board_1
  6
ByLayer
 62
  256
370
   -1
100
AcDbLine
 10
11.27880484541321
 20
10.94592608181961
 11
11.37730484541321
 21
10.77531907727408
  0
LINE
  5
1D7
100
AcDbEntity
  8
R_U_Board_1
  6
ByLayer
 62
  256
370
   -1
100
AcDbLine
 10
11.37730484541321
 20
10.77531907727408
 11
11.27880484541321
 21
10.60471207272854
  0
LINE
  5
1D8
100
AcDbEntity
  8
R_U_Board_1
  6
ByLayer
 62
  256
370
   -1
100
AcDbLine
 10
11.27880484541321
 20
10.60471207272854
 11
11.08180484541321
 21
10.60471207272856
  0
LINE
  5
1D9
100
AcDbEntity
  8
R_U_Board_1
  6
ByLayer
 62
  256
370
   -1
100
AcDbLine
 10
11.08180484541321
 20
10.60471207272856
 11
10.98330484541321
 21
10.43410506818302
  0
LINE
  5
1DA
100
AcDbEntity
  8
R_U_Board_1
  6
ByLayer
 62
  256
370
   -1
100
AcDbLine
 10
10.98330484541321
 20
10.43410506818302
 11
11.08180484541321
 21
10.26349806363749
  0
LINE
  5
1DB
100
AcDbEntity
  8
R_U_Board_1
  6
ByLayer
 62
  256
370
   -1
100
AcDbLine
 10
11.08180484541321
 20
10.26349806363749
 11
11.2788048454132
 21
10.26349806363747
  0
LINE
  5
1DC
100
AcDbEntity
  8
R_U_Board_1
  6
ByLayer
 62
  256
370
   -1
100
AcDbLine
 10
11.2788048454132
 20
10.26349806363747
 11
11.37730484541317
 21
10.09289105909194
  0
LINE
  5
1DD
100
AcDbEntity
  8
R_U_Board_1
  6
ByLayer
 62
  256
370
   -1
100
AcDbLine
 10
11.37730484541317
 20
10.09289105909194
 11
11.2788048454132
 21
9.922284054546406
  0
LINE
  5
1DE
100
AcDbEntity
  8
R_U_Board_1
  6
ByLayer
 62
  256
370
   -1
100
AcDbLine
 10
11.2788048454132
 20
9.922284054546406
 11
11.0818048454132
 21
9.922284054546406
  0
LINE
  5
1DF
100
AcDbEntity
  8
R_U_Board_1
  6
ByLayer
 62
  256
370
   -1
100
AcDbLine
 10
11.0818048454132
 20
9.922284054546406
 11
10.98330484541322
 21
9.751677050000879
  0
LINE
  5
1E0
100
AcDbEntity
  8
R_U_Board_1
  6
ByLayer
 62
  256
370
   -1
100
AcDbLine
 10
10.98330484541322
 20
9.751677050000879
 11
11.08180484541322
 21
9.581070045455352
  0
LINE
  5
1E1
100
AcDbEntity
  8
R_U_Board_1
  6
ByLayer
 62
  256
370
   -1
100
AcDbLine
 10
11.08180484541322
 20
9.581070045455352
 11
11.27880484541319
 21
9.581070045455338
  0
LINE
  5
1E2
100
AcDbEntity
  8
R_U_Board_1
  6
ByLayer
 62
  256
370
   -1
100
AcDbLine
 10
11.27880484541319
 20
9.581070045455338
 11
11.37730484541314
 21
9.410463040909804
  0
LINE
  5
1E3
100
AcDbEntity
  8
R_U_Board_1
  6
ByLayer
 62
  256
370
   -1
100
AcDbLine
 10
11.37730484541314
 20
9.410463040909804
 11
11.27880484541319
 21
9.239856036364269
  0
LINE
  5
1E4
100
AcDbEntity
  8
R_U_Board_1
  6
ByLayer
 62
  256
370
   -1
100
AcDbLine
 10
11.27880484541319
 20
9.239856036364269
 11
11.08180484541319
 21
9.239856036364269
  0
LINE
  5
1E5
100
AcDbEntity
  8
R_U_Board_1
  6
ByLayer
 62
  256
370
   -1
100
AcDbLine
 10
11.08180484541319
 20
9.239856036364269
 11
10.98330484541322
 21
9.069249031818742
  0
LINE
  5
1E6
100
AcDbEntity
  8
R_U_Board_1
  6
ByLayer
 62
  256
370
   -1
100
AcDbLine
 10
10.98330484541322
 20
9.069249031818742
 11
11.08180484541319
 21
8.898642027273201
  0
LINE
  5
1E7
100
AcDbEntity
  8
R_U_Board_1
  6
ByLayer
 62
  256
370
   -1
100
AcDbLine
 10
11.08180484541319
 20
8.898642027273201
 11
11.27880484541319
 21
8.898642027273201
  0
LINE
  5
1E8
100
AcDbEntity
  8
R_U_Board_1
  6
ByLayer
 62
  256
370
   -1
100
AcDbLine
 10
11.27880484541319
 20
8.898642027273201
 11
11.3773048454131
 21
8.728035022727667
  0
LINE
  5
1E9
100
AcDbEntity
  8
R_U_Board_1
  6
ByLayer
 62
  256
370
   -1
100
AcDbLine
 10
11.3773048454131
 20
8.728035022727667
 11
11.27880484541318
 21
8.557428018182133
  0
LINE
  5
1EA
100
AcDbEntity
  8
R_U_Board_1
  6
ByLayer
 62
  256
370
   -1
100
AcDbLine
 10
11.27880484541318
 20
8.557428018182133
 11
11.08180484541323
 21
8.557428018182147
  0
LINE
  5
1EB
100
AcDbEntity
  8
R_U_Board_1
  6
ByLayer
 62
  256
370
   -1
100
AcDbLine
 10
11.08180484541323
 20
8.557428018182147
 11
10.98330484541323
 21
8.386821013636606
  0
LINE
  5
1EC
100
AcDbEntity
  8
R_U_Board_1
  6
ByLayer
 62
  256
370
   -1
100
AcDbLine
 10
10.98330484541323
 20
8.386821013636606
 11
11.08180484541323
 21
8.216214009091079
  0
LINE
  5
1ED
100
AcDbEntity
  8
R_U_Board_1
  6
ByLayer
 62
  256
370
   -1
100
AcDbLine
 10
11.08180484541323
 20
8.216214009091079
 11
11.27880484541318
 21
8.216214009091065
  0
LINE
  5
1EE
100
AcDbEntity
  8
R_U_Board_1
  6
ByLayer
 62
  256
370
   -1
100
AcDbLine
 10
11.27880484541318
 20
8.216214009091065
 11
11.37730484541307
 21
8.045607004545531
  0
LINE
  5
1EF
100
AcDbEntity
  8
R_U_Board_1
  6
ByLayer
 62
  256
370
   -1
100
AcDbLine
 10
11.37730484541307
 20
8.045607004545531
 11
11.27880484541318
 21
7.874999999999997
  0
LINE
  5
1F0
100
AcDbEntity
  8
R_U_Board_1
  6
ByLayer
 62
  256
370
   -1
100
AcDbLine
 10
11.27880484541318
 20
7.874999999999997
 11
11.08180484541323
 21
7.875000000000012
  0
LINE
  5
1F1
100
AcDbEntity
  8
R_U_Board_1
  6
ByLayer
 62
  256
370
   -1
100
AcDbLine
 10
11.08180484541323
 20
7.875000000000012
 11
10.98330484541324
 21
7.70439299545447
  0
LINE
  5
1F2
100
AcDbEntity
  8
R_U_Board_1
  6
ByLayer
 62
  256
370
   -1
100
AcDbLine
 10
10.98330484541324
 20
7.70439299545447
 11
11.08180484541317
 21
7.533785990908929
  0
LINE
  5
1F3
100
AcDbEntity
  8
R_U_Board_1
  6
ByLayer
 62
  256
370
   -1
100
AcDbLine
 10
11.08180484541317
 20
7.533785990908929
 11
11.27880484541317
 21
7.533785990908929
  0
LINE
  5
1F4
100
AcDbEntity
  8
R_U_Board_1
  6
ByLayer
 62
  256
370
   -1
100
AcDbLine
 10
11.27880484541317
 20
7.533785990908929
 11
11.37730484541303
 21
7.363178986363394
  0
LINE
  5
1F5
100
AcDbEntity
  8
R_U_Board_1
  6
ByLayer
 62
  256
370
   -1
100
AcDbLine
 10
11.37730484541303
 20
7.363178986363394
 11
11.27880484541317
 21
7.192571981817861
  0
LINE
  5
1F6
100
AcDbEntity
  8
R_U_Board_1
  6
ByLayer
 62
  256
370
   -1
100
AcDbLine
 10
11.27880484541317
 20
7.192571981817861
 11
11.08180484541324
 21
7.192571981817875
  0
LINE
  5
1F7
100
AcDbEntity
  8
R_U_Board_1
  6
ByLayer
 62
  256
370
   -1
100
AcDbLine
 10
11.08180484541324
 20
7.192571981817875
 11
10.98330484541324
 21
7.021964977272334
  0
LINE
  5
1F8
100
AcDbEntity
  8
R_U_Board_1
  6
ByLayer
 62
  256
370
   -1
100
AcDbLine
 10
10.98330484541324
 20
7.021964977272334
 11
11.08180484541325
 21
6.851357972726807
  0
LINE
  5
1F9
100
AcDbEntity
  8
R_U_Board_1
  6
ByLayer
 62
  256
370
   -1
100
AcDbLine
 10
11.08180484541325
 20
6.851357972726807
 11
11.27880484541317
 21
6.851357972726793
  0
LINE
  5
1FA
100
AcDbEntity
  8
R_U_Board_1
  6
ByLayer
 62
  256
370
   -1
100
AcDbLine
 10
11.27880484541317
 20
6.851357972726793
 11
11.377304845413
 21
6.680750968181257
  0
LINE
  5
1FB
100
AcDbEntity
  8
R_U_Board_1
  6
ByLayer
 62
  256
370
   -1
100
AcDbLine
 10
11.377304845413
 20
6.680750968181257
 11
11.27880484541316
 21
6.510143963635724
  0
LINE
  5
1FC
100
AcDbEntity
  8
R_U_Board_1
  6
ByLayer
 62
  256
370
   -1
100
AcDbLine
 10
11.27880484541316
 20
6.510143963635724
 11
11.08180484541316
 21
6.510143963635724
  0
LINE
  5
1FD
100
AcDbEntity
  8
R_U_Board_1
  6
ByLayer
 62
  256
370
   -1
100
AcDbLine
 10
11.08180484541316
 20
6.510143963635724
 11
10.98330484541325
 21
6.339536959090197
  0
LINE
  5
1FE
100
AcDbEntity
  8
R_U_Board_1
  6
ByLayer
 62
  256
370
   -1
100
AcDbLine
 10
10.98330484541325
 20
6.339536959090197
 11
11.08180484541316
 21
6.168929954544656
  0
LINE
  5
1FF
100
AcDbEntity
  8
R_U_Board_1
  6
ByLayer
 62
  256
370
   -1
100
AcDbLine
 10
11.08180484541316
 20
6.168929954544656
 11
11.27880484541316
 21
6.168929954544656
  0
LINE
  5
200
100
AcDbEntity
  8
R_U_Board_1
  6
ByLayer
 62
  256
370
   -1
100
AcDbLine
 10
11.27880484541316
 20
6.168929954544656
 11
11.37730484541316
 21
5.998322949999129
  0
LINE
  5
201
100
AcDbEntity
  8
R_U_Board_1
  6
ByLayer
 62
  256
370
   -1
100
AcDbLine
 10
11.37730484541316
 20
5.998322949999129
 11
11.27880484541316
 21
5.827715945453588
  0
LINE
  5
202
100
AcDbEntity
  8
R_U_Board_1
  6
ByLayer
 62
  256
370
   -1
100
AcDbLine
 10
11.27880484541316
 20
5.827715945453588
 11
11.08180484541316
 21
5.827715945453588
  0
LINE
  5
203
100
AcDbEntity
  8
R_U_Board_1
  6
ByLayer
 62
  256
370
   -1
100
AcDbLine
 10
11.08180484541316
 20
5.827715945453588
 11
10.98330484541326
 21
5.657108940908061
  0
LINE
  5
204
100
AcDbEntity
  8
R_U_Board_1
  6
ByLayer
 62
  256
370
   -1
100
AcDbLine
 10
10.98330484541326
 20
5.657108940908061
 11
11.08180484541326
 21
5.486501936362534
  0
LINE
  5
205
100
AcDbEntity
  8
R_U_Board_1
  6
ByLayer
 62
  256
370
   -1
100
AcDbLine
 10
11.08180484541326
 20
5.486501936362534
 11
11.27880484541315
 21
5.48650193636252
  0
LINE
  5
206
100
AcDbEntity
  8
R_U_Board_1
  6
ByLayer
 62
  256
370
   -1
100
AcDbLine
 10
11.27880484541315
 20
5.48650193636252
 11
11.37730484541293
 21
5.315894931816985
  0
LINE
  5
207
100
AcDbEntity
  8
R_U_Board_1
  6
ByLayer
 62
  256
370
   -1
100
AcDbLine
 10
11.37730484541293
 20
5.315894931816985
 11
11.27880484541315
 21
5.145287927271451
  0
LINE
  5
208
100
AcDbEntity
  8
R_U_Board_1
  6
ByLayer
 62
  256
370
   -1
100
AcDbLine
 10
11.27880484541315
 20
5.145287927271451
 11
11.08180484541315
 21
5.145287927271451
  0
LINE
  5
209
100
AcDbEntity
  8
R_U_Board_1
  6
ByLayer
 62
  256
370
   -1
100
AcDbLine
 10
11.08180484541315
 20
5.145287927271451
 11
10.98330484541315
 21
4.974680922725924
  0
LINE
  5
20A
100
AcDbEntity
  8
R_U_Board_2
  6
ByLayer
 62
  256
370
   -1
100
AcDbLine
 10
11.25580484541332
 20
4.8040739181804
 11
11.15730484541332
 21
4.974680922725927
  0
LINE
  5
20B
100
AcDbEntity
  8
R_U_Board_2
  6
ByLayer
 62
  256
370
   -1
100
AcDbLine
 10
11.15730484541332
 20
4.974680922725927
 11
11.25580484541332
 21
5.145287927271468
  0
LINE
  5
20C
100
AcDbEntity
  8
R_U_Board_2
  6
ByLayer
 62
  256
370
   -1
100
AcDbLine
 10
11.25580484541332
 20
5.145287927271468
 11
11.45280484541332
 21
5.145287927271454
  0
LINE
  5
20D
100
AcDbEntity
  8
R_U_Board_2
  6
ByLayer
 62
  256
370
   -1
100
AcDbLine
 10
11.45280484541332
 20
5.145287927271454
 11
11.55130484541332
 21
5.315894931816995
  0
LINE
  5
20E
100
AcDbEntity
  8
R_U_Board_2
  6
ByLayer
 62
  256
370
   -1
100
AcDbLine
 10
11.55130484541332
 20
5.315894931816995
 11
11.45280484541332
 21
5.486501936362522
  0
LINE
  5
20F
100
AcDbEntity
  8
R_U_Board_2
  6
ByLayer
 62
  256
370
   -1
100
AcDbLine
 10
11.45280484541332
 20
5.486501936362522
 11
11.25580484541333
 21
5.486501936362536
  0
LINE
  5
210
100
AcDbEntity
  8
R_U_Board_2
  6
ByLayer
 62
  256
370
   -1
100
AcDbLine
 10
11.25580484541333
 20
5.486501936362536
 11
11.15730484541335
 21
5.657108940908072
  0
LINE
  5
211
100
AcDbEntity
  8
R_U_Board_2
  6
ByLayer
 62
  256
370
   -1
100
AcDbLine
 10
11.15730484541335
 20
5.657108940908072
 11
11.25580484541333
 21
5.827715945453605
  0
LINE
  5
212
100
AcDbEntity
  8
R_U_Board_2
  6
ByLayer
 62
  256
370
   -1
100
AcDbLine
 10
11.25580484541333
 20
5.827715945453605
 11
11.45280484541333
 21
5.827715945453605
  0
LINE
  5
213
100
AcDbEntity
  8
R_U_Board_2
  6
ByLayer
 62
  256
370
   -1
100
AcDbLine
 10
11.45280484541333
 20
5.827715945453605
 11
11.55130484541331
 21
5.998322949999132
  0
LINE
  5
214
100
AcDbEntity
  8
R_U_Board_2
  6
ByLayer
 62
  256
370
   -1
100
AcDbLine
 10
11.55130484541331
 20
5.998322949999132
 11
11.45280484541331
 21
6.168929954544659
  0
LINE
  5
215
100
AcDbEntity
  8
R_U_Board_2
  6
ByLayer
 62
  256
370
   -1
100
AcDbLine
 10
11.45280484541331
 20
6.168929954544659
 11
11.25580484541333
 21
6.168929954544673
  0
LINE
  5
216
100
AcDbEntity
  8
R_U_Board_2
  6
ByLayer
 62
  256
370
   -1
100
AcDbLine
 10
11.25580484541333
 20
6.168929954544673
 11
11.15730484541339
 21
6.339536959090209
  0
LINE
  5
217
100
AcDbEntity
  8
R_U_Board_2
  6
ByLayer
 62
  256
370
   -1
100
AcDbLine
 10
11.15730484541339
 20
6.339536959090209
 11
11.25580484541334
 21
6.510143963635741
  0
LINE
  5
218
100
AcDbEntity
  8
R_U_Board_2
  6
ByLayer
 62
  256
370
   -1
100
AcDbLine
 10
11.25580484541334
 20
6.510143963635741
 11
11.45280484541334
 21
6.510143963635741
  0
LINE
  5
219
100
AcDbEntity
  8
R_U_Board_2
  6
ByLayer
 62
  256
370
   -1
100
AcDbLine
 10
11.45280484541334
 20
6.510143963635741
 11
11.55130484541331
 21
6.680750968181268
  0
LINE
  5
21A
100
AcDbEntity
  8
R_U_Board_2
  6
ByLayer
 62
  256
370
   -1
100
AcDbLine
 10
11.55130484541331
 20
6.680750968181268
 11
11.45280484541334
 21
6.851357972726809
  0
LINE
  5
21B
100
AcDbEntity
  8
R_U_Board_2
  6
ByLayer
 62
  256
370
   -1
100
AcDbLine
 10
11.45280484541334
 20
6.851357972726809
 11
11.25580484541334
 21
6.851357972726809
  0
LINE
  5
21C
100
AcDbEntity
  8
R_U_Board_2
  6
ByLayer
 62
  256
370
   -1
100
AcDbLine
 10
11.25580484541334
 20
6.851357972726809
 11
11.15730484541342
 21
7.021964977272345
  0
LINE
  5
21D
100
AcDbEntity
  8
R_U_Board_2
  6
ByLayer
 62
  256
370
   -1
100
AcDbLine
 10
11.15730484541342
 20
7.021964977272345
 11
11.25580484541334
 21
7.192571981817878
  0
LINE
  5
21E
100
AcDbEntity
  8
R_U_Board_2
  6
ByLayer
 62
  256
370
   -1
100
AcDbLine
 10
11.25580484541334
 20
7.192571981817878
 11
11.4528048454133
 21
7.192571981817864
  0
LINE
  5
21F
100
AcDbEntity
  8
R_U_Board_2
  6
ByLayer
 62
  256
370
   -1
100
AcDbLine
 10
11.4528048454133
 20
7.192571981817864
 11
11.5513048454133
 21
7.363178986363405
  0
LINE
  5
220
100
AcDbEntity
  8
R_U_Board_2
  6
ByLayer
 62
  256
370
   -1
100
AcDbLine
 10
11.5513048454133
 20
7.363178986363405
 11
11.4528048454133
 21
7.533785990908932
  0
LINE
  5
221
100
AcDbEntity
  8
R_U_Board_2
  6
ByLayer
 62
  256
370
   -1
100
AcDbLine
 10
11.4528048454133
 20
7.533785990908932
 11
11.25580484541335
 21
7.533785990908946
  0
LINE
  5
222
100
AcDbEntity
  8
R_U_Board_2
  6
ByLayer
 62
  256
370
   -1
100
AcDbLine
 10
11.25580484541335
 20
7.533785990908946
 11
11.15730484541346
 21
7.704392995454482
  0
LINE
  5
223
100
AcDbEntity
  8
R_U_Board_2
  6
ByLayer
 62
  256
370
   -1
100
AcDbLine
 10
11.15730484541346
 20
7.704392995454482
 11
11.25580484541335
 21
7.875000000000014
  0
LINE
  5
224
100
AcDbEntity
  8
R_U_Board_2
  6
ByLayer
 62
  256
370
   -1
100
AcDbLine
 10
11.25580484541335
 20
7.875000000000014
 11
11.45280484541329
 21
7.875
  0
LINE
  5
225
100
AcDbEntity
  8
R_U_Board_2
  6
ByLayer
 62
  256
370
   -1
100
AcDbLine
 10
11.45280484541329
 20
7.875
 11
11.55130484541329
 21
8.045607004545541
  0
LINE
  5
226
100
AcDbEntity
  8
R_U_Board_2
  6
ByLayer
 62
  256
370
   -1
100
AcDbLine
 10
11.55130484541329
 20
8.045607004545541
 11
11.45280484541335
 21
8.216214009091082
  0
LINE
  5
227
100
AcDbEntity
  8
R_U_Board_2
  6
ByLayer
 62
  256
370
   -1
100
AcDbLine
 10
11.45280484541335
 20
8.216214009091082
 11
11.25580484541335
 21
8.216214009091082
  0
LINE
  5
228
100
AcDbEntity
  8
R_U_Board_2
  6
ByLayer
 62
  256
370
   -1
100
AcDbLine
 10
11.25580484541335
 20
8.216214009091082
 11
11.1573048454135
 21
8.386821013636617
  0
LINE
  5
229
100
AcDbEntity
  8
R_U_Board_2
  6
ByLayer
 62
  256
370
   -1
100
AcDbLine
 10
11.1573048454135
 20
8.386821013636617
 11
11.25580484541336
 21
8.557428018182151
  0
LINE
  5
22A
100
AcDbEntity
  8
R_U_Board_2
  6
ByLayer
 62
  256
370
   -1
100
AcDbLine
 10
11.25580484541336
 20
8.557428018182151
 11
11.45280484541329
 21
8.557428018182136
  0
LINE
  5
22B
100
AcDbEntity
  8
R_U_Board_2
  6
ByLayer
 62
  256
370
   -1
100
AcDbLine
 10
11.45280484541329
 20
8.557428018182136
 11
11.55130484541328
 21
8.728035022727678
  0
LINE
  5
22C
100
AcDbEntity
  8
R_U_Board_2
  6
ByLayer
 62
  256
370
   -1
100
AcDbLine
 10
11.55130484541328
 20
8.728035022727678
 11
11.45280484541328
 21
8.898642027273205
  0
LINE
  5
22D
100
AcDbEntity
  8
R_U_Board_2
  6
ByLayer
 62
  256
370
   -1
100
AcDbLine
 10
11.45280484541328
 20
8.898642027273205
 11
11.25580484541336
 21
8.898642027273219
  0
LINE
  5
22E
100
AcDbEntity
  8
R_U_Board_2
  6
ByLayer
 62
  256
370
   -1
100
AcDbLine
 10
11.25580484541336
 20
8.898642027273219
 11
11.15730484541353
 21
9.069249031818755
  0
LINE
  5
22F
100
AcDbEntity
  8
R_U_Board_2
  6
ByLayer
 62
  256
370
   -1
100
AcDbLine
 10
11.15730484541353
 20
9.069249031818755
 11
11.25580484541337
 21
9.239856036364287
  0
LINE
  5
230
100
AcDbEntity
  8
R_U_Board_2
  6
ByLayer
 62
  256
370
   -1
100
AcDbLine
 10
11.25580484541337
 20
9.239856036364287
 11
11.45280484541336
 21
9.239856036364287
  0
LINE
  5
231
100
AcDbEntity
  8
R_U_Board_2
  6
ByLayer
 62
  256
370
   -1
100
AcDbLine
 10
11.45280484541336
 20
9.239856036364287
 11
11.55130484541328
 21
9.410463040909814
  0
LINE
  5
232
100
AcDbEntity
  8
R_U_Board_2
  6
ByLayer
 62
  256
370
   -1
100
AcDbLine
 10
11.55130484541328
 20
9.410463040909814
 11
11.45280484541337
 21
9.581070045455355
  0
LINE
  5
233
100
AcDbEntity
  8
R_U_Board_2
  6
ByLayer
 62
  256
370
   -1
100
AcDbLine
 10
11.45280484541337
 20
9.581070045455355
 11
11.25580484541337
 21
9.581070045455355
  0
LINE
  5
234
100
AcDbEntity
  8
R_U_Board_2
  6
ByLayer
 62
  256
370
   -1
100
AcDbLine
 10
11.25580484541337
 20
9.581070045455355
 11
11.15730484541337
 21
9.751677050000882
  0
LINE
  5
235
100
AcDbEntity
  8
R_U_Board_2
  6
ByLayer
 62
  256
370
   -1
100
AcDbLine
 10
11.15730484541337
 20
9.751677050000882
 11
11.25580484541337
 21
9.922284054546424
  0
LINE
  5
236
100
AcDbEntity
  8
R_U_Board_2
  6
ByLayer
 62
  256
370
   -1
100
AcDbLine
 10
11.25580484541337
 20
9.922284054546424
 11
11.45280484541337
 21
9.922284054546424
  0
LINE
  5
237
100
AcDbEntity
  8
R_U_Board_2
  6
ByLayer
 62
  256
370
   -1
100
AcDbLine
 10
11.45280484541337
 20
9.922284054546424
 11
11.55130484541327
 21
10.09289105909195
  0
LINE
  5
238
100
AcDbEntity
  8
R_U_Board_2
  6
ByLayer
 62
  256
370
   -1
100
AcDbLine
 10
11.55130484541327
 20
10.09289105909195
 11
11.45280484541327
 21
10.26349806363748
  0
LINE
  5
239
100
AcDbEntity
  8
R_U_Board_2
  6
ByLayer
 62
  256
370
   -1
100
AcDbLine
 10
11.45280484541327
 20
10.26349806363748
 11
11.25580484541338
 21
10.26349806363749
  0
LINE
  5
23A
100
AcDbEntity
  8
R_U_Board_2
  6
ByLayer
 62
  256
370
   -1
100
AcDbLine
 10
11.25580484541338
 20
10.26349806363749
 11
11.1573048454136
 21
10.43410506818303
  0
LINE
  5
23B
100
AcDbEntity
  8
R_U_Board_2
  6
ByLayer
 62
  256
370
   -1
100
AcDbLine
 10
11.1573048454136
 20
10.43410506818303
 11
11.25580484541338
 21
10.60471207272856
  0
LINE
  5
23C
100
AcDbEntity
  8
R_U_Board_2
  6
ByLayer
 62
  256
370
   -1
100
AcDbLine
 10
11.25580484541338
 20
10.60471207272856
 11
11.45280484541338
 21
10.60471207272856
  0
LINE
  5
23D
100
AcDbEntity
  8
R_U_Board_2
  6
ByLayer
 62
  256
370
   -1
100
AcDbLine
 10
11.45280484541338
 20
10.60471207272856
 11
11.55130484541338
 21
10.77531907727409
  0
MTEXT
  5
23E
100
AcDbEntity
  8
Rear_Upper_I_O_Shield
  6
ByLayer
 62
  256
370
   -1
100
AcDbMText
 10
10.82531754730548
 20
11.55
 30
0
 40
0.1
 41
0.7416666666666714
 71
    5
 72
    1
  1
Rear Upper\PBoard One
  7
standard
210
0
220
0
230
1
 50
0
 73
    2
 44
1
  0
MTEXT
  5
23F
100
AcDbEntity
  8
Rear_Upper_I_O_Shield
  6
ByLayer
 62
  256
370
   -1
100
AcDbMText
 10
11.69134295108992
 20
11.55
 30
0
 40
0.1
 41
0.7416666666666714
 71
    5
 72
    1
  1
Rear Upper\PBoard Two
  7
standard
210
0
220
0
230
1
 50
0
 73
    2
 44
1
  0
LINE
  5
240
100
AcDbEntity
  8
R_U_Board_1
  6
ByLayer
 62
  256
370
   -1
100
AcDbLine
 10
10.82531754730548
 20
11.35
 11
10.58930484541321
 21
10.77531907727408
  0
LINE
  5
241
100
AcDbEntity
  8
R_U_Board_2
  6
ByLayer
 62
  256
370
   -1
100
AcDbLine
 10
11.94530484541326
 20
10.77531907727409
 11
11.69134295108992
 21
11.35
  0
LINE
  5
242
100
AcDbEntity
  8
Rear_Upper_I_O_Shield
  6
ByLayer
 62
  256
370
   -1
100
AcDbLine
 10
11.2583302491977
 20
11.9
 11
11.2583302491977
 21
11.3
  0
MTEXT
  5
243
100
AcDbEntity
  8
Rear_Upper_I_O_Shield
  6
ByLayer
 62
  256
370
   -1
100
AcDbMText
 10
1.175
 20
8.650000000000002
 30
0
 40
0.2
 41
1.311111088888907
 71
    5
 72
    1
  1
Upper\PRear\PI/O part\P(Pre-made\P"shield")
  7
standard
210
0
220
0
230
1
 50
0
 73
    2
 44
1
  0
MTEXT
  5
244
100
AcDbEntity
  8
Rear_Upper_I_O_Shield
  6
ByLayer
 62
  256
370
   -1
100
AcDbMText
 10
11.22857870597002
 20
4.093303826044327
 30
0
 40
0.2
 41
1.483333333333342
 71
    5
 72
    1
  1
Upper Rear\PI/O Board\Pdetail
  7
standard
210
0
220
0
230
1
 50
0
 73
    2
 44
1
  0
LINE
  5
245
100
AcDbEntity
  8
Support_feet
  6
ByLayer
 62
  256
370
   -1
100
AcDbLine
 10
11.7
 20
1.400000000000001
 11
11.7
 21
2.3
  0
LINE
  5
246
100
AcDbEntity
  8
Support_feet
  6
ByLayer
 62
  256
370
   -1
100
AcDbLine
 10
11.7
 20
2.3
 11
11.3
 21
2.3
  0
LINE
  5
247
100
AcDbEntity
  8
Support_feet
  6
ByLayer
 62
  256
370
   -1
100
AcDbLine
 10
11.3
 20
2.3
 11
11.3
 21
1.400000000000001
  0
LINE
  5
248
100
AcDbEntity
  8
Support_feet
  6
ByLayer
 62
  256
370
   -1
100
AcDbLine
 10
12
 20
2.3
 11
11
 21
2.3
  0
LINE
  5
249
100
AcDbEntity
  8
Support_feet
  6
ByLayer
 62
  256
370
   -1
100
AcDbLine
 10
11
 20
2.3
 11
11
 21
2.400000000000001
  0
LINE
  5
24A
100
AcDbEntity
  8
Support_feet
  6
ByLayer
 62
  256
370
   -1
100
AcDbLine
 10
11
 20
2.400000000000001
 11
12
 21
2.400000000000001
  0
LINE
  5
24B
100
AcDbEntity
  8
Support_feet
  6
ByLayer
 62
  256
370
   -1
100
AcDbLine
 10
12
 20
2.400000000000001
 11
12
 21
2.3
  0
LINE
  5
24C
100
AcDbEntity
  8
Support_feet
  6
ByLayer
 62
  256
370
   -1
100
AcDbLine
 10
11.8
 20
2.300000000000001
 11
11.2
 21
2.200000000000001
  0
LINE
  5
24D
100
AcDbEntity
  8
Support_feet
  6
ByLayer
 62
  256
370
   -1
100
AcDbLine
 10
11.2
 20
2.2
 11
11.3
 21
2.2
  0
LINE
  5
24E
100
AcDbEntity
  8
Support_feet
  6
ByLayer
 62
  256
370
   -1
100
AcDbLine
 10
11.7
 20
2.2
 11
11.8
 21
2.2
  0
LINE
  5
24F
100
AcDbEntity
  8
Support_feet
  6
ByLayer
 62
  256
370
   -1
100
AcDbLine
 10
11.80000000000001
 20
2.200000000000001
 11
11.20000000000001
 21
2.100000000000001
  0
LINE
  5
250
100
AcDbEntity
  8
Support_feet
  6
ByLayer
 62
  256
370
   -1
100
AcDbLine
 10
11.20000000000001
 20
2.100000000000001
 11
11.30000000000001
 21
2.100000000000001
  0
LINE
  5
251
100
AcDbEntity
  8
Support_feet
  6
ByLayer
 62
  256
370
   -1
100
AcDbLine
 10
11.70000000000001
 20
2.100000000000001
 11
11.80000000000001
 21
2.100000000000001
  0
LINE
  5
252
100
AcDbEntity
  8
Support_feet
  6
ByLayer
 62
  256
370
   -1
100
AcDbLine
 10
11.80000000000001
 20
2.100000000000001
 11
11.20000000000002
 21
2.000000000000002
  0
LINE
  5
253
100
AcDbEntity
  8
Support_feet
  6
ByLayer
 62
  256
370
   -1
100
AcDbLine
 10
11.20000000000002
 20
2.000000000000001
 11
11.30000000000001
 21
2.000000000000001
  0
LINE
  5
254
100
AcDbEntity
  8
Support_feet
  6
ByLayer
 62
  256
370
   -1
100
AcDbLine
 10
11.70000000000002
 20
2.000000000000001
 11
11.80000000000001
 21
2.000000000000001
  0
LINE
  5
255
100
AcDbEntity
  8
Support_feet
  6
ByLayer
 62
  256
370
   -1
100
AcDbLine
 10
11.80000000000002
 20
2.000000000000002
 11
11.20000000000002
 21
1.900000000000002
  0
LINE
  5
256
100
AcDbEntity
  8
Support_feet
  6
ByLayer
 62
  256
370
   -1
100
AcDbLine
 10
11.20000000000002
 20
1.900000000000001
 11
11.30000000000002
 21
1.900000000000001
  0
LINE
  5
257
100
AcDbEntity
  8
Support_feet
  6
ByLayer
 62
  256
370
   -1
100
AcDbLine
 10
11.70000000000002
 20
1.900000000000001
 11
11.80000000000002
 21
1.900000000000001
  0
LINE
  5
258
100
AcDbEntity
  8
Support_feet
  6
ByLayer
 62
  256
370
   -1
100
AcDbLine
 10
11.80000000000003
 20
1.900000000000002
 11
11.20000000000003
 21
1.800000000000002
  0
LINE
  5
259
100
AcDbEntity
  8
Support_feet
  6
ByLayer
 62
  256
370
   -1
100
AcDbLine
 10
11.20000000000003
 20
1.800000000000002
 11
11.30000000000003
 21
1.800000000000002
  0
LINE
  5
25A
100
AcDbEntity
  8
Support_feet
  6
ByLayer
 62
  256
370
   -1
100
AcDbLine
 10
11.70000000000003
 20
1.800000000000002
 11
11.80000000000003
 21
1.800000000000002
  0
LINE
  5
25B
100
AcDbEntity
  8
Support_feet
  6
ByLayer
 62
  256
370
   -1
100
AcDbLine
 10
11.80000000000004
 20
1.800000000000002
 11
11.20000000000004
 21
1.700000000000003
  0
LINE
  5
25C
100
AcDbEntity
  8
Support_feet
  6
ByLayer
 62
  256
370
   -1
100
AcDbLine
 10
11.20000000000004
 20
1.700000000000002
 11
11.30000000000004
 21
1.700000000000002
  0
LINE
  5
25D
100
AcDbEntity
  8
Support_feet
  6
ByLayer
 62
  256
370
   -1
100
AcDbLine
 10
11.70000000000004
 20
1.700000000000002
 11
11.80000000000004
 21
1.700000000000002
  0
LINE
  5
25E
100
AcDbEntity
  8
Support_feet
  6
ByLayer
 62
  256
370
   -1
100
AcDbLine
 10
11.80000000000004
 20
1.700000000000003
 11
11.20000000000004
 21
1.600000000000003
  0
LINE
  5
25F
100
AcDbEntity
  8
Support_feet
  6
ByLayer
 62
  256
370
   -1
100
AcDbLine
 10
11.20000000000004
 20
1.600000000000001
 11
11.30000000000004
 21
1.600000000000001
  0
LINE
  5
260
100
AcDbEntity
  8
Support_feet
  6
ByLayer
 62
  256
370
   -1
100
AcDbLine
 10
11.70000000000004
 20
1.600000000000001
 11
11.80000000000004
 21
1.600000000000001
  0
LINE
  5
261
100
AcDbEntity
  8
Support_feet
  6
ByLayer
 62
  256
370
   -1
100
AcDbLine
 10
11.80000000000005
 20
1.600000000000003
 11
11.20000000000005
 21
1.500000000000004
  0
LINE
  5
262
100
AcDbEntity
  8
Support_feet
  6
ByLayer
 62
  256
370
   -1
100
AcDbLine
 10
11.20000000000005
 20
1.500000000000003
 11
11.30000000000005
 21
1.500000000000003
  0
LINE
  5
263
100
AcDbEntity
  8
Support_feet
  6
ByLayer
 62
  256
370
   -1
100
AcDbLine
 10
11.70000000000005
 20
1.500000000000003
 11
11.80000000000005
 21
1.500000000000003
  0
LINE
  5
264
100
AcDbEntity
  8
Support_feet
  6
ByLayer
 62
  256
370
   -1
100
AcDbLine
 10
11.80000000000006
 20
1.500000000000004
 11
11.20000000000006
 21
1.400000000000004
  0
LINE
  5
265
100
AcDbEntity
  8
Support_feet
  6
ByLayer
 62
  256
370
   -1
100
AcDbLine
 10
11
 20
1.3
 11
12
 21
1.3
  0
LINE
  5
266
100
AcDbEntity
  8
Support_feet
  6
ByLayer
 62
  256
370
   -1
100
AcDbLine
 10
12
 20
1.400000000000001
 11
11
 21
1.400000000000001
  0
MTEXT
  5
267
100
AcDbEntity
  8
Support_feet
  6
ByLayer
 62
  256
370
   -1
100
AcDbMText
 10
12.6
 20
1.7
 30
0
 40
0.1
 41
0.3888888676886833
 71
    5
 72
    1
  1
Spring
  7
standard
210
0
220
0
230
1
 50
0
 73
    2
 44
1
  0
MTEXT
  5
268
100
AcDbEntity
  8
Support_feet
  6
ByLayer
 62
  256
370
   -1
100
AcDbMText
 10
13.4
 20
2.399999999999999
 30
0
 40
0.1
 41
0.3888888888888951
 71
    5
 72
    1
  1
Circuit\PBoard
  7
standard
210
0
220
0
230
1
 50
0
 73
    2
 44
1
  0
LINE
  5
269
100
AcDbEntity
  8
Support_feet
  6
ByLayer
 62
  256
370
   -1
100
AcDbLine
 10
11
 20
1.28
 11
12
 21
1.28
  0
LINE
  5
26A
100
AcDbEntity
  8
Support_feet
  6
ByLayer
 62
  256
370
   -1
100
AcDbLine
 10
11
 20
1.400000000000001
 11
11
 21
1.28
  0
LINE
  5
26B
100
AcDbEntity
  8
Support_feet
  6
ByLayer
 62
  256
370
   -1
100
AcDbLine
 10
12
 20
1.400000000000001
 11
12
 21
1.28
  0
MTEXT
  5
26C
100
AcDbEntity
  8
Support_feet
  6
ByLayer
 62
  256
370
   -1
100
AcDbMText
 10
13.5
 20
1.199999999999998
 30
0
 40
0.1
 41
0.5444444444444585
 71
    5
 72
    1
  1
Magnetic\Pbase
  7
standard
210
0
220
0
230
1
 50
0
 73
    2
 44
1
  0
LINE
  5
26D
100
AcDbEntity
  8
explanation_lines
  6
ByLayer
 62
  256
370
   -1
100
AcDbLine
 10
11.5
 20
1.350000000000001
 11
13.1
 21
1.3
  0
LINE
  5
26E
100
AcDbEntity
  8
explanation_lines
  6
ByLayer
 62
  256
370
   -1
100
AcDbLine
 10
12.38
 20
1.7
 11
11.82
 21
1.7
  0
LINE
  5
26F
100
AcDbEntity
  8
explanation_lines
  6
ByLayer
 62
  256
370
   -1
100
AcDbLine
 10
11.5
 20
2.350000000000001
 11
13.1
 21
2.400000000000001
  0
MTEXT
  5
270
100
AcDbEntity
  8
Support_feet
  6
ByLayer
 62
  256
370
   -1
100
AcDbMText
 10
13.3
 20
0.7000000000000011
 30
0
 40
0.1
 41
1.022222273650951
 71
    5
 72
    1
  1
Adhe[rent/sive]\Pmaterial
  7
standard
210
0
220
0
230
1
 50
0
 73
    2
 44
1
  0
LINE
  5
271
100
AcDbEntity
  8
explanation_lines
  6
ByLayer
 62
  256
370
   -1
100
AcDbLine
 10
12.7
 20
0.7999999999999998
 11
11.5
 21
1.28
  0
MTEXT
  5
272
100
AcDbEntity
  8
Support_feet
  6
ByLayer
 62
  256
370
   -1
100
AcDbMText
 10
11.1054059752684
 20
0.7799455163381301
 30
0
 40
0.2
 41
0.9999999575995702
 71
    5
 72
    1
  1
Support\Pfoot\Pdetail
  7
standard
210
0
220
0
230
1
 50
0
 73
    2
 44
1
  0
LINE
  5
273
100
AcDbEntity
  8
Rear_Upper_I_O_Shield
  6
ByLayer
 62
  256
370
   -1
100
AcDbLine
 10
11.94530484541326
 20
10.43410506818303
 11
12.73057343563125
 21
10.35
  0
MTEXT
  5
274
100
AcDbEntity
  8
Rear_Upper_I_O_Shield
  6
ByLayer
 62
  256
370
   -1
100
AcDbMText
 10
13.07698359714502
 20
10.05
 30
0
 40
0.1
 41
1.250000040317627
 71
    5
 72
    1
  1
Libre\PCable-Connector\P(adapted to inches\Pmeasurements)
  7
standard
210
0
220
0
230
1
 50
0
 73
    2
 44
1
  0
MTEXT
  5
275
100
AcDbEntity
  8
Support_feet
  6
ByLayer
 62
  256
370
   -1
100
AcDbMText
 10
11.5
 20
2.800000000000001
 30
0
 40
0.1
 41
0.2888888888888936
 71
    5
 72
    1
  1
Head
  7
standard
210
0
220
0
230
1
 50
0
 73
    2
 44
1
  0
LINE
  5
276
100
AcDbEntity
  8
Support_feet
  6
ByLayer
 62
  256
370
   -1
100
AcDbLine
 10
11.31869178160123
 20
3.184423515332308
 11
11
 21
2.500000000000001
  0
LINE
  5
277
100
AcDbEntity
  8
Support_feet
  6
ByLayer
 62
  256
370
   -1
100
AcDbLine
 10
11.68130821839877
 20
3.184423515332308
 11
12
 21
2.500000000000001
  0
ARC
  5
278
100
AcDbEntity
  8
Support_feet
  6
ByLayer
 62
  256
370
   -1
100
AcDbCircle
 10
11.5
 20
3.100000000000001
 40
0.2
100
AcDbArc
 50
24.96841428822287
 51
155.0315938548836
  0
LINE
  5
279
100
AcDbEntity
  8
Support_feet
  6
ByLayer
 62
  256
370
   -1
100
AcDbLine
 10
11
 20
2.500000000000001
 11
11.3
 21
2.700000000000001
  0
LINE
  5
27A
100
AcDbEntity
  8
Support_feet
  6
ByLayer
 62
  256
370
   -1
100
AcDbLine
 10
12
 20
2.500000000000001
 11
11.7
 21
2.700000000000001
  0
LINE
  5
27B
100
AcDbEntity
  8
Support_feet
  6
ByLayer
 62
  256
370
   -1
100
AcDbLine
 10
11.3
 20
2.700000000000001
 11
11.3
 21
2.400000000000001
  0
LINE
  5
27C
100
AcDbEntity
  8
Support_feet
  6
ByLayer
 62
  256
370
   -1
100
AcDbLine
 10
11.7
 20
2.700000000000001
 11
11.7
 21
2.400000000000001
  0
MTEXT
  5
27D
100
AcDbEntity
  8
Frontal_board
  6
ByLayer
 62
  256
370
   -1
100
AcDbMText
 10
5.975
 20
8.9
 30
0
 40
0.4
 41
2.12222222222224
 71
    5
 72
    1
  1
Frontal\PI/O part\P&\PMemory
  7
standard
210
0
220
0
230
1
 50
0
 73
    2
 44
1
  0
MTEXT
  5
27E
100
AcDbEntity
  8
Optional_Screw
  6
ByLayer
 62
  256
370
   -1
100
AcDbMText
 10
0.8660254037844386
 20
3.3
 30
0
 40
0.05
 41
0.5097222736509491
 71
    5
 72
    1
  1
Optional screw\Phole (not \Palways present\Pin all models\Pof boards\Por cases)
  7
standard
210
0
220
0
230
1
 50
0
 73
    2
 44
1
  0
LINE
  5
27F
100
AcDbEntity
  8
Separate_Boards
  6
ByLayer
 62
  256
370
   -1
100
AcDbLine
 10
1.950000000000001
 20
12
 11
1.95
 21
5.800000000000002
  0
CIRCLE
  5
280
100
AcDbEntity
  8
Support_feet
  6
ByLayer
 62
  256
370
   -1
100
AcDbCircle
 10
1.299999999999999
 20
5.550000000000002
 40
0.078
  0
LINE
  5
281
100
AcDbEntity
  8
Support_feet
  6
ByLayer
 62
  256
370
   -1
100
AcDbLine
 10
1.221999999999946
 20
5.550000000000002
 11
1.299999999999999
 21
5.628000000000056
  0
LINE
  5
282
100
AcDbEntity
  8
Support_feet
  6
ByLayer
 62
  256
370
   -1
100
AcDbLine
 10
1.299999999999999
 20
5.628000000000056
 11
1.378000000000053
 21
5.550000000000002
  0
LINE
  5
283
100
AcDbEntity
  8
Support_feet
  6
ByLayer
 62
  256
370
   -1
100
AcDbLine
 10
1.378000000000053
 20
5.550000000000002
 11
1.3
 21
5.471999999999949
  0
LINE
  5
284
100
AcDbEntity
  8
Support_feet
  6
ByLayer
 62
  256
370
   -1
100
AcDbLine
 10
1.3
 20
5.471999999999949
 11
1.221999999999924
 21
5.549999999999979
  0
LINE
  5
285
100
AcDbEntity
  8
Separate_Boards
  6
ByLayer
 62
  256
370
   -1
100
AcDbLine
 10
1.549999999999999
 20
5.800000000000002
 11
1.549999999999999
 21
5.300000000000003
  0
LINE
  5
286
100
AcDbEntity
  8
Separate_Boards
  6
ByLayer
 62
  256
370
   -1
100
AcDbLine
 10
0.3999999999999985
 20
5.300000000000002
 11
1.549999999999999
 21
5.300000000000003
  0
LINE
  5
287
100
AcDbEntity
  8
Separate_Boards
  6
ByLayer
 62
  256
370
   -1
100
AcDbLine
 10
1.549999999999999
 20
5.800000000000002
 11
7.149999999999999
 21
5.800000000000001
  0
LINE
  5
288
100
AcDbEntity
  8
Separate_Boards
  6
ByLayer
 62
  256
370
   -1
100
AcDbLine
 10
1.554499999999999
 20
6.361000000000001
 11
1.554499999999999
 21
6.739000000000001
  0
LINE
  5
289
100
AcDbEntity
  8
Separate_Boards
  6
ByLayer
 62
  256
370
   -1
100
AcDbLine
 10
1.554499999999999
 20
6.739000000000001
 11
0.8454999999999995
 21
6.739000000000001
  0
LINE
  5
28A
100
AcDbEntity
  8
Separate_Boards
  6
ByLayer
 62
  256
370
   -1
100
AcDbLine
 10
0.8454999999999995
 20
6.739000000000001
 11
0.8454999999999995
 21
6.361000000000001
  0
LINE
  5
28B
100
AcDbEntity
  8
Separate_Boards
  6
ByLayer
 62
  256
370
   -1
100
AcDbLine
 10
0.8454999999999995
 20
6.361000000000001
 11
1.554499999999999
 21
6.361000000000001
  0
MTEXT
  5
28C
100
AcDbEntity
  8
Separate_Boards
  6
ByLayer
 62
  256
370
   -1
100
AcDbMText
 10
1.15
 20
6.039
 30
0
 40
0.1
 41
0.8083333333333426
 71
    5
 72
    1
  1
PCI Express\PPower Cable\P8-Pin
  7
standard
210
0
220
0
230
1
 50
0
 73
    2
 44
1
  0
LINE
  5
28D
100
AcDbEntity
  8
R_U_Board_2
  6
ByLayer
 62
  256
370
   -1
100
AcDbLine
 10
11.25580484541332
 20
4.8040739181804
 11
11.45280484541332
 21
4.8040739181804
  0
LINE
  5
28E
100
AcDbEntity
  8
R_U_Board_1
  6
ByLayer
 62
  256
370
   -1
100
AcDbLine
 10
11.27880484541321
 20
10.94592608181961
 11
11.08180484541321
 21
10.94592608181961
  0
LINE
  5
28F
100
AcDbEntity
  8
Rear_Lower_I_O_Shield
  6
ByLayer
 62
  256
370
   -1
100
AcDbLine
 10
0.3999999999999986
 20
5.750000000000001
 11
0.3999999999999986
 21
1.720845688168993e-15
  0
ENDSEC
  0
SECTION
  2
OBJECTS
  0
DICTIONARY
  5
C
330
0
100
AcDbDictionary
281
    1
  3
ACAD_GROUP
350
D
  0
DICTIONARY
  5
D
330
C
100
AcDbDictionary
281
    1
  0
PLOTSETTINGS
  5
290
100
AcDbPlotSettings
  6
1x1
 40
0
 41
0
 42
0
 43
0
  0
ENDSEC
  0
EOF
