999
dxfrw 0.6.3
  0
SECTION
  2
HEADER
  9
$ACADVER
  1
AC1021
  9
$DWGCODEPAGE
  3
ANSI_1252
  9
$INSBASE
 10
0
 20
0
 30
0
  9
$EXTMIN
 10
10000000000
 20
10000000000
 30
0
  9
$EXTMAX
 10
-10000000000
 20
-10000000000
 30
0
  9
$LIMMIN
 10
0
 20
0
  9
$LIMMAX
 10
420
 20
297
  9
$ORTHOMODE
 70
    0
  9
$REGENMODE
 70
    1
  9
$FILLMODE
 70
    1
  9
$QTEXTMODE
 70
    0
  9
$MIRRTEXT
 70
    0
  9
$LTSCALE
 40
1
  9
$ATTMODE
 70
    0
  9
$TEXTSIZE
 40
2.5
  9
$TRACEWID
 40
15.68
  9
$TEXTSTYLE
  7
STANDARD
  9
$CLAYER
  8
0
  9
$CELTYPE
  6
BYLAYER
  9
$CECOLOR
 62
  256
  9
$CELTSCALE
 40
1
  9
$DISPSILH
 70
    0
  9
$DIMSCALE
 40
2.5
  9
$DIMASZ
 40
2.5
  9
$DIMEXO
 40
0.625
  9
$DIMDLI
 40
3.75
  9
$DIMRND
 40
0
  9
$DIMDLE
 40
0
  9
$DIMEXE
 40
1.25
  9
$DIMTP
 40
0
  9
$DIMTM
 40
0
  9
$DIMTXT
 40
2.5
  9
$DIMCEN
 40
2.5
  9
$DIMTSZ
 40
0
  9
$DIMTOL
 70
    0
  9
$DIMLIM
 70
    0
  9
$DIMTIH
 70
    0
  9
$DIMTOH
 70
    0
  9
$DIMSE1
 70
    0
  9
$DIMSE2
 70
    0
  9
$DIMTAD
 70
    1
  9
$DIMZIN
 70
    8
  9
$DIMBLK
  1

  9
$DIMASO
 70
    1
  9
$DIMSHO
 70
    1
  9
$DIMPOST
  1

  9
$DIMAPOST
  1

  9
$DIMALT
 70
    0
  9
$DIMALTD
 70
    3
  9
$DIMALTF
 40
0.03937
  9
$DIMLFAC
 40
1
  9
$DIMTOFL
 70
    1
  9
$DIMTVP
 40
0
  9
$DIMTIX
 70
    0
  9
$DIMSOXD
 70
    0
  9
$DIMSAH
 70
    0
  9
$DIMBLK1
  1

  9
$DIMBLK2
  1

  9
$DIMSTYLE
  2
STANDARD
  9
$DIMCLRD
 70
    0
  9
$DIMCLRE
 70
    0
  9
$DIMCLRT
 70
    0
  9
$DIMTFAC
 40
1
  9
$DIMGAP
 40
0.625
  9
$DIMJUST
 70
    0
  9
$DIMSD1
 70
    0
  9
$DIMSD2
 70
    0
  9
$DIMTOLJ
 70
    0
  9
$DIMTZIN
 70
    8
  9
$DIMALTZ
 70
    0
  9
$DIMALTTZ
 70
    0
  9
$DIMUPT
 70
    0
  9
$DIMDEC
 70
    2
  9
$DIMTDEC
 70
    2
  9
$DIMALTU
 70
    2
  9
$DIMALTTD
 70
    3
  9
$DIMTXSTY
  7
STANDARD
  9
$DIMAUNIT
 70
    0
  9
$DIMADEC
 70
    0
  9
$DIMALTRND
 40
0
  9
$DIMAZIN
 70
    0
  9
$DIMDSEP
 70
   44
  9
$DIMATFIT
 70
    3
  9
$DIMFRAC
 70
    0
  9
$DIMLDRBLK
  1
STANDARD
  9
$DIMLUNIT
 70
    2
  9
$DIMLWD
 70
   -2
  9
$DIMLWE
 70
   -2
  9
$DIMTMOVE
 70
    0
  9
$DIMFXL
 40
1
  9
$DIMFXLON
 70
    0
  9
$DIMJOGANG
 40
0.7854
  9
$DIMTFILL
 70
    0
  9
$DIMTFILLCLR
 70
    0
  9
$DIMARCSYM
 70
    0
  9
$DIMLTYPE
  6

  9
$DIMLTEX1
  6

  9
$DIMLTEX2
  6

  9
$LUNITS
 70
    2
  9
$LUPREC
 70
    4
  9
$SKETCHINC
 40
1
  9
$FILLETRAD
 40
0
  9
$AUNITS
 70
    0
  9
$AUPREC
 70
    2
  9
$MENU
  1
.
  9
$ELEVATION
 40
0
  9
$PELEVATION
 40
0
  9
$THICKNESS
 40
0
  9
$LIMCHECK
 70
    0
  9
$CHAMFERA
 40
0
  9
$CHAMFERB
 40
0
  9
$CHAMFERC
 40
0
  9
$CHAMFERD
 40
0
  9
$SKPOLY
 70
    0
  9
$USRTIMER
 70
    1
  9
$ANGBASE
 50
0
  9
$ANGDIR
 70
    0
  9
$PDMODE
 70
   34
  9
$PDSIZE
 40
0
  9
$PLINEWID
 40
0
  9
$SPLFRAME
 70
    0
  9
$SPLINETYPE
 70
    2
  9
$SPLINESEGS
 70
    8
  9
$HANDSEED
  5
20000
  9
$SURFTAB1
 70
    6
  9
$SURFTAB2
 70
    6
  9
$SURFTYPE
 70
    6
  9
$SURFU
 70
    6
  9
$SURFV
 70
    6
  9
$UCSBASE
  2

  9
$UCSNAME
  2

  9
$UCSORG
 10
0
 20
0
 30
0
  9
$UCSXDIR
 10
1
 20
0
 30
0
  9
$UCSYDIR
 10
0
 20
1
 30
0
  9
$UCSORTHOREF
  2

  9
$UCSORTHOVIEW
 70
    0
  9
$UCSORGTOP
 10
0
 20
0
 30
0
  9
$UCSORGBOTTOM
 10
0
 20
0
 30
0
  9
$UCSORGLEFT
 10
0
 20
0
 30
0
  9
$UCSORGRIGHT
 10
0
 20
0
 30
0
  9
$UCSORGFRONT
 10
0
 20
0
 30
0
  9
$UCSORGBACK
 10
0
 20
0
 30
0
  9
$PUCSBASE
  2

  9
$PUCSNAME
  2

  9
$PUCSORG
 10
0
 20
0
 30
0
  9
$PUCSXDIR
 10
1
 20
0
 30
0
  9
$PUCSYDIR
 10
0
 20
1
 30
0
  9
$PUCSORTHOREF
  2

  9
$PUCSORTHOVIEW
 70
    0
  9
$PUCSORGTOP
 10
0
 20
0
 30
0
  9
$PUCSORGBOTTOM
 10
0
 20
0
 30
0
  9
$PUCSORGLEFT
 10
0
 20
0
 30
0
  9
$PUCSORGRIGHT
 10
0
 20
0
 30
0
  9
$PUCSORGFRONT
 10
0
 20
0
 30
0
  9
$PUCSORGBACK
 10
0
 20
0
 30
0
  9
$USERI1
 70
    0
  9
$USERI2
 70
    0
  9
$USERI3
 70
    0
  9
$USERI4
 70
    0
  9
$USERI5
 70
    0
  9
$USERR1
 40
0
  9
$USERR2
 40
0
  9
$USERR3
 40
0
  9
$USERR4
 40
0
  9
$USERR5
 40
0
  9
$WORLDVIEW
 70
    1
  9
$SHADEDGE
 70
    3
  9
$SHADEDIF
 70
   70
  9
$TILEMODE
 70
    1
  9
$MAXACTVP
 70
   64
  9
$PINSBASE
 10
38.2647301578038
 20
149.446322933558
 30
0
  9
$PLIMCHECK
 70
    0
  9
$PEXTMIN
 10
0
 20
0
 30
0
  9
$PEXTMAX
 10
0
 20
0
 30
0
  9
$GRIDMODE
 70
    1
  9
$SNAPSTYLE
 70
    1
  9
$PLIMMIN
 10
0
 20
0
  9
$PLIMMAX
 10
297
 20
210
  9
$UNITMODE
 70
    0
  9
$VISRETAIN
 70
    1
  9
$PLINEGEN
 70
    0
  9
$PSLTSCALE
 70
    1
  9
$TREEDEPTH
 70
 3020
  9
$CMLSTYLE
  2
Standard
  9
$CMLJUST
 70
    0
  9
$CMLSCALE
 40
20
  9
$PROXYGRAPHICS
 70
    1
  9
$MEASUREMENT
 70
    1
  9
$CELWEIGHT
370
   -1
  9
$ENDCAPS
280
    0
  9
$JOINSTYLE
280
    0
  9
$LWDISPLAY
290
    0
  9
$INSUNITS
 70
    4
  9
$HYPERLINKBASE
  1

  9
$STYLESHEET
  1

  9
$XEDIT
290
    1
  9
$CEPSNTYPE
380
    0
  9
$PSTYLEMODE
290
    1
  9
$EXTNAMES
290
    1
  9
$PSVPSCALE
 40
1.23177
  9
$OLESTARTUP
290
    0
  9
$SORTENTS
280
  127
  9
$INDEXCTL
280
    0
  9
$HIDETEXT
280
    1
  9
$XCLIPFRAME
290
    0
  9
$HALOGAP
280
    0
  9
$OBSCOLOR
 70
  257
  9
$OBSLTYPE
280
    0
  9
$INTERSECTIONDISPLAY
280
    0
  9
$INTERSECTIONCOLOR
 70
  257
  9
$DIMASSOC
280
    1
  9
$PROJECTNAME
  1

  9
$CAMERADISPLAY
290
    0
  9
$LENSLENGTH
 40
50
  9
$CAMERAHEIGHT
 40
0
  9
$STEPSPERSEC
 40
2
  9
$STEPSIZE
 40
50
  9
$3DDWFPREC
 40
2
  9
$PSOLWIDTH
 40
5
  9
$PSOLHEIGHT
 40
80
  9
$LOFTANG1
 40
1.570796326794897
  9
$LOFTANG2
 40
1.570796326794897
  9
$LOFTMAG1
 40
0
  9
$LOFTMAG2
 40
0
  9
$LOFTPARAM
 70
    7
  9
$LOFTNORMALS
280
    1
  9
$LATITUDE
 40
1
  9
$LONGITUDE
 40
1
  9
$NORTHDIRECTION
 40
0
  9
$TIMEZONE
 70
-8000
  9
$LIGHTGLYPHDISPLAY
280
    1
  9
$TILEMODELIGHTSYNCH
280
    1
  9
$SOLIDHIST
280
    1
  9
$SHOWHIST
280
    1
  9
$DWFFRAME
280
    2
  9
$DGNFRAME
280
    0
  9
$REALWORLDSCALE
290
    1
  9
$INTERFERECOLOR
 62
    1
  9
$CSHADOW
280
    0
  9
$SHADOWPLANELOCATION
 40
0
  0
ENDSEC
  0
SECTION
  2
CLASSES
  0
ENDSEC
  0
SECTION
  2
TABLES
  0
TABLE
  2
VPORT
  5
8
330
0
100
AcDbSymbolTable
 70
    1
  0
VPORT
  5
31
330
2
100
AcDbSymbolTableRecord
100
AcDbViewportTableRecord
  2
*ACTIVE
 70
    0
 10
0
 20
0
 11
1
 21
1
 12
142.6708073111473
 22
39.15757646765319
 13
0
 23
0
 14
10
 24
10
 15
10
 25
10
 16
0
 26
0
 36
1
 17
0
 27
0
 37
0
 40
190.2277430815297
 41
1.972636815920398
 42
50
 43
0
 44
0
 50
0
 51
0
 71
    0
 72
  100
 73
    1
 74
    3
 75
    0
 76
    1
 77
    1
 78
    0
281
    0
 65
    1
110
0
120
0
130
0
111
1
121
0
131
0
112
0
122
1
132
0
 79
    0
146
0
348
10020
 60
    7
 61
    5
292
1
282
    1
141
0
142
0
 63
  250
421
3358443
  0
ENDTAB
  0
TABLE
  2
LTYPE
  5
5
330
0
100
AcDbSymbolTable
 70
    4
  0
LTYPE
  5
14
330
5
100
AcDbSymbolTableRecord
100
AcDbLinetypeTableRecord
  2
ByBlock
 70
    0
  3

 72
   65
 73
    0
 40
0
  0
LTYPE
  5
15
330
5
100
AcDbSymbolTableRecord
100
AcDbLinetypeTableRecord
  2
ByLayer
 70
    0
  3

 72
   65
 73
    0
 40
0
  0
LTYPE
  5
16
330
5
100
AcDbSymbolTableRecord
100
AcDbLinetypeTableRecord
  2
Continuous
 70
    0
  3
Solid line
 72
   65
 73
    0
 40
0
  0
LTYPE
  5
32
330
5
100
AcDbSymbolTableRecord
100
AcDbLinetypeTableRecord
  2
DOT
 70
    0
  3
Dot . . . . . . . . . . . . . . . . . . . . . .
 72
   65
 73
    2
 40
6.35
 49
0
 74
    0
 49
-6.35
 74
    0
  0
LTYPE
  5
33
330
5
100
AcDbSymbolTableRecord
100
AcDbLinetypeTableRecord
  2
DOTTINY
 70
    0
  3
Dot (.15x) .....................................
 72
   65
 73
    2
 40
0.9525
 49
0
 74
    0
 49
-0.9525
 74
    0
  0
LTYPE
  5
34
330
5
100
AcDbSymbolTableRecord
100
AcDbLinetypeTableRecord
  2
DOT2
 70
    0
  3
Dot (.5x) .....................................
 72
   65
 73
    2
 40
3.175
 49
0
 74
    0
 49
-3.175
 74
    0
  0
LTYPE
  5
35
330
5
100
AcDbSymbolTableRecord
100
AcDbLinetypeTableRecord
  2
DOTX2
 70
    0
  3
Dot (2x) .  .  .  .  .  .  .  .  .  .  .  .  .
 72
   65
 73
    2
 40
12.7
 49
0
 74
    0
 49
-12.7
 74
    0
  0
LTYPE
  5
36
330
5
100
AcDbSymbolTableRecord
100
AcDbLinetypeTableRecord
  2
DASHED
 70
    0
  3
Dashed _ _ _ _ _ _ _ _ _ _ _ _ _ _ _ _ _
 72
   65
 73
    2
 40
19.05
 49
12.7
 74
    0
 49
-6.35
 74
    0
  0
LTYPE
  5
37
330
5
100
AcDbSymbolTableRecord
100
AcDbLinetypeTableRecord
  2
DASHEDTINY
 70
    0
  3
Dashed (.15x) _ _ _ _ _ _ _ _ _ _ _ _ _ _ _ _ _
 72
   65
 73
    2
 40
2.8575
 49
1.905
 74
    0
 49
-0.9525
 74
    0
  0
LTYPE
  5
38
330
5
100
AcDbSymbolTableRecord
100
AcDbLinetypeTableRecord
  2
DASHED2
 70
    0
  3
Dashed (.5x) _ _ _ _ _ _ _ _ _ _ _ _ _ _ _ _ _
 72
   65
 73
    2
 40
9.524999999999999
 49
6.35
 74
    0
 49
-3.175
 74
    0
  0
LTYPE
  5
39
330
5
100
AcDbSymbolTableRecord
100
AcDbLinetypeTableRecord
  2
DASHEDX2
 70
    0
  3
Dashed (2x) ____  ____  ____  ____  ____  ___
 72
   65
 73
    2
 40
38.09999999999999
 49
25.4
 74
    0
 49
-12.7
 74
    0
  0
LTYPE
  5
3A
330
5
100
AcDbSymbolTableRecord
100
AcDbLinetypeTableRecord
  2
DASHDOT
 70
    0
  3
Dash dot __ . __ . __ . __ . __ . __ . __ . __
 72
   65
 73
    4
 40
25.4
 49
12.7
 74
    0
 49
-6.35
 74
    0
 49
0
 74
    0
 49
-6.35
 74
    0
  0
LTYPE
  5
3B
330
5
100
AcDbSymbolTableRecord
100
AcDbLinetypeTableRecord
  2
DASHDOTTINY
 70
    0
  3
Dash dot (.15x) _._._._._._._._._._._._._._._.
 72
   65
 73
    4
 40
3.81
 49
1.905
 74
    0
 49
-0.9525
 74
    0
 49
0
 74
    0
 49
-0.9525
 74
    0
  0
LTYPE
  5
3C
330
5
100
AcDbSymbolTableRecord
100
AcDbLinetypeTableRecord
  2
DASHDOT2
 70
    0
  3
Dash dot (.5x) _._._._._._._._._._._._._._._.
 72
   65
 73
    4
 40
12.7
 49
6.35
 74
    0
 49
-3.175
 74
    0
 49
0
 74
    0
 49
-3.175
 74
    0
  0
LTYPE
  5
3D
330
5
100
AcDbSymbolTableRecord
100
AcDbLinetypeTableRecord
  2
DASHDOTX2
 70
    0
  3
Dash dot (2x) ____  .  ____  .  ____  .  ___
 72
   65
 73
    4
 40
50.8
 49
25.4
 74
    0
 49
-12.7
 74
    0
 49
0
 74
    0
 49
-12.7
 74
    0
  0
LTYPE
  5
3E
330
5
100
AcDbSymbolTableRecord
100
AcDbLinetypeTableRecord
  2
DIVIDE
 70
    0
  3
Divide ____ . . ____ . . ____ . . ____ . . ____
 72
   65
 73
    6
 40
31.75
 49
12.7
 74
    0
 49
-6.35
 74
    0
 49
0
 74
    0
 49
-6.35
 74
    0
 49
0
 74
    0
 49
-6.35
 74
    0
  0
LTYPE
  5
3F
330
5
100
AcDbSymbolTableRecord
100
AcDbLinetypeTableRecord
  2
DIVIDETINY
 70
    0
  3
Divide (.15x) __..__..__..__..__..__..__..__.._
 72
   65
 73
    6
 40
4.7625
 49
1.905
 74
    0
 49
-0.9525
 74
    0
 49
0
 74
    0
 49
-0.9525
 74
    0
 49
0
 74
    0
 49
-0.9525
 74
    0
  0
LTYPE
  5
40
330
5
100
AcDbSymbolTableRecord
100
AcDbLinetypeTableRecord
  2
DIVIDE2
 70
    0
  3
Divide (.5x) __..__..__..__..__..__..__..__.._
 72
   65
 73
    6
 40
15.875
 49
6.35
 74
    0
 49
-3.175
 74
    0
 49
0
 74
    0
 49
-3.175
 74
    0
 49
0
 74
    0
 49
-3.175
 74
    0
  0
LTYPE
  5
41
330
5
100
AcDbSymbolTableRecord
100
AcDbLinetypeTableRecord
  2
DIVIDEX2
 70
    0
  3
Divide (2x) ________  .  .  ________  .  .  _
 72
   65
 73
    6
 40
63.5
 49
25.4
 74
    0
 49
-12.7
 74
    0
 49
0
 74
    0
 49
-12.7
 74
    0
 49
0
 74
    0
 49
-12.7
 74
    0
  0
LTYPE
  5
42
330
5
100
AcDbSymbolTableRecord
100
AcDbLinetypeTableRecord
  2
BORDER
 70
    0
  3
Border __ __ . __ __ . __ __ . __ __ . __ __ .
 72
   65
 73
    6
 40
44.45
 49
12.7
 74
    0
 49
-6.35
 74
    0
 49
12.7
 74
    0
 49
-6.35
 74
    0
 49
0
 74
    0
 49
-6.35
 74
    0
  0
LTYPE
  5
43
330
5
100
AcDbSymbolTableRecord
100
AcDbLinetypeTableRecord
  2
BORDERTINY
 70
    0
  3
Border (.15x) __.__.__.__.__.__.__.__.__.__.__.
 72
   65
 73
    6
 40
6.6675
 49
1.905
 74
    0
 49
-0.9525
 74
    0
 49
1.905
 74
    0
 49
-0.9525
 74
    0
 49
0
 74
    0
 49
-0.9525
 74
    0
  0
LTYPE
  5
44
330
5
100
AcDbSymbolTableRecord
100
AcDbLinetypeTableRecord
  2
BORDER2
 70
    0
  3
Border (.5x) __.__.__.__.__.__.__.__.__.__.__.
 72
   65
 73
    6
 40
22.225
 49
6.35
 74
    0
 49
-3.175
 74
    0
 49
6.35
 74
    0
 49
-3.175
 74
    0
 49
0
 74
    0
 49
-3.175
 74
    0
  0
LTYPE
  5
45
330
5
100
AcDbSymbolTableRecord
100
AcDbLinetypeTableRecord
  2
BORDERX2
 70
    0
  3
Border (2x) ____  ____  .  ____  ____  .  ___
 72
   65
 73
    6
 40
88.89999999999999
 49
25.4
 74
    0
 49
-12.7
 74
    0
 49
25.4
 74
    0
 49
-12.7
 74
    0
 49
0
 74
    0
 49
-12.7
 74
    0
  0
LTYPE
  5
46
330
5
100
AcDbSymbolTableRecord
100
AcDbLinetypeTableRecord
  2
CENTER
 70
    0
  3
Center ____ _ ____ _ ____ _ ____ _ ____ _ ____
 72
   65
 73
    4
 40
50.8
 49
31.75
 74
    0
 49
-6.35
 74
    0
 49
6.35
 74
    0
 49
-6.35
 74
    0
  0
LTYPE
  5
47
330
5
100
AcDbSymbolTableRecord
100
AcDbLinetypeTableRecord
  2
CENTERTINY
 70
    0
  3
Center (.15x) ___ _ ___ _ ___ _ ___ _ ___ _ ___
 72
   65
 73
    4
 40
7.62
 49
4.7625
 74
    0
 49
-0.9525
 74
    0
 49
0.9525
 74
    0
 49
-0.9525
 74
    0
  0
LTYPE
  5
48
330
5
100
AcDbSymbolTableRecord
100
AcDbLinetypeTableRecord
  2
CENTER2
 70
    0
  3
Center (.5x) ___ _ ___ _ ___ _ ___ _ ___ _ ___
 72
   65
 73
    4
 40
28.575
 49
19.05
 74
    0
 49
-3.175
 74
    0
 49
3.175
 74
    0
 49
-3.175
 74
    0
  0
LTYPE
  5
49
330
5
100
AcDbSymbolTableRecord
100
AcDbLinetypeTableRecord
  2
CENTERX2
 70
    0
  3
Center (2x) ________  __  ________  __  _____
 72
   65
 73
    4
 40
101.6
 49
63.5
 74
    0
 49
-12.7
 74
    0
 49
12.7
 74
    0
 49
-12.7
 74
    0
  0
ENDTAB
  0
TABLE
  2
LAYER
  5
2
330
0
100
AcDbSymbolTable
 70
    1
  0
LAYER
  5
10
330
2
100
AcDbSymbolTableRecord
100
AcDbLayerTableRecord
  2
0
 70
    0
 62
    7
  6
CONTINUOUS
370
    0
390
F
  0
ENDTAB
  0
TABLE
  2
STYLE
  5
3
330
0
100
AcDbSymbolTable
 70
    3
  0
STYLE
  5
4A
330
2
100
AcDbSymbolTableRecord
100
AcDbTextStyleTableRecord
  2
standard
 70
    0
 40
0
 41
1
 50
0
 71
    0
 42
1
  3
standard
  4

  0
STYLE
  5
4B
330
2
100
AcDbSymbolTableRecord
100
AcDbTextStyleTableRecord
  2
STANDARD
 70
    0
 40
0
 41
1
 50
0
 71
    0
 42
1
  3
STANDARD
  4

  0
ENDTAB
  0
TABLE
  2
VIEW
  5
6
330
0
100
AcDbSymbolTable
 70
    0
  0
ENDTAB
  0
TABLE
  2
UCS
  5
7
330
0
100
AcDbSymbolTable
 70
    0
  0
ENDTAB
  0
TABLE
  2
APPID
  5
9
330
0
100
AcDbSymbolTable
 70
    1
  0
APPID
  5
12
330
9
100
AcDbSymbolTableRecord
100
AcDbRegAppTableRecord
  2
ACAD
 70
    0
  0
APPID
  5
4C
330
9
100
AcDbSymbolTableRecord
100
AcDbRegAppTableRecord
  2
LibreCad
 70
    0
  0
ENDTAB
  0
TABLE
  2
DIMSTYLE
  5
A
330
0
100
AcDbSymbolTable
 70
    1
100
AcDbDimStyleTable
 71
    1
  0
DIMSTYLE
105
4D
330
A
100
AcDbSymbolTableRecord
100
AcDbDimStyleTableRecord
  2
Standard
 70
    0
 40
2.5
 41
2.5
 42
0.625
 43
0.38
 44
1.25
 45
0
 46
0
 47
0
 48
0
 49
1
140
2.5
141
0.09
142
0
143
25.4
144
1
145
0
146
1
147
0.625
148
0
 71
    0
 72
    0
 73
    0
 74
    1
 75
    0
 76
    0
 77
    0
 78
    8
 79
    0
170
    0
171
    2
172
    0
173
    0
174
    0
175
    0
176
    0
177
    0
178
    0
179
    0
271
    2
272
    4
273
    2
274
    2
275
    0
276
    0
277
    2
278
   44
279
    0
280
    0
281
    0
282
    0
283
    1
284
    0
285
    0
286
    0
288
    0
289
    3
340
STANDARD
341

371
   -2
372
   -2
  0
ENDTAB
  0
TABLE
  2
BLOCK_RECORD
  5
1
330
0
100
AcDbSymbolTable
 70
    2
  0
BLOCK_RECORD
  5
1F
330
1
100
AcDbSymbolTableRecord
100
AcDbBlockTableRecord
  2
*Model_Space
 70
    0
280
    1
281
    0
  0
BLOCK_RECORD
  5
1E
330
1
100
AcDbSymbolTableRecord
100
AcDbBlockTableRecord
  2
*Paper_Space
 70
    0
280
    1
281
    0
  0
ENDTAB
  0
ENDSEC
  0
SECTION
  2
BLOCKS
  0
BLOCK
  5
20
330
1F
100
AcDbEntity
  8
0
100
AcDbBlockBegin
  2
*Model_Space
 70
    0
 10
0
 20
0
 30
0
  3
*Model_Space
  1

  0
ENDBLK
  5
21
330
1F
100
AcDbEntity
  8
0
100
AcDbBlockEnd
  0
BLOCK
  5
1C
330
1B
100
AcDbEntity
  8
0
100
AcDbBlockBegin
  2
*Paper_Space
 70
    0
 10
0
 20
0
 30
0
  3
*Paper_Space
  1

  0
ENDBLK
  5
1D
330
1F
100
AcDbEntity
  8
0
100
AcDbBlockEnd
  0
ENDSEC
  0
SECTION
  2
ENTITIES
  0
HATCH
  5
4E
100
AcDbEntity
  8
0
  6
ByLayer
 62
   96
420
32768
370
   -1
100
AcDbHatch
 10
0
 20
0
 30
0
210
0
220
0
230
1
  2
SOLID
 70
    1
 71
    0
 91
    1
 92
    0
 93
    1
 72
    2
 10
96.53589838486224
 20
5.071067811865477
 40
1
 50
0
 51
360
 73
    1
 97
    0
 75
    0
 76
    1
 98
    0
  0
HATCH
  5
4F
100
AcDbEntity
  8
0
  6
ByLayer
 62
    5
370
   -1
100
AcDbHatch
 10
0
 20
0
 30
0
210
0
220
0
230
1
  2
SOLID
 70
    1
 71
    0
 91
    1
 92
    0
 93
    1
 72
    2
 10
96.53589838486224
 20
3.071067811865478
 40
1
 50
0
 51
360
 73
    1
 97
    0
 75
    0
 76
    1
 98
    0
  0
HATCH
  5
50
100
AcDbEntity
  8
0
  6
ByLayer
 62
    1
370
   -1
100
AcDbHatch
 10
0
 20
0
 30
0
210
0
220
0
230
1
  2
SOLID
 70
    1
 71
    0
 91
    1
 92
    0
 93
    1
 72
    2
 10
96.53589838486224
 20
7.071067811865476
 40
1
 50
0
 51
360
 73
    1
 97
    0
 75
    0
 76
    1
 98
    0
  0
HATCH
  5
51
100
AcDbEntity
  8
0
  6
ByLayer
 62
    1
370
   -1
100
AcDbHatch
 10
0
 20
0
 30
0
210
0
220
0
230
1
  2
SOLID
 70
    1
 71
    0
 91
    1
 92
    0
 93
    1
 72
    2
 10
96.53589838486224
 20
1.071067811865479
 40
1
 50
0
 51
360
 73
    1
 97
    0
 75
    0
 76
    1
 98
    0
  0
HATCH
  5
52
100
AcDbEntity
  8
0
  6
ByLayer
 62
    5
370
   -1
100
AcDbHatch
 10
0
 20
0
 30
0
210
0
220
0
230
1
  2
SOLID
 70
    1
 71
    0
 91
    1
 92
    0
 93
    1
 72
    2
 10
96.53589838486224
 20
-2.928932188134523
 40
1
 50
0
 51
360
 73
    1
 97
    0
 75
    0
 76
    1
 98
    0
  0
HATCH
  5
53
100
AcDbEntity
  8
0
  6
ByLayer
 62
   96
420
32768
370
   -1
100
AcDbHatch
 10
0
 20
0
 30
0
210
0
220
0
230
1
  2
SOLID
 70
    1
 71
    0
 91
    1
 92
    0
 93
    1
 72
    2
 10
96.53589838486224
 20
-0.9289321881345218
 40
1
 50
0
 51
360
 73
    1
 97
    0
 75
    0
 76
    1
 98
    0
  0
HATCH
  5
54
100
AcDbEntity
  8
0
  6
ByLayer
 62
    1
370
   -1
100
AcDbHatch
 10
0
 20
0
 30
0
210
0
220
0
230
1
  2
SOLID
 70
    1
 71
    0
 91
    1
 92
    0
 93
    1
 72
    2
 10
96.53589838486224
 20
13.07106781186547
 40
1
 50
0
 51
360
 73
    1
 97
    0
 75
    0
 76
    1
 98
    0
  0
HATCH
  5
55
100
AcDbEntity
  8
0
  6
ByLayer
 62
    5
370
   -1
100
AcDbHatch
 10
0
 20
0
 30
0
210
0
220
0
230
1
  2
SOLID
 70
    1
 71
    0
 91
    1
 92
    0
 93
    1
 72
    2
 10
96.53589838486224
 20
9.071067811865476
 40
1
 50
0
 51
360
 73
    1
 97
    0
 75
    0
 76
    1
 98
    0
  0
HATCH
  5
56
100
AcDbEntity
  8
0
  6
ByLayer
 62
   96
420
32768
370
   -1
100
AcDbHatch
 10
0
 20
0
 30
0
210
0
220
0
230
1
  2
SOLID
 70
    1
 71
    0
 91
    1
 92
    0
 93
    1
 72
    2
 10
96.53589838486224
 20
11.07106781186547
 40
1
 50
0
 51
360
 73
    1
 97
    0
 75
    0
 76
    1
 98
    0
  0
HATCH
  5
57
100
AcDbEntity
  8
0
  6
ByLayer
 62
    5
370
   -1
100
AcDbHatch
 10
0
 20
0
 30
0
210
0
220
0
230
1
  2
SOLID
 70
    1
 71
    0
 91
    1
 92
    0
 93
    1
 72
    2
 10
96.53589838486224
 20
15.07106781186547
 40
1
 50
0
 51
360
 73
    1
 97
    0
 75
    0
 76
    1
 98
    0
  0
HATCH
  5
58
100
AcDbEntity
  8
0
  6
ByLayer
 62
   96
420
32768
370
   -1
100
AcDbHatch
 10
0
 20
0
 30
0
210
0
220
0
230
1
  2
SOLID
 70
    1
 71
    0
 91
    1
 92
    0
 93
    1
 72
    2
 10
96.53589838486224
 20
17.07106781186547
 40
1
 50
0
 51
360
 73
    1
 97
    0
 75
    0
 76
    1
 98
    0
  0
HATCH
  5
59
100
AcDbEntity
  8
0
  6
ByLayer
 62
    1
370
   -1
100
AcDbHatch
 10
0
 20
0
 30
0
210
0
220
0
230
1
  2
SOLID
 70
    1
 71
    0
 91
    1
 92
    0
 93
    1
 72
    2
 10
94.80384757729335
 20
16.07106781186548
 40
1
 50
0
 51
360
 73
    1
 97
    0
 75
    0
 76
    1
 98
    0
  0
HATCH
  5
5A
100
AcDbEntity
  8
0
  6
ByLayer
 62
    1
370
   -1
100
AcDbHatch
 10
0
 20
0
 30
0
210
0
220
0
230
1
  2
SOLID
 70
    1
 71
    0
 91
    1
 92
    0
 93
    1
 72
    2
 10
94.80384757729335
 20
10.07106781186548
 40
1
 50
0
 51
360
 73
    1
 97
    0
 75
    0
 76
    1
 98
    0
  0
HATCH
  5
5B
100
AcDbEntity
  8
0
  6
ByLayer
 62
    5
370
   -1
100
AcDbHatch
 10
0
 20
0
 30
0
210
0
220
0
230
1
  2
SOLID
 70
    1
 71
    0
 91
    1
 92
    0
 93
    1
 72
    2
 10
94.80384757729335
 20
12.07106781186548
 40
1
 50
0
 51
360
 73
    1
 97
    0
 75
    0
 76
    1
 98
    0
  0
HATCH
  5
5C
100
AcDbEntity
  8
0
  6
ByLayer
 62
   96
420
32768
370
   -1
100
AcDbHatch
 10
0
 20
0
 30
0
210
0
220
0
230
1
  2
SOLID
 70
    1
 71
    0
 91
    1
 92
    0
 93
    1
 72
    2
 10
94.80384757729335
 20
14.07106781186548
 40
1
 50
0
 51
360
 73
    1
 97
    0
 75
    0
 76
    1
 98
    0
  0
HATCH
  5
5D
100
AcDbEntity
  8
0
  6
ByLayer
 62
    1
370
   -1
100
AcDbHatch
 10
0
 20
0
 30
0
210
0
220
0
230
1
  2
SOLID
 70
    1
 71
    0
 91
    1
 92
    0
 93
    1
 72
    2
 10
94.80384757729335
 20
-1.928932188134518
 40
1
 50
0
 51
360
 73
    1
 97
    0
 75
    0
 76
    1
 98
    0
  0
HATCH
  5
5E
100
AcDbEntity
  8
0
  6
ByLayer
 62
    5
370
   -1
100
AcDbHatch
 10
0
 20
0
 30
0
210
0
220
0
230
1
  2
SOLID
 70
    1
 71
    0
 91
    1
 92
    0
 93
    1
 72
    2
 10
94.80384757729335
 20
0.07106781186547906
 40
1
 50
0
 51
360
 73
    1
 97
    0
 75
    0
 76
    1
 98
    0
  0
HATCH
  5
5F
100
AcDbEntity
  8
0
  6
ByLayer
 62
   96
420
32768
370
   -1
100
AcDbHatch
 10
0
 20
0
 30
0
210
0
220
0
230
1
  2
SOLID
 70
    1
 71
    0
 91
    1
 92
    0
 93
    1
 72
    2
 10
94.80384757729335
 20
2.071067811865478
 40
1
 50
0
 51
360
 73
    1
 97
    0
 75
    0
 76
    1
 98
    0
  0
HATCH
  5
60
100
AcDbEntity
  8
0
  6
ByLayer
 62
   96
420
32768
370
   -1
100
AcDbHatch
 10
0
 20
0
 30
0
210
0
220
0
230
1
  2
SOLID
 70
    1
 71
    0
 91
    1
 92
    0
 93
    1
 72
    2
 10
94.80384757729335
 20
8.071067811865476
 40
1
 50
0
 51
360
 73
    1
 97
    0
 75
    0
 76
    1
 98
    0
  0
HATCH
  5
61
100
AcDbEntity
  8
0
  6
ByLayer
 62
    5
370
   -1
100
AcDbHatch
 10
0
 20
0
 30
0
210
0
220
0
230
1
  2
SOLID
 70
    1
 71
    0
 91
    1
 92
    0
 93
    1
 72
    2
 10
94.80384757729335
 20
6.071067811865477
 40
1
 50
0
 51
360
 73
    1
 97
    0
 75
    0
 76
    1
 98
    0
  0
HATCH
  5
62
100
AcDbEntity
  8
0
  6
ByLayer
 62
    1
370
   -1
100
AcDbHatch
 10
0
 20
0
 30
0
210
0
220
0
230
1
  2
SOLID
 70
    1
 71
    0
 91
    1
 92
    0
 93
    1
 72
    2
 10
94.80384757729335
 20
4.071067811865478
 40
1
 50
0
 51
360
 73
    1
 97
    0
 75
    0
 76
    1
 98
    0
  0
HATCH
  5
63
100
AcDbEntity
  8
0
  6
ByLayer
 62
    5
370
   -1
100
AcDbHatch
 10
0
 20
0
 30
0
210
0
220
0
230
1
  2
SOLID
 70
    1
 71
    0
 91
    1
 92
    0
 93
    1
 72
    2
 10
93.07179676972447
 20
15.07106781186547
 40
1
 50
0
 51
360
 73
    1
 97
    0
 75
    0
 76
    1
 98
    0
  0
HATCH
  5
64
100
AcDbEntity
  8
0
  6
ByLayer
 62
   96
420
32768
370
   -1
100
AcDbHatch
 10
0
 20
0
 30
0
210
0
220
0
230
1
  2
SOLID
 70
    1
 71
    0
 91
    1
 92
    0
 93
    1
 72
    2
 10
93.07179676972447
 20
11.07106781186547
 40
1
 50
0
 51
360
 73
    1
 97
    0
 75
    0
 76
    1
 98
    0
  0
HATCH
  5
65
100
AcDbEntity
  8
0
  6
ByLayer
 62
    5
370
   -1
100
AcDbHatch
 10
0
 20
0
 30
0
210
0
220
0
230
1
  2
SOLID
 70
    1
 71
    0
 91
    1
 92
    0
 93
    1
 72
    2
 10
93.07179676972447
 20
9.071067811865476
 40
1
 50
0
 51
360
 73
    1
 97
    0
 75
    0
 76
    1
 98
    0
  0
HATCH
  5
66
100
AcDbEntity
  8
0
  6
ByLayer
 62
    1
370
   -1
100
AcDbHatch
 10
0
 20
0
 30
0
210
0
220
0
230
1
  2
SOLID
 70
    1
 71
    0
 91
    1
 92
    0
 93
    1
 72
    2
 10
93.07179676972447
 20
13.07106781186547
 40
1
 50
0
 51
360
 73
    1
 97
    0
 75
    0
 76
    1
 98
    0
  0
HATCH
  5
67
100
AcDbEntity
  8
0
  6
ByLayer
 62
   96
420
32768
370
   -1
100
AcDbHatch
 10
0
 20
0
 30
0
210
0
220
0
230
1
  2
SOLID
 70
    1
 71
    0
 91
    1
 92
    0
 93
    1
 72
    2
 10
93.07179676972447
 20
-0.9289321881345156
 40
1
 50
0
 51
360
 73
    1
 97
    0
 75
    0
 76
    1
 98
    0
  0
HATCH
  5
68
100
AcDbEntity
  8
0
  6
ByLayer
 62
    1
370
   -1
100
AcDbHatch
 10
0
 20
0
 30
0
210
0
220
0
230
1
  2
SOLID
 70
    1
 71
    0
 91
    1
 92
    0
 93
    1
 72
    2
 10
93.07179676972447
 20
1.07106781186548
 40
1
 50
0
 51
360
 73
    1
 97
    0
 75
    0
 76
    1
 98
    0
  0
HATCH
  5
69
100
AcDbEntity
  8
0
  6
ByLayer
 62
    1
370
   -1
100
AcDbHatch
 10
0
 20
0
 30
0
210
0
220
0
230
1
  2
SOLID
 70
    1
 71
    0
 91
    1
 92
    0
 93
    1
 72
    2
 10
93.07179676972447
 20
7.071067811865477
 40
1
 50
0
 51
360
 73
    1
 97
    0
 75
    0
 76
    1
 98
    0
  0
HATCH
  5
6A
100
AcDbEntity
  8
0
  6
ByLayer
 62
    5
370
   -1
100
AcDbHatch
 10
0
 20
0
 30
0
210
0
220
0
230
1
  2
SOLID
 70
    1
 71
    0
 91
    1
 92
    0
 93
    1
 72
    2
 10
93.07179676972447
 20
3.071067811865479
 40
1
 50
0
 51
360
 73
    1
 97
    0
 75
    0
 76
    1
 98
    0
  0
HATCH
  5
6B
100
AcDbEntity
  8
0
  6
ByLayer
 62
   96
420
32768
370
   -1
100
AcDbHatch
 10
0
 20
0
 30
0
210
0
220
0
230
1
  2
SOLID
 70
    1
 71
    0
 91
    1
 92
    0
 93
    1
 72
    2
 10
93.07179676972447
 20
5.071067811865478
 40
1
 50
0
 51
360
 73
    1
 97
    0
 75
    0
 76
    1
 98
    0
  0
HATCH
  5
6C
100
AcDbEntity
  8
0
  6
ByLayer
 62
    1
370
   -1
100
AcDbHatch
 10
0
 20
0
 30
0
210
0
220
0
230
1
  2
SOLID
 70
    1
 71
    0
 91
    1
 92
    0
 93
    1
 72
    2
 10
91.33974596215559
 20
10.07106781186548
 40
1
 50
0
 51
360
 73
    1
 97
    0
 75
    0
 76
    1
 98
    0
  0
HATCH
  5
6D
100
AcDbEntity
  8
0
  6
ByLayer
 62
    5
370
   -1
100
AcDbHatch
 10
0
 20
0
 30
0
210
0
220
0
230
1
  2
SOLID
 70
    1
 71
    0
 91
    1
 92
    0
 93
    1
 72
    2
 10
91.33974596215559
 20
12.07106781186548
 40
1
 50
0
 51
360
 73
    1
 97
    0
 75
    0
 76
    1
 98
    0
  0
HATCH
  5
6E
100
AcDbEntity
  8
0
  6
ByLayer
 62
   96
420
32768
370
   -1
100
AcDbHatch
 10
0
 20
0
 30
0
210
0
220
0
230
1
  2
SOLID
 70
    1
 71
    0
 91
    1
 92
    0
 93
    1
 72
    2
 10
91.33974596215559
 20
2.071067811865479
 40
1
 50
0
 51
360
 73
    1
 97
    0
 75
    0
 76
    1
 98
    0
  0
HATCH
  5
6F
100
AcDbEntity
  8
0
  6
ByLayer
 62
   96
420
32768
370
   -1
100
AcDbHatch
 10
0
 20
0
 30
0
210
0
220
0
230
1
  2
SOLID
 70
    1
 71
    0
 91
    1
 92
    0
 93
    1
 72
    2
 10
91.33974596215559
 20
8.071067811865477
 40
1
 50
0
 51
360
 73
    1
 97
    0
 75
    0
 76
    1
 98
    0
  0
HATCH
  5
70
100
AcDbEntity
  8
0
  6
ByLayer
 62
    5
370
   -1
100
AcDbHatch
 10
0
 20
0
 30
0
210
0
220
0
230
1
  2
SOLID
 70
    1
 71
    0
 91
    1
 92
    0
 93
    1
 72
    2
 10
91.33974596215559
 20
6.071067811865478
 40
1
 50
0
 51
360
 73
    1
 97
    0
 75
    0
 76
    1
 98
    0
  0
HATCH
  5
71
100
AcDbEntity
  8
0
  6
ByLayer
 62
    1
370
   -1
100
AcDbHatch
 10
0
 20
0
 30
0
210
0
220
0
230
1
  2
SOLID
 70
    1
 71
    0
 91
    1
 92
    0
 93
    1
 72
    2
 10
91.33974596215559
 20
4.071067811865479
 40
1
 50
0
 51
360
 73
    1
 97
    0
 75
    0
 76
    1
 98
    0
  0
HATCH
  5
72
100
AcDbEntity
  8
0
  6
ByLayer
 62
    5
370
   -1
100
AcDbHatch
 10
0
 20
0
 30
0
210
0
220
0
230
1
  2
SOLID
 70
    1
 71
    0
 91
    1
 92
    0
 93
    1
 72
    2
 10
89.60769515458671
 20
9.071067811865477
 40
1
 50
0
 51
360
 73
    1
 97
    0
 75
    0
 76
    1
 98
    0
  0
HATCH
  5
73
100
AcDbEntity
  8
0
  6
ByLayer
 62
    1
370
   -1
100
AcDbHatch
 10
0
 20
0
 30
0
210
0
220
0
230
1
  2
SOLID
 70
    1
 71
    0
 91
    1
 92
    0
 93
    1
 72
    2
 10
89.60769515458671
 20
7.071067811865478
 40
1
 50
0
 51
360
 73
    1
 97
    0
 75
    0
 76
    1
 98
    0
  0
HATCH
  5
74
100
AcDbEntity
  8
0
  6
ByLayer
 62
   96
420
32768
370
   -1
100
AcDbHatch
 10
0
 20
0
 30
0
210
0
220
0
230
1
  2
SOLID
 70
    1
 71
    0
 91
    1
 92
    0
 93
    1
 72
    2
 10
89.60769515458671
 20
5.071067811865479
 40
1
 50
0
 51
360
 73
    1
 97
    0
 75
    0
 76
    1
 98
    0
  0
HATCH
  5
75
100
AcDbEntity
  8
0
  6
ByLayer
 62
   96
420
32768
370
   -1
100
AcDbHatch
 10
0
 20
0
 30
0
210
0
220
0
230
1
  2
SOLID
 70
    1
 71
    0
 91
    1
 92
    0
 93
    1
 72
    2
 10
110.3923048454133
 20
5.07106781186548
 40
1
 50
0
 51
360
 73
    1
 97
    0
 75
    0
 76
    1
 98
    0
  0
HATCH
  5
76
100
AcDbEntity
  8
0
  6
ByLayer
 62
    1
370
   -1
100
AcDbHatch
 10
0
 20
0
 30
0
210
0
220
0
230
1
  2
SOLID
 70
    1
 71
    0
 91
    1
 92
    0
 93
    1
 72
    2
 10
110.3923048454133
 20
7.071067811865479
 40
1
 50
0
 51
360
 73
    1
 97
    0
 75
    0
 76
    1
 98
    0
  0
HATCH
  5
77
100
AcDbEntity
  8
0
  6
ByLayer
 62
    5
370
   -1
100
AcDbHatch
 10
0
 20
0
 30
0
210
0
220
0
230
1
  2
SOLID
 70
    1
 71
    0
 91
    1
 92
    0
 93
    1
 72
    2
 10
110.3923048454133
 20
9.071067811865479
 40
1
 50
0
 51
360
 73
    1
 97
    0
 75
    0
 76
    1
 98
    0
  0
HATCH
  5
78
100
AcDbEntity
  8
0
  6
ByLayer
 62
    1
370
   -1
100
AcDbHatch
 10
0
 20
0
 30
0
210
0
220
0
230
1
  2
SOLID
 70
    1
 71
    0
 91
    1
 92
    0
 93
    1
 72
    2
 10
108.6602540378444
 20
4.07106781186548
 40
1
 50
0
 51
360
 73
    1
 97
    0
 75
    0
 76
    1
 98
    0
  0
HATCH
  5
79
100
AcDbEntity
  8
0
  6
ByLayer
 62
    5
370
   -1
100
AcDbHatch
 10
0
 20
0
 30
0
210
0
220
0
230
1
  2
SOLID
 70
    1
 71
    0
 91
    1
 92
    0
 93
    1
 72
    2
 10
108.6602540378444
 20
6.071067811865479
 40
1
 50
0
 51
360
 73
    1
 97
    0
 75
    0
 76
    1
 98
    0
  0
HATCH
  5
7A
100
AcDbEntity
  8
0
  6
ByLayer
 62
   96
420
32768
370
   -1
100
AcDbHatch
 10
0
 20
0
 30
0
210
0
220
0
230
1
  2
SOLID
 70
    1
 71
    0
 91
    1
 92
    0
 93
    1
 72
    2
 10
108.6602540378444
 20
8.071067811865479
 40
1
 50
0
 51
360
 73
    1
 97
    0
 75
    0
 76
    1
 98
    0
  0
HATCH
  5
7B
100
AcDbEntity
  8
0
  6
ByLayer
 62
   96
420
32768
370
   -1
100
AcDbHatch
 10
0
 20
0
 30
0
210
0
220
0
230
1
  2
SOLID
 70
    1
 71
    0
 91
    1
 92
    0
 93
    1
 72
    2
 10
108.6602540378444
 20
2.07106781186548
 40
1
 50
0
 51
360
 73
    1
 97
    0
 75
    0
 76
    1
 98
    0
  0
HATCH
  5
7C
100
AcDbEntity
  8
0
  6
ByLayer
 62
    5
370
   -1
100
AcDbHatch
 10
0
 20
0
 30
0
210
0
220
0
230
1
  2
SOLID
 70
    1
 71
    0
 91
    1
 92
    0
 93
    1
 72
    2
 10
108.6602540378444
 20
12.07106781186548
 40
1
 50
0
 51
360
 73
    1
 97
    0
 75
    0
 76
    1
 98
    0
  0
HATCH
  5
7D
100
AcDbEntity
  8
0
  6
ByLayer
 62
    1
370
   -1
100
AcDbHatch
 10
0
 20
0
 30
0
210
0
220
0
230
1
  2
SOLID
 70
    1
 71
    0
 91
    1
 92
    0
 93
    1
 72
    2
 10
108.6602540378444
 20
10.07106781186548
 40
1
 50
0
 51
360
 73
    1
 97
    0
 75
    0
 76
    1
 98
    0
  0
HATCH
  5
7E
100
AcDbEntity
  8
0
  6
ByLayer
 62
   96
420
32768
370
   -1
100
AcDbHatch
 10
0
 20
0
 30
0
210
0
220
0
230
1
  2
SOLID
 70
    1
 71
    0
 91
    1
 92
    0
 93
    1
 72
    2
 10
106.9282032302755
 20
5.071067811865479
 40
1
 50
0
 51
360
 73
    1
 97
    0
 75
    0
 76
    1
 98
    0
  0
HATCH
  5
7F
100
AcDbEntity
  8
0
  6
ByLayer
 62
    5
370
   -1
100
AcDbHatch
 10
0
 20
0
 30
0
210
0
220
0
230
1
  2
SOLID
 70
    1
 71
    0
 91
    1
 92
    0
 93
    1
 72
    2
 10
106.9282032302755
 20
3.07106781186548
 40
1
 50
0
 51
360
 73
    1
 97
    0
 75
    0
 76
    1
 98
    0
  0
HATCH
  5
80
100
AcDbEntity
  8
0
  6
ByLayer
 62
    1
370
   -1
100
AcDbHatch
 10
0
 20
0
 30
0
210
0
220
0
230
1
  2
SOLID
 70
    1
 71
    0
 91
    1
 92
    0
 93
    1
 72
    2
 10
106.9282032302755
 20
7.071067811865478
 40
1
 50
0
 51
360
 73
    1
 97
    0
 75
    0
 76
    1
 98
    0
  0
HATCH
  5
81
100
AcDbEntity
  8
0
  6
ByLayer
 62
    1
370
   -1
100
AcDbHatch
 10
0
 20
0
 30
0
210
0
220
0
230
1
  2
SOLID
 70
    1
 71
    0
 91
    1
 92
    0
 93
    1
 72
    2
 10
106.9282032302755
 20
1.071067811865481
 40
1
 50
0
 51
360
 73
    1
 97
    0
 75
    0
 76
    1
 98
    0
  0
HATCH
  5
82
100
AcDbEntity
  8
0
  6
ByLayer
 62
   96
420
32768
370
   -1
100
AcDbHatch
 10
0
 20
0
 30
0
210
0
220
0
230
1
  2
SOLID
 70
    1
 71
    0
 91
    1
 92
    0
 93
    1
 72
    2
 10
106.9282032302755
 20
-0.9289321881345183
 40
1
 50
0
 51
360
 73
    1
 97
    0
 75
    0
 76
    1
 98
    0
  0
HATCH
  5
83
100
AcDbEntity
  8
0
  6
ByLayer
 62
    1
370
   -1
100
AcDbHatch
 10
0
 20
0
 30
0
210
0
220
0
230
1
  2
SOLID
 70
    1
 71
    0
 91
    1
 92
    0
 93
    1
 72
    2
 10
106.9282032302755
 20
13.07106781186547
 40
1
 50
0
 51
360
 73
    1
 97
    0
 75
    0
 76
    1
 98
    0
  0
HATCH
  5
84
100
AcDbEntity
  8
0
  6
ByLayer
 62
    5
370
   -1
100
AcDbHatch
 10
0
 20
0
 30
0
210
0
220
0
230
1
  2
SOLID
 70
    1
 71
    0
 91
    1
 92
    0
 93
    1
 72
    2
 10
106.9282032302755
 20
9.071067811865477
 40
1
 50
0
 51
360
 73
    1
 97
    0
 75
    0
 76
    1
 98
    0
  0
HATCH
  5
85
100
AcDbEntity
  8
0
  6
ByLayer
 62
   96
420
32768
370
   -1
100
AcDbHatch
 10
0
 20
0
 30
0
210
0
220
0
230
1
  2
SOLID
 70
    1
 71
    0
 91
    1
 92
    0
 93
    1
 72
    2
 10
106.9282032302755
 20
11.07106781186547
 40
1
 50
0
 51
360
 73
    1
 97
    0
 75
    0
 76
    1
 98
    0
  0
HATCH
  5
86
100
AcDbEntity
  8
0
  6
ByLayer
 62
    5
370
   -1
100
AcDbHatch
 10
0
 20
0
 30
0
210
0
220
0
230
1
  2
SOLID
 70
    1
 71
    0
 91
    1
 92
    0
 93
    1
 72
    2
 10
106.9282032302755
 20
15.07106781186547
 40
1
 50
0
 51
360
 73
    1
 97
    0
 75
    0
 76
    1
 98
    0
  0
HATCH
  5
87
100
AcDbEntity
  8
0
  6
ByLayer
 62
    1
370
   -1
100
AcDbHatch
 10
0
 20
0
 30
0
210
0
220
0
230
1
  2
SOLID
 70
    1
 71
    0
 91
    1
 92
    0
 93
    1
 72
    2
 10
105.1961524227066
 20
4.071067811865479
 40
1
 50
0
 51
360
 73
    1
 97
    0
 75
    0
 76
    1
 98
    0
  0
HATCH
  5
88
100
AcDbEntity
  8
0
  6
ByLayer
 62
    5
370
   -1
100
AcDbHatch
 10
0
 20
0
 30
0
210
0
220
0
230
1
  2
SOLID
 70
    1
 71
    0
 91
    1
 92
    0
 93
    1
 72
    2
 10
105.1961524227066
 20
6.071067811865478
 40
1
 50
0
 51
360
 73
    1
 97
    0
 75
    0
 76
    1
 98
    0
  0
HATCH
  5
89
100
AcDbEntity
  8
0
  6
ByLayer
 62
   96
420
32768
370
   -1
100
AcDbHatch
 10
0
 20
0
 30
0
210
0
220
0
230
1
  2
SOLID
 70
    1
 71
    0
 91
    1
 92
    0
 93
    1
 72
    2
 10
105.1961524227066
 20
8.071067811865477
 40
1
 50
0
 51
360
 73
    1
 97
    0
 75
    0
 76
    1
 98
    0
  0
HATCH
  5
8A
100
AcDbEntity
  8
0
  6
ByLayer
 62
   96
420
32768
370
   -1
100
AcDbHatch
 10
0
 20
0
 30
0
210
0
220
0
230
1
  2
SOLID
 70
    1
 71
    0
 91
    1
 92
    0
 93
    1
 72
    2
 10
105.1961524227066
 20
2.071067811865479
 40
1
 50
0
 51
360
 73
    1
 97
    0
 75
    0
 76
    1
 98
    0
  0
HATCH
  5
8B
100
AcDbEntity
  8
0
  6
ByLayer
 62
    5
370
   -1
100
AcDbHatch
 10
0
 20
0
 30
0
210
0
220
0
230
1
  2
SOLID
 70
    1
 71
    0
 91
    1
 92
    0
 93
    1
 72
    2
 10
105.1961524227066
 20
0.07106781186547995
 40
1
 50
0
 51
360
 73
    1
 97
    0
 75
    0
 76
    1
 98
    0
  0
HATCH
  5
8C
100
AcDbEntity
  8
0
  6
ByLayer
 62
    1
370
   -1
100
AcDbHatch
 10
0
 20
0
 30
0
210
0
220
0
230
1
  2
SOLID
 70
    1
 71
    0
 91
    1
 92
    0
 93
    1
 72
    2
 10
105.1961524227066
 20
-1.928932188134519
 40
1
 50
0
 51
360
 73
    1
 97
    0
 75
    0
 76
    1
 98
    0
  0
HATCH
  5
8D
100
AcDbEntity
  8
0
  6
ByLayer
 62
   96
420
32768
370
   -1
100
AcDbHatch
 10
0
 20
0
 30
0
210
0
220
0
230
1
  2
SOLID
 70
    1
 71
    0
 91
    1
 92
    0
 93
    1
 72
    2
 10
105.1961524227066
 20
14.07106781186548
 40
1
 50
0
 51
360
 73
    1
 97
    0
 75
    0
 76
    1
 98
    0
  0
HATCH
  5
8E
100
AcDbEntity
  8
0
  6
ByLayer
 62
    5
370
   -1
100
AcDbHatch
 10
0
 20
0
 30
0
210
0
220
0
230
1
  2
SOLID
 70
    1
 71
    0
 91
    1
 92
    0
 93
    1
 72
    2
 10
105.1961524227066
 20
12.07106781186548
 40
1
 50
0
 51
360
 73
    1
 97
    0
 75
    0
 76
    1
 98
    0
  0
HATCH
  5
8F
100
AcDbEntity
  8
0
  6
ByLayer
 62
    1
370
   -1
100
AcDbHatch
 10
0
 20
0
 30
0
210
0
220
0
230
1
  2
SOLID
 70
    1
 71
    0
 91
    1
 92
    0
 93
    1
 72
    2
 10
105.1961524227066
 20
10.07106781186548
 40
1
 50
0
 51
360
 73
    1
 97
    0
 75
    0
 76
    1
 98
    0
  0
HATCH
  5
90
100
AcDbEntity
  8
0
  6
ByLayer
 62
    1
370
   -1
100
AcDbHatch
 10
0
 20
0
 30
0
210
0
220
0
230
1
  2
SOLID
 70
    1
 71
    0
 91
    1
 92
    0
 93
    1
 72
    2
 10
105.1961524227066
 20
16.07106781186548
 40
1
 50
0
 51
360
 73
    1
 97
    0
 75
    0
 76
    1
 98
    0
  0
HATCH
  5
91
100
AcDbEntity
  8
0
  6
ByLayer
 62
   96
420
32768
370
   -1
100
AcDbHatch
 10
0
 20
0
 30
0
210
0
220
0
230
1
  2
SOLID
 70
    1
 71
    0
 91
    1
 92
    0
 93
    1
 72
    2
 10
103.4641016151378
 20
5.071067811865478
 40
1
 50
0
 51
360
 73
    1
 97
    0
 75
    0
 76
    1
 98
    0
  0
HATCH
  5
92
100
AcDbEntity
  8
0
  6
ByLayer
 62
    5
370
   -1
100
AcDbHatch
 10
0
 20
0
 30
0
210
0
220
0
230
1
  2
SOLID
 70
    1
 71
    0
 91
    1
 92
    0
 93
    1
 72
    2
 10
103.4641016151378
 20
3.071067811865479
 40
1
 50
0
 51
360
 73
    1
 97
    0
 75
    0
 76
    1
 98
    0
  0
HATCH
  5
93
100
AcDbEntity
  8
0
  6
ByLayer
 62
    1
370
   -1
100
AcDbHatch
 10
0
 20
0
 30
0
210
0
220
0
230
1
  2
SOLID
 70
    1
 71
    0
 91
    1
 92
    0
 93
    1
 72
    2
 10
103.4641016151378
 20
7.071067811865477
 40
1
 50
0
 51
360
 73
    1
 97
    0
 75
    0
 76
    1
 98
    0
  0
HATCH
  5
94
100
AcDbEntity
  8
0
  6
ByLayer
 62
    1
370
   -1
100
AcDbHatch
 10
0
 20
0
 30
0
210
0
220
0
230
1
  2
SOLID
 70
    1
 71
    0
 91
    1
 92
    0
 93
    1
 72
    2
 10
103.4641016151378
 20
1.07106781186548
 40
1
 50
0
 51
360
 73
    1
 97
    0
 75
    0
 76
    1
 98
    0
  0
HATCH
  5
95
100
AcDbEntity
  8
0
  6
ByLayer
 62
    5
370
   -1
100
AcDbHatch
 10
0
 20
0
 30
0
210
0
220
0
230
1
  2
SOLID
 70
    1
 71
    0
 91
    1
 92
    0
 93
    1
 72
    2
 10
103.4641016151378
 20
-2.928932188134518
 40
1
 50
0
 51
360
 73
    1
 97
    0
 75
    0
 76
    1
 98
    0
  0
HATCH
  5
96
100
AcDbEntity
  8
0
  6
ByLayer
 62
   96
420
32768
370
   -1
100
AcDbHatch
 10
0
 20
0
 30
0
210
0
220
0
230
1
  2
SOLID
 70
    1
 71
    0
 91
    1
 92
    0
 93
    1
 72
    2
 10
103.4641016151378
 20
-0.9289321881345192
 40
1
 50
0
 51
360
 73
    1
 97
    0
 75
    0
 76
    1
 98
    0
  0
HATCH
  5
97
100
AcDbEntity
  8
0
  6
ByLayer
 62
    1
370
   -1
100
AcDbHatch
 10
0
 20
0
 30
0
210
0
220
0
230
1
  2
SOLID
 70
    1
 71
    0
 91
    1
 92
    0
 93
    1
 72
    2
 10
103.4641016151378
 20
13.07106781186547
 40
1
 50
0
 51
360
 73
    1
 97
    0
 75
    0
 76
    1
 98
    0
  0
HATCH
  5
98
100
AcDbEntity
  8
0
  6
ByLayer
 62
    5
370
   -1
100
AcDbHatch
 10
0
 20
0
 30
0
210
0
220
0
230
1
  2
SOLID
 70
    1
 71
    0
 91
    1
 92
    0
 93
    1
 72
    2
 10
103.4641016151378
 20
9.071067811865476
 40
1
 50
0
 51
360
 73
    1
 97
    0
 75
    0
 76
    1
 98
    0
  0
HATCH
  5
99
100
AcDbEntity
  8
0
  6
ByLayer
 62
   96
420
32768
370
   -1
100
AcDbHatch
 10
0
 20
0
 30
0
210
0
220
0
230
1
  2
SOLID
 70
    1
 71
    0
 91
    1
 92
    0
 93
    1
 72
    2
 10
103.4641016151378
 20
11.07106781186547
 40
1
 50
0
 51
360
 73
    1
 97
    0
 75
    0
 76
    1
 98
    0
  0
HATCH
  5
9A
100
AcDbEntity
  8
0
  6
ByLayer
 62
    5
370
   -1
100
AcDbHatch
 10
0
 20
0
 30
0
210
0
220
0
230
1
  2
SOLID
 70
    1
 71
    0
 91
    1
 92
    0
 93
    1
 72
    2
 10
103.4641016151378
 20
15.07106781186547
 40
1
 50
0
 51
360
 73
    1
 97
    0
 75
    0
 76
    1
 98
    0
  0
HATCH
  5
9B
100
AcDbEntity
  8
0
  6
ByLayer
 62
   96
420
32768
370
   -1
100
AcDbHatch
 10
0
 20
0
 30
0
210
0
220
0
230
1
  2
SOLID
 70
    1
 71
    0
 91
    1
 92
    0
 93
    1
 72
    2
 10
103.4641016151378
 20
17.07106781186547
 40
1
 50
0
 51
360
 73
    1
 97
    0
 75
    0
 76
    1
 98
    0
  0
HATCH
  5
9C
100
AcDbEntity
  8
0
  6
ByLayer
 62
    1
370
   -1
100
AcDbHatch
 10
0
 20
0
 30
0
210
0
220
0
230
1
  2
SOLID
 70
    1
 71
    0
 91
    1
 92
    0
 93
    1
 72
    2
 10
101.7320508075689
 20
4.071067811865478
 40
1
 50
0
 51
360
 73
    1
 97
    0
 75
    0
 76
    1
 98
    0
  0
HATCH
  5
9D
100
AcDbEntity
  8
0
  6
ByLayer
 62
    5
370
   -1
100
AcDbHatch
 10
0
 20
0
 30
0
210
0
220
0
230
1
  2
SOLID
 70
    1
 71
    0
 91
    1
 92
    0
 93
    1
 72
    2
 10
101.7320508075689
 20
6.071067811865477
 40
1
 50
0
 51
360
 73
    1
 97
    0
 75
    0
 76
    1
 98
    0
  0
HATCH
  5
9E
100
AcDbEntity
  8
0
  6
ByLayer
 62
   96
420
32768
370
   -1
100
AcDbHatch
 10
0
 20
0
 30
0
210
0
220
0
230
1
  2
SOLID
 70
    1
 71
    0
 91
    1
 92
    0
 93
    1
 72
    2
 10
101.7320508075689
 20
8.071067811865476
 40
1
 50
0
 51
360
 73
    1
 97
    0
 75
    0
 76
    1
 98
    0
  0
HATCH
  5
9F
100
AcDbEntity
  8
0
  6
ByLayer
 62
   96
420
32768
370
   -1
100
AcDbHatch
 10
0
 20
0
 30
0
210
0
220
0
230
1
  2
SOLID
 70
    1
 71
    0
 91
    1
 92
    0
 93
    1
 72
    2
 10
101.7320508075689
 20
2.071067811865478
 40
1
 50
0
 51
360
 73
    1
 97
    0
 75
    0
 76
    1
 98
    0
  0
HATCH
  5
A0
100
AcDbEntity
  8
0
  6
ByLayer
 62
    5
370
   -1
100
AcDbHatch
 10
0
 20
0
 30
0
210
0
220
0
230
1
  2
SOLID
 70
    1
 71
    0
 91
    1
 92
    0
 93
    1
 72
    2
 10
101.7320508075689
 20
0.07106781186547906
 40
1
 50
0
 51
360
 73
    1
 97
    0
 75
    0
 76
    1
 98
    0
  0
HATCH
  5
A1
100
AcDbEntity
  8
0
  6
ByLayer
 62
    1
370
   -1
100
AcDbHatch
 10
0
 20
0
 30
0
210
0
220
0
230
1
  2
SOLID
 70
    1
 71
    0
 91
    1
 92
    0
 93
    1
 72
    2
 10
101.7320508075689
 20
-1.92893218813452
 40
1
 50
0
 51
360
 73
    1
 97
    0
 75
    0
 76
    1
 98
    0
  0
HATCH
  5
A2
100
AcDbEntity
  8
0
  6
ByLayer
 62
   96
420
32768
370
   -1
100
AcDbHatch
 10
0
 20
0
 30
0
210
0
220
0
230
1
  2
SOLID
 70
    1
 71
    0
 91
    1
 92
    0
 93
    1
 72
    2
 10
101.7320508075689
 20
14.07106781186548
 40
1
 50
0
 51
360
 73
    1
 97
    0
 75
    0
 76
    1
 98
    0
  0
HATCH
  5
A3
100
AcDbEntity
  8
0
  6
ByLayer
 62
    5
370
   -1
100
AcDbHatch
 10
0
 20
0
 30
0
210
0
220
0
230
1
  2
SOLID
 70
    1
 71
    0
 91
    1
 92
    0
 93
    1
 72
    2
 10
101.7320508075689
 20
12.07106781186548
 40
1
 50
0
 51
360
 73
    1
 97
    0
 75
    0
 76
    1
 98
    0
  0
HATCH
  5
A4
100
AcDbEntity
  8
0
  6
ByLayer
 62
    1
370
   -1
100
AcDbHatch
 10
0
 20
0
 30
0
210
0
220
0
230
1
  2
SOLID
 70
    1
 71
    0
 91
    1
 92
    0
 93
    1
 72
    2
 10
101.7320508075689
 20
10.07106781186548
 40
1
 50
0
 51
360
 73
    1
 97
    0
 75
    0
 76
    1
 98
    0
  0
HATCH
  5
A5
100
AcDbEntity
  8
0
  6
ByLayer
 62
    1
370
   -1
100
AcDbHatch
 10
0
 20
0
 30
0
210
0
220
0
230
1
  2
SOLID
 70
    1
 71
    0
 91
    1
 92
    0
 93
    1
 72
    2
 10
101.7320508075689
 20
16.07106781186548
 40
1
 50
0
 51
360
 73
    1
 97
    0
 75
    0
 76
    1
 98
    0
  0
HATCH
  5
A6
100
AcDbEntity
  8
0
  6
ByLayer
 62
  256
370
   -1
100
AcDbHatch
 10
0
 20
0
 30
0
210
0
220
0
230
1
  2
SOLID
 70
    1
 71
    0
 91
    1
 92
    0
 93
   13
 72
    2
 10
-3.660254037844396
 20
-40
 40
5
 50
0
 51
360
 73
    1
 72
    2
 10
5
 20
-55
 40
5
 50
0
 51
360
 73
    1
 72
    2
 10
36.3397459621556
 20
-70
 40
5
 50
0
 51
360
 73
    1
 72
    2
 10
36.3397459621556
 20
-60
 40
5
 50
0
 51
360
 73
    1
 72
    2
 10
76.3397459621556
 20
-70.00000000000003
 40
5
 50
0
 51
360
 73
    1
 72
    2
 10
76.3397459621556
 20
-60.00000000000003
 40
5
 50
0
 51
360
 73
    1
 72
    2
 10
85
 20
-65.00000000000003
 40
5
 50
0
 51
360
 73
    1
 72
    2
 10
116.3397459621556
 20
-70.00000000000003
 40
5
 50
0
 51
360
 73
    1
 72
    2
 10
133.6602540378444
 20
-50.00000000000003
 40
5
 50
0
 51
360
 73
    1
 72
    2
 10
142.3205080756888
 20
-55.00000000000004
 40
5
 50
0
 51
360
 73
    1
 72
    2
 10
156.3397459621556
 20
-70.00000000000003
 40
5
 50
0
 51
360
 73
    1
 72
    2
 10
173.6602540378444
 20
-70.00000000000004
 40
5
 50
0
 51
360
 73
    1
 72
    2
 10
182.3205080756888
 20
-45.00000000000004
 40
5
 50
0
 51
360
 73
    1
 97
    0
 75
    0
 76
    1
 98
    0
  0
HATCH
  5
A7
100
AcDbEntity
  8
0
  6
ByLayer
 62
    1
370
   -1
100
AcDbHatch
 10
0
 20
0
 30
0
210
0
220
0
230
1
  2
SOLID
 70
    1
 71
    0
 91
    1
 92
    0
 93
    1
 72
    2
 10
98.26794919243112
 20
16.07106781186548
 40
1
 50
0
 51
360
 73
    1
 97
    0
 75
    0
 76
    1
 98
    0
  0
HATCH
  5
A8
100
AcDbEntity
  8
0
  6
ByLayer
 62
    1
370
   -1
100
AcDbHatch
 10
0
 20
0
 30
0
210
0
220
0
230
1
  2
SOLID
 70
    1
 71
    0
 91
    1
 92
    0
 93
    1
 72
    2
 10
98.26794919243112
 20
10.07106781186548
 40
1
 50
0
 51
360
 73
    1
 97
    0
 75
    0
 76
    1
 98
    0
  0
HATCH
  5
A9
100
AcDbEntity
  8
0
  6
ByLayer
 62
    5
370
   -1
100
AcDbHatch
 10
0
 20
0
 30
0
210
0
220
0
230
1
  2
SOLID
 70
    1
 71
    0
 91
    1
 92
    0
 93
    1
 72
    2
 10
98.26794919243112
 20
12.07106781186548
 40
1
 50
0
 51
360
 73
    1
 97
    0
 75
    0
 76
    1
 98
    0
  0
HATCH
  5
AA
100
AcDbEntity
  8
0
  6
ByLayer
 62
   96
420
32768
370
   -1
100
AcDbHatch
 10
0
 20
0
 30
0
210
0
220
0
230
1
  2
SOLID
 70
    1
 71
    0
 91
    1
 92
    0
 93
    1
 72
    2
 10
98.26794919243112
 20
14.07106781186547
 40
1
 50
0
 51
360
 73
    1
 97
    0
 75
    0
 76
    1
 98
    0
  0
HATCH
  5
AB
100
AcDbEntity
  8
0
  6
ByLayer
 62
    1
370
   -1
100
AcDbHatch
 10
0
 20
0
 30
0
210
0
220
0
230
1
  2
SOLID
 70
    1
 71
    0
 91
    1
 92
    0
 93
    1
 72
    2
 10
98.26794919243112
 20
-1.928932188134521
 40
1
 50
0
 51
360
 73
    1
 97
    0
 75
    0
 76
    1
 98
    0
  0
HATCH
  5
AC
100
AcDbEntity
  8
0
  6
ByLayer
 62
    5
370
   -1
100
AcDbHatch
 10
0
 20
0
 30
0
210
0
220
0
230
1
  2
SOLID
 70
    1
 71
    0
 91
    1
 92
    0
 93
    1
 72
    2
 10
98.26794919243112
 20
0.07106781186547817
 40
1
 50
0
 51
360
 73
    1
 97
    0
 75
    0
 76
    1
 98
    0
  0
HATCH
  5
AD
100
AcDbEntity
  8
0
  6
ByLayer
 62
   96
420
32768
370
   -1
100
AcDbHatch
 10
0
 20
0
 30
0
210
0
220
0
230
1
  2
SOLID
 70
    1
 71
    0
 91
    1
 92
    0
 93
    1
 72
    2
 10
98.26794919243112
 20
2.071067811865477
 40
1
 50
0
 51
360
 73
    1
 97
    0
 75
    0
 76
    1
 98
    0
  0
HATCH
  5
AE
100
AcDbEntity
  8
0
  6
ByLayer
 62
   96
420
32768
370
   -1
100
AcDbHatch
 10
0
 20
0
 30
0
210
0
220
0
230
1
  2
SOLID
 70
    1
 71
    0
 91
    1
 92
    0
 93
    1
 72
    2
 10
98.26794919243112
 20
8.071067811865476
 40
1
 50
0
 51
360
 73
    1
 97
    0
 75
    0
 76
    1
 98
    0
  0
HATCH
  5
AF
100
AcDbEntity
  8
0
  6
ByLayer
 62
    5
370
   -1
100
AcDbHatch
 10
0
 20
0
 30
0
210
0
220
0
230
1
  2
SOLID
 70
    1
 71
    0
 91
    1
 92
    0
 93
    1
 72
    2
 10
98.26794919243112
 20
6.071067811865476
 40
1
 50
0
 51
360
 73
    1
 97
    0
 75
    0
 76
    1
 98
    0
  0
HATCH
  5
B0
100
AcDbEntity
  8
0
  6
ByLayer
 62
    1
370
   -1
100
AcDbHatch
 10
0
 20
0
 30
0
210
0
220
0
230
1
  2
SOLID
 70
    1
 71
    0
 91
    1
 92
    0
 93
    1
 72
    2
 10
98.26794919243112
 20
4.071067811865477
 40
1
 50
0
 51
360
 73
    1
 97
    0
 75
    0
 76
    1
 98
    0
  0
HATCH
  5
B1
100
AcDbEntity
  8
0
  6
ByLayer
 62
   96
420
32768
370
   -1
100
AcDbHatch
 10
0
 20
0
 30
0
210
0
220
0
230
1
  2
SOLID
 70
    1
 71
    0
 91
    1
 92
    0
 93
    1
 72
    2
 10
100
 20
17.07106781186547
 40
1
 50
0
 51
360
 73
    1
 97
    0
 75
    0
 76
    1
 98
    0
  0
HATCH
  5
B2
100
AcDbEntity
  8
0
  6
ByLayer
 62
    5
370
   -1
100
AcDbHatch
 10
0
 20
0
 30
0
210
0
220
0
230
1
  2
SOLID
 70
    1
 71
    0
 91
    1
 92
    0
 93
    1
 72
    2
 10
100
 20
15.07106781186547
 40
1
 50
0
 51
360
 73
    1
 97
    0
 75
    0
 76
    1
 98
    0
  0
HATCH
  5
B3
100
AcDbEntity
  8
0
  6
ByLayer
 62
   96
420
32768
370
   -1
100
AcDbHatch
 10
0
 20
0
 30
0
210
0
220
0
230
1
  2
SOLID
 70
    1
 71
    0
 91
    1
 92
    0
 93
    1
 72
    2
 10
100
 20
11.07106781186547
 40
1
 50
0
 51
360
 73
    1
 97
    0
 75
    0
 76
    1
 98
    0
  0
HATCH
  5
B4
100
AcDbEntity
  8
0
  6
ByLayer
 62
    5
370
   -1
100
AcDbHatch
 10
0
 20
0
 30
0
210
0
220
0
230
1
  2
SOLID
 70
    1
 71
    0
 91
    1
 92
    0
 93
    1
 72
    2
 10
100
 20
9.071067811865476
 40
1
 50
0
 51
360
 73
    1
 97
    0
 75
    0
 76
    1
 98
    0
  0
HATCH
  5
B5
100
AcDbEntity
  8
0
  6
ByLayer
 62
    1
370
   -1
100
AcDbHatch
 10
0
 20
0
 30
0
210
0
220
0
230
1
  2
SOLID
 70
    1
 71
    0
 91
    1
 92
    0
 93
    1
 72
    2
 10
100
 20
13.07106781186547
 40
1
 50
0
 51
360
 73
    1
 97
    0
 75
    0
 76
    1
 98
    0
  0
HATCH
  5
B6
100
AcDbEntity
  8
0
  6
ByLayer
 62
   96
420
32768
370
   -1
100
AcDbHatch
 10
0
 20
0
 30
0
210
0
220
0
230
1
  2
SOLID
 70
    1
 71
    0
 91
    1
 92
    0
 93
    1
 72
    2
 10
100
 20
-0.9289321881345201
 40
1
 50
0
 51
360
 73
    1
 97
    0
 75
    0
 76
    1
 98
    0
  0
HATCH
  5
B7
100
AcDbEntity
  8
0
  6
ByLayer
 62
    5
370
   -1
100
AcDbHatch
 10
0
 20
0
 30
0
210
0
220
0
230
1
  2
SOLID
 70
    1
 71
    0
 91
    1
 92
    0
 93
    1
 72
    2
 10
100
 20
-2.928932188134519
 40
1
 50
0
 51
360
 73
    1
 97
    0
 75
    0
 76
    1
 98
    0
  0
HATCH
  5
B8
100
AcDbEntity
  8
0
  6
ByLayer
 62
    1
370
   -1
100
AcDbHatch
 10
0
 20
0
 30
0
210
0
220
0
230
1
  2
SOLID
 70
    1
 71
    0
 91
    1
 92
    0
 93
    1
 72
    2
 10
100
 20
1.071067811865479
 40
1
 50
0
 51
360
 73
    1
 97
    0
 75
    0
 76
    1
 98
    0
  0
HATCH
  5
B9
100
AcDbEntity
  8
0
  6
ByLayer
 62
    1
370
   -1
100
AcDbHatch
 10
0
 20
0
 30
0
210
0
220
0
230
1
  2
SOLID
 70
    1
 71
    0
 91
    1
 92
    0
 93
    1
 72
    2
 10
100
 20
7.071067811865476
 40
1
 50
0
 51
360
 73
    1
 97
    0
 75
    0
 76
    1
 98
    0
  0
HATCH
  5
BA
100
AcDbEntity
  8
0
  6
ByLayer
 62
    5
370
   -1
100
AcDbHatch
 10
0
 20
0
 30
0
210
0
220
0
230
1
  2
SOLID
 70
    1
 71
    0
 91
    1
 92
    0
 93
    1
 72
    2
 10
100
 20
3.071067811865478
 40
1
 50
0
 51
360
 73
    1
 97
    0
 75
    0
 76
    1
 98
    0
  0
HATCH
  5
BB
100
AcDbEntity
  8
0
  6
ByLayer
 62
   96
420
32768
370
   -1
100
AcDbHatch
 10
0
 20
0
 30
0
210
0
220
0
230
1
  2
SOLID
 70
    1
 71
    0
 91
    1
 92
    0
 93
    1
 72
    2
 10
100
 20
5.071067811865477
 40
1
 50
0
 51
360
 73
    1
 97
    0
 75
    0
 76
    1
 98
    0
  0
HATCH
  5
BC
100
AcDbEntity
  8
0
  6
ByLayer
 62
    4
370
   -1
100
AcDbHatch
 10
0
 20
0
 30
0
210
0
220
0
230
1
  2
SOLID
 70
    1
 71
    0
 91
    1
 92
    0
 93
    2
 72
    2
 10
42.92893218813452
 20
7.071067811865477
 40
5
 50
0
 51
180
 73
    1
 72
    1
 10
37.92893218813452
 20
7.07106781186548
 11
47.92893218813452
 21
7.071067811865477
 97
    0
 75
    0
 76
    1
 98
    0
  0
HATCH
  5
BD
100
AcDbEntity
  8
0
  6
ByLayer
 62
    6
370
   -1
100
AcDbHatch
 10
0
 20
0
 30
0
210
0
220
0
230
1
  2
SOLID
 70
    1
 71
    0
 91
    1
 92
    0
 93
    2
 72
    2
 10
50
 20
14.14213562373095
 40
5
 50
270
 51
90
 73
    1
 72
    1
 10
50
 20
19.14213562373095
 11
50
 21
9.142135623730951
 97
    0
 75
    0
 76
    1
 98
    0
  0
HATCH
  5
BE
100
AcDbEntity
  8
0
  6
ByLayer
 62
    2
370
   -1
100
AcDbHatch
 10
0
 20
0
 30
0
210
0
220
0
230
1
  2
SOLID
 70
    1
 71
    0
 91
    1
 92
    0
 93
    2
 72
    2
 10
57.07106781186548
 20
7.071067811865475
 40
5
 50
180
 51
0
 73
    1
 72
    1
 10
62.07106781186548
 20
7.071067811865475
 11
52.07106781186548
 21
7.071067811865477
 97
    0
 75
    0
 76
    1
 98
    0
  0
HATCH
  5
BF
100
AcDbEntity
  8
0
  6
ByLayer
 62
  256
370
   -1
100
AcDbHatch
 10
0
 20
0
 30
0
210
0
220
0
230
1
  2
SOLID
 70
    1
 71
    0
 91
    1
 92
    0
 93
    2
 72
    2
 10
50
 20
4.440892098500626e-016
 40
5
 50
90
 51
270
 73
    1
 72
    1
 10
50
 20
-5
 11
50
 21
5
 97
    0
 75
    0
 76
    1
 98
    0
  0
HATCH
  5
C0
100
AcDbEntity
  8
0
  6
ByLayer
 62
    1
370
   -1
100
AcDbHatch
 10
0
 20
0
 30
0
210
0
220
0
230
1
  2
SOLID
 70
    1
 71
    0
 91
    1
 92
    0
 93
    2
 72
    2
 10
42.92893218813452
 20
7.071067811865476
 40
5
 50
360
 51
180
 73
    0
 72
    1
 10
37.92893218813452
 20
7.071067811865477
 11
47.92893218813452
 21
7.071067811865477
 97
    0
 75
    0
 76
    1
 98
    0
  0
HATCH
  5
C1
100
AcDbEntity
  8
0
  6
ByLayer
 62
   96
420
32768
370
   -1
100
AcDbHatch
 10
0
 20
0
 30
0
210
0
220
0
230
1
  2
SOLID
 70
    1
 71
    0
 91
    1
 92
    0
 93
    2
 72
    2
 10
50
 20
14.14213562373095
 40
5
 50
90
 51
270
 73
    0
 72
    1
 10
50
 20
19.14213562373095
 11
50
 21
9.142135623730951
 97
    0
 75
    0
 76
    1
 98
    0
  0
HATCH
  5
C2
100
AcDbEntity
  8
0
  6
ByLayer
 62
    5
370
   -1
100
AcDbHatch
 10
0
 20
0
 30
0
210
0
220
0
230
1
  2
SOLID
 70
    1
 71
    0
 91
    1
 92
    0
 93
    2
 72
    2
 10
57.07106781186548
 20
7.071067811865476
 40
5
 50
180
 51
360
 73
    0
 72
    1
 10
62.07106781186548
 20
7.071067811865477
 11
52.07106781186548
 21
7.071067811865477
 97
    0
 75
    0
 76
    1
 98
    0
  0
HATCH
  5
C3
100
AcDbEntity
  8
0
  6
ByLayer
 62
    5
370
   -1
100
AcDbHatch
 10
0
 20
0
 30
0
210
0
220
0
230
1
  2
SOLID
 70
    1
 71
    0
 91
    1
 92
    0
 93
    2
 72
    2
 10
7.071067811865475
 20
7.071067811865476
 40
5
 50
180
 51
360
 73
    0
 72
    1
 10
12.07106781186548
 20
7.071067811865477
 11
2.071067811865475
 21
7.071067811865477
 97
    0
 75
    0
 76
    1
 98
    0
  0
HATCH
  5
C4
100
AcDbEntity
  8
0
  6
ByLayer
 62
   96
420
32768
370
   -1
100
AcDbHatch
 10
0
 20
0
 30
0
210
0
220
0
230
1
  2
SOLID
 70
    1
 71
    0
 91
    1
 92
    0
 93
    2
 72
    2
 10
1.421506148362232e-016
 20
14.14213562373095
 40
5
 50
90
 51
270
 73
    0
 72
    1
 10
8.88178419700125e-016
 20
19.14213562373095
 11
8.425986883509939e-018
 21
9.142135623730951
 97
    0
 75
    0
 76
    1
 98
    0
  0
HATCH
  5
C5
100
AcDbEntity
  8
0
  6
ByLayer
 62
    1
370
   -1
100
AcDbHatch
 10
0
 20
0
 30
0
210
0
220
0
230
1
  2
SOLID
 70
    1
 71
    0
 91
    1
 92
    0
 93
    2
 72
    2
 10
-7.071067811865476
 20
7.071067811865476
 40
5
 50
360
 51
180
 73
    0
 72
    1
 10
-12.07106781186548
 20
7.071067811865477
 11
-2.071067811865476
 21
7.071067811865477
 97
    0
 75
    0
 76
    1
 98
    0
  0
HATCH
  5
C6
100
AcDbEntity
  8
0
  6
ByLayer
 62
  256
370
   -1
100
AcDbHatch
 10
0
 20
0
 30
0
210
0
220
0
230
1
  2
SOLID
 70
    1
 71
    0
 91
    1
 92
    0
 93
    2
 72
    2
 10
-7.335525763345146e-016
 20
4.440892098500626e-016
 40
5
 50
90
 51
270
 73
    1
 72
    1
 10
-1.652007341701298e-015
 20
-5
 11
-4.274009878789203e-016
 21
5
 97
    0
 75
    0
 76
    1
 98
    0
  0
HATCH
  5
C7
100
AcDbEntity
  8
0
  6
ByLayer
 62
    2
370
   -1
100
AcDbHatch
 10
0
 20
0
 30
0
210
0
220
0
230
1
  2
SOLID
 70
    1
 71
    0
 91
    1
 92
    0
 93
    2
 72
    2
 10
7.071067811865476
 20
7.071067811865475
 40
5
 50
180
 51
0
 73
    1
 72
    1
 10
12.07106781186548
 20
7.071067811865475
 11
2.071067811865476
 21
7.071067811865477
 97
    0
 75
    0
 76
    1
 98
    0
  0
HATCH
  5
C8
100
AcDbEntity
  8
0
  6
ByLayer
 62
    6
370
   -1
100
AcDbHatch
 10
0
 20
0
 30
0
210
0
220
0
230
1
  2
SOLID
 70
    1
 71
    0
 91
    1
 92
    0
 93
    2
 72
    2
 10
5.820268312445309e-016
 20
14.14213562373095
 40
5
 50
270
 51
90
 73
    1
 72
    1
 10
8.881784197001252e-016
 20
19.14213562373095
 11
-3.36427934122252e-016
 21
9.142135623730951
 97
    0
 75
    0
 76
    1
 98
    0
  0
HATCH
  5
C9
100
AcDbEntity
  8
0
  6
ByLayer
 62
    4
370
   -1
100
AcDbHatch
 10
0
 20
0
 30
0
210
0
220
0
230
1
  2
SOLID
 70
    1
 71
    0
 91
    1
 92
    0
 93
    2
 72
    2
 10
-7.071067811865476
 20
7.071067811865477
 40
5
 50
0
 51
180
 73
    1
 72
    1
 10
-12.07106781186548
 20
7.07106781186548
 11
-2.071067811865476
 21
7.071067811865477
 97
    0
 75
    0
 76
    1
 98
    0
  0
CIRCLE
  5
CA
100
AcDbEntity
  8
0
  6
ByLayer
 62
  256
370
   -1
100
AcDbCircle
 10
0
 20
0
 40
5
  0
CIRCLE
  5
CB
100
AcDbEntity
  8
0
  6
ByLayer
 62
  256
370
   -1
100
AcDbCircle
 10
7.071067811865476
 20
7.071067811865475
 40
5
  0
CIRCLE
  5
CC
100
AcDbEntity
  8
0
  6
ByLayer
 62
  256
370
   -1
100
AcDbCircle
 10
8.881784197001252e-016
 20
14.14213562373095
 40
5
  0
CIRCLE
  5
CD
100
AcDbEntity
  8
0
  6
ByLayer
 62
  256
370
   -1
100
AcDbCircle
 10
-7.071067811865476
 20
7.071067811865476
 40
5
  0
CIRCLE
  5
CE
100
AcDbEntity
  8
0
  6
ByLayer
 62
  256
370
   -1
100
AcDbCircle
 10
4.440892098500627e-016
 20
7.071067811865476
 40
12.07106781186548
  0
LINE
  5
CF
100
AcDbEntity
  8
0
  6
ByLayer
 62
  256
370
   -1
100
AcDbLine
 10
-12.07106781186548
 20
7.071067811865478
 11
-2.071067811865476
 21
7.071067811865476
  0
MTEXT
  5
D0
100
AcDbEntity
  8
0
  6
ByLayer
 62
  256
370
   -1
100
AcDbMText
 10
0.1884143424677782
 20
-6.971330671307792
 30
0
 40
1
 41
7.777777777777871
 71
    5
 72
    1
  1
Black/White\PLens
  7
standard
210
0
220
0
230
1
 50
0
 73
    2
 44
1
  0
MTEXT
  5
D1
100
AcDbEntity
  8
0
  6
ByLayer
 62
  256
370
   -1
100
AcDbMText
 10
-16.83352289158262
 20
7.90665469150093
 30
0
 40
1
 41
8.166666666666821
 71
    5
 72
    1
  1
Cyan or Red\PLens
  7
standard
210
0
220
0
230
1
 50
0
 73
    2
 44
1
  0
MTEXT
  5
D2
100
AcDbEntity
  8
0
  6
ByLayer
 62
  256
370
   -1
100
AcDbMText
 10
17.38006584260804
 20
8.052399478441041
 30
0
 40
1
 41
9.944444444444445
 71
    5
 72
    1
  1
Yellow or Blue\PLens
  7
standard
210
0
220
0
230
1
 50
0
 73
    2
 44
1
  0
MTEXT
  5
D3
100
AcDbEntity
  8
0
  6
ByLayer
 62
  256
370
   -1
100
AcDbMText
 10
0.04710358561694456
 20
21.52633862694367
 30
0
 40
1
 41
12.05555555555579
 71
    5
 72
    1
  1
Magenta or Green\PLens
  7
standard
210
0
220
0
230
1
 50
0
 73
    2
 44
1
  0
MTEXT
  5
D4
100
AcDbEntity
  8
0
  6
ByLayer
 62
  256
370
   -1
100
AcDbMText
 10
1.074082244091275
 20
-11.09884985560984
 30
0
 40
2
 41
32.33333641905671
 71
    5
 72
    1
  1
Multiple Lenses Version
  7
standard
210
0
220
0
230
1
 50
0
 73
    2
 44
1
  0
CIRCLE
  5
D5
100
AcDbEntity
  8
0
  6
ByLayer
 62
  256
370
   -1
100
AcDbCircle
 10
50
 20
0
 40
5
  0
CIRCLE
  5
D6
100
AcDbEntity
  8
0
  6
ByLayer
 62
  256
370
   -1
100
AcDbCircle
 10
57.07106781186548
 20
7.071067811865475
 40
5
  0
CIRCLE
  5
D7
100
AcDbEntity
  8
0
  6
ByLayer
 62
  256
370
   -1
100
AcDbCircle
 10
50
 20
14.14213562373095
 40
5
  0
CIRCLE
  5
D8
100
AcDbEntity
  8
0
  6
ByLayer
 62
  256
370
   -1
100
AcDbCircle
 10
42.92893218813452
 20
7.071067811865476
 40
5
  0
CIRCLE
  5
D9
100
AcDbEntity
  8
0
  6
ByLayer
 62
  256
370
   -1
100
AcDbCircle
 10
50
 20
7.071067811865476
 40
12.07106781186548
  0
LINE
  5
DA
100
AcDbEntity
  8
0
  6
ByLayer
 62
  256
370
   -1
100
AcDbLine
 10
37.92893218813452
 20
7.071067811865478
 11
47.92893218813452
 21
7.071067811865476
  0
MTEXT
  5
DB
100
AcDbEntity
  8
0
  6
ByLayer
 62
  256
370
   -1
100
AcDbMText
 10
51.07408224409127
 20
-11.09884985560984
 30
0
 40
2
 41
32.33333496647829
 71
    5
 72
    1
  1
Spinning Filters Version
  7
standard
210
0
220
0
230
1
 50
0
 73
    2
 44
1
  0
MTEXT
  5
DC
100
AcDbEntity
  8
0
  6
ByLayer
 62
  256
370
   -1
100
AcDbMText
 10
33.16647710841738
 20
7.90665469150093
 30
0
 40
1
 41
8.166666666666821
 71
    5
 72
    1
  1
Cyan or Red\PFilter
  7
standard
210
0
220
0
230
1
 50
0
 73
    2
 44
1
  0
MTEXT
  5
DD
100
AcDbEntity
  8
0
  6
ByLayer
 62
  256
370
   -1
100
AcDbMText
 10
67.38006584260803
 20
8.052399478441041
 30
0
 40
1
 41
9.944444444444445
 71
    5
 72
    1
  1
Yellow or Blue\PFilter
  7
standard
210
0
220
0
230
1
 50
0
 73
    2
 44
1
  0
MTEXT
  5
DE
100
AcDbEntity
  8
0
  6
ByLayer
 62
  256
370
   -1
100
AcDbMText
 10
50.04710358561695
 20
21.52633862694367
 30
0
 40
1
 41
12.05555555555579
 71
    5
 72
    1
  1
Magenta or Green\PFilter
  7
standard
210
0
220
0
230
1
 50
0
 73
    2
 44
1
  0
MTEXT
  5
DF
100
AcDbEntity
  8
0
  6
ByLayer
 62
  256
370
   -1
100
AcDbMText
 10
50.18841434246778
 20
-6.971330671307792
 30
0
 40
1
 41
14.94444444444454
 71
    5
 72
    1
  1
No filter (Black/White\PLens)
  7
standard
210
0
220
0
230
1
 50
0
 73
    2
 44
1
  0
CIRCLE
  5
E0
100
AcDbEntity
  8
0
  6
ByLayer
 62
  256
370
   -1
100
AcDbCircle
 10
50
 20
7.071067811865476
 40
1
  0
LINE
  5
E1
100
AcDbEntity
  8
0
  6
ByLayer
 62
  256
370
   -1
100
AcDbLine
 10
50
 20
7.071067811865476
 11
60.60660171779821
 21
-3.535533905932739
  0
MTEXT
  5
E2
100
AcDbEntity
  8
0
  6
ByLayer
 62
  256
370
   -1
100
AcDbMText
 10
65.85081269248889
 20
-3.155940236335304
 30
0
 40
1
 41
8.527778080063058
 71
    5
 72
    1
  1
Spinning axis
  7
standard
210
0
220
0
230
1
 50
0
 73
    2
 44
1
  0
CIRCLE
  5
E3
100
AcDbEntity
  8
0
  6
ByLayer
 62
  256
370
   -1
100
AcDbCircle
 10
100
 20
7.071067811865476
 40
12.07106781186548
  0
CIRCLE
  5
E4
100
AcDbEntity
  8
0
  6
ByLayer
 62
  256
370
   -1
100
AcDbCircle
 10
100
 20
7.071067811865476
 40
1
  0
CIRCLE
  5
E5
100
AcDbEntity
  8
0
  6
ByLayer
 62
  256
370
   -1
100
AcDbCircle
 10
100
 20
5.071067811865477
 40
1
  0
CIRCLE
  5
E6
100
AcDbEntity
  8
0
  6
ByLayer
 62
  256
370
   -1
100
AcDbCircle
 10
100
 20
3.071067811865478
 40
1
  0
CIRCLE
  5
E7
100
AcDbEntity
  8
0
  6
ByLayer
 62
  256
370
   -1
100
AcDbCircle
 10
100
 20
1.071067811865479
 40
1
  0
CIRCLE
  5
E8
100
AcDbEntity
  8
0
  6
ByLayer
 62
  256
370
   -1
100
AcDbCircle
 10
100
 20
-0.9289321881345201
 40
1
  0
CIRCLE
  5
E9
100
AcDbEntity
  8
0
  6
ByLayer
 62
  256
370
   -1
100
AcDbCircle
 10
100
 20
-2.928932188134519
 40
1
  0
CIRCLE
  5
EA
100
AcDbEntity
  8
0
  6
ByLayer
 62
  256
370
   -1
100
AcDbCircle
 10
100
 20
13.07106781186547
 40
1
  0
CIRCLE
  5
EB
100
AcDbEntity
  8
0
  6
ByLayer
 62
  256
370
   -1
100
AcDbCircle
 10
100
 20
11.07106781186547
 40
1
  0
CIRCLE
  5
EC
100
AcDbEntity
  8
0
  6
ByLayer
 62
  256
370
   -1
100
AcDbCircle
 10
100
 20
9.071067811865476
 40
1
  0
CIRCLE
  5
ED
100
AcDbEntity
  8
0
  6
ByLayer
 62
  256
370
   -1
100
AcDbCircle
 10
100
 20
17.07106781186547
 40
1
  0
CIRCLE
  5
EE
100
AcDbEntity
  8
0
  6
ByLayer
 62
  256
370
   -1
100
AcDbCircle
 10
100
 20
15.07106781186547
 40
1
  0
CIRCLE
  5
EF
100
AcDbEntity
  8
0
  6
ByLayer
 62
  256
370
   -1
100
AcDbCircle
 10
98.26794919243112
 20
8.071067811865476
 40
1
  0
CIRCLE
  5
F0
100
AcDbEntity
  8
0
  6
ByLayer
 62
  256
370
   -1
100
AcDbCircle
 10
98.26794919243112
 20
6.071067811865476
 40
1
  0
CIRCLE
  5
F1
100
AcDbEntity
  8
0
  6
ByLayer
 62
  256
370
   -1
100
AcDbCircle
 10
98.26794919243112
 20
4.071067811865477
 40
1
  0
CIRCLE
  5
F2
100
AcDbEntity
  8
0
  6
ByLayer
 62
  256
370
   -1
100
AcDbCircle
 10
98.26794919243112
 20
2.071067811865477
 40
1
  0
CIRCLE
  5
F3
100
AcDbEntity
  8
0
  6
ByLayer
 62
  256
370
   -1
100
AcDbCircle
 10
98.26794919243112
 20
0.07106781186547817
 40
1
  0
CIRCLE
  5
F4
100
AcDbEntity
  8
0
  6
ByLayer
 62
  256
370
   -1
100
AcDbCircle
 10
98.26794919243112
 20
-1.928932188134521
 40
1
  0
CIRCLE
  5
F5
100
AcDbEntity
  8
0
  6
ByLayer
 62
  256
370
   -1
100
AcDbCircle
 10
98.26794919243112
 20
14.07106781186547
 40
1
  0
CIRCLE
  5
F6
100
AcDbEntity
  8
0
  6
ByLayer
 62
  256
370
   -1
100
AcDbCircle
 10
98.26794919243112
 20
12.07106781186548
 40
1
  0
CIRCLE
  5
F7
100
AcDbEntity
  8
0
  6
ByLayer
 62
  256
370
   -1
100
AcDbCircle
 10
98.26794919243112
 20
10.07106781186548
 40
1
  0
CIRCLE
  5
F8
100
AcDbEntity
  8
0
  6
ByLayer
 62
  256
370
   -1
100
AcDbCircle
 10
98.26794919243112
 20
16.07106781186548
 40
1
  0
LINE
  5
F9
100
AcDbEntity
  8
0
  6
ByLayer
 62
  256
370
   -1
100
AcDbLine
 10
129.9038105676658
 20
25
 11
129.9038105676658
 21
-5
  0
LINE
  5
FA
100
AcDbEntity
  8
0
  6
ByLayer
 62
  256
370
   -1
100
AcDbLine
 10
129.9038105676658
 20
-5
 11
199.9038105676658
 21
-5
  0
LINE
  5
FB
100
AcDbEntity
  8
0
  6
ByLayer
 62
  256
370
   -1
100
AcDbLine
 10
129.9038105676658
 20
25
 11
199.9038105676658
 21
25
  0
LINE
  5
FC
100
AcDbEntity
  8
0
  6
ByLayer
 62
  256
370
   -1
100
AcDbLine
 10
199.9038105676658
 20
-5
 11
199.9038105676658
 21
25
  0
CIRCLE
  5
FD
100
AcDbEntity
  8
0
  6
ByLayer
 62
  256
370
   -1
100
AcDbCircle
 10
164.9038105676658
 20
9.999999999999998
 40
5
  0
CIRCLE
  5
FE
100
AcDbEntity
  8
0
  6
ByLayer
 62
  256
370
   -1
100
AcDbCircle
 10
164.9038105676658
 20
9.999999999999998
 40
7
  0
MTEXT
  5
FF
100
AcDbEntity
  8
0
  6
ByLayer
 62
  256
370
   -1
100
AcDbMText
 10
164.5853414744132
 20
-9.167503789697516
 30
0
 40
2
 41
8.888888888889291
 71
    5
 72
    1
  1
Camera
  7
STANDARD
210
0
220
0
230
1
 50
0
 73
    2
 44
1
  0
LINE
  5
100
100
AcDbEntity
  8
0
  6
ByLayer
 62
  256
370
   -1
100
AcDbLine
 10
195.9038105676658
 20
25
 11
195.9038105676658
 21
27
  0
LINE
  5
101
100
AcDbEntity
  8
0
  6
ByLayer
 62
  256
370
   -1
100
AcDbLine
 10
191.9038105676658
 20
25
 11
191.9038105676658
 21
27
  0
LINE
  5
102
100
AcDbEntity
  8
0
  6
ByLayer
 62
  256
370
   -1
100
AcDbLine
 10
195.9038105676658
 20
27
 11
191.9038105676658
 21
27
  0
MTEXT
  5
103
100
AcDbEntity
  8
0
  6
ByLayer
 62
  256
370
   -1
100
AcDbMText
 10
101.0740822440913
 20
-11.09884985560984
 30
0
 40
2
 41
21.94444710616352
 71
    5
 72
    1
  1
RGB Or CMYK\PSensors Version\P(Hex Pattern)
  7
standard
210
0
220
0
230
1
 50
0
 73
    2
 44
1
  0
LINE
  5
104
100
AcDbEntity
  8
0
  6
ByLayer
 62
  256
370
   -1
100
AcDbLine
 10
-8.660254037844403
 20
-85
 11
-8.660254037844396
 21
-25
  0
LINE
  5
105
100
AcDbEntity
  8
0
  6
ByLayer
 62
  256
370
   -1
100
AcDbLine
 10
-8.660254037844396
 20
-25
 11
191.3397459621556
 21
-25.00000000000005
  0
LINE
  5
106
100
AcDbEntity
  8
0
  6
ByLayer
 62
  256
370
   -1
100
AcDbLine
 10
-8.660254037844425
 20
-85
 11
191.3397459621555
 21
-85.00000000000004
  0
LINE
  5
107
100
AcDbEntity
  8
0
  6
ByLayer
 62
  256
370
   -1
100
AcDbLine
 10
-8.660254037844417
 20
-75
 11
191.3397459621555
 21
-75.00000000000004
  0
LINE
  5
108
100
AcDbEntity
  8
0
  6
ByLayer
 62
  256
370
   -1
100
AcDbLine
 10
-8.660254037844403
 20
-35
 11
191.3397459621556
 21
-35.00000000000005
  0
LINE
  5
109
100
AcDbEntity
  8
0
  6
ByLayer
 62
  256
370
   -1
100
AcDbLine
 10
191.3397459621556
 20
-85.00000000000004
 11
191.3397459621556
 21
-25.00000000000001
  0
LINE
  5
10A
100
AcDbEntity
  8
0
  6
ByLayer
 62
  256
370
   -1
100
AcDbLine
 10
1.339745962155604
 20
-85
 11
1.339745962155604
 21
-75
  0
LINE
  5
10B
100
AcDbEntity
  8
0
  6
ByLayer
 62
  256
370
   -1
100
AcDbLine
 10
11.3397459621556
 20
-85
 11
11.3397459621556
 21
-75
  0
LINE
  5
10C
100
AcDbEntity
  8
0
  6
ByLayer
 62
  256
370
   -1
100
AcDbLine
 10
21.3397459621556
 20
-85.00000000000001
 11
21.3397459621556
 21
-75.00000000000001
  0
LINE
  5
10D
100
AcDbEntity
  8
0
  6
ByLayer
 62
  256
370
   -1
100
AcDbLine
 10
31.3397459621556
 20
-85.00000000000001
 11
31.3397459621556
 21
-75.00000000000001
  0
LINE
  5
10E
100
AcDbEntity
  8
0
  6
ByLayer
 62
  256
370
   -1
100
AcDbLine
 10
41.3397459621556
 20
-85.00000000000001
 11
41.3397459621556
 21
-75.00000000000001
  0
LINE
  5
10F
100
AcDbEntity
  8
0
  6
ByLayer
 62
  256
370
   -1
100
AcDbLine
 10
51.3397459621556
 20
-85.00000000000001
 11
51.3397459621556
 21
-75.00000000000001
  0
LINE
  5
110
100
AcDbEntity
  8
0
  6
ByLayer
 62
  256
370
   -1
100
AcDbLine
 10
61.3397459621556
 20
-85.00000000000001
 11
61.3397459621556
 21
-75.00000000000001
  0
LINE
  5
111
100
AcDbEntity
  8
0
  6
ByLayer
 62
  256
370
   -1
100
AcDbLine
 10
71.3397459621556
 20
-85.00000000000001
 11
71.3397459621556
 21
-75.00000000000001
  0
LINE
  5
112
100
AcDbEntity
  8
0
  6
ByLayer
 62
  256
370
   -1
100
AcDbLine
 10
81.3397459621556
 20
-85.00000000000003
 11
81.3397459621556
 21
-75.00000000000003
  0
LINE
  5
113
100
AcDbEntity
  8
0
  6
ByLayer
 62
  256
370
   -1
100
AcDbLine
 10
91.3397459621556
 20
-85.00000000000003
 11
91.3397459621556
 21
-75.00000000000003
  0
LINE
  5
114
100
AcDbEntity
  8
0
  6
ByLayer
 62
  256
370
   -1
100
AcDbLine
 10
101.3397459621556
 20
-85.00000000000003
 11
101.3397459621556
 21
-75.00000000000003
  0
LINE
  5
115
100
AcDbEntity
  8
0
  6
ByLayer
 62
  256
370
   -1
100
AcDbLine
 10
111.3397459621556
 20
-85.00000000000003
 11
111.3397459621556
 21
-75.00000000000003
  0
LINE
  5
116
100
AcDbEntity
  8
0
  6
ByLayer
 62
  256
370
   -1
100
AcDbLine
 10
181.3397459621556
 20
-85.00000000000004
 11
181.3397459621556
 21
-75.00000000000004
  0
LINE
  5
117
100
AcDbEntity
  8
0
  6
ByLayer
 62
  256
370
   -1
100
AcDbLine
 10
171.3397459621556
 20
-85.00000000000004
 11
171.3397459621556
 21
-75.00000000000004
  0
LINE
  5
118
100
AcDbEntity
  8
0
  6
ByLayer
 62
  256
370
   -1
100
AcDbLine
 10
161.3397459621556
 20
-85.00000000000004
 11
161.3397459621556
 21
-75.00000000000004
  0
LINE
  5
119
100
AcDbEntity
  8
0
  6
ByLayer
 62
  256
370
   -1
100
AcDbLine
 10
151.3397459621556
 20
-85.00000000000004
 11
151.3397459621556
 21
-75.00000000000004
  0
LINE
  5
11A
100
AcDbEntity
  8
0
  6
ByLayer
 62
  256
370
   -1
100
AcDbLine
 10
141.3397459621556
 20
-85.00000000000004
 11
141.3397459621556
 21
-75.00000000000004
  0
LINE
  5
11B
100
AcDbEntity
  8
0
  6
ByLayer
 62
  256
370
   -1
100
AcDbLine
 10
131.3397459621556
 20
-85.00000000000003
 11
131.3397459621556
 21
-75.00000000000003
  0
LINE
  5
11C
100
AcDbEntity
  8
0
  6
ByLayer
 62
  256
370
   -1
100
AcDbLine
 10
1.339745962155604
 20
-35
 11
1.339745962155604
 21
-25
  0
LINE
  5
11D
100
AcDbEntity
  8
0
  6
ByLayer
 62
  256
370
   -1
100
AcDbLine
 10
11.3397459621556
 20
-35
 11
11.3397459621556
 21
-25
  0
LINE
  5
11E
100
AcDbEntity
  8
0
  6
ByLayer
 62
  256
370
   -1
100
AcDbLine
 10
21.3397459621556
 20
-35
 11
21.3397459621556
 21
-25
  0
LINE
  5
11F
100
AcDbEntity
  8
0
  6
ByLayer
 62
  256
370
   -1
100
AcDbLine
 10
31.3397459621556
 20
-35.00000000000001
 11
31.3397459621556
 21
-25
  0
LINE
  5
120
100
AcDbEntity
  8
0
  6
ByLayer
 62
  256
370
   -1
100
AcDbLine
 10
41.3397459621556
 20
-35.00000000000001
 11
41.3397459621556
 21
-25
  0
LINE
  5
121
100
AcDbEntity
  8
0
  6
ByLayer
 62
  256
370
   -1
100
AcDbLine
 10
51.3397459621556
 20
-35.00000000000001
 11
51.3397459621556
 21
-25
  0
LINE
  5
122
100
AcDbEntity
  8
0
  6
ByLayer
 62
  256
370
   -1
100
AcDbLine
 10
61.3397459621556
 20
-35.00000000000002
 11
61.3397459621556
 21
-25
  0
LINE
  5
123
100
AcDbEntity
  8
0
  6
ByLayer
 62
  256
370
   -1
100
AcDbLine
 10
71.3397459621556
 20
-35.00000000000002
 11
71.3397459621556
 21
-25
  0
LINE
  5
124
100
AcDbEntity
  8
0
  6
ByLayer
 62
  256
370
   -1
100
AcDbLine
 10
81.3397459621556
 20
-35.00000000000002
 11
81.3397459621556
 21
-25.00000000000001
  0
LINE
  5
125
100
AcDbEntity
  8
0
  6
ByLayer
 62
  256
370
   -1
100
AcDbLine
 10
91.3397459621556
 20
-35.00000000000002
 11
91.3397459621556
 21
-25.00000000000001
  0
LINE
  5
126
100
AcDbEntity
  8
0
  6
ByLayer
 62
  256
370
   -1
100
AcDbLine
 10
101.3397459621556
 20
-35.00000000000002
 11
101.3397459621556
 21
-25.00000000000001
  0
LINE
  5
127
100
AcDbEntity
  8
0
  6
ByLayer
 62
  256
370
   -1
100
AcDbLine
 10
111.3397459621556
 20
-35.00000000000003
 11
111.3397459621556
 21
-25.00000000000001
  0
LINE
  5
128
100
AcDbEntity
  8
0
  6
ByLayer
 62
  256
370
   -1
100
AcDbLine
 10
121.3397459621556
 20
-35.00000000000003
 11
121.3397459621556
 21
-25.00000000000001
  0
LINE
  5
129
100
AcDbEntity
  8
0
  6
ByLayer
 62
  256
370
   -1
100
AcDbLine
 10
181.3397459621556
 20
-35.00000000000004
 11
181.3397459621556
 21
-25.00000000000001
  0
LINE
  5
12A
100
AcDbEntity
  8
0
  6
ByLayer
 62
  256
370
   -1
100
AcDbLine
 10
171.3397459621556
 20
-35.00000000000004
 11
171.3397459621556
 21
-25.00000000000001
  0
LINE
  5
12B
100
AcDbEntity
  8
0
  6
ByLayer
 62
  256
370
   -1
100
AcDbLine
 10
161.3397459621556
 20
-35.00000000000004
 11
161.3397459621556
 21
-25.00000000000001
  0
LINE
  5
12C
100
AcDbEntity
  8
0
  6
ByLayer
 62
  256
370
   -1
100
AcDbLine
 10
151.3397459621556
 20
-35.00000000000004
 11
151.3397459621556
 21
-25.00000000000001
  0
LINE
  5
12D
100
AcDbEntity
  8
0
  6
ByLayer
 62
  256
370
   -1
100
AcDbLine
 10
141.3397459621556
 20
-35.00000000000004
 11
141.3397459621556
 21
-25.00000000000001
  0
LINE
  5
12E
100
AcDbEntity
  8
0
  6
ByLayer
 62
  256
370
   -1
100
AcDbLine
 10
131.3397459621556
 20
-35.00000000000003
 11
131.3397459621556
 21
-25.00000000000001
  0
LINE
  5
12F
100
AcDbEntity
  8
0
  6
ByLayer
 62
  256
370
   -1
100
AcDbLine
 10
-6.660254037844396
 20
-83
 11
-6.660254037844396
 21
-77
  0
LINE
  5
130
100
AcDbEntity
  8
0
  6
ByLayer
 62
  256
370
   -1
100
AcDbLine
 10
-0.6602540378443962
 20
-83
 11
-0.6602540378443962
 21
-77
  0
LINE
  5
131
100
AcDbEntity
  8
0
  6
ByLayer
 62
  256
370
   -1
100
AcDbLine
 10
-6.660254037844396
 20
-83
 11
-0.6602540378443962
 21
-83
  0
LINE
  5
132
100
AcDbEntity
  8
0
  6
ByLayer
 62
  256
370
   -1
100
AcDbLine
 10
-6.660254037844396
 20
-77
 11
-0.6602540378443962
 21
-77
  0
LINE
  5
133
100
AcDbEntity
  8
0
  6
ByLayer
 62
  256
370
   -1
100
AcDbLine
 10
121.3397459621556
 20
-85.00000000000003
 11
121.3397459621556
 21
-75.00000000000003
  0
LINE
  5
134
100
AcDbEntity
  8
0
  6
ByLayer
 62
  256
370
   -1
100
AcDbLine
 10
3.339745962155604
 20
-83
 11
3.339745962155604
 21
-77
  0
LINE
  5
135
100
AcDbEntity
  8
0
  6
ByLayer
 62
  256
370
   -1
100
AcDbLine
 10
9.339745962155604
 20
-83
 11
9.339745962155604
 21
-77
  0
LINE
  5
136
100
AcDbEntity
  8
0
  6
ByLayer
 62
  256
370
   -1
100
AcDbLine
 10
3.339745962155604
 20
-83
 11
9.339745962155604
 21
-83
  0
LINE
  5
137
100
AcDbEntity
  8
0
  6
ByLayer
 62
  256
370
   -1
100
AcDbLine
 10
3.339745962155604
 20
-77
 11
9.339745962155604
 21
-77
  0
LINE
  5
138
100
AcDbEntity
  8
0
  6
ByLayer
 62
  256
370
   -1
100
AcDbLine
 10
13.3397459621556
 20
-83
 11
13.3397459621556
 21
-77
  0
LINE
  5
139
100
AcDbEntity
  8
0
  6
ByLayer
 62
  256
370
   -1
100
AcDbLine
 10
19.3397459621556
 20
-83
 11
19.3397459621556
 21
-77
  0
LINE
  5
13A
100
AcDbEntity
  8
0
  6
ByLayer
 62
  256
370
   -1
100
AcDbLine
 10
13.3397459621556
 20
-83
 11
19.3397459621556
 21
-83
  0
LINE
  5
13B
100
AcDbEntity
  8
0
  6
ByLayer
 62
  256
370
   -1
100
AcDbLine
 10
13.3397459621556
 20
-77
 11
19.3397459621556
 21
-77
  0
LINE
  5
13C
100
AcDbEntity
  8
0
  6
ByLayer
 62
  256
370
   -1
100
AcDbLine
 10
23.3397459621556
 20
-83.00000000000001
 11
23.3397459621556
 21
-77.00000000000001
  0
LINE
  5
13D
100
AcDbEntity
  8
0
  6
ByLayer
 62
  256
370
   -1
100
AcDbLine
 10
29.3397459621556
 20
-83.00000000000001
 11
29.3397459621556
 21
-77.00000000000001
  0
LINE
  5
13E
100
AcDbEntity
  8
0
  6
ByLayer
 62
  256
370
   -1
100
AcDbLine
 10
23.3397459621556
 20
-83.00000000000001
 11
29.3397459621556
 21
-83.00000000000001
  0
LINE
  5
13F
100
AcDbEntity
  8
0
  6
ByLayer
 62
  256
370
   -1
100
AcDbLine
 10
23.3397459621556
 20
-77.00000000000001
 11
29.3397459621556
 21
-77.00000000000001
  0
LINE
  5
140
100
AcDbEntity
  8
0
  6
ByLayer
 62
  256
370
   -1
100
AcDbLine
 10
33.3397459621556
 20
-83.00000000000001
 11
33.3397459621556
 21
-77.00000000000001
  0
LINE
  5
141
100
AcDbEntity
  8
0
  6
ByLayer
 62
  256
370
   -1
100
AcDbLine
 10
39.3397459621556
 20
-83.00000000000001
 11
39.3397459621556
 21
-77.00000000000001
  0
LINE
  5
142
100
AcDbEntity
  8
0
  6
ByLayer
 62
  256
370
   -1
100
AcDbLine
 10
33.3397459621556
 20
-83.00000000000001
 11
39.3397459621556
 21
-83.00000000000001
  0
LINE
  5
143
100
AcDbEntity
  8
0
  6
ByLayer
 62
  256
370
   -1
100
AcDbLine
 10
33.3397459621556
 20
-77.00000000000001
 11
39.3397459621556
 21
-77.00000000000001
  0
LINE
  5
144
100
AcDbEntity
  8
0
  6
ByLayer
 62
  256
370
   -1
100
AcDbLine
 10
43.3397459621556
 20
-83.00000000000001
 11
43.3397459621556
 21
-77.00000000000001
  0
LINE
  5
145
100
AcDbEntity
  8
0
  6
ByLayer
 62
  256
370
   -1
100
AcDbLine
 10
49.3397459621556
 20
-83.00000000000001
 11
49.3397459621556
 21
-77.00000000000001
  0
LINE
  5
146
100
AcDbEntity
  8
0
  6
ByLayer
 62
  256
370
   -1
100
AcDbLine
 10
43.3397459621556
 20
-83.00000000000001
 11
49.3397459621556
 21
-83.00000000000001
  0
LINE
  5
147
100
AcDbEntity
  8
0
  6
ByLayer
 62
  256
370
   -1
100
AcDbLine
 10
43.3397459621556
 20
-77.00000000000001
 11
49.3397459621556
 21
-77.00000000000001
  0
LINE
  5
148
100
AcDbEntity
  8
0
  6
ByLayer
 62
  256
370
   -1
100
AcDbLine
 10
53.3397459621556
 20
-83.00000000000001
 11
53.3397459621556
 21
-77.00000000000001
  0
LINE
  5
149
100
AcDbEntity
  8
0
  6
ByLayer
 62
  256
370
   -1
100
AcDbLine
 10
59.3397459621556
 20
-83.00000000000001
 11
59.3397459621556
 21
-77.00000000000001
  0
LINE
  5
14A
100
AcDbEntity
  8
0
  6
ByLayer
 62
  256
370
   -1
100
AcDbLine
 10
53.3397459621556
 20
-83.00000000000001
 11
59.3397459621556
 21
-83.00000000000001
  0
LINE
  5
14B
100
AcDbEntity
  8
0
  6
ByLayer
 62
  256
370
   -1
100
AcDbLine
 10
53.3397459621556
 20
-77.00000000000001
 11
59.3397459621556
 21
-77.00000000000001
  0
LINE
  5
14C
100
AcDbEntity
  8
0
  6
ByLayer
 62
  256
370
   -1
100
AcDbLine
 10
63.3397459621556
 20
-83.00000000000001
 11
63.3397459621556
 21
-77.00000000000001
  0
LINE
  5
14D
100
AcDbEntity
  8
0
  6
ByLayer
 62
  256
370
   -1
100
AcDbLine
 10
69.3397459621556
 20
-83.00000000000001
 11
69.3397459621556
 21
-77.00000000000001
  0
LINE
  5
14E
100
AcDbEntity
  8
0
  6
ByLayer
 62
  256
370
   -1
100
AcDbLine
 10
63.3397459621556
 20
-83.00000000000001
 11
69.3397459621556
 21
-83.00000000000001
  0
LINE
  5
14F
100
AcDbEntity
  8
0
  6
ByLayer
 62
  256
370
   -1
100
AcDbLine
 10
63.3397459621556
 20
-77.00000000000001
 11
69.3397459621556
 21
-77.00000000000001
  0
LINE
  5
150
100
AcDbEntity
  8
0
  6
ByLayer
 62
  256
370
   -1
100
AcDbLine
 10
73.3397459621556
 20
-83.00000000000001
 11
73.3397459621556
 21
-77.00000000000001
  0
LINE
  5
151
100
AcDbEntity
  8
0
  6
ByLayer
 62
  256
370
   -1
100
AcDbLine
 10
79.3397459621556
 20
-83.00000000000003
 11
79.3397459621556
 21
-77.00000000000003
  0
LINE
  5
152
100
AcDbEntity
  8
0
  6
ByLayer
 62
  256
370
   -1
100
AcDbLine
 10
73.3397459621556
 20
-83.00000000000001
 11
79.3397459621556
 21
-83.00000000000003
  0
LINE
  5
153
100
AcDbEntity
  8
0
  6
ByLayer
 62
  256
370
   -1
100
AcDbLine
 10
73.3397459621556
 20
-77.00000000000001
 11
79.3397459621556
 21
-77.00000000000003
  0
LINE
  5
154
100
AcDbEntity
  8
0
  6
ByLayer
 62
  256
370
   -1
100
AcDbLine
 10
83.3397459621556
 20
-83.00000000000003
 11
83.3397459621556
 21
-77.00000000000003
  0
LINE
  5
155
100
AcDbEntity
  8
0
  6
ByLayer
 62
  256
370
   -1
100
AcDbLine
 10
89.3397459621556
 20
-83.00000000000003
 11
89.3397459621556
 21
-77.00000000000003
  0
LINE
  5
156
100
AcDbEntity
  8
0
  6
ByLayer
 62
  256
370
   -1
100
AcDbLine
 10
83.3397459621556
 20
-83.00000000000003
 11
89.3397459621556
 21
-83.00000000000003
  0
LINE
  5
157
100
AcDbEntity
  8
0
  6
ByLayer
 62
  256
370
   -1
100
AcDbLine
 10
83.3397459621556
 20
-77.00000000000003
 11
89.3397459621556
 21
-77.00000000000003
  0
LINE
  5
158
100
AcDbEntity
  8
0
  6
ByLayer
 62
  256
370
   -1
100
AcDbLine
 10
93.3397459621556
 20
-83.00000000000003
 11
93.3397459621556
 21
-77.00000000000003
  0
LINE
  5
159
100
AcDbEntity
  8
0
  6
ByLayer
 62
  256
370
   -1
100
AcDbLine
 10
99.3397459621556
 20
-83.00000000000003
 11
99.3397459621556
 21
-77.00000000000003
  0
LINE
  5
15A
100
AcDbEntity
  8
0
  6
ByLayer
 62
  256
370
   -1
100
AcDbLine
 10
93.3397459621556
 20
-83.00000000000003
 11
99.3397459621556
 21
-83.00000000000003
  0
LINE
  5
15B
100
AcDbEntity
  8
0
  6
ByLayer
 62
  256
370
   -1
100
AcDbLine
 10
93.3397459621556
 20
-77.00000000000003
 11
99.3397459621556
 21
-77.00000000000003
  0
LINE
  5
15C
100
AcDbEntity
  8
0
  6
ByLayer
 62
  256
370
   -1
100
AcDbLine
 10
103.3397459621556
 20
-83.00000000000003
 11
103.3397459621556
 21
-77.00000000000003
  0
LINE
  5
15D
100
AcDbEntity
  8
0
  6
ByLayer
 62
  256
370
   -1
100
AcDbLine
 10
109.3397459621556
 20
-83.00000000000003
 11
109.3397459621556
 21
-77.00000000000003
  0
LINE
  5
15E
100
AcDbEntity
  8
0
  6
ByLayer
 62
  256
370
   -1
100
AcDbLine
 10
103.3397459621556
 20
-83.00000000000003
 11
109.3397459621556
 21
-83.00000000000003
  0
LINE
  5
15F
100
AcDbEntity
  8
0
  6
ByLayer
 62
  256
370
   -1
100
AcDbLine
 10
103.3397459621556
 20
-77.00000000000003
 11
109.3397459621556
 21
-77.00000000000003
  0
LINE
  5
160
100
AcDbEntity
  8
0
  6
ByLayer
 62
  256
370
   -1
100
AcDbLine
 10
113.3397459621556
 20
-83.00000000000003
 11
113.3397459621556
 21
-77.00000000000003
  0
LINE
  5
161
100
AcDbEntity
  8
0
  6
ByLayer
 62
  256
370
   -1
100
AcDbLine
 10
119.3397459621556
 20
-83.00000000000003
 11
119.3397459621556
 21
-77.00000000000003
  0
LINE
  5
162
100
AcDbEntity
  8
0
  6
ByLayer
 62
  256
370
   -1
100
AcDbLine
 10
113.3397459621556
 20
-83.00000000000003
 11
119.3397459621556
 21
-83.00000000000003
  0
LINE
  5
163
100
AcDbEntity
  8
0
  6
ByLayer
 62
  256
370
   -1
100
AcDbLine
 10
113.3397459621556
 20
-77.00000000000003
 11
119.3397459621556
 21
-77.00000000000003
  0
LINE
  5
164
100
AcDbEntity
  8
0
  6
ByLayer
 62
  256
370
   -1
100
AcDbLine
 10
123.3397459621556
 20
-83.00000000000003
 11
123.3397459621556
 21
-77.00000000000003
  0
LINE
  5
165
100
AcDbEntity
  8
0
  6
ByLayer
 62
  256
370
   -1
100
AcDbLine
 10
129.3397459621556
 20
-83.00000000000003
 11
129.3397459621556
 21
-77.00000000000003
  0
LINE
  5
166
100
AcDbEntity
  8
0
  6
ByLayer
 62
  256
370
   -1
100
AcDbLine
 10
123.3397459621556
 20
-83.00000000000003
 11
129.3397459621556
 21
-83.00000000000003
  0
LINE
  5
167
100
AcDbEntity
  8
0
  6
ByLayer
 62
  256
370
   -1
100
AcDbLine
 10
123.3397459621556
 20
-77.00000000000003
 11
129.3397459621556
 21
-77.00000000000003
  0
LINE
  5
168
100
AcDbEntity
  8
0
  6
ByLayer
 62
  256
370
   -1
100
AcDbLine
 10
133.3397459621556
 20
-83.00000000000003
 11
133.3397459621556
 21
-77.00000000000003
  0
LINE
  5
169
100
AcDbEntity
  8
0
  6
ByLayer
 62
  256
370
   -1
100
AcDbLine
 10
139.3397459621556
 20
-83.00000000000004
 11
139.3397459621556
 21
-77.00000000000004
  0
LINE
  5
16A
100
AcDbEntity
  8
0
  6
ByLayer
 62
  256
370
   -1
100
AcDbLine
 10
133.3397459621556
 20
-83.00000000000003
 11
139.3397459621556
 21
-83.00000000000004
  0
LINE
  5
16B
100
AcDbEntity
  8
0
  6
ByLayer
 62
  256
370
   -1
100
AcDbLine
 10
133.3397459621556
 20
-77.00000000000003
 11
139.3397459621556
 21
-77.00000000000004
  0
LINE
  5
16C
100
AcDbEntity
  8
0
  6
ByLayer
 62
  256
370
   -1
100
AcDbLine
 10
143.3397459621556
 20
-83.00000000000004
 11
143.3397459621556
 21
-77.00000000000004
  0
LINE
  5
16D
100
AcDbEntity
  8
0
  6
ByLayer
 62
  256
370
   -1
100
AcDbLine
 10
149.3397459621556
 20
-83.00000000000004
 11
149.3397459621556
 21
-77.00000000000004
  0
LINE
  5
16E
100
AcDbEntity
  8
0
  6
ByLayer
 62
  256
370
   -1
100
AcDbLine
 10
143.3397459621556
 20
-83.00000000000004
 11
149.3397459621556
 21
-83.00000000000004
  0
LINE
  5
16F
100
AcDbEntity
  8
0
  6
ByLayer
 62
  256
370
   -1
100
AcDbLine
 10
143.3397459621556
 20
-77.00000000000004
 11
149.3397459621556
 21
-77.00000000000004
  0
LINE
  5
170
100
AcDbEntity
  8
0
  6
ByLayer
 62
  256
370
   -1
100
AcDbLine
 10
153.3397459621556
 20
-83.00000000000004
 11
153.3397459621556
 21
-77.00000000000004
  0
LINE
  5
171
100
AcDbEntity
  8
0
  6
ByLayer
 62
  256
370
   -1
100
AcDbLine
 10
159.3397459621556
 20
-83.00000000000004
 11
159.3397459621556
 21
-77.00000000000004
  0
LINE
  5
172
100
AcDbEntity
  8
0
  6
ByLayer
 62
  256
370
   -1
100
AcDbLine
 10
153.3397459621556
 20
-83.00000000000004
 11
159.3397459621556
 21
-83.00000000000004
  0
LINE
  5
173
100
AcDbEntity
  8
0
  6
ByLayer
 62
  256
370
   -1
100
AcDbLine
 10
153.3397459621556
 20
-77.00000000000004
 11
159.3397459621556
 21
-77.00000000000004
  0
LINE
  5
174
100
AcDbEntity
  8
0
  6
ByLayer
 62
  256
370
   -1
100
AcDbLine
 10
163.3397459621556
 20
-83.00000000000004
 11
163.3397459621556
 21
-77.00000000000004
  0
LINE
  5
175
100
AcDbEntity
  8
0
  6
ByLayer
 62
  256
370
   -1
100
AcDbLine
 10
169.3397459621556
 20
-83.00000000000004
 11
169.3397459621556
 21
-77.00000000000004
  0
LINE
  5
176
100
AcDbEntity
  8
0
  6
ByLayer
 62
  256
370
   -1
100
AcDbLine
 10
163.3397459621556
 20
-83.00000000000004
 11
169.3397459621556
 21
-83.00000000000004
  0
LINE
  5
177
100
AcDbEntity
  8
0
  6
ByLayer
 62
  256
370
   -1
100
AcDbLine
 10
163.3397459621556
 20
-77.00000000000004
 11
169.3397459621556
 21
-77.00000000000004
  0
LINE
  5
178
100
AcDbEntity
  8
0
  6
ByLayer
 62
  256
370
   -1
100
AcDbLine
 10
173.3397459621556
 20
-83.00000000000004
 11
173.3397459621556
 21
-77.00000000000004
  0
LINE
  5
179
100
AcDbEntity
  8
0
  6
ByLayer
 62
  256
370
   -1
100
AcDbLine
 10
179.3397459621556
 20
-83.00000000000004
 11
179.3397459621556
 21
-77.00000000000004
  0
LINE
  5
17A
100
AcDbEntity
  8
0
  6
ByLayer
 62
  256
370
   -1
100
AcDbLine
 10
173.3397459621556
 20
-83.00000000000004
 11
179.3397459621556
 21
-83.00000000000004
  0
LINE
  5
17B
100
AcDbEntity
  8
0
  6
ByLayer
 62
  256
370
   -1
100
AcDbLine
 10
173.3397459621556
 20
-77.00000000000004
 11
179.3397459621556
 21
-77.00000000000004
  0
LINE
  5
17C
100
AcDbEntity
  8
0
  6
ByLayer
 62
  256
370
   -1
100
AcDbLine
 10
183.3397459621556
 20
-83.00000000000004
 11
183.3397459621556
 21
-77.00000000000004
  0
LINE
  5
17D
100
AcDbEntity
  8
0
  6
ByLayer
 62
  256
370
   -1
100
AcDbLine
 10
189.3397459621556
 20
-83.00000000000004
 11
189.3397459621556
 21
-77.00000000000004
  0
LINE
  5
17E
100
AcDbEntity
  8
0
  6
ByLayer
 62
  256
370
   -1
100
AcDbLine
 10
183.3397459621556
 20
-83.00000000000004
 11
189.3397459621556
 21
-83.00000000000004
  0
LINE
  5
17F
100
AcDbEntity
  8
0
  6
ByLayer
 62
  256
370
   -1
100
AcDbLine
 10
183.3397459621556
 20
-77.00000000000004
 11
189.3397459621556
 21
-77.00000000000004
  0
LINE
  5
180
100
AcDbEntity
  8
0
  6
ByLayer
 62
  256
370
   -1
100
AcDbLine
 10
3.339745962155604
 20
-33
 11
3.339745962155604
 21
-27
  0
LINE
  5
181
100
AcDbEntity
  8
0
  6
ByLayer
 62
  256
370
   -1
100
AcDbLine
 10
9.339745962155604
 20
-33
 11
9.339745962155604
 21
-27
  0
LINE
  5
182
100
AcDbEntity
  8
0
  6
ByLayer
 62
  256
370
   -1
100
AcDbLine
 10
3.339745962155604
 20
-33
 11
9.339745962155604
 21
-33
  0
LINE
  5
183
100
AcDbEntity
  8
0
  6
ByLayer
 62
  256
370
   -1
100
AcDbLine
 10
3.339745962155604
 20
-27
 11
9.339745962155604
 21
-27
  0
LINE
  5
184
100
AcDbEntity
  8
0
  6
ByLayer
 62
  256
370
   -1
100
AcDbLine
 10
13.3397459621556
 20
-33.00000000000001
 11
13.3397459621556
 21
-27
  0
LINE
  5
185
100
AcDbEntity
  8
0
  6
ByLayer
 62
  256
370
   -1
100
AcDbLine
 10
19.3397459621556
 20
-33.00000000000001
 11
19.3397459621556
 21
-27.00000000000001
  0
LINE
  5
186
100
AcDbEntity
  8
0
  6
ByLayer
 62
  256
370
   -1
100
AcDbLine
 10
13.3397459621556
 20
-33.00000000000001
 11
19.3397459621556
 21
-33.00000000000001
  0
LINE
  5
187
100
AcDbEntity
  8
0
  6
ByLayer
 62
  256
370
   -1
100
AcDbLine
 10
13.3397459621556
 20
-27
 11
19.3397459621556
 21
-27.00000000000001
  0
LINE
  5
188
100
AcDbEntity
  8
0
  6
ByLayer
 62
  256
370
   -1
100
AcDbLine
 10
23.3397459621556
 20
-33.00000000000001
 11
23.3397459621556
 21
-27.00000000000001
  0
LINE
  5
189
100
AcDbEntity
  8
0
  6
ByLayer
 62
  256
370
   -1
100
AcDbLine
 10
29.3397459621556
 20
-33.00000000000001
 11
29.3397459621556
 21
-27.00000000000001
  0
LINE
  5
18A
100
AcDbEntity
  8
0
  6
ByLayer
 62
  256
370
   -1
100
AcDbLine
 10
23.3397459621556
 20
-33.00000000000001
 11
29.3397459621556
 21
-33.00000000000001
  0
LINE
  5
18B
100
AcDbEntity
  8
0
  6
ByLayer
 62
  256
370
   -1
100
AcDbLine
 10
23.3397459621556
 20
-27.00000000000001
 11
29.3397459621556
 21
-27.00000000000001
  0
LINE
  5
18C
100
AcDbEntity
  8
0
  6
ByLayer
 62
  256
370
   -1
100
AcDbLine
 10
33.3397459621556
 20
-33.00000000000001
 11
33.3397459621556
 21
-27.00000000000001
  0
LINE
  5
18D
100
AcDbEntity
  8
0
  6
ByLayer
 62
  256
370
   -1
100
AcDbLine
 10
39.3397459621556
 20
-33.00000000000001
 11
39.3397459621556
 21
-27.00000000000001
  0
LINE
  5
18E
100
AcDbEntity
  8
0
  6
ByLayer
 62
  256
370
   -1
100
AcDbLine
 10
33.3397459621556
 20
-33.00000000000001
 11
39.3397459621556
 21
-33.00000000000001
  0
LINE
  5
18F
100
AcDbEntity
  8
0
  6
ByLayer
 62
  256
370
   -1
100
AcDbLine
 10
33.3397459621556
 20
-27.00000000000001
 11
39.3397459621556
 21
-27.00000000000001
  0
LINE
  5
190
100
AcDbEntity
  8
0
  6
ByLayer
 62
  256
370
   -1
100
AcDbLine
 10
43.3397459621556
 20
-33.00000000000001
 11
43.3397459621556
 21
-27.00000000000001
  0
LINE
  5
191
100
AcDbEntity
  8
0
  6
ByLayer
 62
  256
370
   -1
100
AcDbLine
 10
49.3397459621556
 20
-33.00000000000001
 11
49.3397459621556
 21
-27.00000000000001
  0
LINE
  5
192
100
AcDbEntity
  8
0
  6
ByLayer
 62
  256
370
   -1
100
AcDbLine
 10
43.3397459621556
 20
-33.00000000000001
 11
49.3397459621556
 21
-33.00000000000001
  0
LINE
  5
193
100
AcDbEntity
  8
0
  6
ByLayer
 62
  256
370
   -1
100
AcDbLine
 10
43.3397459621556
 20
-27.00000000000001
 11
49.3397459621556
 21
-27.00000000000001
  0
LINE
  5
194
100
AcDbEntity
  8
0
  6
ByLayer
 62
  256
370
   -1
100
AcDbLine
 10
53.3397459621556
 20
-33.00000000000002
 11
53.3397459621556
 21
-27.00000000000002
  0
LINE
  5
195
100
AcDbEntity
  8
0
  6
ByLayer
 62
  256
370
   -1
100
AcDbLine
 10
59.3397459621556
 20
-33.00000000000002
 11
59.3397459621556
 21
-27.00000000000002
  0
LINE
  5
196
100
AcDbEntity
  8
0
  6
ByLayer
 62
  256
370
   -1
100
AcDbLine
 10
53.3397459621556
 20
-33.00000000000002
 11
59.3397459621556
 21
-33.00000000000002
  0
LINE
  5
197
100
AcDbEntity
  8
0
  6
ByLayer
 62
  256
370
   -1
100
AcDbLine
 10
53.3397459621556
 20
-27.00000000000002
 11
59.3397459621556
 21
-27.00000000000002
  0
LINE
  5
198
100
AcDbEntity
  8
0
  6
ByLayer
 62
  256
370
   -1
100
AcDbLine
 10
63.3397459621556
 20
-33.00000000000002
 11
63.3397459621556
 21
-27.00000000000002
  0
LINE
  5
199
100
AcDbEntity
  8
0
  6
ByLayer
 62
  256
370
   -1
100
AcDbLine
 10
69.3397459621556
 20
-33.00000000000002
 11
69.3397459621556
 21
-27.00000000000002
  0
LINE
  5
19A
100
AcDbEntity
  8
0
  6
ByLayer
 62
  256
370
   -1
100
AcDbLine
 10
63.3397459621556
 20
-33.00000000000002
 11
69.3397459621556
 21
-33.00000000000002
  0
LINE
  5
19B
100
AcDbEntity
  8
0
  6
ByLayer
 62
  256
370
   -1
100
AcDbLine
 10
63.3397459621556
 20
-27.00000000000002
 11
69.3397459621556
 21
-27.00000000000002
  0
LINE
  5
19C
100
AcDbEntity
  8
0
  6
ByLayer
 62
  256
370
   -1
100
AcDbLine
 10
73.3397459621556
 20
-33.00000000000002
 11
73.3397459621556
 21
-27.00000000000002
  0
LINE
  5
19D
100
AcDbEntity
  8
0
  6
ByLayer
 62
  256
370
   -1
100
AcDbLine
 10
79.3397459621556
 20
-33.00000000000002
 11
79.3397459621556
 21
-27.00000000000002
  0
LINE
  5
19E
100
AcDbEntity
  8
0
  6
ByLayer
 62
  256
370
   -1
100
AcDbLine
 10
73.3397459621556
 20
-33.00000000000002
 11
79.3397459621556
 21
-33.00000000000002
  0
LINE
  5
19F
100
AcDbEntity
  8
0
  6
ByLayer
 62
  256
370
   -1
100
AcDbLine
 10
73.3397459621556
 20
-27.00000000000002
 11
79.3397459621556
 21
-27.00000000000002
  0
LINE
  5
1A0
100
AcDbEntity
  8
0
  6
ByLayer
 62
  256
370
   -1
100
AcDbLine
 10
83.3397459621556
 20
-33.00000000000002
 11
83.3397459621556
 21
-27.00000000000002
  0
LINE
  5
1A1
100
AcDbEntity
  8
0
  6
ByLayer
 62
  256
370
   -1
100
AcDbLine
 10
89.3397459621556
 20
-33.00000000000002
 11
89.3397459621556
 21
-27.00000000000003
  0
LINE
  5
1A2
100
AcDbEntity
  8
0
  6
ByLayer
 62
  256
370
   -1
100
AcDbLine
 10
83.3397459621556
 20
-33.00000000000002
 11
89.3397459621556
 21
-33.00000000000002
  0
LINE
  5
1A3
100
AcDbEntity
  8
0
  6
ByLayer
 62
  256
370
   -1
100
AcDbLine
 10
83.3397459621556
 20
-27.00000000000002
 11
89.3397459621556
 21
-27.00000000000003
  0
LINE
  5
1A4
100
AcDbEntity
  8
0
  6
ByLayer
 62
  256
370
   -1
100
AcDbLine
 10
93.3397459621556
 20
-33.00000000000003
 11
93.3397459621556
 21
-27.00000000000003
  0
LINE
  5
1A5
100
AcDbEntity
  8
0
  6
ByLayer
 62
  256
370
   -1
100
AcDbLine
 10
99.3397459621556
 20
-33.00000000000003
 11
99.3397459621556
 21
-27.00000000000003
  0
LINE
  5
1A6
100
AcDbEntity
  8
0
  6
ByLayer
 62
  256
370
   -1
100
AcDbLine
 10
93.3397459621556
 20
-33.00000000000003
 11
99.3397459621556
 21
-33.00000000000003
  0
LINE
  5
1A7
100
AcDbEntity
  8
0
  6
ByLayer
 62
  256
370
   -1
100
AcDbLine
 10
93.3397459621556
 20
-27.00000000000003
 11
99.3397459621556
 21
-27.00000000000003
  0
LINE
  5
1A8
100
AcDbEntity
  8
0
  6
ByLayer
 62
  256
370
   -1
100
AcDbLine
 10
103.3397459621556
 20
-33.00000000000003
 11
103.3397459621556
 21
-27.00000000000003
  0
LINE
  5
1A9
100
AcDbEntity
  8
0
  6
ByLayer
 62
  256
370
   -1
100
AcDbLine
 10
109.3397459621556
 20
-33.00000000000003
 11
109.3397459621556
 21
-27.00000000000003
  0
LINE
  5
1AA
100
AcDbEntity
  8
0
  6
ByLayer
 62
  256
370
   -1
100
AcDbLine
 10
103.3397459621556
 20
-33.00000000000003
 11
109.3397459621556
 21
-33.00000000000003
  0
LINE
  5
1AB
100
AcDbEntity
  8
0
  6
ByLayer
 62
  256
370
   -1
100
AcDbLine
 10
103.3397459621556
 20
-27.00000000000003
 11
109.3397459621556
 21
-27.00000000000003
  0
LINE
  5
1AC
100
AcDbEntity
  8
0
  6
ByLayer
 62
  256
370
   -1
100
AcDbLine
 10
113.3397459621556
 20
-33.00000000000003
 11
113.3397459621556
 21
-27.00000000000003
  0
LINE
  5
1AD
100
AcDbEntity
  8
0
  6
ByLayer
 62
  256
370
   -1
100
AcDbLine
 10
119.3397459621556
 20
-33.00000000000003
 11
119.3397459621556
 21
-27.00000000000003
  0
LINE
  5
1AE
100
AcDbEntity
  8
0
  6
ByLayer
 62
  256
370
   -1
100
AcDbLine
 10
113.3397459621556
 20
-33.00000000000003
 11
119.3397459621556
 21
-33.00000000000003
  0
LINE
  5
1AF
100
AcDbEntity
  8
0
  6
ByLayer
 62
  256
370
   -1
100
AcDbLine
 10
113.3397459621556
 20
-27.00000000000003
 11
119.3397459621556
 21
-27.00000000000003
  0
LINE
  5
1B0
100
AcDbEntity
  8
0
  6
ByLayer
 62
  256
370
   -1
100
AcDbLine
 10
123.3397459621556
 20
-33.00000000000003
 11
123.3397459621556
 21
-27.00000000000003
  0
LINE
  5
1B1
100
AcDbEntity
  8
0
  6
ByLayer
 62
  256
370
   -1
100
AcDbLine
 10
129.3397459621556
 20
-33.00000000000004
 11
129.3397459621556
 21
-27.00000000000004
  0
LINE
  5
1B2
100
AcDbEntity
  8
0
  6
ByLayer
 62
  256
370
   -1
100
AcDbLine
 10
123.3397459621556
 20
-33.00000000000003
 11
129.3397459621556
 21
-33.00000000000004
  0
LINE
  5
1B3
100
AcDbEntity
  8
0
  6
ByLayer
 62
  256
370
   -1
100
AcDbLine
 10
123.3397459621556
 20
-27.00000000000003
 11
129.3397459621556
 21
-27.00000000000004
  0
LINE
  5
1B4
100
AcDbEntity
  8
0
  6
ByLayer
 62
  256
370
   -1
100
AcDbLine
 10
133.3397459621556
 20
-33.00000000000004
 11
133.3397459621556
 21
-27.00000000000004
  0
LINE
  5
1B5
100
AcDbEntity
  8
0
  6
ByLayer
 62
  256
370
   -1
100
AcDbLine
 10
139.3397459621556
 20
-33.00000000000004
 11
139.3397459621556
 21
-27.00000000000004
  0
LINE
  5
1B6
100
AcDbEntity
  8
0
  6
ByLayer
 62
  256
370
   -1
100
AcDbLine
 10
133.3397459621556
 20
-33.00000000000004
 11
139.3397459621556
 21
-33.00000000000004
  0
LINE
  5
1B7
100
AcDbEntity
  8
0
  6
ByLayer
 62
  256
370
   -1
100
AcDbLine
 10
133.3397459621556
 20
-27.00000000000004
 11
139.3397459621556
 21
-27.00000000000004
  0
LINE
  5
1B8
100
AcDbEntity
  8
0
  6
ByLayer
 62
  256
370
   -1
100
AcDbLine
 10
143.3397459621556
 20
-33.00000000000004
 11
143.3397459621556
 21
-27.00000000000004
  0
LINE
  5
1B9
100
AcDbEntity
  8
0
  6
ByLayer
 62
  256
370
   -1
100
AcDbLine
 10
149.3397459621556
 20
-33.00000000000004
 11
149.3397459621556
 21
-27.00000000000004
  0
LINE
  5
1BA
100
AcDbEntity
  8
0
  6
ByLayer
 62
  256
370
   -1
100
AcDbLine
 10
143.3397459621556
 20
-33.00000000000004
 11
149.3397459621556
 21
-33.00000000000004
  0
LINE
  5
1BB
100
AcDbEntity
  8
0
  6
ByLayer
 62
  256
370
   -1
100
AcDbLine
 10
143.3397459621556
 20
-27.00000000000004
 11
149.3397459621556
 21
-27.00000000000004
  0
LINE
  5
1BC
100
AcDbEntity
  8
0
  6
ByLayer
 62
  256
370
   -1
100
AcDbLine
 10
153.3397459621556
 20
-33.00000000000004
 11
153.3397459621556
 21
-27.00000000000004
  0
LINE
  5
1BD
100
AcDbEntity
  8
0
  6
ByLayer
 62
  256
370
   -1
100
AcDbLine
 10
159.3397459621556
 20
-33.00000000000004
 11
159.3397459621556
 21
-27.00000000000004
  0
LINE
  5
1BE
100
AcDbEntity
  8
0
  6
ByLayer
 62
  256
370
   -1
100
AcDbLine
 10
153.3397459621556
 20
-33.00000000000004
 11
159.3397459621556
 21
-33.00000000000004
  0
LINE
  5
1BF
100
AcDbEntity
  8
0
  6
ByLayer
 62
  256
370
   -1
100
AcDbLine
 10
153.3397459621556
 20
-27.00000000000004
 11
159.3397459621556
 21
-27.00000000000004
  0
LINE
  5
1C0
100
AcDbEntity
  8
0
  6
ByLayer
 62
  256
370
   -1
100
AcDbLine
 10
163.3397459621556
 20
-33.00000000000004
 11
163.3397459621556
 21
-27.00000000000004
  0
LINE
  5
1C1
100
AcDbEntity
  8
0
  6
ByLayer
 62
  256
370
   -1
100
AcDbLine
 10
169.3397459621556
 20
-33.00000000000005
 11
169.3397459621556
 21
-27.00000000000005
  0
LINE
  5
1C2
100
AcDbEntity
  8
0
  6
ByLayer
 62
  256
370
   -1
100
AcDbLine
 10
163.3397459621556
 20
-33.00000000000004
 11
169.3397459621556
 21
-33.00000000000005
  0
LINE
  5
1C3
100
AcDbEntity
  8
0
  6
ByLayer
 62
  256
370
   -1
100
AcDbLine
 10
163.3397459621556
 20
-27.00000000000004
 11
169.3397459621556
 21
-27.00000000000005
  0
LINE
  5
1C4
100
AcDbEntity
  8
0
  6
ByLayer
 62
  256
370
   -1
100
AcDbLine
 10
173.3397459621556
 20
-33.00000000000005
 11
173.3397459621556
 21
-27.00000000000005
  0
LINE
  5
1C5
100
AcDbEntity
  8
0
  6
ByLayer
 62
  256
370
   -1
100
AcDbLine
 10
179.3397459621556
 20
-33.00000000000005
 11
179.3397459621556
 21
-27.00000000000005
  0
LINE
  5
1C6
100
AcDbEntity
  8
0
  6
ByLayer
 62
  256
370
   -1
100
AcDbLine
 10
173.3397459621556
 20
-33.00000000000005
 11
179.3397459621556
 21
-33.00000000000005
  0
LINE
  5
1C7
100
AcDbEntity
  8
0
  6
ByLayer
 62
  256
370
   -1
100
AcDbLine
 10
173.3397459621556
 20
-27.00000000000005
 11
179.3397459621556
 21
-27.00000000000005
  0
LINE
  5
1C8
100
AcDbEntity
  8
0
  6
ByLayer
 62
  256
370
   -1
100
AcDbLine
 10
183.3397459621556
 20
-33.00000000000005
 11
183.3397459621556
 21
-27.00000000000005
  0
LINE
  5
1C9
100
AcDbEntity
  8
0
  6
ByLayer
 62
  256
370
   -1
100
AcDbLine
 10
189.3397459621556
 20
-33.00000000000005
 11
189.3397459621556
 21
-27.00000000000005
  0
LINE
  5
1CA
100
AcDbEntity
  8
0
  6
ByLayer
 62
  256
370
   -1
100
AcDbLine
 10
183.3397459621556
 20
-33.00000000000005
 11
189.3397459621556
 21
-33.00000000000005
  0
LINE
  5
1CB
100
AcDbEntity
  8
0
  6
ByLayer
 62
  256
370
   -1
100
AcDbLine
 10
183.3397459621556
 20
-27.00000000000005
 11
189.3397459621556
 21
-27.00000000000005
  0
LINE
  5
1CC
100
AcDbEntity
  8
0
  6
ByLayer
 62
  256
370
   -1
100
AcDbLine
 10
-6.660254037844382
 20
-33
 11
-6.660254037844382
 21
-27
  0
LINE
  5
1CD
100
AcDbEntity
  8
0
  6
ByLayer
 62
  256
370
   -1
100
AcDbLine
 10
-0.660254037844382
 20
-33
 11
-0.660254037844382
 21
-27
  0
LINE
  5
1CE
100
AcDbEntity
  8
0
  6
ByLayer
 62
  256
370
   -1
100
AcDbLine
 10
-6.660254037844382
 20
-33
 11
-0.660254037844382
 21
-33
  0
LINE
  5
1CF
100
AcDbEntity
  8
0
  6
ByLayer
 62
  256
370
   -1
100
AcDbLine
 10
-6.660254037844382
 20
-27
 11
-0.660254037844382
 21
-27
  0
LINE
  5
1D0
100
AcDbEntity
  8
0
  6
ByLayer
 62
  256
370
   -1
100
AcDbLine
 10
31.3397459621556
 20
-85.00000000000001
 11
31.3397459621556
 21
-25.00000000000001
  0
LINE
  5
1D1
100
AcDbEntity
  8
0
  6
ByLayer
 62
  256
370
   -1
100
AcDbLine
 10
71.3397459621556
 20
-85.00000000000001
 11
71.3397459621556
 21
-25.00000000000002
  0
LINE
  5
1D2
100
AcDbEntity
  8
0
  6
ByLayer
 62
  256
370
   -1
100
AcDbLine
 10
111.3397459621556
 20
-85.00000000000003
 11
111.3397459621556
 21
-25.00000000000003
  0
LINE
  5
1D3
100
AcDbEntity
  8
0
  6
ByLayer
 62
  256
370
   -1
100
AcDbLine
 10
151.3397459621556
 20
-85.00000000000004
 11
151.3397459621556
 21
-25.00000000000004
  0
CIRCLE
  5
1D4
100
AcDbEntity
  8
0
  6
ByLayer
 62
  256
370
   -1
100
AcDbCircle
 10
-3.660254037844396
 20
-70
 40
5
  0
CIRCLE
  5
1D5
100
AcDbEntity
  8
0
  6
ByLayer
 62
  256
370
   -1
100
AcDbCircle
 10
-3.660254037844396
 20
-60
 40
5
  0
CIRCLE
  5
1D6
100
AcDbEntity
  8
0
  6
ByLayer
 62
  256
370
   -1
100
AcDbCircle
 10
-3.660254037844396
 20
-50
 40
5
  0
CIRCLE
  5
1D7
100
AcDbEntity
  8
0
  6
ByLayer
 62
  256
370
   -1
100
AcDbCircle
 10
-3.660254037844396
 20
-40
 40
5
  0
CIRCLE
  5
1D8
100
AcDbEntity
  8
0
  6
ByLayer
 62
  256
370
   -1
100
AcDbCircle
 10
5
 20
-65
 40
5
  0
CIRCLE
  5
1D9
100
AcDbEntity
  8
0
  6
ByLayer
 62
  256
370
   -1
100
AcDbCircle
 10
5
 20
-55
 40
5
  0
CIRCLE
  5
1DA
100
AcDbEntity
  8
0
  6
ByLayer
 62
  256
370
   -1
100
AcDbCircle
 10
5
 20
-45
 40
5
  0
CIRCLE
  5
1DB
100
AcDbEntity
  8
0
  6
ByLayer
 62
  256
370
   -1
100
AcDbCircle
 10
13.66025403784438
 20
-70
 40
5
  0
CIRCLE
  5
1DC
100
AcDbEntity
  8
0
  6
ByLayer
 62
  256
370
   -1
100
AcDbCircle
 10
13.66025403784438
 20
-60
 40
5
  0
CIRCLE
  5
1DD
100
AcDbEntity
  8
0
  6
ByLayer
 62
  256
370
   -1
100
AcDbCircle
 10
13.66025403784438
 20
-50
 40
5
  0
CIRCLE
  5
1DE
100
AcDbEntity
  8
0
  6
ByLayer
 62
  256
370
   -1
100
AcDbCircle
 10
13.66025403784438
 20
-40
 40
5
  0
CIRCLE
  5
1DF
100
AcDbEntity
  8
0
  6
ByLayer
 62
  256
370
   -1
100
AcDbCircle
 10
22.32050807568876
 20
-65
 40
5
  0
CIRCLE
  5
1E0
100
AcDbEntity
  8
0
  6
ByLayer
 62
  256
370
   -1
100
AcDbCircle
 10
22.32050807568876
 20
-55.00000000000001
 40
5
  0
CIRCLE
  5
1E1
100
AcDbEntity
  8
0
  6
ByLayer
 62
  256
370
   -1
100
AcDbCircle
 10
22.32050807568876
 20
-45
 40
5
  0
CIRCLE
  5
1E2
100
AcDbEntity
  8
0
  6
ByLayer
 62
  256
370
   -1
100
AcDbCircle
 10
36.3397459621556
 20
-70
 40
5
  0
CIRCLE
  5
1E3
100
AcDbEntity
  8
0
  6
ByLayer
 62
  256
370
   -1
100
AcDbCircle
 10
36.3397459621556
 20
-60
 40
5
  0
CIRCLE
  5
1E4
100
AcDbEntity
  8
0
  6
ByLayer
 62
  256
370
   -1
100
AcDbCircle
 10
36.3397459621556
 20
-50.00000000000001
 40
5
  0
CIRCLE
  5
1E5
100
AcDbEntity
  8
0
  6
ByLayer
 62
  256
370
   -1
100
AcDbCircle
 10
36.3397459621556
 20
-40.00000000000001
 40
5
  0
CIRCLE
  5
1E6
100
AcDbEntity
  8
0
  6
ByLayer
 62
  256
370
   -1
100
AcDbCircle
 10
45
 20
-65
 40
5
  0
CIRCLE
  5
1E7
100
AcDbEntity
  8
0
  6
ByLayer
 62
  256
370
   -1
100
AcDbCircle
 10
45
 20
-55.00000000000001
 40
5
  0
CIRCLE
  5
1E8
100
AcDbEntity
  8
0
  6
ByLayer
 62
  256
370
   -1
100
AcDbCircle
 10
45
 20
-45.00000000000001
 40
5
  0
CIRCLE
  5
1E9
100
AcDbEntity
  8
0
  6
ByLayer
 62
  256
370
   -1
100
AcDbCircle
 10
53.66025403784438
 20
-70.00000000000003
 40
5
  0
CIRCLE
  5
1EA
100
AcDbEntity
  8
0
  6
ByLayer
 62
  256
370
   -1
100
AcDbCircle
 10
53.66025403784438
 20
-60.00000000000003
 40
5
  0
CIRCLE
  5
1EB
100
AcDbEntity
  8
0
  6
ByLayer
 62
  256
370
   -1
100
AcDbCircle
 10
53.66025403784438
 20
-50.00000000000001
 40
5
  0
CIRCLE
  5
1EC
100
AcDbEntity
  8
0
  6
ByLayer
 62
  256
370
   -1
100
AcDbCircle
 10
53.66025403784438
 20
-40.00000000000001
 40
5
  0
CIRCLE
  5
1ED
100
AcDbEntity
  8
0
  6
ByLayer
 62
  256
370
   -1
100
AcDbCircle
 10
62.32050807568876
 20
-65.00000000000003
 40
5
  0
CIRCLE
  5
1EE
100
AcDbEntity
  8
0
  6
ByLayer
 62
  256
370
   -1
100
AcDbCircle
 10
62.32050807568876
 20
-55.00000000000001
 40
5
  0
CIRCLE
  5
1EF
100
AcDbEntity
  8
0
  6
ByLayer
 62
  256
370
   -1
100
AcDbCircle
 10
62.32050807568876
 20
-45.00000000000001
 40
5
  0
CIRCLE
  5
1F0
100
AcDbEntity
  8
0
  6
ByLayer
 62
  256
370
   -1
100
AcDbCircle
 10
76.3397459621556
 20
-70.00000000000003
 40
5
  0
CIRCLE
  5
1F1
100
AcDbEntity
  8
0
  6
ByLayer
 62
  256
370
   -1
100
AcDbCircle
 10
76.3397459621556
 20
-60.00000000000003
 40
5
  0
CIRCLE
  5
1F2
100
AcDbEntity
  8
0
  6
ByLayer
 62
  256
370
   -1
100
AcDbCircle
 10
76.3397459621556
 20
-50.00000000000001
 40
5
  0
CIRCLE
  5
1F3
100
AcDbEntity
  8
0
  6
ByLayer
 62
  256
370
   -1
100
AcDbCircle
 10
76.3397459621556
 20
-40.00000000000002
 40
5
  0
CIRCLE
  5
1F4
100
AcDbEntity
  8
0
  6
ByLayer
 62
  256
370
   -1
100
AcDbCircle
 10
85
 20
-65.00000000000003
 40
5
  0
CIRCLE
  5
1F5
100
AcDbEntity
  8
0
  6
ByLayer
 62
  256
370
   -1
100
AcDbCircle
 10
85
 20
-55.00000000000002
 40
5
  0
CIRCLE
  5
1F6
100
AcDbEntity
  8
0
  6
ByLayer
 62
  256
370
   -1
100
AcDbCircle
 10
85
 20
-45.00000000000002
 40
5
  0
CIRCLE
  5
1F7
100
AcDbEntity
  8
0
  6
ByLayer
 62
  256
370
   -1
100
AcDbCircle
 10
93.6602540378444
 20
-70.00000000000003
 40
5
  0
CIRCLE
  5
1F8
100
AcDbEntity
  8
0
  6
ByLayer
 62
  256
370
   -1
100
AcDbCircle
 10
93.6602540378444
 20
-60.00000000000003
 40
5
  0
CIRCLE
  5
1F9
100
AcDbEntity
  8
0
  6
ByLayer
 62
  256
370
   -1
100
AcDbCircle
 10
93.6602540378444
 20
-50.00000000000002
 40
5
  0
CIRCLE
  5
1FA
100
AcDbEntity
  8
0
  6
ByLayer
 62
  256
370
   -1
100
AcDbCircle
 10
93.6602540378444
 20
-40.00000000000002
 40
5
  0
CIRCLE
  5
1FB
100
AcDbEntity
  8
0
  6
ByLayer
 62
  256
370
   -1
100
AcDbCircle
 10
102.3205080756888
 20
-65.00000000000003
 40
5
  0
CIRCLE
  5
1FC
100
AcDbEntity
  8
0
  6
ByLayer
 62
  256
370
   -1
100
AcDbCircle
 10
102.3205080756888
 20
-55.00000000000003
 40
5
  0
CIRCLE
  5
1FD
100
AcDbEntity
  8
0
  6
ByLayer
 62
  256
370
   -1
100
AcDbCircle
 10
102.3205080756888
 20
-45.00000000000002
 40
5
  0
CIRCLE
  5
1FE
100
AcDbEntity
  8
0
  6
ByLayer
 62
  256
370
   -1
100
AcDbCircle
 10
116.3397459621556
 20
-70.00000000000003
 40
5
  0
CIRCLE
  5
1FF
100
AcDbEntity
  8
0
  6
ByLayer
 62
  256
370
   -1
100
AcDbCircle
 10
116.3397459621556
 20
-60.00000000000003
 40
5
  0
CIRCLE
  5
200
100
AcDbEntity
  8
0
  6
ByLayer
 62
  256
370
   -1
100
AcDbCircle
 10
116.3397459621556
 20
-50.00000000000003
 40
5
  0
CIRCLE
  5
201
100
AcDbEntity
  8
0
  6
ByLayer
 62
  256
370
   -1
100
AcDbCircle
 10
116.3397459621556
 20
-40.00000000000003
 40
5
  0
CIRCLE
  5
202
100
AcDbEntity
  8
0
  6
ByLayer
 62
  256
370
   -1
100
AcDbCircle
 10
125
 20
-65.00000000000003
 40
5
  0
CIRCLE
  5
203
100
AcDbEntity
  8
0
  6
ByLayer
 62
  256
370
   -1
100
AcDbCircle
 10
125
 20
-55.00000000000003
 40
5
  0
CIRCLE
  5
204
100
AcDbEntity
  8
0
  6
ByLayer
 62
  256
370
   -1
100
AcDbCircle
 10
125
 20
-45.00000000000003
 40
5
  0
CIRCLE
  5
205
100
AcDbEntity
  8
0
  6
ByLayer
 62
  256
370
   -1
100
AcDbCircle
 10
133.6602540378444
 20
-70.00000000000003
 40
5
  0
CIRCLE
  5
206
100
AcDbEntity
  8
0
  6
ByLayer
 62
  256
370
   -1
100
AcDbCircle
 10
133.6602540378444
 20
-60.00000000000003
 40
5
  0
CIRCLE
  5
207
100
AcDbEntity
  8
0
  6
ByLayer
 62
  256
370
   -1
100
AcDbCircle
 10
133.6602540378444
 20
-50.00000000000003
 40
5
  0
CIRCLE
  5
208
100
AcDbEntity
  8
0
  6
ByLayer
 62
  256
370
   -1
100
AcDbCircle
 10
133.6602540378444
 20
-40.00000000000003
 40
5
  0
CIRCLE
  5
209
100
AcDbEntity
  8
0
  6
ByLayer
 62
  256
370
   -1
100
AcDbCircle
 10
142.3205080756888
 20
-65.00000000000003
 40
5
  0
CIRCLE
  5
20A
100
AcDbEntity
  8
0
  6
ByLayer
 62
  256
370
   -1
100
AcDbCircle
 10
142.3205080756888
 20
-55.00000000000004
 40
5
  0
CIRCLE
  5
20B
100
AcDbEntity
  8
0
  6
ByLayer
 62
  256
370
   -1
100
AcDbCircle
 10
142.3205080756888
 20
-45.00000000000003
 40
5
  0
CIRCLE
  5
20C
100
AcDbEntity
  8
0
  6
ByLayer
 62
  256
370
   -1
100
AcDbCircle
 10
156.3397459621556
 20
-70.00000000000003
 40
5
  0
CIRCLE
  5
20D
100
AcDbEntity
  8
0
  6
ByLayer
 62
  256
370
   -1
100
AcDbCircle
 10
156.3397459621556
 20
-60.00000000000003
 40
5
  0
CIRCLE
  5
20E
100
AcDbEntity
  8
0
  6
ByLayer
 62
  256
370
   -1
100
AcDbCircle
 10
156.3397459621556
 20
-50.00000000000004
 40
5
  0
CIRCLE
  5
20F
100
AcDbEntity
  8
0
  6
ByLayer
 62
  256
370
   -1
100
AcDbCircle
 10
156.3397459621556
 20
-40.00000000000004
 40
5
  0
CIRCLE
  5
210
100
AcDbEntity
  8
0
  6
ByLayer
 62
  256
370
   -1
100
AcDbCircle
 10
165
 20
-65.00000000000003
 40
5
  0
CIRCLE
  5
211
100
AcDbEntity
  8
0
  6
ByLayer
 62
  256
370
   -1
100
AcDbCircle
 10
165
 20
-55.00000000000004
 40
5
  0
CIRCLE
  5
212
100
AcDbEntity
  8
0
  6
ByLayer
 62
  256
370
   -1
100
AcDbCircle
 10
165
 20
-45.00000000000004
 40
5
  0
CIRCLE
  5
213
100
AcDbEntity
  8
0
  6
ByLayer
 62
  256
370
   -1
100
AcDbCircle
 10
173.6602540378444
 20
-70.00000000000004
 40
5
  0
CIRCLE
  5
214
100
AcDbEntity
  8
0
  6
ByLayer
 62
  256
370
   -1
100
AcDbCircle
 10
173.6602540378444
 20
-60.00000000000004
 40
5
  0
CIRCLE
  5
215
100
AcDbEntity
  8
0
  6
ByLayer
 62
  256
370
   -1
100
AcDbCircle
 10
173.6602540378444
 20
-50.00000000000004
 40
5
  0
CIRCLE
  5
216
100
AcDbEntity
  8
0
  6
ByLayer
 62
  256
370
   -1
100
AcDbCircle
 10
173.6602540378444
 20
-40.00000000000004
 40
5
  0
CIRCLE
  5
217
100
AcDbEntity
  8
0
  6
ByLayer
 62
  256
370
   -1
100
AcDbCircle
 10
182.3205080756888
 20
-65.00000000000004
 40
5
  0
CIRCLE
  5
218
100
AcDbEntity
  8
0
  6
ByLayer
 62
  256
370
   -1
100
AcDbCircle
 10
182.3205080756888
 20
-55.00000000000004
 40
5
  0
CIRCLE
  5
219
100
AcDbEntity
  8
0
  6
ByLayer
 62
  256
370
   -1
100
AcDbCircle
 10
182.3205080756888
 20
-45.00000000000004
 40
5
  0
CIRCLE
  5
21A
100
AcDbEntity
  8
0
  6
ByLayer
 62
  256
370
   -1
100
AcDbCircle
 10
103.4641016151378
 20
7.071067811865477
 40
1
  0
CIRCLE
  5
21B
100
AcDbEntity
  8
0
  6
ByLayer
 62
  256
370
   -1
100
AcDbCircle
 10
103.4641016151378
 20
5.071067811865478
 40
1
  0
CIRCLE
  5
21C
100
AcDbEntity
  8
0
  6
ByLayer
 62
  256
370
   -1
100
AcDbCircle
 10
103.4641016151378
 20
3.071067811865479
 40
1
  0
CIRCLE
  5
21D
100
AcDbEntity
  8
0
  6
ByLayer
 62
  256
370
   -1
100
AcDbCircle
 10
103.4641016151378
 20
1.07106781186548
 40
1
  0
CIRCLE
  5
21E
100
AcDbEntity
  8
0
  6
ByLayer
 62
  256
370
   -1
100
AcDbCircle
 10
103.4641016151378
 20
-0.9289321881345192
 40
1
  0
CIRCLE
  5
21F
100
AcDbEntity
  8
0
  6
ByLayer
 62
  256
370
   -1
100
AcDbCircle
 10
103.4641016151378
 20
-2.928932188134518
 40
1
  0
CIRCLE
  5
220
100
AcDbEntity
  8
0
  6
ByLayer
 62
  256
370
   -1
100
AcDbCircle
 10
103.4641016151378
 20
13.07106781186547
 40
1
  0
CIRCLE
  5
221
100
AcDbEntity
  8
0
  6
ByLayer
 62
  256
370
   -1
100
AcDbCircle
 10
103.4641016151378
 20
11.07106781186547
 40
1
  0
CIRCLE
  5
222
100
AcDbEntity
  8
0
  6
ByLayer
 62
  256
370
   -1
100
AcDbCircle
 10
103.4641016151378
 20
9.071067811865476
 40
1
  0
CIRCLE
  5
223
100
AcDbEntity
  8
0
  6
ByLayer
 62
  256
370
   -1
100
AcDbCircle
 10
103.4641016151378
 20
17.07106781186547
 40
1
  0
CIRCLE
  5
224
100
AcDbEntity
  8
0
  6
ByLayer
 62
  256
370
   -1
100
AcDbCircle
 10
103.4641016151378
 20
15.07106781186547
 40
1
  0
CIRCLE
  5
225
100
AcDbEntity
  8
0
  6
ByLayer
 62
  256
370
   -1
100
AcDbCircle
 10
101.7320508075689
 20
8.071067811865476
 40
1
  0
CIRCLE
  5
226
100
AcDbEntity
  8
0
  6
ByLayer
 62
  256
370
   -1
100
AcDbCircle
 10
101.7320508075689
 20
6.071067811865477
 40
1
  0
CIRCLE
  5
227
100
AcDbEntity
  8
0
  6
ByLayer
 62
  256
370
   -1
100
AcDbCircle
 10
101.7320508075689
 20
4.071067811865478
 40
1
  0
CIRCLE
  5
228
100
AcDbEntity
  8
0
  6
ByLayer
 62
  256
370
   -1
100
AcDbCircle
 10
101.7320508075689
 20
2.071067811865478
 40
1
  0
CIRCLE
  5
229
100
AcDbEntity
  8
0
  6
ByLayer
 62
  256
370
   -1
100
AcDbCircle
 10
101.7320508075689
 20
0.07106781186547906
 40
1
  0
CIRCLE
  5
22A
100
AcDbEntity
  8
0
  6
ByLayer
 62
  256
370
   -1
100
AcDbCircle
 10
101.7320508075689
 20
-1.92893218813452
 40
1
  0
CIRCLE
  5
22B
100
AcDbEntity
  8
0
  6
ByLayer
 62
  256
370
   -1
100
AcDbCircle
 10
101.7320508075689
 20
14.07106781186548
 40
1
  0
CIRCLE
  5
22C
100
AcDbEntity
  8
0
  6
ByLayer
 62
  256
370
   -1
100
AcDbCircle
 10
101.7320508075689
 20
12.07106781186548
 40
1
  0
CIRCLE
  5
22D
100
AcDbEntity
  8
0
  6
ByLayer
 62
  256
370
   -1
100
AcDbCircle
 10
101.7320508075689
 20
10.07106781186548
 40
1
  0
CIRCLE
  5
22E
100
AcDbEntity
  8
0
  6
ByLayer
 62
  256
370
   -1
100
AcDbCircle
 10
101.7320508075689
 20
16.07106781186548
 40
1
  0
CIRCLE
  5
22F
100
AcDbEntity
  8
0
  6
ByLayer
 62
  256
370
   -1
100
AcDbCircle
 10
106.9282032302755
 20
7.071067811865478
 40
1
  0
CIRCLE
  5
230
100
AcDbEntity
  8
0
  6
ByLayer
 62
  256
370
   -1
100
AcDbCircle
 10
106.9282032302755
 20
5.071067811865479
 40
1
  0
CIRCLE
  5
231
100
AcDbEntity
  8
0
  6
ByLayer
 62
  256
370
   -1
100
AcDbCircle
 10
106.9282032302755
 20
3.07106781186548
 40
1
  0
CIRCLE
  5
232
100
AcDbEntity
  8
0
  6
ByLayer
 62
  256
370
   -1
100
AcDbCircle
 10
106.9282032302755
 20
1.071067811865481
 40
1
  0
CIRCLE
  5
233
100
AcDbEntity
  8
0
  6
ByLayer
 62
  256
370
   -1
100
AcDbCircle
 10
106.9282032302755
 20
-0.9289321881345183
 40
1
  0
CIRCLE
  5
234
100
AcDbEntity
  8
0
  6
ByLayer
 62
  256
370
   -1
100
AcDbCircle
 10
106.9282032302755
 20
13.07106781186547
 40
1
  0
CIRCLE
  5
235
100
AcDbEntity
  8
0
  6
ByLayer
 62
  256
370
   -1
100
AcDbCircle
 10
106.9282032302755
 20
11.07106781186547
 40
1
  0
CIRCLE
  5
236
100
AcDbEntity
  8
0
  6
ByLayer
 62
  256
370
   -1
100
AcDbCircle
 10
106.9282032302755
 20
9.071067811865477
 40
1
  0
CIRCLE
  5
237
100
AcDbEntity
  8
0
  6
ByLayer
 62
  256
370
   -1
100
AcDbCircle
 10
106.9282032302755
 20
15.07106781186547
 40
1
  0
CIRCLE
  5
238
100
AcDbEntity
  8
0
  6
ByLayer
 62
  256
370
   -1
100
AcDbCircle
 10
105.1961524227066
 20
8.071067811865477
 40
1
  0
CIRCLE
  5
239
100
AcDbEntity
  8
0
  6
ByLayer
 62
  256
370
   -1
100
AcDbCircle
 10
105.1961524227066
 20
6.071067811865478
 40
1
  0
CIRCLE
  5
23A
100
AcDbEntity
  8
0
  6
ByLayer
 62
  256
370
   -1
100
AcDbCircle
 10
105.1961524227066
 20
4.071067811865479
 40
1
  0
CIRCLE
  5
23B
100
AcDbEntity
  8
0
  6
ByLayer
 62
  256
370
   -1
100
AcDbCircle
 10
105.1961524227066
 20
2.071067811865479
 40
1
  0
CIRCLE
  5
23C
100
AcDbEntity
  8
0
  6
ByLayer
 62
  256
370
   -1
100
AcDbCircle
 10
105.1961524227066
 20
0.07106781186547995
 40
1
  0
CIRCLE
  5
23D
100
AcDbEntity
  8
0
  6
ByLayer
 62
  256
370
   -1
100
AcDbCircle
 10
105.1961524227066
 20
-1.928932188134519
 40
1
  0
CIRCLE
  5
23E
100
AcDbEntity
  8
0
  6
ByLayer
 62
  256
370
   -1
100
AcDbCircle
 10
105.1961524227066
 20
14.07106781186548
 40
1
  0
CIRCLE
  5
23F
100
AcDbEntity
  8
0
  6
ByLayer
 62
  256
370
   -1
100
AcDbCircle
 10
105.1961524227066
 20
12.07106781186548
 40
1
  0
CIRCLE
  5
240
100
AcDbEntity
  8
0
  6
ByLayer
 62
  256
370
   -1
100
AcDbCircle
 10
105.1961524227066
 20
10.07106781186548
 40
1
  0
CIRCLE
  5
241
100
AcDbEntity
  8
0
  6
ByLayer
 62
  256
370
   -1
100
AcDbCircle
 10
105.1961524227066
 20
16.07106781186548
 40
1
  0
CIRCLE
  5
242
100
AcDbEntity
  8
0
  6
ByLayer
 62
  256
370
   -1
100
AcDbCircle
 10
110.3923048454133
 20
7.071067811865479
 40
1
  0
CIRCLE
  5
243
100
AcDbEntity
  8
0
  6
ByLayer
 62
  256
370
   -1
100
AcDbCircle
 10
110.3923048454133
 20
5.07106781186548
 40
1
  0
CIRCLE
  5
244
100
AcDbEntity
  8
0
  6
ByLayer
 62
  256
370
   -1
100
AcDbCircle
 10
110.3923048454133
 20
9.071067811865479
 40
1
  0
CIRCLE
  5
245
100
AcDbEntity
  8
0
  6
ByLayer
 62
  256
370
   -1
100
AcDbCircle
 10
108.6602540378444
 20
8.071067811865479
 40
1
  0
CIRCLE
  5
246
100
AcDbEntity
  8
0
  6
ByLayer
 62
  256
370
   -1
100
AcDbCircle
 10
108.6602540378444
 20
6.071067811865479
 40
1
  0
CIRCLE
  5
247
100
AcDbEntity
  8
0
  6
ByLayer
 62
  256
370
   -1
100
AcDbCircle
 10
108.6602540378444
 20
4.07106781186548
 40
1
  0
CIRCLE
  5
248
100
AcDbEntity
  8
0
  6
ByLayer
 62
  256
370
   -1
100
AcDbCircle
 10
108.6602540378444
 20
2.07106781186548
 40
1
  0
CIRCLE
  5
249
100
AcDbEntity
  8
0
  6
ByLayer
 62
  256
370
   -1
100
AcDbCircle
 10
108.6602540378444
 20
12.07106781186548
 40
1
  0
CIRCLE
  5
24A
100
AcDbEntity
  8
0
  6
ByLayer
 62
  256
370
   -1
100
AcDbCircle
 10
108.6602540378444
 20
10.07106781186548
 40
1
  0
CIRCLE
  5
24B
100
AcDbEntity
  8
0
  6
ByLayer
 62
  256
370
   -1
100
AcDbCircle
 10
96.53589838486224
 20
7.071067811865476
 40
1
  0
CIRCLE
  5
24C
100
AcDbEntity
  8
0
  6
ByLayer
 62
  256
370
   -1
100
AcDbCircle
 10
96.53589838486224
 20
5.071067811865477
 40
1
  0
CIRCLE
  5
24D
100
AcDbEntity
  8
0
  6
ByLayer
 62
  256
370
   -1
100
AcDbCircle
 10
96.53589838486224
 20
3.071067811865478
 40
1
  0
CIRCLE
  5
24E
100
AcDbEntity
  8
0
  6
ByLayer
 62
  256
370
   -1
100
AcDbCircle
 10
96.53589838486224
 20
1.071067811865479
 40
1
  0
CIRCLE
  5
24F
100
AcDbEntity
  8
0
  6
ByLayer
 62
  256
370
   -1
100
AcDbCircle
 10
96.53589838486224
 20
-0.9289321881345218
 40
1
  0
CIRCLE
  5
250
100
AcDbEntity
  8
0
  6
ByLayer
 62
  256
370
   -1
100
AcDbCircle
 10
96.53589838486224
 20
-2.928932188134523
 40
1
  0
CIRCLE
  5
251
100
AcDbEntity
  8
0
  6
ByLayer
 62
  256
370
   -1
100
AcDbCircle
 10
96.53589838486224
 20
13.07106781186547
 40
1
  0
CIRCLE
  5
252
100
AcDbEntity
  8
0
  6
ByLayer
 62
  256
370
   -1
100
AcDbCircle
 10
96.53589838486224
 20
11.07106781186547
 40
1
  0
CIRCLE
  5
253
100
AcDbEntity
  8
0
  6
ByLayer
 62
  256
370
   -1
100
AcDbCircle
 10
96.53589838486224
 20
9.071067811865476
 40
1
  0
CIRCLE
  5
254
100
AcDbEntity
  8
0
  6
ByLayer
 62
  256
370
   -1
100
AcDbCircle
 10
96.53589838486224
 20
17.07106781186547
 40
1
  0
CIRCLE
  5
255
100
AcDbEntity
  8
0
  6
ByLayer
 62
  256
370
   -1
100
AcDbCircle
 10
96.53589838486224
 20
15.07106781186547
 40
1
  0
CIRCLE
  5
256
100
AcDbEntity
  8
0
  6
ByLayer
 62
  256
370
   -1
100
AcDbCircle
 10
93.07179676972447
 20
7.071067811865477
 40
1
  0
CIRCLE
  5
257
100
AcDbEntity
  8
0
  6
ByLayer
 62
  256
370
   -1
100
AcDbCircle
 10
93.07179676972447
 20
5.071067811865478
 40
1
  0
CIRCLE
  5
258
100
AcDbEntity
  8
0
  6
ByLayer
 62
  256
370
   -1
100
AcDbCircle
 10
93.07179676972447
 20
3.071067811865479
 40
1
  0
CIRCLE
  5
259
100
AcDbEntity
  8
0
  6
ByLayer
 62
  256
370
   -1
100
AcDbCircle
 10
93.07179676972447
 20
1.07106781186548
 40
1
  0
CIRCLE
  5
25A
100
AcDbEntity
  8
0
  6
ByLayer
 62
  256
370
   -1
100
AcDbCircle
 10
93.07179676972447
 20
-0.9289321881345156
 40
1
  0
CIRCLE
  5
25B
100
AcDbEntity
  8
0
  6
ByLayer
 62
  256
370
   -1
100
AcDbCircle
 10
93.07179676972447
 20
13.07106781186547
 40
1
  0
CIRCLE
  5
25C
100
AcDbEntity
  8
0
  6
ByLayer
 62
  256
370
   -1
100
AcDbCircle
 10
93.07179676972447
 20
11.07106781186547
 40
1
  0
CIRCLE
  5
25D
100
AcDbEntity
  8
0
  6
ByLayer
 62
  256
370
   -1
100
AcDbCircle
 10
93.07179676972447
 20
9.071067811865476
 40
1
  0
CIRCLE
  5
25E
100
AcDbEntity
  8
0
  6
ByLayer
 62
  256
370
   -1
100
AcDbCircle
 10
93.07179676972447
 20
15.07106781186547
 40
1
  0
CIRCLE
  5
25F
100
AcDbEntity
  8
0
  6
ByLayer
 62
  256
370
   -1
100
AcDbCircle
 10
94.80384757729335
 20
8.071067811865476
 40
1
  0
CIRCLE
  5
260
100
AcDbEntity
  8
0
  6
ByLayer
 62
  256
370
   -1
100
AcDbCircle
 10
94.80384757729335
 20
6.071067811865477
 40
1
  0
CIRCLE
  5
261
100
AcDbEntity
  8
0
  6
ByLayer
 62
  256
370
   -1
100
AcDbCircle
 10
94.80384757729335
 20
4.071067811865478
 40
1
  0
CIRCLE
  5
262
100
AcDbEntity
  8
0
  6
ByLayer
 62
  256
370
   -1
100
AcDbCircle
 10
94.80384757729335
 20
2.071067811865478
 40
1
  0
CIRCLE
  5
263
100
AcDbEntity
  8
0
  6
ByLayer
 62
  256
370
   -1
100
AcDbCircle
 10
94.80384757729335
 20
0.07106781186547906
 40
1
  0
CIRCLE
  5
264
100
AcDbEntity
  8
0
  6
ByLayer
 62
  256
370
   -1
100
AcDbCircle
 10
94.80384757729335
 20
-1.928932188134518
 40
1
  0
CIRCLE
  5
265
100
AcDbEntity
  8
0
  6
ByLayer
 62
  256
370
   -1
100
AcDbCircle
 10
94.80384757729335
 20
14.07106781186548
 40
1
  0
CIRCLE
  5
266
100
AcDbEntity
  8
0
  6
ByLayer
 62
  256
370
   -1
100
AcDbCircle
 10
94.80384757729335
 20
12.07106781186548
 40
1
  0
CIRCLE
  5
267
100
AcDbEntity
  8
0
  6
ByLayer
 62
  256
370
   -1
100
AcDbCircle
 10
94.80384757729335
 20
10.07106781186548
 40
1
  0
CIRCLE
  5
268
100
AcDbEntity
  8
0
  6
ByLayer
 62
  256
370
   -1
100
AcDbCircle
 10
94.80384757729335
 20
16.07106781186548
 40
1
  0
CIRCLE
  5
269
100
AcDbEntity
  8
0
  6
ByLayer
 62
  256
370
   -1
100
AcDbCircle
 10
89.60769515458671
 20
7.071067811865478
 40
1
  0
CIRCLE
  5
26A
100
AcDbEntity
  8
0
  6
ByLayer
 62
  256
370
   -1
100
AcDbCircle
 10
89.60769515458671
 20
5.071067811865479
 40
1
  0
CIRCLE
  5
26B
100
AcDbEntity
  8
0
  6
ByLayer
 62
  256
370
   -1
100
AcDbCircle
 10
89.60769515458671
 20
9.071067811865477
 40
1
  0
CIRCLE
  5
26C
100
AcDbEntity
  8
0
  6
ByLayer
 62
  256
370
   -1
100
AcDbCircle
 10
91.33974596215559
 20
8.071067811865477
 40
1
  0
CIRCLE
  5
26D
100
AcDbEntity
  8
0
  6
ByLayer
 62
  256
370
   -1
100
AcDbCircle
 10
91.33974596215559
 20
6.071067811865478
 40
1
  0
CIRCLE
  5
26E
100
AcDbEntity
  8
0
  6
ByLayer
 62
  256
370
   -1
100
AcDbCircle
 10
91.33974596215559
 20
4.071067811865479
 40
1
  0
CIRCLE
  5
26F
100
AcDbEntity
  8
0
  6
ByLayer
 62
  256
370
   -1
100
AcDbCircle
 10
91.33974596215559
 20
2.071067811865479
 40
1
  0
CIRCLE
  5
270
100
AcDbEntity
  8
0
  6
ByLayer
 62
  256
370
   -1
100
AcDbCircle
 10
91.33974596215559
 20
12.07106781186548
 40
1
  0
CIRCLE
  5
271
100
AcDbEntity
  8
0
  6
ByLayer
 62
  256
370
   -1
100
AcDbCircle
 10
91.33974596215559
 20
10.07106781186548
 40
1
  0
MTEXT
  5
272
100
AcDbEntity
  8
0
  6
ByLayer
 62
  256
370
   -1
100
AcDbMText
 10
77.94228634059947
 20
-95
 30
0
 40
5
 41
130.6944438888905
 71
    5
 72
    1
  1
Photographic/Video Film (Hex barcode)
  7
STANDARD
210
0
220
0
230
1
 50
0
 73
    2
 44
1
  0
ENDSEC
  0
SECTION
  2
OBJECTS
  0
DICTIONARY
  5
C
330
0
100
AcDbDictionary
281
    1
  3
ACAD_GROUP
350
D
  0
DICTIONARY
  5
D
330
C
100
AcDbDictionary
281
    1
  0
ENDSEC
  0
EOF
