999
dxfrw 0.6.3
  0
SECTION
  2
HEADER
  9
$ACADVER
  1
AC1021
  9
$DWGCODEPAGE
  3
ANSI_1252
  9
$INSBASE
 10
0
 20
0
 30
0
  9
$EXTMIN
 10
-0.5
 20
-0.3943375672974065
 30
0
  9
$EXTMAX
 10
2.700000000000001
 20
1.633012701892219
 30
0
  9
$LIMMIN
 10
0
 20
0
  9
$LIMMAX
 10
420
 20
297
  9
$ORTHOMODE
 70
    0
  9
$REGENMODE
 70
    1
  9
$FILLMODE
 70
    1
  9
$QTEXTMODE
 70
    0
  9
$MIRRTEXT
 70
    0
  9
$LTSCALE
 40
1
  9
$ATTMODE
 70
    0
  9
$TEXTSIZE
 40
2.5
  9
$TRACEWID
 40
15.68
  9
$TEXTSTYLE
  7
STANDARD
  9
$CLAYER
  8
Die_body
  9
$CELTYPE
  6
BYLAYER
  9
$CECOLOR
 62
  256
  9
$CELTSCALE
 40
1
  9
$DISPSILH
 70
    0
  9
$DIMSCALE
 40
2.5
  9
$DIMASZ
 40
2.5
  9
$DIMEXO
 40
0.625
  9
$DIMDLI
 40
3.75
  9
$DIMRND
 40
0
  9
$DIMDLE
 40
0
  9
$DIMEXE
 40
1.25
  9
$DIMTP
 40
0
  9
$DIMTM
 40
0
  9
$DIMTXT
 40
2.5
  9
$DIMCEN
 40
2.5
  9
$DIMTSZ
 40
0
  9
$DIMTOL
 70
    0
  9
$DIMLIM
 70
    0
  9
$DIMTIH
 70
    0
  9
$DIMTOH
 70
    0
  9
$DIMSE1
 70
    0
  9
$DIMSE2
 70
    0
  9
$DIMTAD
 70
    1
  9
$DIMZIN
 70
    8
  9
$DIMBLK
  1

  9
$DIMASO
 70
    1
  9
$DIMSHO
 70
    1
  9
$DIMPOST
  1

  9
$DIMAPOST
  1

  9
$DIMALT
 70
    0
  9
$DIMALTD
 70
    3
  9
$DIMALTF
 40
0.03937
  9
$DIMLFAC
 40
1
  9
$DIMTOFL
 70
    1
  9
$DIMTVP
 40
0
  9
$DIMTIX
 70
    0
  9
$DIMSOXD
 70
    0
  9
$DIMSAH
 70
    0
  9
$DIMBLK1
  1

  9
$DIMBLK2
  1

  9
$DIMSTYLE
  2
STANDARD
  9
$DIMCLRD
 70
    0
  9
$DIMCLRE
 70
    0
  9
$DIMCLRT
 70
    0
  9
$DIMTFAC
 40
1
  9
$DIMGAP
 40
0.625
  9
$DIMJUST
 70
    0
  9
$DIMSD1
 70
    0
  9
$DIMSD2
 70
    0
  9
$DIMTOLJ
 70
    0
  9
$DIMTZIN
 70
    8
  9
$DIMALTZ
 70
    0
  9
$DIMALTTZ
 70
    0
  9
$DIMUPT
 70
    0
  9
$DIMDEC
 70
    2
  9
$DIMTDEC
 70
    2
  9
$DIMALTU
 70
    2
  9
$DIMALTTD
 70
    3
  9
$DIMTXSTY
  7
STANDARD
  9
$DIMAUNIT
 70
    0
  9
$DIMADEC
 70
    0
  9
$DIMALTRND
 40
0
  9
$DIMAZIN
 70
    0
  9
$DIMDSEP
 70
   44
  9
$DIMATFIT
 70
    3
  9
$DIMFRAC
 70
    0
  9
$DIMLDRBLK
  1
STANDARD
  9
$DIMLUNIT
 70
    2
  9
$DIMLWD
 70
   -2
  9
$DIMLWE
 70
   -2
  9
$DIMTMOVE
 70
    0
  9
$DIMFXL
 40
1
  9
$DIMFXLON
 70
    0
  9
$DIMJOGANG
 40
0.7854
  9
$DIMTFILL
 70
    0
  9
$DIMTFILLCLR
 70
    0
  9
$DIMARCSYM
 70
    0
  9
$DIMLTYPE
  6

  9
$DIMLTEX1
  6

  9
$DIMLTEX2
  6

  9
$LUNITS
 70
    2
  9
$LUPREC
 70
    4
  9
$SKETCHINC
 40
1
  9
$FILLETRAD
 40
0
  9
$AUNITS
 70
    0
  9
$AUPREC
 70
    2
  9
$MENU
  1
.
  9
$ELEVATION
 40
0
  9
$PELEVATION
 40
0
  9
$THICKNESS
 40
0
  9
$LIMCHECK
 70
    0
  9
$CHAMFERA
 40
0
  9
$CHAMFERB
 40
0
  9
$CHAMFERC
 40
0
  9
$CHAMFERD
 40
0
  9
$SKPOLY
 70
    0
  9
$USRTIMER
 70
    1
  9
$ANGBASE
 50
0
  9
$ANGDIR
 70
    0
  9
$PDMODE
 70
   34
  9
$PDSIZE
 40
0
  9
$PLINEWID
 40
0
  9
$SPLFRAME
 70
    0
  9
$SPLINETYPE
 70
    2
  9
$SPLINESEGS
 70
    8
  9
$HANDSEED
  5
20000
  9
$SURFTAB1
 70
    6
  9
$SURFTAB2
 70
    6
  9
$SURFTYPE
 70
    6
  9
$SURFU
 70
    6
  9
$SURFV
 70
    6
  9
$UCSBASE
  2

  9
$UCSNAME
  2

  9
$UCSORG
 10
0
 20
0
 30
0
  9
$UCSXDIR
 10
1
 20
0
 30
0
  9
$UCSYDIR
 10
0
 20
1
 30
0
  9
$UCSORTHOREF
  2

  9
$UCSORTHOVIEW
 70
    0
  9
$UCSORGTOP
 10
0
 20
0
 30
0
  9
$UCSORGBOTTOM
 10
0
 20
0
 30
0
  9
$UCSORGLEFT
 10
0
 20
0
 30
0
  9
$UCSORGRIGHT
 10
0
 20
0
 30
0
  9
$UCSORGFRONT
 10
0
 20
0
 30
0
  9
$UCSORGBACK
 10
0
 20
0
 30
0
  9
$PUCSBASE
  2

  9
$PUCSNAME
  2

  9
$PUCSORG
 10
0
 20
0
 30
0
  9
$PUCSXDIR
 10
1
 20
0
 30
0
  9
$PUCSYDIR
 10
0
 20
1
 30
0
  9
$PUCSORTHOREF
  2

  9
$PUCSORTHOVIEW
 70
    0
  9
$PUCSORGTOP
 10
0
 20
0
 30
0
  9
$PUCSORGBOTTOM
 10
0
 20
0
 30
0
  9
$PUCSORGLEFT
 10
0
 20
0
 30
0
  9
$PUCSORGRIGHT
 10
0
 20
0
 30
0
  9
$PUCSORGFRONT
 10
0
 20
0
 30
0
  9
$PUCSORGBACK
 10
0
 20
0
 30
0
  9
$USERI1
 70
    0
  9
$USERI2
 70
    0
  9
$USERI3
 70
    0
  9
$USERI4
 70
    0
  9
$USERI5
 70
    0
  9
$USERR1
 40
0
  9
$USERR2
 40
0
  9
$USERR3
 40
0
  9
$USERR4
 40
0
  9
$USERR5
 40
0
  9
$WORLDVIEW
 70
    1
  9
$SHADEDGE
 70
    3
  9
$SHADEDIF
 70
   70
  9
$TILEMODE
 70
    1
  9
$MAXACTVP
 70
   64
  9
$PINSBASE
 10
0
 20
0
 30
0
  9
$PLIMCHECK
 70
    0
  9
$PEXTMIN
 10
0
 20
0
 30
0
  9
$PEXTMAX
 10
0
 20
0
 30
0
  9
$SNAPSTYLE
 70
    0
  9
$PLIMMIN
 10
0
 20
0
  9
$PLIMMAX
 10
210
 20
297
  9
$UNITMODE
 70
    0
  9
$VISRETAIN
 70
    1
  9
$PLINEGEN
 70
    0
  9
$PSLTSCALE
 70
    1
  9
$TREEDEPTH
 70
 3020
  9
$CMLSTYLE
  2
Standard
  9
$CMLJUST
 70
    0
  9
$CMLSCALE
 40
20
  9
$PROXYGRAPHICS
 70
    1
  9
$MEASUREMENT
 70
    1
  9
$CELWEIGHT
370
   -1
  9
$ENDCAPS
280
    0
  9
$JOINSTYLE
280
    0
  9
$LWDISPLAY
290
    0
  9
$INSUNITS
 70
    4
  9
$HYPERLINKBASE
  1

  9
$STYLESHEET
  1

  9
$XEDIT
290
    1
  9
$CEPSNTYPE
380
    0
  9
$PSTYLEMODE
290
    1
  9
$EXTNAMES
290
    1
  9
$PSVPSCALE
 40
1
  9
$OLESTARTUP
290
    0
  9
$SORTENTS
280
  127
  9
$INDEXCTL
280
    0
  9
$HIDETEXT
280
    1
  9
$XCLIPFRAME
290
    0
  9
$HALOGAP
280
    0
  9
$OBSCOLOR
 70
  257
  9
$OBSLTYPE
280
    0
  9
$INTERSECTIONDISPLAY
280
    0
  9
$INTERSECTIONCOLOR
 70
  257
  9
$DIMASSOC
280
    1
  9
$PROJECTNAME
  1

  9
$CAMERADISPLAY
290
    0
  9
$LENSLENGTH
 40
50
  9
$CAMERAHEIGHT
 40
0
  9
$STEPSPERSEC
 40
2
  9
$STEPSIZE
 40
50
  9
$3DDWFPREC
 40
2
  9
$PSOLWIDTH
 40
5
  9
$PSOLHEIGHT
 40
80
  9
$LOFTANG1
 40
1.570796326794897
  9
$LOFTANG2
 40
1.570796326794897
  9
$LOFTMAG1
 40
0
  9
$LOFTMAG2
 40
0
  9
$LOFTPARAM
 70
    7
  9
$LOFTNORMALS
280
    1
  9
$LATITUDE
 40
1
  9
$LONGITUDE
 40
1
  9
$NORTHDIRECTION
 40
0
  9
$TIMEZONE
 70
-8000
  9
$LIGHTGLYPHDISPLAY
280
    1
  9
$TILEMODELIGHTSYNCH
280
    1
  9
$SOLIDHIST
280
    1
  9
$SHOWHIST
280
    1
  9
$DWFFRAME
280
    2
  9
$DGNFRAME
280
    0
  9
$REALWORLDSCALE
290
    1
  9
$INTERFERECOLOR
 62
    1
  9
$CSHADOW
280
    0
  9
$SHADOWPLANELOCATION
 40
0
  0
ENDSEC
  0
SECTION
  2
CLASSES
  0
ENDSEC
  0
SECTION
  2
TABLES
  0
TABLE
  2
VPORT
  5
8
330
0
100
AcDbSymbolTable
 70
    1
  0
VPORT
  5
31
330
2
100
AcDbSymbolTableRecord
100
AcDbViewportTableRecord
  2
*ACTIVE
 70
    0
 10
0
 20
0
 11
1
 21
1
 12
1.895791765864508
 22
0.8348905018709357
 13
0
 23
0
 14
10
 24
10
 15
10
 25
10
 16
0
 26
0
 36
1
 17
0
 27
0
 37
0
 40
2.094816168330711
 41
2.568438003220612
 42
50
 43
0
 44
0
 50
0
 51
0
 71
    0
 72
  100
 73
    1
 74
    3
 75
    0
 76
    1
 77
    0
 78
    0
281
    0
 65
    1
110
0
120
0
130
0
111
1
121
0
131
0
112
0
122
1
132
0
 79
    0
146
0
348
10020
 60
    7
 61
    5
292
1
282
    1
141
0
142
0
 63
  250
421
3358443
  0
ENDTAB
  0
TABLE
  2
LTYPE
  5
5
330
0
100
AcDbSymbolTable
 70
    4
  0
LTYPE
  5
14
330
5
100
AcDbSymbolTableRecord
100
AcDbLinetypeTableRecord
  2
ByBlock
 70
    0
  3

 72
   65
 73
    0
 40
0
  0
LTYPE
  5
15
330
5
100
AcDbSymbolTableRecord
100
AcDbLinetypeTableRecord
  2
ByLayer
 70
    0
  3

 72
   65
 73
    0
 40
0
  0
LTYPE
  5
16
330
5
100
AcDbSymbolTableRecord
100
AcDbLinetypeTableRecord
  2
Continuous
 70
    0
  3
Solid line
 72
   65
 73
    0
 40
0
  0
LTYPE
  5
32
330
5
100
AcDbSymbolTableRecord
100
AcDbLinetypeTableRecord
  2
DOT
 70
    0
  3
Dot . . . . . . . . . . . . . . . . . . . . . .
 72
   65
 73
    2
 40
6.35
 49
0
 74
    0
 49
-6.35
 74
    0
  0
LTYPE
  5
33
330
5
100
AcDbSymbolTableRecord
100
AcDbLinetypeTableRecord
  2
DOTTINY
 70
    0
  3
Dot (.15x) .....................................
 72
   65
 73
    2
 40
0.9525
 49
0
 74
    0
 49
-0.9525
 74
    0
  0
LTYPE
  5
34
330
5
100
AcDbSymbolTableRecord
100
AcDbLinetypeTableRecord
  2
DOT2
 70
    0
  3
Dot (.5x) .....................................
 72
   65
 73
    2
 40
3.175
 49
0
 74
    0
 49
-3.175
 74
    0
  0
LTYPE
  5
35
330
5
100
AcDbSymbolTableRecord
100
AcDbLinetypeTableRecord
  2
DOTX2
 70
    0
  3
Dot (2x) .  .  .  .  .  .  .  .  .  .  .  .  .
 72
   65
 73
    2
 40
12.7
 49
0
 74
    0
 49
-12.7
 74
    0
  0
LTYPE
  5
36
330
5
100
AcDbSymbolTableRecord
100
AcDbLinetypeTableRecord
  2
DASHED
 70
    0
  3
Dashed _ _ _ _ _ _ _ _ _ _ _ _ _ _ _ _ _
 72
   65
 73
    2
 40
19.05
 49
12.7
 74
    0
 49
-6.35
 74
    0
  0
LTYPE
  5
37
330
5
100
AcDbSymbolTableRecord
100
AcDbLinetypeTableRecord
  2
DASHEDTINY
 70
    0
  3
Dashed (.15x) _ _ _ _ _ _ _ _ _ _ _ _ _ _ _ _ _
 72
   65
 73
    2
 40
2.8575
 49
1.905
 74
    0
 49
-0.9525
 74
    0
  0
LTYPE
  5
38
330
5
100
AcDbSymbolTableRecord
100
AcDbLinetypeTableRecord
  2
DASHED2
 70
    0
  3
Dashed (.5x) _ _ _ _ _ _ _ _ _ _ _ _ _ _ _ _ _
 72
   65
 73
    2
 40
9.524999999999999
 49
6.35
 74
    0
 49
-3.175
 74
    0
  0
LTYPE
  5
39
330
5
100
AcDbSymbolTableRecord
100
AcDbLinetypeTableRecord
  2
DASHEDX2
 70
    0
  3
Dashed (2x) ____  ____  ____  ____  ____  ___
 72
   65
 73
    2
 40
38.09999999999999
 49
25.4
 74
    0
 49
-12.7
 74
    0
  0
LTYPE
  5
3A
330
5
100
AcDbSymbolTableRecord
100
AcDbLinetypeTableRecord
  2
DASHDOT
 70
    0
  3
Dash dot __ . __ . __ . __ . __ . __ . __ . __
 72
   65
 73
    4
 40
25.4
 49
12.7
 74
    0
 49
-6.35
 74
    0
 49
0
 74
    0
 49
-6.35
 74
    0
  0
LTYPE
  5
3B
330
5
100
AcDbSymbolTableRecord
100
AcDbLinetypeTableRecord
  2
DASHDOTTINY
 70
    0
  3
Dash dot (.15x) _._._._._._._._._._._._._._._.
 72
   65
 73
    4
 40
3.81
 49
1.905
 74
    0
 49
-0.9525
 74
    0
 49
0
 74
    0
 49
-0.9525
 74
    0
  0
LTYPE
  5
3C
330
5
100
AcDbSymbolTableRecord
100
AcDbLinetypeTableRecord
  2
DASHDOT2
 70
    0
  3
Dash dot (.5x) _._._._._._._._._._._._._._._.
 72
   65
 73
    4
 40
12.7
 49
6.35
 74
    0
 49
-3.175
 74
    0
 49
0
 74
    0
 49
-3.175
 74
    0
  0
LTYPE
  5
3D
330
5
100
AcDbSymbolTableRecord
100
AcDbLinetypeTableRecord
  2
DASHDOTX2
 70
    0
  3
Dash dot (2x) ____  .  ____  .  ____  .  ___
 72
   65
 73
    4
 40
50.8
 49
25.4
 74
    0
 49
-12.7
 74
    0
 49
0
 74
    0
 49
-12.7
 74
    0
  0
LTYPE
  5
3E
330
5
100
AcDbSymbolTableRecord
100
AcDbLinetypeTableRecord
  2
DIVIDE
 70
    0
  3
Divide ____ . . ____ . . ____ . . ____ . . ____
 72
   65
 73
    6
 40
31.75
 49
12.7
 74
    0
 49
-6.35
 74
    0
 49
0
 74
    0
 49
-6.35
 74
    0
 49
0
 74
    0
 49
-6.35
 74
    0
  0
LTYPE
  5
3F
330
5
100
AcDbSymbolTableRecord
100
AcDbLinetypeTableRecord
  2
DIVIDETINY
 70
    0
  3
Divide (.15x) __..__..__..__..__..__..__..__.._
 72
   65
 73
    6
 40
4.7625
 49
1.905
 74
    0
 49
-0.9525
 74
    0
 49
0
 74
    0
 49
-0.9525
 74
    0
 49
0
 74
    0
 49
-0.9525
 74
    0
  0
LTYPE
  5
40
330
5
100
AcDbSymbolTableRecord
100
AcDbLinetypeTableRecord
  2
DIVIDE2
 70
    0
  3
Divide (.5x) __..__..__..__..__..__..__..__.._
 72
   65
 73
    6
 40
15.875
 49
6.35
 74
    0
 49
-3.175
 74
    0
 49
0
 74
    0
 49
-3.175
 74
    0
 49
0
 74
    0
 49
-3.175
 74
    0
  0
LTYPE
  5
41
330
5
100
AcDbSymbolTableRecord
100
AcDbLinetypeTableRecord
  2
DIVIDEX2
 70
    0
  3
Divide (2x) ________  .  .  ________  .  .  _
 72
   65
 73
    6
 40
63.5
 49
25.4
 74
    0
 49
-12.7
 74
    0
 49
0
 74
    0
 49
-12.7
 74
    0
 49
0
 74
    0
 49
-12.7
 74
    0
  0
LTYPE
  5
42
330
5
100
AcDbSymbolTableRecord
100
AcDbLinetypeTableRecord
  2
BORDER
 70
    0
  3
Border __ __ . __ __ . __ __ . __ __ . __ __ .
 72
   65
 73
    6
 40
44.45
 49
12.7
 74
    0
 49
-6.35
 74
    0
 49
12.7
 74
    0
 49
-6.35
 74
    0
 49
0
 74
    0
 49
-6.35
 74
    0
  0
LTYPE
  5
43
330
5
100
AcDbSymbolTableRecord
100
AcDbLinetypeTableRecord
  2
BORDERTINY
 70
    0
  3
Border (.15x) __.__.__.__.__.__.__.__.__.__.__.
 72
   65
 73
    6
 40
6.6675
 49
1.905
 74
    0
 49
-0.9525
 74
    0
 49
1.905
 74
    0
 49
-0.9525
 74
    0
 49
0
 74
    0
 49
-0.9525
 74
    0
  0
LTYPE
  5
44
330
5
100
AcDbSymbolTableRecord
100
AcDbLinetypeTableRecord
  2
BORDER2
 70
    0
  3
Border (.5x) __.__.__.__.__.__.__.__.__.__.__.
 72
   65
 73
    6
 40
22.225
 49
6.35
 74
    0
 49
-3.175
 74
    0
 49
6.35
 74
    0
 49
-3.175
 74
    0
 49
0
 74
    0
 49
-3.175
 74
    0
  0
LTYPE
  5
45
330
5
100
AcDbSymbolTableRecord
100
AcDbLinetypeTableRecord
  2
BORDERX2
 70
    0
  3
Border (2x) ____  ____  .  ____  ____  .  ___
 72
   65
 73
    6
 40
88.89999999999999
 49
25.4
 74
    0
 49
-12.7
 74
    0
 49
25.4
 74
    0
 49
-12.7
 74
    0
 49
0
 74
    0
 49
-12.7
 74
    0
  0
LTYPE
  5
46
330
5
100
AcDbSymbolTableRecord
100
AcDbLinetypeTableRecord
  2
CENTER
 70
    0
  3
Center ____ _ ____ _ ____ _ ____ _ ____ _ ____
 72
   65
 73
    4
 40
50.8
 49
31.75
 74
    0
 49
-6.35
 74
    0
 49
6.35
 74
    0
 49
-6.35
 74
    0
  0
LTYPE
  5
47
330
5
100
AcDbSymbolTableRecord
100
AcDbLinetypeTableRecord
  2
CENTERTINY
 70
    0
  3
Center (.15x) ___ _ ___ _ ___ _ ___ _ ___ _ ___
 72
   65
 73
    4
 40
7.619999999999999
 49
4.7625
 74
    0
 49
-0.9525
 74
    0
 49
0.9525
 74
    0
 49
-0.9525
 74
    0
  0
LTYPE
  5
48
330
5
100
AcDbSymbolTableRecord
100
AcDbLinetypeTableRecord
  2
CENTER2
 70
    0
  3
Center (.5x) ___ _ ___ _ ___ _ ___ _ ___ _ ___
 72
   65
 73
    4
 40
28.575
 49
19.05
 74
    0
 49
-3.175
 74
    0
 49
3.175
 74
    0
 49
-3.175
 74
    0
  0
LTYPE
  5
49
330
5
100
AcDbSymbolTableRecord
100
AcDbLinetypeTableRecord
  2
CENTERX2
 70
    0
  3
Center (2x) ________  __  ________  __  _____
 72
   65
 73
    4
 40
101.6
 49
63.5
 74
    0
 49
-12.7
 74
    0
 49
12.7
 74
    0
 49
-12.7
 74
    0
  0
ENDTAB
  0
TABLE
  2
LAYER
  5
2
330
0
100
AcDbSymbolTable
 70
    1
  0
LAYER
  5
10
330
2
100
AcDbSymbolTableRecord
100
AcDbLayerTableRecord
  2
0
 70
    0
 62
    7
  6
CONTINUOUS
370
    0
390
F
  0
LAYER
  5
4A
330
2
100
AcDbSymbolTableRecord
100
AcDbLayerTableRecord
  2
Die_body
 70
    0
 62
    8
420
8355711
  6
CONTINUOUS
370
    0
390
F
  0
LAYER
  5
4B
330
2
100
AcDbSymbolTableRecord
100
AcDbLayerTableRecord
  2
Draw_template
 70
    0
 62
    6
  6
CONTINUOUS
370
    0
390
F
  0
LAYER
  5
4C
330
2
100
AcDbSymbolTableRecord
100
AcDbLayerTableRecord
  2
Four
 70
    0
 62
    2
  6
CONTINUOUS
370
    0
390
F
  0
LAYER
  5
4D
330
2
100
AcDbSymbolTableRecord
100
AcDbLayerTableRecord
  2
One
 70
    0
 62
    1
  6
CONTINUOUS
370
    0
390
F
  0
LAYER
  5
4E
330
2
100
AcDbSymbolTableRecord
100
AcDbLayerTableRecord
  2
Three
 70
    0
 62
    3
  6
CONTINUOUS
370
    0
390
F
  0
LAYER
  5
4F
330
2
100
AcDbSymbolTableRecord
100
AcDbLayerTableRecord
  2
Two
 70
    0
 62
    5
  6
CONTINUOUS
370
    0
390
F
  0
ENDTAB
  0
TABLE
  2
STYLE
  5
3
330
0
100
AcDbSymbolTable
 70
    3
  0
STYLE
  5
50
330
2
100
AcDbSymbolTableRecord
100
AcDbTextStyleTableRecord
  2
Standard
 70
    0
 40
0
 41
1
 50
0
 71
    0
 42
1
  3
txt
  4

  0
ENDTAB
  0
TABLE
  2
VIEW
  5
6
330
0
100
AcDbSymbolTable
 70
    0
  0
ENDTAB
  0
TABLE
  2
UCS
  5
7
330
0
100
AcDbSymbolTable
 70
    0
  0
ENDTAB
  0
TABLE
  2
APPID
  5
9
330
0
100
AcDbSymbolTable
 70
    1
  0
APPID
  5
12
330
9
100
AcDbSymbolTableRecord
100
AcDbRegAppTableRecord
  2
ACAD
 70
    0
  0
APPID
  5
51
330
9
100
AcDbSymbolTableRecord
100
AcDbRegAppTableRecord
  2
LibreCad
 70
    0
  0
ENDTAB
  0
TABLE
  2
DIMSTYLE
  5
A
330
0
100
AcDbSymbolTable
 70
    1
100
AcDbDimStyleTable
 71
    1
  0
DIMSTYLE
105
52
330
A
100
AcDbSymbolTableRecord
100
AcDbDimStyleTableRecord
  2
Standard
 70
    0
 40
1
 41
2.5
 42
0.625
 43
0.38
 44
1.25
 45
0
 46
0
 47
0
 48
0
 49
1
140
2.5
141
0.09
142
2.5
143
25.4
144
1
145
0
146
1
147
0.625
148
0
 71
    0
 72
    0
 73
    0
 74
    1
 75
    0
 76
    0
 77
    0
 78
    1
 79
    0
170
    0
171
    2
172
    0
173
    0
174
    0
175
    0
176
    0
177
    0
178
    0
179
    0
271
    2
272
    4
273
    2
274
    2
275
    0
276
    0
277
    2
278
    0
279
    0
280
    0
281
    0
282
    0
283
    1
284
    0
285
    0
286
    0
288
    0
289
    3
340
standard
341

371
   -2
372
   -2
  0
ENDTAB
  0
TABLE
  2
BLOCK_RECORD
  5
1
330
0
100
AcDbSymbolTable
 70
    2
  0
BLOCK_RECORD
  5
1F
330
1
100
AcDbSymbolTableRecord
100
AcDbBlockTableRecord
  2
*Model_Space
 70
    0
280
    1
281
    0
  0
BLOCK_RECORD
  5
1E
330
1
100
AcDbSymbolTableRecord
100
AcDbBlockTableRecord
  2
*Paper_Space
 70
    0
280
    1
281
    0
  0
ENDTAB
  0
ENDSEC
  0
SECTION
  2
BLOCKS
  0
BLOCK
  5
20
330
1F
100
AcDbEntity
  8
0
100
AcDbBlockBegin
  2
*Model_Space
 70
    0
 10
0
 20
0
 30
0
  3
*Model_Space
  1

  0
ENDBLK
  5
21
330
1F
100
AcDbEntity
  8
0
100
AcDbBlockEnd
  0
BLOCK
  5
1C
330
1B
100
AcDbEntity
  8
0
100
AcDbBlockBegin
  2
*Paper_Space
 70
    0
 10
0
 20
0
 30
0
  3
*Paper_Space
  1

  0
ENDBLK
  5
1D
330
1F
100
AcDbEntity
  8
0
100
AcDbBlockEnd
  0
ENDSEC
  0
SECTION
  2
ENTITIES
  0
HATCH
  5
53
100
AcDbEntity
  8
Die_body
  6
ByLayer
 62
  256
370
   -1
100
AcDbHatch
 10
0
 20
0
 30
0
210
0
220
0
230
1
  2
SOLID
 70
    1
 71
    0
 91
    1
 92
    0
 93
    6
 72
    1
 10
1.31650635094611
 20
0.4136751345948128
 11
1.56650635094611
 21
-0.01933756729740663
 72
    2
 10
1.35
 20
-0.1443375672974066
 40
0.25
 50
330.0000000000001
 51
90.0000000000001
 73
    0
 72
    1
 10
1.35
 20
-0.3943375672974065
 11
0.8499999999999996
 21
-0.3943375672974064
 72
    2
 10
0.8500000000000001
 20
-0.1443375672974063
 40
0.25
 50
90.00000000000016
 51
210
 73
    0
 72
    1
 10
0.6334936490538903
 20
-0.01933756729740613
 11
0.8834936490538906
 21
0.413675134594813
 72
    2
 10
1.1
 20
0.288675134594813
 40
0.25
 50
210
 51
330.0000000000001
 73
    0
 97
    0
 75
    0
 76
    1
 98
    0
  0
HATCH
  5
54
100
AcDbEntity
  8
Die_body
  6
ByLayer
 62
  256
370
   -1
100
AcDbHatch
 10
0
 20
0
 30
0
210
0
220
0
230
1
  2
SOLID
 70
    1
 71
    0
 91
    1
 92
    0
 93
   12
 72
    2
 10
1.100000000000001
 20
1.383012701892219
 40
0.25
 50
233.5961107159056
 51
306.4038892840953
 73
    0
 72
    2
 10
1.100000000000001
 20
1.383012701892219
 40
0.25
 50
306.4038892840953
 51
322.4316778410732
 73
    0
 72
    2
 10
1.100000000000001
 20
1.383012701892219
 40
0.25
 50
322.4316778410732
 51
330.0000000000001
 73
    0
 72
    1
 10
1.316506350946111
 20
1.508012701892219
 11
1.572754224442582
 21
1.063492534965891
 72
    2
 10
1.350000000000001
 20
0.9499999999999995
 40
0.25
 50
333.0013092251771
 51
86.99869077482316
 73
    0
 72
    1
 10
1.363089693800935
 20
0.7003429153494769
 11
0.8500000000000012
 21
0.7
 72
    2
 10
0.8500000000000005
 20
0.9500000000000001
 40
0.25
 50
89.99999999999984
 51
106.6183694740483
 73
    0
 72
    2
 10
0.8500000000000005
 20
0.9500000000000001
 40
0.25
 50
106.6183694740483
 51
193.3816305259521
 73
    0
 72
    2
 10
0.8500000000000005
 20
0.9500000000000001
 40
0.25
 50
193.3816305259521
 51
210.0000000000001
 73
    0
 72
    1
 10
0.6334936490538912
 20
1.075
 11
0.883493649053892
 21
1.50801270189222
 72
    2
 10
1.100000000000001
 20
1.383012701892219
 40
0.25
 50
210.0000000000001
 51
217.5683221589267
 73
    0
 72
    2
 10
1.100000000000001
 20
1.383012701892219
 40
0.25
 50
217.5683221589267
 51
233.5961107159056
 73
    0
 97
    0
 75
    0
 76
    1
 98
    0
  0
HATCH
  5
55
100
AcDbEntity
  8
Four
  6
ByLayer
 62
  256
370
   -1
100
AcDbHatch
 10
0
 20
0
 30
0
210
0
220
0
230
1
  2
SOLID
 70
    1
 71
    0
 91
    1
 92
    0
 93
    4
 72
    2
 10
1.100000000000001
 20
1.525869844749362
 40
0.0357142857142857
 50
0
 51
360
 73
    1
 72
    2
 10
1.100000000000001
 20
1.38301270189222
 40
0.0357142857142857
 50
0
 51
360
 73
    1
 72
    2
 10
0.9762820851736522
 20
1.311584130463648
 40
0.0357142857142857
 50
0
 51
360
 73
    1
 72
    2
 10
1.223717914826349
 20
1.311584130463648
 40
0.0357142857142857
 50
0
 51
360
 73
    1
 97
    0
 75
    0
 76
    1
 98
    0
  0
HATCH
  5
56
100
AcDbEntity
  8
Four
  6
ByLayer
 62
  256
370
   -1
100
AcDbHatch
 10
0
 20
0
 30
0
210
0
220
0
230
1
  2
SOLID
 70
    1
 71
    0
 91
    1
 92
    0
 93
    4
 72
    2
 10
1.1
 20
0.4315322774519559
 40
0.0357142857142857
 50
0
 51
360
 73
    1
 72
    2
 10
1.1
 20
0.2886751345948131
 40
0.0357142857142857
 50
0
 51
360
 73
    1
 72
    2
 10
0.9762820851736518
 20
0.2172465631662417
 40
0.0357142857142857
 50
0
 51
360
 73
    1
 72
    2
 10
1.223717914826348
 20
0.2172465631662416
 40
0.0357142857142857
 50
0
 51
360
 73
    1
 97
    0
 75
    0
 76
    1
 98
    0
  0
HATCH
  5
57
100
AcDbEntity
  8
Two
  6
ByLayer
 62
  256
370
   -1
100
AcDbHatch
 10
0
 20
0
 30
0
210
0
220
0
230
1
  2
SOLID
 70
    1
 71
    0
 91
    1
 92
    0
 93
    6
 72
    1
 10
0.6401923788646688
 20
1.086602540378443
 11
0.8633974596215551
 21
0.7
 72
    1
 10
0.8633974596215551
 20
0.7
 11
0.8500000000000012
 21
0.7
 72
    2
 10
0.8500000000000005
 20
0.9500000000000001
 40
0.25
 50
89.99999999999984
 51
106.6183694740483
 73
    0
 72
    1
 10
0.7785011003967581
 20
0.7104422671765227
 11
0.6067874679002421
 21
1.007859003012699
 72
    2
 10
0.8500000000000005
 20
0.9500000000000001
 40
0.25
 50
193.3816305259521
 51
210.0000000000001
 73
    0
 72
    1
 10
0.6334936490538913
 20
1.075
 11
0.6401923788646688
 21
1.086602540378443
 97
    0
 75
    0
 76
    1
 98
    0
  0
HATCH
  5
58
100
AcDbEntity
  8
Two
  6
ByLayer
 62
  256
370
   -1
100
AcDbHatch
 10
0
 20
0
 30
0
210
0
220
0
230
1
  2
SOLID
 70
    1
 71
    0
 91
    1
 92
    0
 93
    4
 72
    1
 10
0.7190598923241509
 20
1.223205080756888
 11
1.021132486540519
 21
0.7
 72
    1
 10
1.021132486540519
 20
0.7
 11
0.9422649730810368
 21
0.7000000000000001
 72
    1
 10
0.9422649730810368
 20
0.7000000000000001
 11
0.6796261355944098
 21
1.154903810567665
 72
    1
 10
0.6796261355944098
 20
1.154903810567665
 11
0.7190598923241509
 21
1.223205080756888
 97
    0
 75
    0
 76
    1
 98
    0
  0
HATCH
  5
59
100
AcDbEntity
  8
One
  6
ByLayer
 62
  256
370
   -1
100
AcDbHatch
 10
0
 20
0
 30
0
210
0
220
0
230
1
  2
SOLID
 70
    1
 71
    0
 91
    1
 92
    0
 93
    6
 72
    1
 10
1.363089693800935
 20
0.7003429153494769
 11
1.572754224442582
 21
1.063492534965891
 72
    2
 10
1.350000000000001
 20
0.9499999999999995
 40
0.25
 50
26.99869077482293
 51
29.99999999999996
 73
    1
 72
    1
 10
1.566506350946111
 20
1.074999999999999
 11
1.507229278829012
 21
1.177670900630739
 72
    1
 10
1.507229278829012
 20
1.177670900630739
 11
1.231445855765803
 21
0.7
 72
    1
 10
1.231445855765803
 20
0.7
 11
1.35
 21
0.6999999999999995
 72
    2
 10
1.350000000000001
 20
0.9499999999999995
 40
0.25
 50
269.9999999999999
 51
273.0013092251768
 73
    1
 97
    0
 75
    0
 76
    1
 98
    0
  0
HATCH
  5
5A
100
AcDbEntity
  8
Die_body
  6
ByLayer
 62
  256
370
   -1
100
AcDbHatch
 10
0
 20
0
 30
0
210
0
220
0
230
1
  2
SOLID
 70
    1
 71
    0
 91
    1
 92
    0
 93
   12
 72
    2
 10
1.257445191043296e-15
 20
1.383012701892219
 40
0.25
 50
233.5961107159056
 51
306.4038892840953
 73
    0
 72
    2
 10
1.257445191043296e-15
 20
1.383012701892219
 40
0.25
 50
306.4038892840953
 51
322.4316778410732
 73
    0
 72
    2
 10
1.257445191043296e-15
 20
1.383012701892219
 40
0.25
 50
322.4316778410732
 51
330.0000000000001
 73
    0
 72
    1
 10
0.216506350946111
 20
1.508012701892219
 11
0.4727542244425821
 21
1.063492534965891
 72
    2
 10
0.2500000000000007
 20
0.9499999999999997
 40
0.25
 50
333.0013092251771
 51
86.99869077482316
 73
    0
 72
    1
 10
0.2630896938009347
 20
0.7003429153494771
 11
-0.2499999999999989
 21
0.7000000000000002
 72
    2
 10
-0.2499999999999995
 20
0.9500000000000003
 40
0.25
 50
89.99999999999984
 51
106.6183694740483
 73
    0
 72
    2
 10
-0.2499999999999995
 20
0.9500000000000003
 40
0.25
 50
106.6183694740483
 51
193.3816305259521
 73
    0
 72
    2
 10
-0.2499999999999995
 20
0.9500000000000003
 40
0.25
 50
193.3816305259521
 51
210.0000000000001
 73
    0
 72
    1
 10
-0.4665063509461089
 20
1.075000000000001
 11
-0.2165063509461081
 21
1.50801270189222
 72
    2
 10
1.257445191043296e-15
 20
1.383012701892219
 40
0.25
 50
210.0000000000001
 51
217.5683221589267
 73
    0
 72
    2
 10
1.257445191043296e-15
 20
1.383012701892219
 40
0.25
 50
217.5683221589267
 51
233.5961107159056
 73
    0
 97
    0
 75
    0
 76
    1
 98
    0
  0
HATCH
  5
5B
100
AcDbEntity
  8
One
  6
ByLayer
 62
  256
370
   -1
100
AcDbHatch
 10
0
 20
0
 30
0
210
0
220
0
230
1
  2
SOLID
 70
    1
 71
    0
 91
    1
 92
    0
 93
    6
 72
    1
 10
0.2630896938009347
 20
0.7003429153494771
 11
0.4727542244425821
 21
1.063492534965891
 72
    2
 10
0.2500000000000007
 20
0.9499999999999997
 40
0.25
 50
26.99869077482293
 51
29.99999999999996
 73
    1
 72
    1
 10
0.4665063509461105
 20
1.075
 11
0.4072292788290118
 21
1.177670900630739
 72
    1
 10
0.4072292788290118
 20
1.177670900630739
 11
0.1314458557658024
 21
0.7000000000000002
 72
    1
 10
0.1314458557658024
 20
0.7000000000000002
 11
0.2500000000000002
 21
0.6999999999999997
 72
    2
 10
0.2500000000000007
 20
0.9499999999999997
 40
0.25
 50
269.9999999999999
 51
273.0013092251768
 73
    1
 97
    0
 75
    0
 76
    1
 98
    0
  0
HATCH
  5
5C
100
AcDbEntity
  8
Three
  6
ByLayer
 62
  256
370
   -1
100
AcDbHatch
 10
0
 20
0
 30
0
210
0
220
0
230
1
  2
SOLID
 70
    1
 71
    0
 91
    1
 92
    0
 93
    4
 72
    1
 10
0.3133393818534391
 20
1.340292972509839
 11
-0.3133393818534366
 21
1.34029297250984
 72
    1
 10
-0.3133393818534366
 20
1.34029297250984
 11
-0.2851724127607643
 21
1.38907959407357
 72
    1
 10
-0.2851724127607643
 20
1.38907959407357
 11
0.2851724127607674
 21
1.389079594073569
 72
    1
 10
0.2851724127607674
 20
1.389079594073569
 11
0.3133393818534391
 21
1.340292972509839
 97
    0
 75
    0
 76
    1
 98
    0
  0
HATCH
  5
5D
100
AcDbEntity
  8
Three
  6
ByLayer
 62
  256
370
   -1
100
AcDbHatch
 10
0
 20
0
 30
0
210
0
220
0
230
1
  2
SOLID
 70
    1
 71
    0
 91
    1
 92
    0
 93
    4
 72
    1
 10
0.2570054436680954
 20
1.437866215637299
 11
-0.2570054436680925
 21
1.4378662156373
 72
    1
 10
-0.2570054436680925
 20
1.4378662156373
 11
-0.2288384745754205
 21
1.48665283720103
 72
    1
 10
-0.2288384745754205
 20
1.48665283720103
 11
0.2288384745754235
 21
1.486652837201029
 72
    1
 10
0.2288384745754235
 20
1.486652837201029
 11
0.2570054436680954
 21
1.437866215637299
 97
    0
 75
    0
 76
    1
 98
    0
  0
HATCH
  5
5E
100
AcDbEntity
  8
Three
  6
ByLayer
 62
  256
370
   -1
100
AcDbHatch
 10
0
 20
0
 30
0
210
0
220
0
230
1
  2
SOLID
 70
    1
 71
    0
 91
    1
 92
    0
 93
    4
 72
    1
 10
0.1981567152264105
 20
1.535439458764759
 11
-0.1981567152264083
 21
1.53543945876476
 72
    2
 10
1.257445191043296e-15
 20
1.383012701892219
 40
0.25
 50
217.5683221589267
 51
233.5961107159056
 73
    0
 72
    1
 10
-0.1483683805204537
 20
1.58422608032849
 11
0.1483683805204608
 21
1.584226080328489
 72
    2
 10
1.257445191043296e-15
 20
1.383012701892219
 40
0.25
 50
306.4038892840953
 51
322.4316778410732
 73
    0
 97
    0
 75
    0
 76
    1
 98
    0
  0
HATCH
  5
5F
100
AcDbEntity
  8
Two
  6
ByLayer
 62
  256
370
   -1
100
AcDbHatch
 10
0
 20
0
 30
0
210
0
220
0
230
1
  2
SOLID
 70
    1
 71
    0
 91
    1
 92
    0
 93
    4
 72
    1
 10
-0.3809401076758492
 20
1.223205080756888
 11
-0.07886751345948127
 21
0.7000000000000002
 72
    1
 10
-0.07886751345948127
 20
0.7000000000000002
 11
-0.1577350269189633
 21
0.7000000000000003
 72
    1
 10
-0.1577350269189633
 20
0.7000000000000003
 11
-0.4203738644055903
 21
1.154903810567665
 72
    1
 10
-0.4203738644055903
 20
1.154903810567665
 11
-0.3809401076758492
 21
1.223205080756888
 97
    0
 75
    0
 76
    1
 98
    0
  0
HATCH
  5
60
100
AcDbEntity
  8
Two
  6
ByLayer
 62
  256
370
   -1
100
AcDbHatch
 10
0
 20
0
 30
0
210
0
220
0
230
1
  2
SOLID
 70
    1
 71
    0
 91
    1
 92
    0
 93
    6
 72
    1
 10
-0.4598076211353313
 20
1.086602540378443
 11
-0.236602540378445
 21
0.7000000000000002
 72
    1
 10
-0.236602540378445
 20
0.7000000000000002
 11
-0.2499999999999989
 21
0.7000000000000002
 72
    2
 10
-0.2499999999999995
 20
0.9500000000000003
 40
0.25
 50
89.99999999999984
 51
106.6183694740483
 73
    0
 72
    1
 10
-0.3214988996032419
 20
0.7104422671765229
 11
-0.4932125320997581
 21
1.0078590030127
 72
    2
 10
-0.2499999999999995
 20
0.9500000000000003
 40
0.25
 50
193.3816305259521
 51
210.0000000000001
 73
    0
 72
    1
 10
-0.4665063509461088
 20
1.075
 11
-0.4598076211353313
 21
1.086602540378443
 97
    0
 75
    0
 76
    1
 98
    0
  0
HATCH
  5
61
100
AcDbEntity
  8
Die_body
  6
ByLayer
 62
  256
370
   -1
100
AcDbHatch
 10
0
 20
0
 30
0
210
0
220
0
230
1
  2
SOLID
 70
    1
 71
    0
 91
    1
 92
    0
 93
    6
 72
    1
 10
0.2165063509461098
 20
0.4136751345948128
 11
0.4665063509461096
 21
-0.01933756729740663
 72
    2
 10
0.25
 20
-0.1443375672974066
 40
0.25
 50
330.0000000000001
 51
90.0000000000001
 73
    0
 72
    1
 10
0.2499999999999996
 20
-0.3943375672974065
 11
-0.2500000000000004
 21
-0.3943375672974064
 72
    2
 10
-0.25
 20
-0.1443375672974063
 40
0.25
 50
90.00000000000016
 51
210
 73
    0
 72
    1
 10
-0.4665063509461098
 20
-0.01933756729740613
 11
-0.2165063509461095
 21
0.413675134594813
 72
    2
 10
0
 20
0.288675134594813
 40
0.25
 50
210
 51
330.0000000000001
 73
    0
 97
    0
 75
    0
 76
    1
 98
    0
  0
HATCH
  5
62
100
AcDbEntity
  8
Three
  6
ByLayer
 62
  256
370
   -1
100
AcDbHatch
 10
0
 20
0
 30
0
210
0
220
0
230
1
  2
SOLID
 70
    1
 71
    0
 91
    1
 92
    0
 93
    3
 72
    2
 10
0
 20
0.4315322774519559
 40
0.0357142857142857
 50
0
 51
360
 73
    1
 72
    2
 10
-0.1237179148263483
 20
0.2172465631662417
 40
0.0357142857142857
 50
0
 51
360
 73
    1
 72
    2
 10
0.1237179148263483
 20
0.2172465631662416
 40
0.0357142857142857
 50
0
 51
360
 73
    1
 97
    0
 75
    0
 76
    1
 98
    0
  0
HATCH
  5
63
100
AcDbEntity
  8
Two
  6
ByLayer
 62
  256
370
   -1
100
AcDbHatch
 10
0
 20
0
 30
0
210
0
220
0
230
1
  2
SOLID
 70
    1
 71
    0
 91
    1
 92
    0
 93
    2
 72
    2
 10
-0.2000000000000001
 20
-0.2309401076758502
 40
0.04999999999999993
 50
0
 51
360
 73
    1
 72
    2
 10
-0.3
 20
-0.05773502691896235
 40
0.04999999999999999
 50
0
 51
360
 73
    1
 97
    0
 75
    0
 76
    1
 98
    0
  0
HATCH
  5
64
100
AcDbEntity
  8
Two
  6
ByLayer
 62
  256
370
   -1
100
AcDbHatch
 10
0
 20
0
 30
0
210
0
220
0
230
1
  2
SOLID
 70
    1
 71
    0
 91
    1
 92
    0
 93
    2
 72
    2
 10
0.9
 20
-0.2309401076758502
 40
0.04999999999999993
 50
0
 51
360
 73
    1
 72
    2
 10
0.8
 20
-0.05773502691896235
 40
0.04999999999999999
 50
0
 51
360
 73
    1
 97
    0
 75
    0
 76
    1
 98
    0
  0
HATCH
  5
65
100
AcDbEntity
  8
One
  6
ByLayer
 62
  256
370
   -1
100
AcDbHatch
 10
0
 20
0
 30
0
210
0
220
0
230
1
  2
SOLID
 70
    1
 71
    0
 91
    1
 92
    0
 93
    1
 72
    2
 10
0.25
 20
-0.1443375672974066
 40
0.08333333333333334
 50
0
 51
360
 73
    1
 97
    0
 75
    0
 76
    1
 98
    0
  0
HATCH
  5
66
100
AcDbEntity
  8
One
  6
ByLayer
 62
  256
370
   -1
100
AcDbHatch
 10
0
 20
0
 30
0
210
0
220
0
230
1
  2
SOLID
 70
    1
 71
    0
 91
    1
 92
    0
 93
    1
 72
    2
 10
1.35
 20
-0.1443375672974066
 40
0.08333333333333334
 50
0
 51
360
 73
    1
 97
    0
 75
    0
 76
    1
 98
    0
  0
CIRCLE
  5
67
100
AcDbEntity
  8
Draw_template
  6
ByLayer
 62
  256
370
   -1
100
AcDbCircle
 10
2.2
 20
0.288675134594813
 40
0.25
  0
CIRCLE
  5
68
100
AcDbEntity
  8
Draw_template
  6
ByLayer
 62
  256
370
   -1
100
AcDbCircle
 10
1.95
 20
-0.1443375672974063
 40
0.25
  0
CIRCLE
  5
69
100
AcDbEntity
  8
Draw_template
  6
ByLayer
 62
  256
370
   -1
100
AcDbCircle
 10
2.45
 20
-0.1443375672974066
 40
0.25
  0
LINE
  5
6A
100
AcDbEntity
  8
Draw_template
  6
ByLayer
 62
  256
370
   -1
100
AcDbLine
 10
2.41650635094611
 20
0.4136751345948128
 11
2.66650635094611
 21
-0.01933756729740663
  0
LINE
  5
6B
100
AcDbEntity
  8
Draw_template
  6
ByLayer
 62
  256
370
   -1
100
AcDbLine
 10
2.449999999999999
 20
-0.3943375672974065
 11
1.95
 21
-0.3943375672974064
  0
LINE
  5
6C
100
AcDbEntity
  8
Draw_template
  6
ByLayer
 62
  256
370
   -1
100
AcDbLine
 10
1.73349364905389
 20
-0.01933756729740613
 11
1.98349364905389
 21
0.413675134594813
  0
CIRCLE
  5
6D
100
AcDbEntity
  8
One
  6
ByLayer
 62
  256
370
   -1
100
AcDbCircle
 10
0.25
 20
-0.1443375672974066
 40
0.08333333333333334
  0
CIRCLE
  5
6E
100
AcDbEntity
  8
One
  6
ByLayer
 62
  256
370
   -1
100
AcDbCircle
 10
1.35
 20
-0.1443375672974066
 40
0.08333333333333334
  0
CIRCLE
  5
6F
100
AcDbEntity
  8
Two
  6
ByLayer
 62
  256
370
   -1
100
AcDbCircle
 10
-0.2000000000000001
 20
-0.2309401076758502
 40
0.04999999999999993
  0
CIRCLE
  5
70
100
AcDbEntity
  8
Two
  6
ByLayer
 62
  256
370
   -1
100
AcDbCircle
 10
-0.3
 20
-0.05773502691896235
 40
0.04999999999999999
  0
CIRCLE
  5
71
100
AcDbEntity
  8
Two
  6
ByLayer
 62
  256
370
   -1
100
AcDbCircle
 10
0.9
 20
-0.2309401076758502
 40
0.04999999999999993
  0
CIRCLE
  5
72
100
AcDbEntity
  8
Two
  6
ByLayer
 62
  256
370
   -1
100
AcDbCircle
 10
0.8
 20
-0.05773502691896235
 40
0.04999999999999999
  0
CIRCLE
  5
73
100
AcDbEntity
  8
Three
  6
ByLayer
 62
  256
370
   -1
100
AcDbCircle
 10
0
 20
0.4315322774519559
 40
0.0357142857142857
  0
CIRCLE
  5
74
100
AcDbEntity
  8
Three
  6
ByLayer
 62
  256
370
   -1
100
AcDbCircle
 10
-0.1237179148263483
 20
0.2172465631662417
 40
0.0357142857142857
  0
CIRCLE
  5
75
100
AcDbEntity
  8
Three
  6
ByLayer
 62
  256
370
   -1
100
AcDbCircle
 10
0.1237179148263483
 20
0.2172465631662416
 40
0.0357142857142857
  0
LINE
  5
76
100
AcDbEntity
  8
Die_body
  6
ByLayer
 62
  256
370
   -1
100
AcDbLine
 10
0.2165063509461098
 20
0.4136751345948128
 11
0.4665063509461096
 21
-0.01933756729740663
  0
LINE
  5
77
100
AcDbEntity
  8
Die_body
  6
ByLayer
 62
  256
370
   -1
100
AcDbLine
 10
0.2499999999999996
 20
-0.3943375672974065
 11
-0.2500000000000004
 21
-0.3943375672974064
  0
LINE
  5
78
100
AcDbEntity
  8
Die_body
  6
ByLayer
 62
  256
370
   -1
100
AcDbLine
 10
-0.4665063509461098
 20
-0.01933756729740613
 11
-0.2165063509461095
 21
0.413675134594813
  0
ARC
  5
79
100
AcDbEntity
  8
Die_body
  6
ByLayer
 62
  256
370
   -1
100
AcDbCircle
 10
-0.25
 20
-0.1443375672974063
 40
0.25
100
AcDbArc
 50
150
 51
269.9999999999998
  0
ARC
  5
7A
100
AcDbEntity
  8
Die_body
  6
ByLayer
 62
  256
370
   -1
100
AcDbCircle
 10
0.25
 20
-0.1443375672974066
 40
0.25
100
AcDbArc
 50
269.9999999999999
 51
29.99999999999996
  0
ARC
  5
7B
100
AcDbEntity
  8
Die_body
  6
ByLayer
 62
  256
370
   -1
100
AcDbCircle
 10
0
 20
0.288675134594813
 40
0.25
100
AcDbArc
 50
29.99999999999994
 51
150
  0
LINE
  5
7C
100
AcDbEntity
  8
Die_body
  6
ByLayer
 62
  256
370
   -1
100
AcDbLine
 10
1.31650635094611
 20
0.4136751345948128
 11
1.56650635094611
 21
-0.01933756729740663
  0
LINE
  5
7D
100
AcDbEntity
  8
Die_body
  6
ByLayer
 62
  256
370
   -1
100
AcDbLine
 10
1.35
 20
-0.3943375672974065
 11
0.8499999999999996
 21
-0.3943375672974064
  0
LINE
  5
7E
100
AcDbEntity
  8
Die_body
  6
ByLayer
 62
  256
370
   -1
100
AcDbLine
 10
0.6334936490538903
 20
-0.01933756729740613
 11
0.8834936490538906
 21
0.413675134594813
  0
ARC
  5
7F
100
AcDbEntity
  8
Die_body
  6
ByLayer
 62
  256
370
   -1
100
AcDbCircle
 10
0.8500000000000001
 20
-0.1443375672974063
 40
0.25
100
AcDbArc
 50
150
 51
269.9999999999998
  0
ARC
  5
80
100
AcDbEntity
  8
Die_body
  6
ByLayer
 62
  256
370
   -1
100
AcDbCircle
 10
1.35
 20
-0.1443375672974066
 40
0.25
100
AcDbArc
 50
269.9999999999999
 51
29.99999999999996
  0
ARC
  5
81
100
AcDbEntity
  8
Die_body
  6
ByLayer
 62
  256
370
   -1
100
AcDbCircle
 10
1.1
 20
0.288675134594813
 40
0.25
100
AcDbArc
 50
29.99999999999994
 51
150
  0
CIRCLE
  5
82
100
AcDbEntity
  8
Draw_template
  6
ByLayer
 62
  256
370
   -1
100
AcDbCircle
 10
2.200000000000001
 20
1.383012701892219
 40
0.25
  0
CIRCLE
  5
83
100
AcDbEntity
  8
Draw_template
  6
ByLayer
 62
  256
370
   -1
100
AcDbCircle
 10
1.950000000000001
 20
0.9500000000000002
 40
0.25
  0
CIRCLE
  5
84
100
AcDbEntity
  8
Draw_template
  6
ByLayer
 62
  256
370
   -1
100
AcDbCircle
 10
2.450000000000001
 20
0.95
 40
0.25
  0
LINE
  5
85
100
AcDbEntity
  8
Draw_template
  6
ByLayer
 62
  256
370
   -1
100
AcDbLine
 10
2.41650635094611
 20
1.508012701892219
 11
2.66650635094611
 21
1.075
  0
LINE
  5
86
100
AcDbEntity
  8
Draw_template
  6
ByLayer
 62
  256
370
   -1
100
AcDbLine
 10
2.45
 20
0.7
 11
1.95
 21
0.7000000000000001
  0
LINE
  5
87
100
AcDbEntity
  8
Draw_template
  6
ByLayer
 62
  256
370
   -1
100
AcDbLine
 10
1.733493649053891
 20
1.075
 11
1.983493649053891
 21
1.508012701892219
  0
LINE
  5
88
100
AcDbEntity
  8
Three
  6
ByLayer
 62
  256
370
   -1
100
AcDbLine
 10
0.3133393818534391
 20
1.340292972509839
 11
-0.3133393818534366
 21
1.34029297250984
  0
LINE
  5
89
100
AcDbEntity
  8
Three
  6
ByLayer
 62
  256
370
   -1
100
AcDbLine
 10
0.2851724127607674
 20
1.389079594073569
 11
-0.2851724127607643
 21
1.38907959407357
  0
LINE
  5
8A
100
AcDbEntity
  8
Three
  6
ByLayer
 62
  256
370
   -1
100
AcDbLine
 10
0.2570054436680954
 20
1.437866215637299
 11
-0.2570054436680925
 21
1.4378662156373
  0
LINE
  5
8B
100
AcDbEntity
  8
Three
  6
ByLayer
 62
  256
370
   -1
100
AcDbLine
 10
0.2288384745754235
 20
1.486652837201029
 11
-0.2288384745754205
 21
1.48665283720103
  0
LINE
  5
8C
100
AcDbEntity
  8
Three
  6
ByLayer
 62
  256
370
   -1
100
AcDbLine
 10
0.1981567152264105
 20
1.535439458764759
 11
-0.1981567152264083
 21
1.53543945876476
  0
LINE
  5
8D
100
AcDbEntity
  8
Three
  6
ByLayer
 62
  256
370
   -1
100
AcDbLine
 10
0.1483683805204608
 20
1.584226080328489
 11
-0.1483683805204537
 21
1.58422608032849
  0
LINE
  5
8E
100
AcDbEntity
  8
Two
  6
ByLayer
 62
  256
370
   -1
100
AcDbLine
 10
-0.3809401076758492
 20
1.223205080756888
 11
-0.07886751345948127
 21
0.7000000000000002
  0
LINE
  5
8F
100
AcDbEntity
  8
Two
  6
ByLayer
 62
  256
370
   -1
100
AcDbLine
 10
-0.4203738644055903
 20
1.154903810567665
 11
-0.1577350269189633
 21
0.7000000000000003
  0
LINE
  5
90
100
AcDbEntity
  8
Two
  6
ByLayer
 62
  256
370
   -1
100
AcDbLine
 10
-0.4598076211353313
 20
1.086602540378443
 11
-0.236602540378445
 21
0.7000000000000002
  0
LINE
  5
91
100
AcDbEntity
  8
Two
  6
ByLayer
 62
  256
370
   -1
100
AcDbLine
 10
-0.4932125320997581
 20
1.0078590030127
 11
-0.3214988996032419
 21
0.7104422671765229
  0
LINE
  5
92
100
AcDbEntity
  8
One
  6
ByLayer
 62
  256
370
   -1
100
AcDbLine
 10
0.2630896938009347
 20
0.7003429153494771
 11
0.4727542244425821
 21
1.063492534965891
  0
LINE
  5
93
100
AcDbEntity
  8
One
  6
ByLayer
 62
  256
370
   -1
100
AcDbLine
 10
0.1314458557658024
 20
0.7000000000000002
 11
0.4072292788290118
 21
1.177670900630739
  0
ARC
  5
94
100
AcDbEntity
  8
Die_body
  6
ByLayer
 62
  256
370
   -1
100
AcDbCircle
 10
1.257445191043296e-15
 20
1.383012701892219
 40
0.25
100
AcDbArc
 50
53.59611071590465
 51
126.4038892840944
  0
ARC
  5
95
100
AcDbEntity
  8
Die_body
  6
ByLayer
 62
  256
370
   -1
100
AcDbCircle
 10
1.257445191043296e-15
 20
1.383012701892219
 40
0.25
100
AcDbArc
 50
29.99999999999996
 51
37.56832215892675
  0
ARC
  5
96
100
AcDbEntity
  8
Die_body
  6
ByLayer
 62
  256
370
   -1
100
AcDbCircle
 10
1.257445191043296e-15
 20
1.383012701892219
 40
0.25
100
AcDbArc
 50
142.4316778410733
 51
149.9999999999999
  0
ARC
  5
97
100
AcDbEntity
  8
Die_body
  6
ByLayer
 62
  256
370
   -1
100
AcDbCircle
 10
1.257445191043296e-15
 20
1.383012701892219
 40
0.25
100
AcDbArc
 50
37.56832215892675
 51
53.59611071590465
  0
ARC
  5
98
100
AcDbEntity
  8
Die_body
  6
ByLayer
 62
  256
370
   -1
100
AcDbCircle
 10
1.257445191043296e-15
 20
1.383012701892219
 40
0.25
100
AcDbArc
 50
126.4038892840944
 51
142.4316778410733
  0
ARC
  5
99
100
AcDbEntity
  8
Die_body
  6
ByLayer
 62
  256
370
   -1
100
AcDbCircle
 10
-0.2499999999999995
 20
0.9500000000000003
 40
0.25
100
AcDbArc
 50
166.6183694740479
 51
253.3816305259517
  0
ARC
  5
9A
100
AcDbEntity
  8
Die_body
  6
ByLayer
 62
  256
370
   -1
100
AcDbCircle
 10
-0.2499999999999995
 20
0.9500000000000003
 40
0.25
100
AcDbArc
 50
149.9999999999999
 51
166.6183694740479
  0
ARC
  5
9B
100
AcDbEntity
  8
Die_body
  6
ByLayer
 62
  256
370
   -1
100
AcDbCircle
 10
-0.2499999999999995
 20
0.9500000000000003
 40
0.25
100
AcDbArc
 50
253.3816305259517
 51
270.0000000000002
  0
LINE
  5
9C
100
AcDbEntity
  8
Die_body
  6
ByLayer
 62
  256
370
   -1
100
AcDbLine
 10
-0.4665063509461089
 20
1.075000000000001
 11
-0.2165063509461081
 21
1.50801270189222
  0
LINE
  5
9D
100
AcDbEntity
  8
Die_body
  6
ByLayer
 62
  256
370
   -1
100
AcDbLine
 10
-0.2499999999999989
 20
0.7000000000000002
 11
0.2630896938009347
 21
0.7003429153494771
  0
LINE
  5
9E
100
AcDbEntity
  8
Die_body
  6
ByLayer
 62
  256
370
   -1
100
AcDbLine
 10
0.216506350946111
 20
1.508012701892219
 11
0.4727542244425821
 21
1.063492534965891
  0
ARC
  5
9F
100
AcDbEntity
  8
Die_body
  6
ByLayer
 62
  256
370
   -1
100
AcDbCircle
 10
0.2500000000000007
 20
0.9499999999999997
 40
0.25
100
AcDbArc
 50
273.0013092251768
 51
26.99869077482293
  0
LINE
  5
A0
100
AcDbEntity
  8
Two
  6
ByLayer
 62
  256
370
   -1
100
AcDbLine
 10
0.7190598923241509
 20
1.223205080756888
 11
1.021132486540519
 21
0.7
  0
LINE
  5
A1
100
AcDbEntity
  8
Two
  6
ByLayer
 62
  256
370
   -1
100
AcDbLine
 10
0.6796261355944098
 20
1.154903810567665
 11
0.9422649730810368
 21
0.7000000000000001
  0
LINE
  5
A2
100
AcDbEntity
  8
Two
  6
ByLayer
 62
  256
370
   -1
100
AcDbLine
 10
0.6401923788646688
 20
1.086602540378443
 11
0.8633974596215551
 21
0.7
  0
LINE
  5
A3
100
AcDbEntity
  8
Two
  6
ByLayer
 62
  256
370
   -1
100
AcDbLine
 10
0.6067874679002421
 20
1.007859003012699
 11
0.7785011003967581
 21
0.7104422671765227
  0
LINE
  5
A4
100
AcDbEntity
  8
One
  6
ByLayer
 62
  256
370
   -1
100
AcDbLine
 10
1.363089693800935
 20
0.7003429153494769
 11
1.572754224442582
 21
1.063492534965891
  0
LINE
  5
A5
100
AcDbEntity
  8
One
  6
ByLayer
 62
  256
370
   -1
100
AcDbLine
 10
1.231445855765803
 20
0.7
 11
1.507229278829012
 21
1.177670900630739
  0
ARC
  5
A6
100
AcDbEntity
  8
Die_body
  6
ByLayer
 62
  256
370
   -1
100
AcDbCircle
 10
1.100000000000001
 20
1.383012701892219
 40
0.25
100
AcDbArc
 50
53.59611071590465
 51
126.4038892840944
  0
ARC
  5
A7
100
AcDbEntity
  8
Die_body
  6
ByLayer
 62
  256
370
   -1
100
AcDbCircle
 10
1.100000000000001
 20
1.383012701892219
 40
0.25
100
AcDbArc
 50
29.99999999999996
 51
37.56832215892675
  0
ARC
  5
A8
100
AcDbEntity
  8
Die_body
  6
ByLayer
 62
  256
370
   -1
100
AcDbCircle
 10
1.100000000000001
 20
1.383012701892219
 40
0.25
100
AcDbArc
 50
142.4316778410733
 51
149.9999999999999
  0
ARC
  5
A9
100
AcDbEntity
  8
Die_body
  6
ByLayer
 62
  256
370
   -1
100
AcDbCircle
 10
1.100000000000001
 20
1.383012701892219
 40
0.25
100
AcDbArc
 50
37.56832215892675
 51
53.59611071590465
  0
ARC
  5
AA
100
AcDbEntity
  8
Die_body
  6
ByLayer
 62
  256
370
   -1
100
AcDbCircle
 10
1.100000000000001
 20
1.383012701892219
 40
0.25
100
AcDbArc
 50
126.4038892840944
 51
142.4316778410733
  0
ARC
  5
AB
100
AcDbEntity
  8
Die_body
  6
ByLayer
 62
  256
370
   -1
100
AcDbCircle
 10
0.8500000000000005
 20
0.9500000000000001
 40
0.25
100
AcDbArc
 50
166.6183694740479
 51
253.3816305259517
  0
ARC
  5
AC
100
AcDbEntity
  8
Die_body
  6
ByLayer
 62
  256
370
   -1
100
AcDbCircle
 10
0.8500000000000005
 20
0.9500000000000001
 40
0.25
100
AcDbArc
 50
149.9999999999999
 51
166.6183694740479
  0
ARC
  5
AD
100
AcDbEntity
  8
Die_body
  6
ByLayer
 62
  256
370
   -1
100
AcDbCircle
 10
0.8500000000000005
 20
0.9500000000000001
 40
0.25
100
AcDbArc
 50
253.3816305259517
 51
270.0000000000002
  0
LINE
  5
AE
100
AcDbEntity
  8
Die_body
  6
ByLayer
 62
  256
370
   -1
100
AcDbLine
 10
0.6334936490538912
 20
1.075
 11
0.883493649053892
 21
1.50801270189222
  0
LINE
  5
AF
100
AcDbEntity
  8
Die_body
  6
ByLayer
 62
  256
370
   -1
100
AcDbLine
 10
0.8500000000000012
 20
0.7
 11
1.363089693800935
 21
0.7003429153494769
  0
LINE
  5
B0
100
AcDbEntity
  8
Die_body
  6
ByLayer
 62
  256
370
   -1
100
AcDbLine
 10
1.316506350946111
 20
1.508012701892219
 11
1.572754224442582
 21
1.063492534965891
  0
ARC
  5
B1
100
AcDbEntity
  8
Die_body
  6
ByLayer
 62
  256
370
   -1
100
AcDbCircle
 10
1.350000000000001
 20
0.9499999999999995
 40
0.25
100
AcDbArc
 50
273.0013092251768
 51
26.99869077482293
  0
CIRCLE
  5
B2
100
AcDbEntity
  8
Four
  6
ByLayer
 62
  256
370
   -1
100
AcDbCircle
 10
1.1
 20
0.4315322774519559
 40
0.0357142857142857
  0
CIRCLE
  5
B3
100
AcDbEntity
  8
Four
  6
ByLayer
 62
  256
370
   -1
100
AcDbCircle
 10
1.1
 20
0.2886751345948131
 40
0.0357142857142857
  0
CIRCLE
  5
B4
100
AcDbEntity
  8
Four
  6
ByLayer
 62
  256
370
   -1
100
AcDbCircle
 10
0.9762820851736518
 20
0.2172465631662417
 40
0.0357142857142857
  0
CIRCLE
  5
B5
100
AcDbEntity
  8
Four
  6
ByLayer
 62
  256
370
   -1
100
AcDbCircle
 10
1.223717914826348
 20
0.2172465631662416
 40
0.0357142857142857
  0
CIRCLE
  5
B6
100
AcDbEntity
  8
Four
  6
ByLayer
 62
  256
370
   -1
100
AcDbCircle
 10
1.100000000000001
 20
1.525869844749362
 40
0.0357142857142857
  0
CIRCLE
  5
B7
100
AcDbEntity
  8
Four
  6
ByLayer
 62
  256
370
   -1
100
AcDbCircle
 10
1.100000000000001
 20
1.38301270189222
 40
0.0357142857142857
  0
CIRCLE
  5
B8
100
AcDbEntity
  8
Four
  6
ByLayer
 62
  256
370
   -1
100
AcDbCircle
 10
0.9762820851736522
 20
1.311584130463648
 40
0.0357142857142857
  0
CIRCLE
  5
B9
100
AcDbEntity
  8
Four
  6
ByLayer
 62
  256
370
   -1
100
AcDbCircle
 10
1.223717914826349
 20
1.311584130463648
 40
0.0357142857142857
  0
ENDSEC
  0
SECTION
  2
OBJECTS
  0
DICTIONARY
  5
C
330
0
100
AcDbDictionary
281
    1
  3
ACAD_GROUP
350
D
  0
DICTIONARY
  5
D
330
C
100
AcDbDictionary
281
    1
  0
ENDSEC
  0
EOF
